<svg width="56" height="56" fill="none" xmlns="http://www.w3.org/2000/svg"><g style="mix-blend-mode:luminosity"><path d="M4.524 30.473a3.498 3.498 0 010-4.946L25.527 4.524a3.498 3.498 0 014.946 0l21.003 21.003a3.497 3.497 0 010 4.946L30.473 51.476a3.497 3.497 0 01-4.946 0L4.524 30.473z" fill="#EE513B"/><path d="M21.262 8.858l-2.127 2.127 5.493 5.493a3.72 3.72 0 002.06 5.05v13.437a3.72 3.72 0 001.312 7.2 3.719 3.719 0 001.696-7.03v-13.59l5.25 5.252a3.719 3.719 0 102.246-2.008l-5.639-5.64a3.719 3.719 0 00-4.655-4.655l-5.636-5.636z" fill="#fff"/></g></svg>