<svg width="56" height="56" fill="none" xmlns="http://www.w3.org/2000/svg"><g style="mix-blend-mode:luminosity"><path d="M28.086 14.771C39.616 5.821 33.698 0 33.698 0c.881 9.253-9.526 11.438-12.316 17.796-1.903 4.339 1.304 8.138 6.7 12.926-.477-1.06-1.213-2.091-1.957-3.134-2.541-3.558-5.188-7.265 1.961-12.817z" fill="#E76F00"/><path d="M29.927 32.685s3.468-2.799.722-5.909c-9.312-10.55 10.184-15.338 10.184-15.338-11.903 5.734-10.126 9.138-7.134 13.272 3.203 4.434-3.772 7.975-3.772 7.975z" fill="#E76F00"/><path d="M40.14 41.03c10.684-5.46 5.744-10.706 2.296-10-.845.173-1.222.323-1.222.323s.314-.483.913-.692c6.821-2.359 12.067 6.955-2.202 10.644 0 0 .165-.145.215-.275zm-22.232-6.91c-6.685-.878 3.665-3.296 3.665-3.296s-4.02-.266-8.963 2.084c-5.845 2.78 14.46 4.045 24.97 1.326 1.092-.733 2.602-1.37 2.602-1.37s-4.3.756-8.584 1.111c-5.24.432-10.868.516-13.69.145zm2.543 5.213c-3.728-.38-1.287-2.156-1.287-2.156-9.646 3.148 5.367 6.718 18.846 2.842-1.433-.496-2.344-1.405-2.344-1.405-6.587 1.248-10.394 1.208-15.215.719zm1.624 5.641c-3.725-.422-1.548-1.666-1.548-1.666-8.757 2.406 5.326 7.376 16.474 2.678-1.826-.698-3.134-1.504-3.134-1.504-4.973.925-7.279.998-11.792.492z" fill="#5382A1"/><path d="M45.393 47.843s1.61 1.305-1.774 2.314c-6.435 1.917-26.782 2.496-32.435.077-2.032-.87 1.779-2.076 2.977-2.33 1.25-.266 1.965-.216 1.965-.216-2.26-1.565-14.606 3.074-6.272 4.402 22.73 3.625 41.434-1.632 35.539-4.247z" fill="#5382A1"/><path d="M49 50.694c-.373 4.772-16.121 5.775-26.377 5.13-6.69-.422-8.031-1.476-8.05-1.492 6.402 1.038 17.198 1.227 25.951-.393C48.284 52.503 49 50.694 49 50.694z" fill="#5382A1"/></g></svg>