<svg width="597" height="590" viewBox="0 0 597 590" fill="none" xmlns="http://www.w3.org/2000/svg">
<path opacity="0.7" d="M525.08 253.779C525.08 253.779 506.81 176.911 428.852 142.8C350.895 108.689 256.573 129.292 179.83 144.066C103.087 158.841 40.9013 236.369 44.6827 300.781C48.4641 365.192 122.325 347.088 168.018 409.645C213.712 472.203 237.454 506.962 299.902 503.574C362.35 500.185 410.875 480.832 483.345 405.131C549.399 336.133 525.08 253.779 525.08 253.779Z" fill="#F7F7F7"/>
<path d="M282.059 7.91976C248.06 13.5008 215.591 25.8012 187.971 47.0572C147.792 78.0077 125.513 124.204 123.183 174.473C121.653 207.66 129.583 240.019 139.183 271.528C151.502 312.024 159.462 358.24 185.211 392.894C225.31 446.808 302.798 469.552 367.607 459.907C409.476 453.667 453.714 429.955 466.604 387.024C471.374 371.139 473.694 354.076 481.844 339.39C491.613 321.798 509.323 311.524 522.773 297.197C539.392 279.506 546.082 257.461 550.222 234.148C559.282 183.11 546.912 129.046 517.043 86.7038C485.874 42.5344 439.635 18.8123 387.136 9.50722C381.376 8.50882 375.587 7.62024 369.777 6.8914C340.937 3.2672 310.958 3.14739 282.059 7.91976Z" fill="#005F9F"/>
<path opacity="0.7" d="M282.059 7.91976C248.06 13.5008 215.591 25.8012 187.971 47.0572C147.792 78.0077 125.513 124.204 123.183 174.473C121.653 207.66 129.583 240.019 139.183 271.528C151.502 312.024 159.462 358.24 185.211 392.894C225.31 446.808 302.798 469.552 367.607 459.907C409.476 453.667 453.714 429.955 466.604 387.024C471.374 371.139 473.694 354.076 481.844 339.39C491.613 321.798 509.323 311.524 522.773 297.197C539.392 279.506 546.082 257.461 550.222 234.148C559.282 183.11 546.912 129.046 517.043 86.7038C485.874 42.5344 439.635 18.8123 387.136 9.50722C381.376 8.50882 375.587 7.62024 369.777 6.8914C340.937 3.2672 310.958 3.14739 282.059 7.91976Z" fill="#F7F7F7"/>
<path opacity="0.2" d="M298.339 345.63L382.057 330.045C382.057 330.045 400.997 389.709 404.817 397.427L402.817 402.11L404.077 409.947L320.879 428.837L314.209 423.585L298.339 345.63Z" fill="black" fill-opacity="0.7"/>
<path d="M375.975 323.651L295.044 342.781L314.206 423.584L395.137 404.454L375.975 323.651Z" fill="#005F9F"/>
<path opacity="0.2" d="M381.147 345.45L394.577 402.07L317.399 420.311C308.099 397.078 300.989 367.824 300.989 367.824L381.147 345.45Z" fill="black" fill-opacity="0.7"/>
<path d="M375.975 323.651L295.044 342.781L314.206 423.584L395.137 404.454L375.975 323.651Z" stroke="#263238" stroke-linecap="round" stroke-linejoin="round"/>
<path d="M397.667 399.304C377.437 404.086 348.788 408.579 331.508 411.115C322.509 412.433 316.509 413.212 316.509 413.212C308.849 399.234 295.029 342.784 295.029 342.784L375.957 323.655C376.117 324.344 376.257 325.033 376.407 325.712C386.057 369.372 397.667 399.304 397.667 399.304Z" fill="white"/>
<path opacity="0.4" d="M397.667 399.304C377.438 404.086 348.789 408.579 331.509 411.115C318.509 402.499 315.399 394.052 315.559 385.995C315.729 376.431 357.468 385.776 366.188 376.301C372.408 369.542 372.188 340.858 376.428 325.712C386.058 369.372 397.667 399.304 397.667 399.304Z" fill="#005F9F"/>
<path d="M397.667 399.304C377.437 404.086 348.788 408.579 331.508 411.115C322.509 412.433 316.509 413.212 316.509 413.212C308.849 399.234 295.029 342.784 295.029 342.784L375.957 323.655C376.117 324.344 376.257 325.033 376.407 325.712C386.057 369.372 397.667 399.304 397.667 399.304Z" stroke="#263238" stroke-linecap="round" stroke-linejoin="round"/>
<path d="M308.709 355.005C309.807 353.727 311.125 352.656 312.599 351.84L313.799 354.915L317.989 353.397C319.389 352.888 320.989 352.229 321.479 350.842C322.249 352.669 324.909 352.359 326.799 351.76C339.884 347.554 353.251 344.275 366.798 341.946" stroke="#263238" stroke-linecap="round" stroke-linejoin="round"/>
<path d="M310.739 366.187C309.869 365.738 310.589 364.19 311.569 364.25C312.549 364.31 313.179 365.388 313.259 366.367C313.692 366.319 314.1 366.137 314.423 365.844C314.746 365.552 314.969 365.165 315.059 364.739L316.449 365.738C316.333 365.566 316.254 365.372 316.216 365.168C316.178 364.964 316.183 364.755 316.229 364.553C316.276 364.351 316.363 364.16 316.486 363.993C316.609 363.826 316.765 363.686 316.944 363.581C317.124 363.477 317.322 363.41 317.529 363.385C317.735 363.36 317.944 363.378 318.143 363.437C318.342 363.496 318.527 363.595 318.686 363.728C318.845 363.861 318.976 364.025 319.069 364.21C318.969 363.072 319.409 361.435 320.519 361.694C320.865 361.836 321.18 362.043 321.449 362.303C321.788 362.509 322.17 362.632 322.566 362.663C322.961 362.693 323.359 362.63 323.725 362.478C324.091 362.326 324.417 362.09 324.675 361.789C324.932 361.488 325.115 361.131 325.209 360.746C326.299 361.984 328.209 361.814 329.879 361.535L344.438 359.058C344.578 358.14 345.038 356.962 345.958 357.062C346.488 357.142 346.838 357.651 347.298 357.93C348.007 358.227 348.8 358.255 349.528 358.01C356.087 356.591 362.523 354.658 368.778 352.229" stroke="#263238" stroke-linecap="round" stroke-linejoin="round"/>
<path d="M315.759 378.917C317.704 379.087 319.663 378.817 321.489 378.128C321.166 377.446 321.084 376.675 321.257 375.94C321.429 375.206 321.846 374.552 322.439 374.084L324.199 375.213C331.286 375.044 338.331 374.073 345.199 372.317C348.268 371.538 351.308 370.59 354.338 369.641L371.598 364.27" stroke="#263238" stroke-linecap="round" stroke-linejoin="round"/>
<path opacity="0.2" d="M153.663 255.953L156.563 268.962L159.873 254.236L151.173 107.141H145.243L153.663 255.953Z" fill="black" fill-opacity="0.7"/>
<path d="M148.363 105.354L156.563 253.318L153.563 265.488L149.223 253.727L141.003 105.753C140.984 105.507 141.014 105.259 141.092 105.025C141.17 104.79 141.294 104.574 141.457 104.388C141.62 104.202 141.819 104.05 142.041 103.942C142.264 103.833 142.505 103.77 142.753 103.757L146.403 103.557C146.65 103.543 146.898 103.58 147.131 103.663C147.365 103.747 147.579 103.876 147.762 104.043C147.944 104.211 148.091 104.413 148.195 104.638C148.298 104.863 148.355 105.107 148.363 105.354Z" fill="#005F9F"/>
<path opacity="0.2" d="M153.543 265.488L149.203 253.727L141.003 105.754C140.984 105.507 141.014 105.26 141.092 105.025C141.17 104.791 141.294 104.574 141.457 104.388C141.62 104.202 141.819 104.051 142.041 103.942C142.264 103.834 142.505 103.771 142.753 103.757H143.263L151.523 252.809L153.543 265.488Z" fill="black" fill-opacity="0.7"/>
<path d="M148.363 105.354L156.563 253.318L153.563 265.488L149.223 253.727L141.003 105.753C140.984 105.507 141.014 105.259 141.092 105.025C141.17 104.79 141.294 104.574 141.457 104.388C141.62 104.202 141.819 104.05 142.041 103.942C142.264 103.833 142.505 103.77 142.753 103.757L146.403 103.557C146.65 103.543 146.898 103.58 147.131 103.663C147.365 103.747 147.579 103.876 147.762 104.043C147.944 104.211 148.091 104.413 148.195 104.638C148.298 104.863 148.355 105.107 148.363 105.354V105.354Z" stroke="#263238" stroke-linecap="round" stroke-linejoin="round"/>
<path d="M143.402 106.352L151.402 251.61C151.411 251.775 151.453 251.937 151.525 252.087C151.596 252.236 151.697 252.369 151.82 252.48C151.944 252.59 152.088 252.675 152.245 252.73C152.401 252.784 152.567 252.808 152.732 252.798H153.612" fill="#005F9F"/>
<path d="M143.402 106.352L151.402 251.61C151.411 251.775 151.453 251.937 151.525 252.087C151.596 252.236 151.697 252.369 151.82 252.48C151.944 252.59 152.088 252.675 152.245 252.73C152.401 252.784 152.567 252.808 152.732 252.798H153.612" stroke="#263238" stroke-linecap="round" stroke-linejoin="round"/>
<path opacity="0.2" d="M188.811 263.561L215.921 86.7138C216.756 81.277 219.72 76.3939 224.16 73.1381C228.601 69.8823 234.154 68.5203 239.6 69.3516L499.903 109.138C502.6 109.549 505.19 110.486 507.524 111.896C509.858 113.306 511.89 115.161 513.506 117.355C515.122 119.55 516.289 122.041 516.94 124.686C517.592 127.331 517.715 130.078 517.303 132.77L490.184 309.618C489.775 312.312 488.838 314.899 487.427 317.231C486.015 319.563 484.157 321.594 481.959 323.209C479.76 324.823 477.265 325.989 474.615 326.639C471.964 327.29 469.212 327.412 466.514 327L206.201 287.203C200.756 286.369 195.865 283.41 192.604 278.977C189.343 274.543 187.979 268.998 188.811 263.561Z" fill="black" fill-opacity="0.7"/>
<path d="M209.703 93.3674L211.762 79.9354C211.802 79.6737 211.945 79.4386 212.159 79.2818C212.372 79.1251 212.64 79.0595 212.902 79.0995L218.576 79.9664L216.216 95.3623L210.542 94.4954C210.282 94.4557 210.048 94.3148 209.89 94.1036C209.733 93.8924 209.666 93.6278 209.703 93.3674Z" fill="#005F9F" stroke="#263238" stroke-linecap="round" stroke-linejoin="round"/>
<path d="M244.947 65.0782L258.4 67.1368C258.662 67.1769 258.897 67.3194 259.054 67.5328C259.212 67.7463 259.277 68.0132 259.237 68.275L258.37 73.9401L242.95 71.5805L243.817 65.9154C243.857 65.6553 243.998 65.4215 244.21 65.2647C244.421 65.1079 244.686 65.0409 244.947 65.0782Z" fill="#005F9F" stroke="#263238" stroke-linecap="round" stroke-linejoin="round"/>
<path d="M263.282 67.8738L276.735 69.9292C276.997 69.9693 277.233 70.1117 277.39 70.3251C277.547 70.5385 277.613 70.8054 277.572 71.0672L276.704 76.7321L261.284 74.3761L262.152 68.7112C262.192 68.4512 262.333 68.2173 262.544 68.0605C262.756 67.9037 263.021 67.8366 263.282 67.8738Z" fill="#005F9F" stroke="#263238" stroke-linecap="round" stroke-linejoin="round"/>
<path d="M185.811 259.568L212.921 82.7205C213.756 77.2837 216.72 72.4006 221.16 69.1448C225.601 65.889 231.154 64.527 236.6 65.3583L496.903 105.145C499.6 105.555 502.19 106.492 504.524 107.902C506.858 109.312 508.89 111.168 510.506 113.362C512.122 115.557 513.289 118.048 513.94 120.692C514.592 123.337 514.715 126.084 514.303 128.777L487.184 305.624C486.775 308.318 485.838 310.905 484.427 313.237C483.015 315.57 481.157 317.601 478.959 319.215C476.76 320.83 474.265 321.996 471.615 322.646C468.964 323.297 466.212 323.419 463.514 323.006L203.201 283.21C197.756 282.376 192.865 279.417 189.604 274.983C186.343 270.55 184.979 265.005 185.811 259.568Z" fill="#005F9F" stroke="#263238" stroke-linecap="round" stroke-linejoin="round"/>
<path d="M464.534 320.8L202.881 280.814C200.574 280.463 198.359 279.661 196.362 278.455C194.366 277.249 192.627 275.661 191.245 273.784C189.863 271.906 188.865 269.775 188.309 267.512C187.752 265.249 187.648 262.899 188.002 260.596L215.321 82.3907C216.033 77.7398 218.567 73.5618 222.364 70.7757C226.162 67.9897 230.912 66.8238 235.57 67.5345L497.234 107.521C501.892 108.237 506.074 110.769 508.864 114.561C511.654 118.354 512.822 123.096 512.113 127.748L484.794 305.943C484.441 308.247 483.637 310.459 482.428 312.453C481.219 314.446 479.628 316.183 477.747 317.562C475.866 318.942 473.73 319.938 471.463 320.493C469.196 321.049 466.842 321.153 464.534 320.8Z" fill="#757575" stroke="#263238" stroke-linecap="round" stroke-linejoin="round"/>
<path d="M206.062 172.167C206.029 172.36 205.939 172.54 205.805 172.682C205.67 172.825 205.496 172.925 205.305 172.97C205.114 173.015 204.914 173.003 204.73 172.935C204.546 172.867 204.386 172.746 204.27 172.588C204.153 172.43 204.087 172.242 204.077 172.046C204.068 171.85 204.117 171.656 204.217 171.487C204.317 171.319 204.465 171.184 204.642 171.099C204.819 171.014 205.017 170.982 205.212 171.009C205.345 171.027 205.473 171.072 205.588 171.14C205.703 171.209 205.803 171.3 205.883 171.408C205.962 171.516 206.019 171.639 206.05 171.769C206.08 171.9 206.084 172.035 206.062 172.167Z" fill="#999999" stroke="#263238" stroke-linecap="round" stroke-linejoin="round"/>
<path d="M205.571 181.462C205.471 181.951 205.186 182.383 204.775 182.668C204.365 182.953 203.86 183.07 203.366 182.994C202.872 182.919 202.426 182.656 202.119 182.262C201.813 181.867 201.671 181.37 201.721 180.873C201.822 180.384 202.107 179.953 202.518 179.668C202.928 179.383 203.433 179.266 203.927 179.341C204.421 179.417 204.867 179.679 205.173 180.074C205.479 180.469 205.622 180.966 205.571 181.462Z" fill="#263238"/>
<path d="M209.002 159.088C208.901 159.577 208.616 160.009 208.205 160.294C207.795 160.579 207.29 160.696 206.796 160.62C206.302 160.544 205.856 160.282 205.55 159.887C205.244 159.493 205.101 158.996 205.152 158.499C205.178 158.236 205.258 157.982 205.387 157.751C205.515 157.52 205.689 157.318 205.898 157.156C206.107 156.995 206.347 156.877 206.603 156.811C206.859 156.745 207.126 156.731 207.387 156.771C207.648 156.811 207.899 156.904 208.123 157.044C208.348 157.183 208.541 157.367 208.692 157.584C208.843 157.8 208.949 158.046 209.002 158.304C209.055 158.563 209.055 158.83 209.002 159.088Z" fill="#263238"/>
<path d="M204.062 187.742C204.019 188.019 203.895 188.278 203.705 188.484C203.516 188.691 203.269 188.837 202.996 188.904C202.724 188.97 202.437 188.955 202.173 188.859C201.91 188.763 201.68 188.592 201.514 188.366C201.348 188.14 201.252 187.87 201.24 187.59C201.227 187.31 201.298 187.033 201.443 186.793C201.589 186.553 201.802 186.361 202.056 186.243C202.31 186.124 202.594 186.083 202.872 186.125C203.056 186.153 203.234 186.217 203.393 186.314C203.553 186.41 203.692 186.537 203.803 186.687C203.913 186.837 203.993 187.008 204.037 187.189C204.082 187.37 204.09 187.558 204.062 187.742Z" fill="#263238"/>
<path d="M505.543 124.683L477.614 306.912C477.262 309.208 476.01 311.271 474.135 312.647C472.26 314.023 469.915 314.6 467.614 314.25L248.41 280.754L243.66 280.075L225.791 277.339L217.141 276.021L204.641 274.084L201.911 273.665C199.611 273.313 197.545 272.064 196.167 270.192C194.789 268.32 194.211 265.978 194.561 263.681L222.501 81.3923C222.674 80.2549 223.07 79.1628 223.667 78.1786C224.264 77.1944 225.049 76.3374 225.978 75.6566C226.907 74.9759 227.961 74.4848 229.08 74.2115C230.199 73.9382 231.362 73.8881 232.5 74.064L314.328 86.5641L326.708 88.461L338.538 90.2681L353.737 92.5844L359.237 93.4231L498.234 114.659C499.373 114.838 500.466 115.239 501.45 115.84C502.434 116.44 503.29 117.228 503.968 118.159C504.647 119.09 505.136 120.145 505.406 121.265C505.676 122.384 505.723 123.546 505.543 124.683Z" fill="#263238"/>
<g opacity="0.1">
<path opacity="0.1" d="M300.059 279.076L207.062 264.869C206.457 264.776 205.915 264.447 205.553 263.954C205.191 263.462 205.04 262.847 205.132 262.243L214.361 202.01C214.458 201.405 214.789 200.864 215.284 200.503C215.778 200.142 216.396 199.991 217.001 200.083L309.999 214.29C310.299 214.335 310.587 214.439 310.846 214.595C311.106 214.752 311.332 214.958 311.511 215.202C311.69 215.446 311.82 215.723 311.891 216.017C311.963 216.311 311.976 216.617 311.929 216.916L302.699 277.149C302.653 277.449 302.548 277.737 302.39 277.996C302.232 278.255 302.025 278.481 301.78 278.66C301.534 278.839 301.256 278.967 300.961 279.039C300.666 279.11 300.359 279.123 300.059 279.076ZM216.911 200.881C216.716 200.852 216.517 200.86 216.326 200.908C216.134 200.955 215.954 201.039 215.795 201.156C215.636 201.273 215.502 201.42 215.4 201.589C215.298 201.757 215.231 201.944 215.201 202.139L205.972 262.363C205.942 262.558 205.951 262.756 205.998 262.948C206.045 263.139 206.13 263.319 206.247 263.478C206.364 263.636 206.511 263.77 206.68 263.872C206.849 263.974 207.037 264.041 207.232 264.07L300.179 278.278C300.374 278.307 300.573 278.298 300.765 278.251C300.956 278.204 301.137 278.12 301.296 278.003C301.455 277.886 301.589 277.739 301.691 277.57C301.792 277.402 301.86 277.214 301.889 277.02L311.129 216.796C311.187 216.402 311.087 216.001 310.851 215.68C310.615 215.358 310.263 215.143 309.869 215.079L216.911 200.881Z" fill="white"/>
</g>
<path opacity="0.4" d="M244.96 237.333L265.78 249.124C267.985 245.088 269.009 240.514 268.737 235.925C268.464 231.335 266.906 226.914 264.24 223.166L244.96 237.333Z" fill="#005F9F"/>
<path opacity="0.6" d="M245.16 236.145L263.76 222.497C261.247 219.191 257.933 216.576 254.13 214.899L250.46 223.585L245.16 236.145Z" fill="#005F9F"/>
<path d="M248.33 213.182L245.11 234.148L253.39 214.549C251.756 213.916 250.06 213.457 248.33 213.182Z" fill="#005F9F"/>
<path opacity="0.1" d="M243.861 237.083L247.531 213.122C243.316 212.547 239.024 213.075 235.075 214.655C231.126 216.235 227.656 218.812 225.006 222.134C222.355 225.456 220.614 229.409 219.954 233.605C219.294 237.801 219.738 242.096 221.241 246.069L243.861 237.083Z" fill="white"/>
<path opacity="0.2" d="M240.501 261.604C245.353 262.345 250.317 261.618 254.751 259.516C259.186 257.415 262.888 254.035 265.381 249.813L244.191 237.832L221.532 246.768C223.149 250.661 225.745 254.071 229.068 256.67C232.391 259.269 236.329 260.968 240.501 261.604Z" fill="#005F9F"/>
<path d="M282.82 222.913L280.062 222.491C279.718 222.439 279.397 222.675 279.344 223.018L278.922 225.772C278.87 226.115 279.106 226.436 279.45 226.489L282.208 226.91C282.551 226.962 282.873 226.727 282.926 226.383L283.348 223.63C283.4 223.286 283.164 222.965 282.82 222.913Z" fill="#005F9F"/>
<path d="M297.809 226.71L285.759 224.863C285.698 224.854 285.64 224.834 285.587 224.803C285.534 224.771 285.489 224.73 285.452 224.68C285.416 224.631 285.39 224.575 285.376 224.515C285.361 224.456 285.359 224.394 285.369 224.334C285.377 224.273 285.398 224.215 285.429 224.162C285.461 224.11 285.502 224.064 285.552 224.028C285.601 223.991 285.657 223.965 285.717 223.951C285.777 223.937 285.838 223.935 285.899 223.944L297.899 225.791C297.96 225.8 298.018 225.821 298.071 225.852C298.123 225.883 298.169 225.925 298.205 225.974C298.242 226.023 298.268 226.079 298.282 226.139C298.297 226.198 298.299 226.26 298.289 226.321C298.268 226.432 298.208 226.532 298.12 226.603C298.032 226.674 297.922 226.712 297.809 226.71Z" fill="#005F9F"/>
<path d="M293.819 228.158L285.449 226.88C285.389 226.871 285.33 226.851 285.278 226.819C285.225 226.788 285.179 226.746 285.143 226.697C285.106 226.648 285.08 226.592 285.066 226.532C285.052 226.473 285.049 226.411 285.059 226.351C285.079 226.229 285.146 226.121 285.245 226.048C285.344 225.975 285.467 225.944 285.589 225.961L293.959 227.239C294.02 227.248 294.078 227.268 294.131 227.3C294.184 227.331 294.23 227.372 294.266 227.422C294.302 227.471 294.328 227.527 294.343 227.587C294.357 227.646 294.359 227.708 294.349 227.768C294.341 227.829 294.32 227.887 294.289 227.94C294.257 227.992 294.216 228.038 294.166 228.074C294.117 228.111 294.061 228.137 294.001 228.151C293.942 228.165 293.88 228.168 293.819 228.158Z" fill="#005F9F"/>
<path opacity="0.6" d="M281.45 231.858L278.693 231.437C278.349 231.384 278.027 231.62 277.975 231.963L277.553 234.717C277.5 235.06 277.736 235.381 278.08 235.434L280.838 235.855C281.182 235.908 281.503 235.672 281.556 235.329L281.978 232.575C282.031 232.232 281.794 231.911 281.45 231.858Z" fill="#005F9F"/>
<path d="M296.439 235.646L284.379 233.809C284.259 233.787 284.151 233.72 284.079 233.621C284.006 233.523 283.974 233.401 283.989 233.28C284.009 233.158 284.075 233.05 284.174 232.977C284.273 232.904 284.397 232.873 284.519 232.89L296.579 234.737C296.639 234.746 296.696 234.767 296.748 234.799C296.799 234.83 296.844 234.871 296.88 234.92C296.916 234.968 296.942 235.024 296.956 235.082C296.97 235.141 296.973 235.202 296.964 235.261C296.955 235.321 296.934 235.378 296.902 235.43C296.871 235.481 296.83 235.526 296.781 235.562C296.732 235.598 296.677 235.624 296.618 235.638C296.56 235.652 296.499 235.655 296.439 235.646Z" fill="#005F9F"/>
<path d="M292.449 237.083L284.059 235.805C283.951 235.773 283.858 235.702 283.797 235.607C283.737 235.511 283.713 235.397 283.73 235.286C283.747 235.174 283.804 235.072 283.89 234.999C283.976 234.926 284.086 234.886 284.199 234.887L292.569 236.165C292.63 236.173 292.688 236.194 292.741 236.225C292.793 236.257 292.839 236.298 292.876 236.348C292.912 236.397 292.938 236.453 292.952 236.512C292.967 236.572 292.969 236.634 292.959 236.694C292.942 236.813 292.879 236.92 292.783 236.992C292.688 237.065 292.568 237.098 292.449 237.083Z" fill="#005F9F"/>
<path opacity="0.4" d="M280.706 240.991L277.944 240.573C277.599 240.521 277.278 240.757 277.225 241.101L276.807 243.859C276.755 244.203 276.992 244.524 277.336 244.576L280.098 244.994C280.443 245.046 280.764 244.809 280.816 244.466L281.235 241.708C281.287 241.364 281.05 241.043 280.706 240.991Z" fill="#005F9F"/>
<path d="M295.059 244.591L283.059 242.754C282.951 242.722 282.858 242.651 282.797 242.556C282.737 242.46 282.713 242.346 282.73 242.234C282.747 242.123 282.804 242.021 282.89 241.948C282.976 241.874 283.086 241.835 283.199 241.836L295.199 243.673C295.26 243.681 295.318 243.702 295.371 243.733C295.423 243.765 295.469 243.806 295.506 243.855C295.542 243.905 295.568 243.961 295.582 244.02C295.597 244.08 295.599 244.142 295.589 244.202C295.581 244.263 295.56 244.321 295.529 244.374C295.497 244.426 295.455 244.472 295.406 244.508C295.357 244.544 295.301 244.57 295.241 244.585C295.181 244.599 295.12 244.601 295.059 244.591Z" fill="#005F9F"/>
<path d="M291.059 246.029L282.689 244.751C282.581 244.719 282.488 244.648 282.427 244.553C282.367 244.457 282.343 244.343 282.36 244.231C282.377 244.12 282.434 244.018 282.52 243.945C282.606 243.871 282.716 243.832 282.829 243.833L291.199 245.111C291.307 245.143 291.4 245.214 291.461 245.309C291.521 245.405 291.545 245.519 291.528 245.63C291.511 245.742 291.454 245.844 291.368 245.917C291.282 245.99 291.172 246.03 291.059 246.029Z" fill="#005F9F"/>
<path opacity="0.2" d="M278.711 249.749L275.953 249.328C275.609 249.275 275.288 249.511 275.235 249.854L274.813 252.608C274.761 252.951 274.997 253.272 275.341 253.325L278.099 253.746C278.443 253.799 278.764 253.563 278.817 253.219L279.239 250.466C279.291 250.123 279.055 249.802 278.711 249.749Z" fill="#005F9F"/>
<path d="M293.689 253.537L281.689 251.7C281.568 251.68 281.459 251.614 281.386 251.515C281.313 251.416 281.282 251.293 281.299 251.171C281.308 251.11 281.328 251.052 281.36 250.999C281.391 250.947 281.433 250.901 281.482 250.865C281.531 250.829 281.588 250.803 281.647 250.788C281.707 250.774 281.769 250.772 281.829 250.782L293.879 252.619C293.94 252.627 293.998 252.648 294.051 252.679C294.103 252.71 294.149 252.752 294.186 252.801C294.222 252.85 294.248 252.907 294.262 252.966C294.277 253.026 294.279 253.087 294.269 253.148C294.261 253.214 294.24 253.277 294.205 253.334C294.17 253.39 294.124 253.439 294.069 253.476C294.014 253.513 293.951 253.537 293.886 253.548C293.82 253.559 293.753 253.555 293.689 253.537Z" fill="#005F9F"/>
<path d="M289.709 254.975L281.339 253.697C281.278 253.688 281.22 253.668 281.167 253.636C281.115 253.605 281.069 253.564 281.032 253.514C280.996 253.465 280.97 253.409 280.956 253.349C280.941 253.29 280.939 253.228 280.949 253.168C280.957 253.107 280.978 253.049 281.009 252.996C281.041 252.944 281.082 252.898 281.132 252.862C281.181 252.825 281.237 252.799 281.297 252.785C281.357 252.771 281.418 252.768 281.479 252.778L289.849 254.056C289.97 254.076 290.079 254.142 290.152 254.241C290.225 254.34 290.256 254.464 290.239 254.585C290.23 254.646 290.21 254.704 290.178 254.757C290.147 254.809 290.105 254.855 290.056 254.892C290.007 254.928 289.951 254.954 289.891 254.968C289.831 254.982 289.769 254.985 289.709 254.975Z" fill="#005F9F"/>
<path opacity="0.1" d="M277.342 258.704L274.584 258.283C274.24 258.23 273.918 258.466 273.866 258.81L273.444 261.563C273.391 261.906 273.627 262.227 273.971 262.28L276.729 262.701C277.073 262.754 277.394 262.518 277.447 262.175L277.869 259.421C277.922 259.078 277.686 258.757 277.342 258.704Z" fill="white"/>
<path d="M292.319 262.483L280.319 260.646C280.198 260.626 280.089 260.56 280.016 260.461C279.943 260.362 279.912 260.238 279.929 260.117C279.938 260.056 279.958 259.998 279.989 259.945C280.021 259.893 280.063 259.847 280.112 259.811C280.161 259.774 280.217 259.748 280.277 259.734C280.337 259.72 280.398 259.717 280.459 259.727L292.509 261.564C292.57 261.573 292.628 261.593 292.681 261.625C292.733 261.656 292.779 261.698 292.816 261.747C292.852 261.796 292.878 261.852 292.892 261.912C292.907 261.971 292.909 262.033 292.899 262.093C292.891 262.159 292.869 262.223 292.835 262.279C292.8 262.336 292.754 262.384 292.699 262.421C292.644 262.458 292.581 262.483 292.516 262.494C292.45 262.504 292.383 262.501 292.319 262.483Z" fill="#005F9F"/>
<path d="M288.339 263.921L279.959 262.643C279.899 262.633 279.842 262.611 279.79 262.58C279.739 262.548 279.694 262.506 279.659 262.457C279.624 262.408 279.598 262.352 279.585 262.293C279.571 262.234 279.569 262.173 279.579 262.113C279.586 262.052 279.606 261.993 279.637 261.94C279.668 261.887 279.71 261.84 279.759 261.804C279.809 261.767 279.866 261.741 279.926 261.728C279.986 261.714 280.048 261.713 280.109 261.724L288.479 263.002C288.546 263.003 288.613 263.018 288.674 263.046C288.735 263.075 288.789 263.116 288.833 263.167C288.876 263.218 288.908 263.278 288.927 263.343C288.945 263.408 288.949 263.475 288.939 263.542C288.929 263.608 288.905 263.672 288.868 263.728C288.831 263.784 288.783 263.832 288.726 263.868C288.669 263.904 288.605 263.927 288.538 263.936C288.471 263.945 288.404 263.94 288.339 263.921Z" fill="#005F9F"/>
<g opacity="0.1">
<path opacity="0.1" d="M475.214 239.52L324.058 216.426C323.452 216.335 322.834 216.486 322.34 216.847C321.845 217.208 321.514 217.749 321.418 218.353L320.778 222.507L320.658 223.305L319.798 228.906L319.678 229.705L318.818 235.296L318.698 236.085L317.838 241.686L317.718 242.475L316.858 248.076L316.738 248.875L315.878 254.466L315.758 255.264L314.898 260.855L314.778 261.654L313.918 267.245L313.798 268.044L312.938 273.635L312.818 274.434L312.188 278.587C312.141 278.887 312.154 279.193 312.225 279.487C312.297 279.782 312.426 280.06 312.605 280.305C312.785 280.549 313.01 280.757 313.27 280.914C313.53 281.072 313.818 281.177 314.118 281.223L465.244 304.316C465.848 304.405 466.463 304.251 466.954 303.888C467.446 303.525 467.772 302.982 467.864 302.379L468.504 298.226L468.624 297.427L469.484 291.836L469.604 291.037L470.464 285.436L470.584 284.647L471.444 279.056L471.564 278.258L472.424 272.667L472.544 271.868L473.404 266.267L473.524 265.478L474.384 259.877L474.504 259.088L475.364 253.497L475.484 252.698L476.344 247.097L476.464 246.299L477.104 242.145C477.196 241.548 477.05 240.938 476.697 240.446C476.343 239.955 475.811 239.622 475.214 239.52ZM467.114 302.259C467.052 302.651 466.838 303.004 466.518 303.239C466.198 303.475 465.797 303.575 465.404 303.517L314.288 280.424C313.892 280.363 313.537 280.148 313.299 279.826C313.062 279.505 312.96 279.102 313.018 278.707L313.658 274.554L467.744 298.106L467.114 302.259ZM467.874 297.267L313.778 273.725L314.638 268.124L468.724 291.676L467.874 297.267ZM468.874 290.877L314.758 267.375L315.618 261.774L469.704 285.316L468.874 290.877ZM469.874 284.488L315.778 260.935L316.638 255.344L470.724 278.887L469.874 284.488ZM470.874 278.098L316.778 254.545L317.638 248.954L471.724 272.507L470.874 278.098ZM471.874 271.708L317.778 248.156L318.638 242.555L472.724 266.107L471.874 271.708ZM472.874 265.308L318.778 241.766L319.638 236.175L473.724 259.717L472.874 265.308ZM473.874 258.919L319.658 235.416L320.518 229.825L474.604 253.367L473.874 258.919ZM474.874 252.539L320.638 229.026L321.498 223.425L475.584 246.978L474.874 252.539ZM321.768 222.587L322.408 218.443C322.437 218.248 322.504 218.061 322.606 217.893C322.708 217.724 322.842 217.577 323.001 217.46C323.16 217.343 323.34 217.259 323.532 217.212C323.724 217.164 323.923 217.155 324.118 217.185L475.054 240.318C475.446 240.38 475.798 240.594 476.032 240.914C476.266 241.234 476.364 241.634 476.304 242.026L475.664 246.179L321.768 222.587Z" fill="white"/>
</g>
<g opacity="0.1">
<path opacity="0.1" d="M491.354 132.031L233.841 92.6743C233.499 92.6219 233.15 92.6374 232.814 92.72C232.478 92.8026 232.161 92.9506 231.882 93.1556C231.604 93.3606 231.368 93.6185 231.19 93.9146C231.011 94.2106 230.893 94.5389 230.841 94.8808L216.412 189C216.308 189.688 216.481 190.389 216.893 190.951C217.306 191.512 217.923 191.887 218.612 191.996L476.135 231.353C476.824 231.456 477.526 231.283 478.088 230.872C478.65 230.46 479.026 229.843 479.135 229.156L493.564 135.027C493.617 134.685 493.601 134.336 493.519 134.001C493.436 133.665 493.288 133.349 493.082 133.071C492.877 132.793 492.619 132.557 492.322 132.379C492.026 132.201 491.697 132.083 491.354 132.031ZM281.36 145.56L299.239 148.285L297.68 158.429L279.77 155.694L281.36 145.56ZM279.01 155.544L261.06 152.858L262.62 142.704L280.53 145.44L279.01 155.544ZM300.059 148.425L317.979 151.161L316.419 161.315L298.509 158.579L300.059 148.425ZM392.937 161.804L375.028 159.068L376.577 148.914L394.497 151.65L392.937 161.804ZM395.287 151.82L413.207 154.555L411.647 164.709L393.737 161.974L395.287 151.82ZM337.478 154.196L355.398 156.932L353.838 167.085L335.899 164.26L337.478 154.196ZM335.129 164.18L317.219 161.444L318.739 151.281L336.659 154.016L335.129 164.18ZM356.188 157.011L374.058 159.737L372.498 169.891L354.588 167.155L356.188 157.011ZM374.898 159.867L392.817 162.603L391.257 172.756L373.348 170.021L374.898 159.867ZM374.228 158.948L356.318 156.213L357.868 146.059L375.788 148.805L374.228 158.948ZM355.518 156.093L337.608 153.357L339.158 143.204L357.058 145.929L355.518 156.093ZM336.778 153.277L318.869 150.532L320.419 140.298L338.338 143.034L336.778 153.277ZM318.059 150.362L300.149 147.626L301.699 137.473L319.619 140.208L318.059 150.362ZM316.259 162.113L314.709 172.247L296.8 169.511L298.359 159.358L316.259 162.113ZM317.059 162.233L334.969 164.969L333.409 175.122L315.499 172.387L317.059 162.233ZM335.769 165.089L353.678 167.824L352.118 177.978L334.219 175.242L335.769 165.089ZM354.478 167.944L372.388 170.69L370.828 180.833L352.918 178.098L354.478 167.944ZM373.188 170.809L391.097 173.545L389.537 183.699L371.628 180.963L373.188 170.809ZM391.897 173.665L409.807 176.4L408.247 186.554L390.337 183.819L391.897 173.665ZM392.017 172.876L393.567 162.722L411.487 165.458L409.927 175.612L392.017 172.876ZM412.277 165.578L430.196 168.313L428.636 178.467L410.727 175.732L412.277 165.578ZM430.986 168.433L448.906 171.179L447.346 181.323L429.436 178.587L430.986 168.433ZM431.116 167.644L432.666 157.491L450.596 160.266L449.056 170.38L431.116 167.644ZM430.316 167.525L412.407 164.779L413.956 154.625L431.876 157.371L430.316 167.525ZM414.056 153.837L415.616 143.683L433.526 146.418L432.056 156.572L414.056 153.837ZM413.267 153.717L395.357 150.971L396.907 140.827L414.816 143.563L413.267 153.717ZM394.557 150.851L376.637 148.116L378.197 137.962L396.107 140.698L394.557 150.851ZM375.847 147.996L357.958 145.29L359.518 135.136L377.427 137.872L375.847 147.996ZM357.138 145.13L339.258 142.395L340.808 132.241L358.718 134.987L357.138 145.13ZM338.458 142.295L320.549 139.559L322.059 129.386L340.058 132.121L338.458 142.295ZM319.749 139.44L301.829 136.704L303.389 126.55L321.299 129.316L319.749 139.44ZM301.059 136.554L283.15 133.819L284.7 123.665L302.609 126.41L301.059 136.554ZM300.939 137.353L299.379 147.507L281.47 144.771L283.02 134.617L300.939 137.353ZM280.67 144.651L262.76 141.906L264.31 131.752L282.23 134.497L280.67 144.651ZM261.96 141.786L244.061 139.05L245.611 128.896L263.53 131.632L261.96 141.786ZM261.84 142.584L260.28 152.738L242.371 150.003L243.931 139.849L261.84 142.584ZM260.16 153.567L258.601 163.721L240.691 160.985L242.251 150.831L260.16 153.567ZM260.96 153.697L278.87 156.432L277.31 166.586L259.401 163.841L260.96 153.697ZM279.67 156.552L297.56 159.268L296 169.422L278.06 166.666L279.67 156.552ZM295.88 170.25L294.32 180.404L276.41 177.658L277.97 167.505L295.88 170.25ZM296.68 170.37L314.589 173.106L313.059 183.23L295.14 180.494L296.68 170.37ZM315.389 173.226L333.299 175.961L331.739 186.115L313.829 183.379L315.389 173.226ZM334.059 176.041L352.058 178.777L350.498 188.93L332.539 186.225L334.059 176.041ZM352.768 178.896L370.678 181.632L369.118 191.786L351.208 189.05L352.768 178.896ZM371.478 181.752L389.387 184.498L387.827 194.641L369.918 191.906L371.478 181.752ZM390.187 184.617L408.097 187.353L406.537 197.507L388.627 194.771L390.187 184.617ZM408.897 187.473L426.846 190.218L425.286 200.372L407.377 197.636L408.897 187.473ZM409.017 186.674L410.577 176.53L428.526 179.236L426.966 189.39L409.017 186.674ZM429.286 179.386L447.196 182.121L445.636 192.275L427.726 189.539L429.286 179.386ZM448.056 182.231L465.965 184.967L464.405 195.121L446.496 192.385L448.056 182.231ZM448.176 181.442L449.726 171.289L467.645 174.024L466.055 184.228L448.176 181.442ZM449.856 170.46L451.406 160.306L469.325 163.042L467.745 173.245L449.856 170.46ZM451.526 159.478L453.055 149.404L470.965 152.139L469.425 162.263L451.526 159.478ZM450.736 159.348L432.816 156.612L434.376 146.458L452.265 149.284L450.736 159.348ZM434.496 145.67L436.056 135.596L453.945 138.301L452.395 148.455L434.496 145.67ZM433.706 145.54L415.786 142.804L417.346 132.65L435.256 135.396L433.706 145.54ZM414.996 142.684L397.057 140.029L398.617 129.875L416.526 132.61L414.996 142.684ZM396.287 139.829L378.367 137.093L379.927 126.94L397.837 129.675L396.287 139.829ZM377.577 136.963L359.638 134.308L361.198 124.154L379.107 126.89L377.577 136.963ZM358.868 134.108L340.948 131.372L342.488 121.328L360.398 124.064L358.868 134.108ZM340.138 131.313L322.219 128.567L323.779 118.423L341.688 121.159L340.138 131.313ZM321.429 128.447L303.509 125.711L305.059 115.578L322.979 118.333L321.429 128.447ZM302.719 125.592L284.8 122.856L286.36 112.702L304.269 115.438L302.719 125.592ZM284.06 122.746L266.06 120.011L267.62 109.857L285.53 112.602L284.06 122.746ZM283.93 123.545L282.38 133.699L264.47 130.963L266.02 120.809L283.93 123.545ZM263.67 130.843L245.761 128.098L247.311 117.954L265.22 120.69L263.67 130.843ZM244.961 127.978L227.051 125.242L228.601 115.088L246.521 117.824L244.961 127.978ZM244.841 128.777L243.281 138.93L225.371 136.195L226.921 126.041L244.841 128.777ZM243.161 139.759L241.601 149.913L223.691 147.177L225.251 137.023L243.161 139.759ZM241.481 150.741L239.921 160.895L222.011 158.16L223.571 148.006L241.481 150.741ZM239.801 161.724L238.251 171.868L220.332 169.132L221.891 158.978L239.801 161.724ZM240.601 161.844L258.511 164.579L256.961 174.733L239.041 171.997L240.601 161.844ZM259.311 164.699L277.22 167.435L275.66 177.589L257.751 174.853L259.311 164.699ZM275.54 178.387L273.99 188.541L256.061 185.706L257.621 175.552L275.54 178.387ZM276.34 178.507L294.25 181.243L292.7 191.396L274.78 188.661L276.34 178.507ZM295 181.233L312.909 183.978L311.359 194.122L293.44 191.386L295 181.233ZM313.709 184.098L331.619 186.834L330.059 197.017L312.139 194.282L313.709 184.098ZM332.419 186.954L350.328 189.689L348.778 199.843L330.859 197.107L332.419 186.954ZM351.128 189.819L369.058 192.585L367.508 202.738L349.588 199.993L351.128 189.819ZM369.838 192.674L387.747 195.41L386.197 205.564L368.278 202.828L369.838 192.674ZM388.547 195.53L406.457 198.265L404.907 208.419L386.987 205.684L388.547 195.53ZM407.257 198.395L425.166 201.201L423.616 211.355L405.697 208.619L407.257 198.395ZM425.966 201.251L443.876 203.986L442.326 214.18L424.406 211.444L425.966 201.251ZM426.086 200.452L427.646 190.298L445.556 193.044L443.996 203.198L426.086 200.452ZM446.356 193.214L464.265 195.949L462.705 206.103L444.796 203.367L446.356 193.214ZM465.055 196.049L482.965 198.785L481.405 208.938L463.505 206.193L465.055 196.049ZM465.175 195.26L466.735 185.107L484.645 187.842L483.055 197.996L465.175 195.26ZM466.855 184.278L468.405 174.124L486.325 176.86L484.765 187.013L466.855 184.278ZM468.535 173.295L470.055 163.261L488.055 165.947L486.505 176.101L468.535 173.295ZM470.205 162.313L471.775 152.279L489.685 155.015L488.135 165.168L470.205 162.313ZM471.885 151.331L473.455 141.297L491.364 144.032L489.815 154.186L471.885 151.331ZM471.095 151.211L453.175 148.475L454.735 138.321L472.645 141.057L471.095 151.211ZM454.855 137.523L456.415 127.379L474.325 130.114L472.765 140.268L454.855 137.523ZM454.055 137.403L436.146 134.667L437.706 124.513L455.615 127.249L454.055 137.403ZM435.346 134.547L417.436 131.812L419.056 121.788L436.966 124.523L435.346 134.547ZM416.636 131.692L398.727 128.946L400.287 118.803L418.196 121.538L416.636 131.692ZM397.927 128.826L380.057 126.221L381.617 116.067L399.527 118.803L397.927 128.826ZM379.217 125.971L361.318 123.325L362.878 113.172L380.787 115.907L379.217 125.971ZM360.508 123.106L342.598 120.37L344.168 110.346L362.058 113.092L360.508 123.106ZM341.808 120.25L323.889 117.515L325.449 107.361L343.358 110.096L341.808 120.25ZM323.099 117.395L305.179 114.649L306.739 104.505L324.659 107.351L323.099 117.395ZM304.379 114.529L286.47 111.794L288.06 101.77L305.969 104.505L304.379 114.529ZM285.68 111.674L267.76 108.938L269.32 98.7845L287.23 101.52L285.68 111.674ZM266.97 108.818L249.061 106.203L250.621 96.0589L268.53 98.7945L266.97 108.818ZM266.84 109.607L265.29 119.761L247.371 117.025L248.931 106.872L266.84 109.607ZM246.581 116.906L228.671 114.34L230.231 104.186L248.141 106.922L246.581 116.906ZM220.162 169.831L238.061 172.567L236.511 182.72L218.592 179.985L220.162 169.831ZM238.871 172.686L256.781 175.422L255.231 185.576L237.311 182.84L238.871 172.686ZM255.061 186.374L253.511 196.528L235.601 193.793L237.151 183.639L255.061 186.374ZM255.861 186.494L273.81 189.22L272.26 199.374L254.351 196.638L255.861 186.494ZM274.57 189.36L292.48 192.095L290.93 202.249L273.06 199.504L274.57 189.36ZM293.32 192.215L311.229 194.951L309.679 205.105L291.76 202.369L293.32 192.215ZM312.059 195.071L329.969 197.816L328.419 207.96L310.479 205.194L312.059 195.071ZM330.769 197.936L348.678 200.672L347.058 210.825L329.149 208.09L330.769 197.936ZM349.478 200.791L367.388 203.527L365.838 213.681L347.918 210.945L349.478 200.791ZM368.188 203.647L386.057 206.392L384.507 216.536L366.588 213.801L368.188 203.647ZM386.897 206.512L404.807 209.248L403.257 219.402L385.337 216.666L386.897 206.512ZM405.607 209.368L423.516 212.103L421.966 222.257L404.057 219.522L405.607 209.368ZM424.316 212.233L442.226 214.969L440.646 225.162L422.726 222.417L424.316 212.233ZM443.026 215.089L460.935 217.824L459.385 227.978L441.466 225.242L443.026 215.089ZM443.146 214.29L444.706 204.136L462.615 206.882L461.055 217.026L443.146 214.29ZM463.415 207.002L481.325 209.737L479.775 219.891L461.825 217.175L463.415 207.002ZM492.794 134.907L491.484 143.293L473.575 140.558L475.135 130.404L491.234 132.86C491.707 132.934 492.131 133.19 492.417 133.572C492.703 133.955 492.828 134.434 492.764 134.907H492.794ZM233.801 93.473L249.901 95.9291L248.351 106.083L230.351 103.357L231.631 95.0106C231.667 94.7723 231.749 94.5433 231.873 94.3369C231.998 94.1305 232.162 93.9506 232.356 93.8077C232.55 93.6648 232.771 93.5617 233.005 93.5042C233.239 93.4468 233.483 93.4362 233.721 93.473H233.801ZM217.282 189.12L218.562 180.773L236.471 183.519L234.921 193.663L218.732 191.217C218.251 191.141 217.819 190.877 217.533 190.484C217.246 190.091 217.127 189.601 217.202 189.12H217.282ZM476.255 230.564L460.145 228.098L461.705 217.944L479.615 220.68L478.335 229.036C478.261 229.514 478 229.943 477.611 230.229C477.221 230.515 476.733 230.636 476.255 230.564Z" fill="white"/>
</g>
<path opacity="0.5" d="M482.855 199.583L478.335 229.016C478.301 229.244 478.222 229.463 478.102 229.66C477.983 229.857 477.826 230.029 477.64 230.165C477.455 230.302 477.244 230.4 477.019 230.455C476.795 230.51 476.563 230.519 476.335 230.484L218.671 191.107C218.444 191.072 218.226 190.992 218.03 190.873C217.833 190.753 217.663 190.596 217.527 190.411C217.391 190.225 217.294 190.015 217.24 189.792C217.185 189.569 217.176 189.337 217.212 189.11L217.811 185.176C217.811 185.176 229.921 175.432 237.501 176.59C246.451 177.958 248.061 183.03 256.06 184.228C264.06 185.426 272.82 166.956 280.06 168.054C283.97 168.653 284.97 171.658 286.88 174.414C287.699 175.68 288.786 176.753 290.064 177.557C291.343 178.36 292.781 178.876 294.28 179.066L294.579 179.116C304.379 180.614 317.639 128.677 331.119 130.733C337.118 131.642 339.488 143.104 341.278 155.763C343.548 171.738 344.828 189.709 351.078 190.618C362.258 192.325 366.078 169.651 376.457 171.279C382.987 172.277 385.367 184.358 390.867 193.932C394.117 199.593 398.467 204.386 405.427 205.444C411.756 206.442 415.986 204.945 419.276 202.638C425.726 198.136 428.606 190.448 436.666 191.656C441.446 192.385 443.186 196.059 444.966 199.523C446.516 202.519 448.096 205.414 451.775 205.973C456.105 206.642 459.775 200.452 463.705 194.991C466.915 190.478 470.265 186.424 474.245 187.003C478.225 187.583 480.725 192.505 481.935 195.989C482.312 197.168 482.619 198.368 482.855 199.583Z" fill="#005F9F"/>
<path opacity="0.5" d="M489.054 159.138L478.335 229.026C478.301 229.254 478.222 229.473 478.102 229.67C477.983 229.867 477.826 230.039 477.64 230.175C477.455 230.312 477.244 230.41 477.019 230.465C476.795 230.52 476.563 230.529 476.335 230.494L218.671 191.107C218.444 191.072 218.226 190.992 218.03 190.873C217.833 190.753 217.663 190.596 217.527 190.411C217.391 190.225 217.294 190.015 217.24 189.792C217.185 189.569 217.176 189.337 217.212 189.11L217.811 185.176C228.511 186.814 234.221 178.817 241.401 179.915C248.581 181.013 252.301 186.015 259.02 187.043C265.74 188.072 276.11 172.367 283.46 173.495C284.612 173.662 285.738 173.978 286.81 174.434C289.64 175.612 291.59 177.509 294.209 179.086C296.271 180.334 298.563 181.156 300.949 181.502C309.559 182.81 326.789 151.7 336.778 153.227C338.508 153.54 340.074 154.443 341.208 155.783C347.108 162.203 348.628 178.257 356.948 179.525C367.038 181.073 372.437 164.689 382.227 166.177C392.017 167.664 394.897 184.517 406.227 186.245C417.556 187.972 429.846 157.061 441.616 158.858C453.385 160.656 456.745 176.54 466.975 178.098C478.205 179.815 489.054 159.138 489.054 159.138Z" fill="#005F9F"/>
<path d="M484.055 191.626L478.315 229.016C478.281 229.244 478.202 229.463 478.082 229.66C477.963 229.857 477.806 230.029 477.62 230.165C477.435 230.302 477.224 230.4 476.999 230.455C476.775 230.51 476.543 230.519 476.315 230.484L218.671 191.107C218.444 191.072 218.226 190.992 218.03 190.873C217.833 190.753 217.663 190.596 217.527 190.411C217.391 190.225 217.294 190.015 217.24 189.792C217.185 189.569 217.176 189.337 217.212 189.11L217.501 187.183C217.871 186.834 223.941 181.113 230.101 182.051C236.471 183.05 236.491 188.721 245.371 190.039C254.251 191.357 256.84 184.378 269.44 186.305C282.04 188.232 282 197.027 295.029 199.024C308.059 201.021 310.749 190.468 320.029 191.886C329.309 193.303 328.659 198.685 333.918 199.484C339.178 200.282 342.238 192.055 348.708 193.044C355.178 194.032 360.128 207.571 367.418 208.689C372.537 209.468 381.587 199.344 390.827 193.912C394.727 191.616 398.677 190.158 402.357 190.728C409.966 191.886 414.406 197.816 419.236 202.619C422.236 205.614 425.466 208.21 429.686 208.859C435.686 209.777 440.296 204.326 444.926 199.533C448.685 195.63 452.475 192.155 457.085 192.854C459.391 193.147 461.622 193.865 463.665 194.971C467.665 197.207 468.715 200.222 473.495 200.961C479.245 201.87 484.055 191.626 484.055 191.626Z" fill="#005F9F"/>
<path d="M249.11 89.6391L235.27 87.5225C234.95 87.4738 234.643 87.3625 234.366 87.1951C234.09 87.0276 233.849 86.8073 233.657 86.5466C233.466 86.286 233.328 85.9902 233.251 85.6763C233.174 85.3623 233.161 85.0363 233.21 84.717C233.309 84.0712 233.66 83.4908 234.187 83.1033C234.714 82.7158 235.373 82.5529 236.02 82.6503L249.85 84.7669C250.496 84.8679 251.076 85.2192 251.463 85.7446C251.851 86.27 252.015 86.9268 251.92 87.5724C251.819 88.2171 251.467 88.7958 250.941 89.1828C250.415 89.5698 249.757 89.7338 249.11 89.6391Z" fill="#005F9F"/>
<path d="M256.749 86.8536H256.969L270.809 88.9702C271.006 88.9953 271.196 89.0595 271.368 89.159C271.54 89.2584 271.69 89.3911 271.809 89.5493C272.036 89.8639 272.133 90.2536 272.079 90.6375C272.023 90.9825 271.847 91.2966 271.582 91.5248C271.317 91.753 270.979 91.8807 270.629 91.8855H270.399L256.569 89.7689C256.372 89.7472 256.18 89.6845 256.008 89.5848C255.836 89.4851 255.687 89.3505 255.569 89.1898C255.408 88.9724 255.31 88.7144 255.287 88.4447C255.264 88.1749 255.317 87.9041 255.439 87.6626C255.562 87.4211 255.749 87.2185 255.981 87.0773C256.212 86.9362 256.478 86.8622 256.749 86.8636V86.8536ZM256.749 85.8652C256.118 85.8489 255.505 86.0755 255.037 86.4981C254.568 86.9207 254.281 87.507 254.233 88.1355C254.186 88.764 254.382 89.3867 254.781 89.8748C255.181 90.3628 255.753 90.6788 256.379 90.7573L270.209 92.874C270.336 92.8839 270.463 92.8839 270.589 92.874C271.21 92.8706 271.807 92.634 272.261 92.2114C272.714 91.7888 272.992 91.2111 273.039 90.5932C273.086 89.9754 272.898 89.3626 272.512 88.8769C272.127 88.3911 271.573 88.068 270.959 87.9718L257.119 85.8652C256.996 85.8553 256.873 85.8553 256.749 85.8652Z" fill="#005F9F"/>
<path d="M277.849 90.0785H278.059L291.889 92.1951C292.251 92.2551 292.578 92.4483 292.805 92.7367C293.031 93.025 293.142 93.3876 293.114 93.7532C293.086 94.1187 292.923 94.4607 292.655 94.7119C292.388 94.9631 292.036 95.1052 291.669 95.1104H291.449L277.609 92.9938C277.412 92.9692 277.222 92.9053 277.05 92.8058C276.878 92.7063 276.728 92.5733 276.609 92.4147C276.496 92.2596 276.414 92.0835 276.369 91.8967C276.325 91.7098 276.318 91.516 276.349 91.3265C276.403 90.9833 276.578 90.6706 276.842 90.4439C277.105 90.2172 277.441 90.0913 277.789 90.0884L277.849 90.0785ZM277.789 89.09C277.158 89.0738 276.545 89.3004 276.076 89.723C275.608 90.1456 275.32 90.7318 275.273 91.3604C275.225 91.9889 275.421 92.6116 275.821 93.0996C276.22 93.5877 276.793 93.9037 277.419 93.9822L291.259 96.0988C291.382 96.1087 291.506 96.1087 291.629 96.0988C292.25 96.0954 292.846 95.8589 293.3 95.4363C293.754 95.0137 294.032 94.436 294.078 93.8181C294.125 93.2003 293.937 92.5875 293.552 92.1018C293.166 91.616 292.612 91.2929 291.999 91.1967L278.169 89.09C278.043 89.0801 277.915 89.0801 277.789 89.09Z" fill="#005F9F"/>
<path d="M493.314 124.733L493.484 123.655L492.684 123.465C492.665 123.287 492.622 123.112 492.554 122.946L493.174 122.407L492.534 121.528L491.824 121.957C491.685 121.847 491.534 121.753 491.374 121.678L491.424 120.859L490.344 120.699L490.154 121.498C489.979 121.517 489.808 121.557 489.644 121.618L489.094 120.999L488.214 121.648L488.644 122.347C488.533 122.487 488.442 122.641 488.374 122.806L487.554 122.746L487.384 123.824L488.184 124.024C488.202 124.199 488.246 124.371 488.314 124.533L487.694 125.072L488.344 125.951L489.044 125.522C489.184 125.63 489.335 125.724 489.494 125.801L489.444 126.62L490.524 126.78L490.714 125.991C490.891 125.963 491.065 125.92 491.234 125.861L491.774 126.48L492.654 125.831L492.224 125.132C492.333 124.995 492.423 124.844 492.494 124.683L493.314 124.733ZM490.244 124.993C489.996 124.954 489.764 124.843 489.579 124.673C489.395 124.504 489.264 124.283 489.205 124.039C489.145 123.796 489.16 123.54 489.246 123.304C489.332 123.069 489.487 122.864 489.689 122.716C489.892 122.568 490.134 122.483 490.385 122.473C490.636 122.462 490.885 122.526 491.099 122.657C491.314 122.787 491.485 122.978 491.591 123.205C491.696 123.433 491.732 123.686 491.694 123.934C491.668 124.099 491.61 124.257 491.524 124.399C491.437 124.541 491.323 124.665 491.188 124.763C491.054 124.862 490.901 124.932 490.739 124.972C490.577 125.011 490.409 125.018 490.244 124.993Z" fill="#005F9F"/>
<path opacity="0.2" d="M337.784 243.54L334.838 243.09L331.601 264.21L334.547 264.66L337.784 243.54Z" fill="#005F9F"/>
<path d="M337.298 246.714L334.353 246.264L332.829 256.202L335.775 256.652L337.298 246.714Z" fill="#005F9F"/>
<path opacity="0.2" d="M330.357 247.848L327.411 247.398L324.174 268.518L327.12 268.968L330.357 247.848Z" fill="#005F9F"/>
<path d="M326.531 252.962L325.006 262.91L327.952 263.36L329.477 253.412L326.531 252.962Z" fill="#005F9F"/>
<path opacity="0.2" d="M325.035 242.921L322.084 242.475L318.875 263.627L321.825 264.074L325.035 242.921Z" fill="#005F9F"/>
<path d="M323.122 250.736L320.177 250.286L318.652 260.234L321.598 260.684L323.122 250.736Z" fill="#005F9F"/>
<path opacity="0.2" d="M343.77 248.717L340.825 248.267L337.588 269.387L340.534 269.837L343.77 248.717Z" fill="#005F9F"/>
<path d="M343.294 251.89L340.349 251.44L338.824 261.388L341.77 261.838L343.294 251.89Z" fill="#005F9F"/>
<path opacity="0.2" d="M351.345 243.482L348.399 243.032L345.163 264.152L348.108 264.602L351.345 243.482Z" fill="#005F9F"/>
<path d="M350.979 245.864L348.033 245.414L346.509 255.362L349.454 255.812L350.979 245.864Z" fill="#005F9F"/>
<path opacity="0.2" d="M357.14 249.943L354.194 249.493L350.957 270.613L353.903 271.063L357.14 249.943Z" fill="#005F9F"/>
<path d="M357.012 250.742L354.066 250.292L352.541 260.24L355.487 260.69L357.012 250.742Z" fill="#005F9F"/>
<path opacity="0.2" d="M365.444 239.912L362.499 239.462L359.262 260.582L362.207 261.032L365.444 239.912Z" fill="#005F9F"/>
<path d="M365.334 240.712L362.389 240.262L360.866 250.2L363.811 250.651L365.334 240.712Z" fill="#005F9F"/>
<path opacity="0.2" d="M370.032 254.227L367.086 253.776L363.85 274.897L366.795 275.347L370.032 254.227Z" fill="#005F9F"/>
<path d="M369.546 257.41L366.601 256.96L365.076 266.908L368.022 267.358L369.546 257.41Z" fill="#005F9F"/>
<path opacity="0.2" d="M376.468 256.471L373.522 256.021L370.285 277.141L373.231 277.591L376.468 256.471Z" fill="#005F9F"/>
<path d="M375.247 264.43L372.302 263.98L370.777 273.928L373.723 274.378L375.247 264.43Z" fill="#005F9F"/>
<path opacity="0.2" d="M385.134 244.21L382.188 243.76L378.952 264.88L381.897 265.33L385.134 244.21Z" fill="#005F9F"/>
<path d="M383.784 252.972L380.838 252.522L379.315 262.46L382.261 262.91L383.784 252.972Z" fill="#005F9F"/>
<path opacity="0.2" d="M390.323 254.522L387.377 254.072L384.14 275.192L387.086 275.642L390.323 254.522Z" fill="#005F9F"/>
<path d="M389.707 258.507L386.762 258.056L385.239 267.995L388.184 268.445L389.707 258.507Z" fill="#005F9F"/>
<path opacity="0.2" d="M397.789 250.021L394.843 249.571L391.606 270.691L394.552 271.141L397.789 250.021Z" fill="#005F9F"/>
<path d="M398.12 253.263L395.169 252.817L393.657 262.78L396.608 263.226L398.12 253.263Z" fill="#005F9F"/>
<path opacity="0.2" d="M405.871 241.544L402.925 241.094L399.688 262.214L402.634 262.664L405.871 241.544Z" fill="#005F9F"/>
<path d="M405.86 241.552L402.914 241.102L401.389 251.05L404.335 251.5L405.86 241.552Z" fill="#005F9F"/>
<path opacity="0.2" d="M410.446 255.936L407.5 255.486L404.264 276.606L407.209 277.057L410.446 255.936Z" fill="#005F9F"/>
<path d="M410.07 258.329L407.124 257.879L405.599 267.827L408.545 268.277L410.07 258.329Z" fill="#005F9F"/>
<path opacity="0.2" d="M415.637 266.238L412.691 265.788L409.454 286.908L412.4 287.358L415.637 266.238Z" fill="#005F9F"/>
<path d="M415.27 268.62L412.325 268.17L410.8 278.118L413.746 278.568L415.27 268.62Z" fill="#005F9F"/>
<path opacity="0.2" d="M423.971 256.071L421.025 255.621L417.788 276.741L420.734 277.191L423.971 256.071Z" fill="#005F9F"/>
<path d="M422.76 264.012L419.814 263.562L418.29 273.51L421.236 273.96L422.76 264.012Z" fill="#005F9F"/>
<path opacity="0.2" d="M432.429 245.144L429.483 244.694L426.246 265.814L429.192 266.264L432.429 245.144Z" fill="#005F9F"/>
<path d="M430.96 254.686L428.014 254.236L426.489 264.184L429.435 264.634L430.96 254.686Z" fill="#005F9F"/>
<path opacity="0.2" d="M437.222 258.089L434.276 257.639L431.039 278.759L433.985 279.209L437.222 258.089Z" fill="#005F9F"/>
<path d="M437.632 261.284L434.682 260.838L433.17 270.801L436.12 271.247L437.632 261.284Z" fill="#005F9F"/>
<path opacity="0.2" d="M443.296 262.619L440.35 262.169L437.113 283.289L440.059 283.739L443.296 262.619Z" fill="#005F9F"/>
<path d="M441.966 271.371L439.02 270.921L437.495 280.869L440.441 281.319L441.966 271.371Z" fill="#005F9F"/>
<path opacity="0.2" d="M450.933 257.037L447.987 256.587L444.75 277.707L447.696 278.157L450.933 257.037Z" fill="#005F9F"/>
<path d="M450.933 257.046L447.987 256.596L446.462 266.544L449.408 266.994L450.933 257.046Z" fill="#005F9F"/>
<path opacity="0.2" d="M456.547 264.637L453.602 264.187L450.365 285.307L453.31 285.757L456.547 264.637Z" fill="#005F9F"/>
<path d="M456.299 266.228L453.354 265.778L451.829 275.726L454.775 276.176L456.299 266.228Z" fill="#005F9F"/>
<path opacity="0.2" d="M463.614 262.799L460.668 262.349L457.431 283.469L460.377 283.919L463.614 262.799Z" fill="#005F9F"/>
<path d="M463.486 263.598L460.54 263.148L459.015 273.096L461.961 273.546L463.486 263.598Z" fill="#005F9F"/>
<path opacity="0.2" d="M469.808 266.528L466.862 266.078L463.625 287.198L466.571 287.648L469.808 266.528Z" fill="#005F9F"/>
<path d="M469.192 276.866L466.242 276.42L464.73 286.383L467.68 286.829L469.192 276.866Z" fill="#005F9F"/>
<path d="M362.857 295.861L307.384 287.386L307.121 289.103L362.594 297.578L362.857 295.861Z" fill="#999999" stroke="#263238" stroke-linecap="round" stroke-linejoin="round"/>
<path opacity="0.2" d="M186.951 412.154C186.951 412.154 219.49 368.473 244.03 360.476C268.569 352.479 269.779 341.626 268.779 321.379C267.779 301.131 268.519 280.724 261.779 278.288C255.039 275.851 269.859 249.414 262.779 238.94L216.35 311.764L186.951 412.154Z" fill="black" fill-opacity="0.7"/>
<path d="M179.061 424.324L178.571 424.164L179.271 424.554L179.061 424.324ZM258.159 290.328C254.16 288.461 246.22 279.705 245.23 278.607C250.23 270.2 255.169 262.093 256.879 260.146C260.429 256.153 264.759 244.502 262.999 238.871C261.389 233.699 256.119 234.527 255.399 234.667H255.319C255.292 234.671 255.267 234.682 255.244 234.697C255.222 234.713 255.203 234.733 255.189 234.757C255.079 234.947 244.35 253.008 241.02 257.331C239.43 259.388 235.77 264.07 232.02 268.763L230.91 268.593C228.584 268.231 226.212 268.299 223.91 268.793L223.68 268.873C222.49 269.385 221.343 269.993 220.25 270.69L219.46 270.36C217.88 269.701 214.611 268.433 213.061 268.363C211.171 268.263 204.511 271.359 200.531 273.855C197.787 273.023 194.928 272.635 192.061 272.706C189.011 272.836 182.791 275.362 177.791 277.389C175.572 278.287 173.652 279.066 172.532 279.386L171.532 279.685C168.532 280.574 166.912 281.073 164.832 285.226C162.672 289.539 160.342 305.624 159.222 313.351L159.072 314.4C158.642 317.395 158.712 322.647 158.782 328.248C158.892 336.035 159.002 344.082 157.842 347.217C156.275 351.167 154.205 354.898 151.682 358.32C151.352 358.789 151.052 359.228 150.772 359.647C149.211 362.08 147.964 364.7 147.062 367.445C146.222 369.661 145.172 372.098 144.152 374.324C142.272 378.447 140.522 381.852 140.522 381.852C140.522 381.852 175.972 420.9 179.061 424.324C179.228 424.388 179.398 424.441 179.571 424.484C179.691 424.284 186.231 413.122 193.161 402.11C199.161 392.605 205.391 383.21 208.061 381.053C211.722 377.917 214.384 373.78 215.721 369.152C217.16 364.53 226.35 358.829 235.24 353.318C245.07 347.227 255.239 340.927 255.579 335.716C255.769 333.02 256.389 328.557 257.109 323.375C259.059 309.338 261.479 291.856 258.159 290.328ZM241.32 312.772L236.95 317.016C236.33 313.521 232.08 308.879 231.41 308.17C231.746 306.49 231.963 304.788 232.06 303.078C232.22 301.131 232.39 299.084 232.87 298.755C233.35 298.425 235.56 294.761 239.16 288.771C239.46 292.994 243.16 297.647 243.66 298.315L241.32 312.772Z" fill="white"/>
<path opacity="0.4" d="M189.431 299.803C188.142 311.305 176.852 339.839 176.852 339.839L174.852 311.095C174.852 311.095 166.062 350.103 163.652 351.51C161.242 352.918 157.012 360.376 154.652 366.297C153.062 370.29 147.653 373.006 144.243 374.374C145.243 372.147 146.313 369.711 147.153 367.495C148.055 364.75 149.301 362.13 150.863 359.697C151.142 359.278 151.442 358.839 151.772 358.369C154.295 354.948 156.365 351.217 157.932 347.267C159.092 344.112 158.932 336.065 158.872 328.298C158.802 322.696 158.732 317.405 159.162 314.45L159.312 313.401C160.432 305.674 162.762 289.589 164.922 285.276C167.002 281.123 168.642 280.624 171.622 279.735L172.622 279.436C173.742 279.086 175.622 278.307 177.882 277.439C182.882 275.442 189.102 272.886 192.151 272.756C195.002 272.697 197.845 273.091 200.571 273.924C204.571 271.418 211.211 268.333 213.101 268.433C214.651 268.503 217.921 269.771 219.501 270.43C212.861 273.845 201.691 282.071 201.691 282.071C189.062 284.807 189.431 299.803 189.431 299.803Z" fill="#005F9F"/>
<path opacity="0.4" d="M211.811 284.527C215.08 282.268 218.468 280.185 221.961 278.287C225.201 276.77 226.241 270.72 223.961 269.012C223.875 268.949 223.776 268.908 223.671 268.892L223.901 268.813C226.202 268.319 228.575 268.251 230.901 268.613C226.711 274.893 223.431 279.705 222.561 280.744C219.681 284.238 211.811 284.527 211.811 284.527Z" fill="#005F9F"/>
<path opacity="0.4" d="M228.34 323.935L229.87 324.594C228.94 328.298 228.34 323.935 228.34 323.935Z" fill="#005F9F"/>
<path opacity="0.4" d="M258.159 290.328C254.16 288.461 246.22 279.705 245.23 278.607C250.23 270.2 255.17 262.093 256.879 260.146C260.429 256.153 264.759 244.502 262.999 238.871C261.389 233.699 256.119 234.527 255.4 234.667V234.887C255.4 234.887 261.099 235.596 261.089 243.823C261.079 252.049 246.28 268.353 246.28 268.353C246.28 268.353 231.06 296.858 230.06 296.428C229.06 295.999 226.83 315.478 226.83 315.478C226.83 315.478 231.07 319.082 230.06 323.935C230.007 324.174 229.957 324.394 229.91 324.593L236.43 327.399C236.43 327.399 242.97 322.816 246.29 329.556C249.61 336.295 214.371 360.376 211.601 363.941C211.601 363.941 211.211 377.369 206.071 379.346C202.741 380.624 196.871 393.324 193.161 402.12C199.161 392.615 205.391 383.22 208.061 381.063C211.722 377.927 214.385 373.79 215.721 369.162C217.161 364.54 226.35 358.839 235.24 353.328C245.07 347.237 255.24 340.937 255.58 335.726C255.77 333.03 256.389 328.567 257.109 323.385C259.059 309.338 261.479 291.856 258.159 290.328ZM241.32 312.772L236.95 317.016C236.33 313.521 232.08 308.879 231.41 308.17C231.746 306.49 231.963 304.788 232.06 303.078C232.22 301.131 232.39 299.084 232.87 298.755C233.35 298.425 235.56 294.761 239.16 288.771C239.46 292.994 243.16 297.647 243.66 298.315L241.32 312.772Z" fill="#005F9F"/>
<path d="M215.521 284.787C218.245 284.203 220.722 282.791 222.61 280.744C225.61 277.379 237.81 261.864 241.19 257.481C244.57 253.098 255.369 234.887 255.369 234.887C255.369 234.887 261.109 233.539 262.799 238.941C264.489 244.342 260.439 255.794 256.719 260.007C253 264.22 234.09 297.607 232.72 298.615C231.35 299.624 232.39 309.079 229.72 311.095" stroke="#263238" stroke-linecap="round" stroke-linejoin="round"/>
<path d="M231.17 308.26C231.17 308.26 236.46 313.791 236.8 317.495L241.52 312.882L243.89 298.276C243.89 298.276 239.22 292.665 239.36 288.052" stroke="#263238" stroke-linecap="round" stroke-linejoin="round"/>
<path d="M244.969 278.637C244.969 278.637 253.679 288.501 258.069 290.528C262.459 292.555 256.069 325.931 255.369 335.706C254.669 345.48 218.56 359.288 215.52 369.082C214.203 373.676 211.56 377.781 207.92 380.884C202.06 385.626 179.381 424.384 179.381 424.384" stroke="#263238" stroke-linecap="round" stroke-linejoin="round"/>
<path d="M232.151 269.012C232.151 269.012 227.001 268.064 223.961 269.012C220.921 269.961 208.061 279.076 205.061 280.744C202.061 282.411 197.631 282.74 196.621 284.787" stroke="#263238" stroke-linecap="round" stroke-linejoin="round"/>
<path d="M220.261 270.949C220.261 270.949 215.061 268.693 213.061 268.593C211.061 268.493 202.931 272.317 199.221 275.013C196.369 277.101 193.165 278.663 189.761 279.625" stroke="#263238" stroke-linecap="round" stroke-linejoin="round"/>
<path d="M200.541 274.084C197.814 273.234 194.967 272.832 192.111 272.896C187.711 273.086 176.231 278.477 172.631 279.605C169.032 280.734 167.342 280.833 165.092 285.336C162.842 289.839 160.362 307.471 159.352 314.44C158.342 321.409 160.142 341.806 158.112 347.317C156.082 352.828 152.952 356.952 151.062 359.817C147.212 365.528 147.642 369.801 140.632 381.902" stroke="#263238" stroke-linecap="round" stroke-linejoin="round"/>
<path d="M192.391 286.305C188.001 290.188 188.811 297.607 189.391 299.803C189.971 302 187.281 310.786 186.391 315.478" stroke="#263238" stroke-linecap="round" stroke-linejoin="round"/>
<path d="M220.261 290.059C212.261 290.228 209.781 295.62 209.261 299.164" stroke="#263238" stroke-linecap="round" stroke-linejoin="round"/>
<path d="M186.482 282.071C184.112 281.902 178.032 285.616 176.852 291.686" stroke="#263238" stroke-linecap="round" stroke-linejoin="round"/>
<path d="M243.89 298.276C243.89 298.276 245.07 294.911 246.25 294.571" stroke="#263238" stroke-linecap="round" stroke-linejoin="round"/>
<path d="M241.519 312.882C240.937 314.861 240.215 316.796 239.359 318.673C238.359 320.67 239.359 323.855 239.359 323.855" stroke="#263238" stroke-linecap="round" stroke-linejoin="round"/>
<path d="M236.8 317.495C236.63 320.869 232.91 324.484 232.15 323.855" stroke="#263238" stroke-linecap="round" stroke-linejoin="round"/>
<path d="M205 311.764C204.88 315.478 198.13 342.615 198.13 342.615" stroke="#263238" stroke-linecap="round" stroke-linejoin="round"/>
</svg>
