<svg width="597" height="590" fill="none" xmlns="http://www.w3.org/2000/svg"><path opacity=".7" d="M525.08 253.779s-18.27-76.868-96.228-110.979c-77.957-34.111-172.279-13.508-249.022 1.266-76.743 14.775-138.929 92.303-135.147 156.715 3.781 64.411 77.642 46.307 123.335 108.864 45.694 62.558 69.436 97.317 131.884 93.929 62.448-3.389 110.973-22.742 183.443-98.443 66.054-68.998 41.735-151.352 41.735-151.352z" fill="#F7F7F7"/><path d="M282.059 7.92c-33.999 5.58-66.468 17.88-94.088 39.137-40.179 30.95-62.458 77.147-64.788 127.416-1.53 33.187 6.4 65.546 16 97.055 12.319 40.496 20.279 86.712 46.028 121.366 40.099 53.914 117.587 76.658 182.396 67.013 41.869-6.24 86.107-29.952 98.997-72.883 4.77-15.885 7.09-32.948 15.24-47.634 9.769-17.592 27.479-27.866 40.929-42.193 16.619-17.691 23.309-39.736 27.449-63.049 9.06-51.038-3.31-105.102-33.179-147.444-31.169-44.17-77.408-67.892-129.907-77.197a374.962 374.962 0 00-17.359-2.616c-28.84-3.624-58.819-3.744-87.718 1.029z" fill="#005F9F"/><path opacity=".7" d="M282.059 7.92c-33.999 5.58-66.468 17.88-94.088 39.137-40.179 30.95-62.458 77.147-64.788 127.416-1.53 33.187 6.4 65.546 16 97.055 12.319 40.496 20.279 86.712 46.028 121.366 40.099 53.914 117.587 76.658 182.396 67.013 41.869-6.24 86.107-29.952 98.997-72.883 4.77-15.885 7.09-32.948 15.24-47.634 9.769-17.592 27.479-27.866 40.929-42.193 16.619-17.691 23.309-39.736 27.449-63.049 9.06-51.038-3.31-105.102-33.179-147.444-31.169-44.17-77.408-67.892-129.907-77.197a374.962 374.962 0 00-17.359-2.616c-28.84-3.624-58.819-3.744-87.718 1.029z" fill="#F7F7F7"/><path opacity=".2" d="M298.339 345.63l83.718-15.585s18.94 59.664 22.76 67.382l-2 4.683 1.26 7.837-83.198 18.89-6.67-5.252-15.87-77.955z" fill="#000" fill-opacity=".7"/><path d="M375.975 323.651l-80.931 19.13 19.162 80.803 80.931-19.13-19.162-80.803z" fill="#005F9F"/><path opacity=".2" d="M381.147 345.45l13.43 56.62-77.178 18.241c-9.3-23.233-16.41-52.487-16.41-52.487l80.158-22.374z" fill="#000" fill-opacity=".7"/><path d="M375.975 323.651l-80.931 19.13 19.162 80.803 80.931-19.13-19.162-80.803z" stroke="#263238" stroke-linecap="round" stroke-linejoin="round"/><path d="M397.667 399.304c-20.23 4.782-48.879 9.275-66.159 11.811a1028.142 1028.142 0 01-14.999 2.097c-7.66-13.978-21.48-70.428-21.48-70.428l80.928-19.129c.16.689.3 1.378.45 2.057 9.65 43.66 21.26 73.592 21.26 73.592z" fill="#fff"/><path opacity=".4" d="M397.667 399.304c-20.229 4.782-48.878 9.275-66.158 11.811-13-8.616-16.11-17.063-15.95-25.12.17-9.564 41.909-.219 50.629-9.694 6.22-6.759 6-35.443 10.24-50.589 9.63 43.66 21.239 73.592 21.239 73.592z" fill="#005F9F"/><path d="M397.667 399.304c-20.23 4.782-48.879 9.275-66.159 11.811a1028.142 1028.142 0 01-14.999 2.097c-7.66-13.978-21.48-70.428-21.48-70.428l80.928-19.129c.16.689.3 1.378.45 2.057 9.65 43.66 21.26 73.592 21.26 73.592z" stroke="#263238" stroke-linecap="round" stroke-linejoin="round"/><path d="M308.709 355.005a14.185 14.185 0 013.89-3.165l1.2 3.075 4.19-1.518c1.4-.509 3-1.168 3.49-2.555.77 1.827 3.43 1.517 5.32.918a292.864 292.864 0 0139.999-9.814m-56.059 24.241c-.87-.449-.15-1.997.83-1.937.98.06 1.61 1.138 1.69 2.117a2.072 2.072 0 001.8-1.628l1.39.999a1.515 1.515 0 011.08-2.353 1.517 1.517 0 011.54.825c-.1-1.138.34-2.775 1.45-2.516.346.142.661.349.93.609a2.529 2.529 0 002.276.175 2.53 2.53 0 00.95-.689 2.53 2.53 0 00.534-1.043c1.09 1.238 3 1.068 4.67.789l14.559-2.477c.14-.918.6-2.096 1.52-1.996.53.08.88.589 1.34.868a3.162 3.162 0 002.23.08 127.868 127.868 0 0019.25-5.781m-53.019 26.688c1.945.17 3.904-.1 5.73-.789a3.329 3.329 0 01.95-4.044l1.76 1.129a93.803 93.803 0 0021-2.896c3.069-.779 6.109-1.727 9.139-2.676l17.26-5.371" stroke="#263238" stroke-linecap="round" stroke-linejoin="round"/><path opacity=".2" d="M153.663 255.953l2.9 13.009 3.31-14.726-8.7-147.095h-5.93l8.42 148.812z" fill="#000" fill-opacity=".7"/><path d="M148.363 105.354l8.2 147.964-3 12.17-4.34-11.761-8.22-147.974a1.853 1.853 0 011.75-1.996l3.65-.2a1.86 1.86 0 011.96 1.797z" fill="#005F9F"/><path opacity=".2" d="M153.543 265.488l-4.34-11.761-8.2-147.973a1.858 1.858 0 011.75-1.997h.51l8.26 149.052 2.02 12.679z" fill="#000" fill-opacity=".7"/><path d="M148.363 105.354l8.2 147.964-3 12.17-4.34-11.761-8.22-147.974a1.853 1.853 0 011.75-1.996l3.65-.2a1.86 1.86 0 011.96 1.797v0z" stroke="#263238" stroke-linecap="round" stroke-linejoin="round"/><path d="M143.402 106.352l8 145.258a1.261 1.261 0 001.33 1.188h.88" fill="#005F9F"/><path d="M143.402 106.352l8 145.258a1.261 1.261 0 001.33 1.188h.88" stroke="#263238" stroke-linecap="round" stroke-linejoin="round"/><path opacity=".2" d="M188.811 263.561l27.11-176.847a20.74 20.74 0 018.239-13.576 20.805 20.805 0 0115.44-3.786l260.303 39.786a20.763 20.763 0 0113.603 8.217 20.716 20.716 0 013.797 15.415l-27.119 176.848a20.712 20.712 0 01-8.225 13.591A20.8 20.8 0 01466.514 327l-260.313-39.797a20.786 20.786 0 01-13.597-8.226 20.726 20.726 0 01-3.793-15.416z" fill="#000" fill-opacity=".7"/><path d="M209.703 93.367l2.059-13.432a.998.998 0 011.14-.835l5.674.866-2.36 15.396-5.674-.867a.998.998 0 01-.839-1.128zm35.244-28.289l13.453 2.059a1 1 0 01.837 1.138l-.867 5.665-15.42-2.36.867-5.665a.998.998 0 011.13-.837zm18.335 2.796l13.453 2.055a1.002 1.002 0 01.837 1.138l-.868 5.665-15.42-2.356.868-5.665a1 1 0 011.13-.837z" fill="#005F9F" stroke="#263238" stroke-linecap="round" stroke-linejoin="round"/><path d="M185.811 259.568l27.11-176.847a20.74 20.74 0 018.239-13.576 20.805 20.805 0 0115.44-3.787l260.303 39.787a20.78 20.78 0 0113.603 8.217 20.72 20.72 0 013.797 15.415l-27.119 176.847a20.712 20.712 0 01-8.225 13.591 20.78 20.78 0 01-15.445 3.791L203.201 283.21a20.783 20.783 0 01-13.597-8.227 20.723 20.723 0 01-3.793-15.415z" fill="#005F9F" stroke="#263238" stroke-linecap="round" stroke-linejoin="round"/><path d="M464.534 320.8l-261.653-39.986a17.763 17.763 0 01-11.636-7.03 17.713 17.713 0 01-3.243-13.188l27.319-178.205a17.738 17.738 0 017.043-11.615 17.792 17.792 0 0113.206-3.242l261.664 39.987a17.793 17.793 0 0111.63 7.04 17.74 17.74 0 013.249 13.187l-27.319 178.195a17.737 17.737 0 01-7.047 11.619 17.793 17.793 0 01-13.213 3.238z" fill="#757575" stroke="#263238" stroke-linecap="round" stroke-linejoin="round"/><path d="M206.062 172.167a.997.997 0 01-.757.803.998.998 0 11.578-1.562 1.009 1.009 0 01.179.759z" fill="#999" stroke="#263238" stroke-linecap="round" stroke-linejoin="round"/><path d="M205.571 181.462a1.95 1.95 0 01-3.85-.589 1.956 1.956 0 012.206-1.532 1.95 1.95 0 011.644 2.121zm3.431-22.374a1.947 1.947 0 01-2.206 1.532 1.95 1.95 0 01-1.644-2.121 1.947 1.947 0 012.971-1.455 1.941 1.941 0 01.879 2.044zm-4.94 28.654a1.415 1.415 0 01-1.066 1.162 1.427 1.427 0 01-1.482-.538 1.414 1.414 0 01.542-2.123 1.423 1.423 0 011.747.444 1.416 1.416 0 01.259 1.055zm301.481-63.059l-27.929 182.229a8.763 8.763 0 01-3.479 5.735 8.788 8.788 0 01-6.521 1.603L248.41 280.754l-4.75-.679-17.869-2.736-8.65-1.318-12.5-1.937-2.73-.419a8.781 8.781 0 01-5.744-3.473 8.758 8.758 0 01-1.606-6.511l27.94-182.289a8.726 8.726 0 013.477-5.735 8.768 8.768 0 016.522-1.593l81.828 12.5 12.38 1.897 11.83 1.807 15.199 2.316 5.5.84 138.997 21.235a8.787 8.787 0 015.734 3.5 8.752 8.752 0 011.575 6.524z" fill="#263238"/><path opacity=".1" d="M300.059 279.076l-92.997-14.207a2.306 2.306 0 01-1.93-2.626l9.229-60.233a2.317 2.317 0 012.64-1.927l92.998 14.207a2.305 2.305 0 011.512.912 2.287 2.287 0 01.418 1.714l-9.23 60.233a2.294 2.294 0 01-.919 1.511 2.329 2.329 0 01-1.721.416zm-83.148-78.195a1.497 1.497 0 00-1.116.275 1.499 1.499 0 00-.594.983l-9.229 60.224a1.498 1.498 0 001.26 1.707l92.947 14.208a1.522 1.522 0 001.117-.275 1.499 1.499 0 00.593-.983l9.24-60.224a1.517 1.517 0 00-1.26-1.717l-92.958-14.198z" fill="#fff"/><path opacity=".4" d="M244.96 237.333l20.82 11.791a24.505 24.505 0 00-1.54-25.958l-19.28 14.167z" fill="#005F9F"/><path opacity=".6" d="M245.16 236.145l18.6-13.648a24.527 24.527 0 00-9.63-7.598l-3.67 8.686-5.3 12.56z" fill="#005F9F"/><path d="M248.33 213.182l-3.22 20.966 8.28-19.599a24.776 24.776 0 00-5.06-1.367z" fill="#005F9F"/><path opacity=".1" d="M243.861 237.083l3.67-23.961a24.586 24.586 0 00-12.456 1.533 24.54 24.54 0 00-10.069 7.479 24.476 24.476 0 00-3.765 23.935l22.62-8.986z" fill="#fff"/><path opacity=".2" d="M240.501 261.604a24.6 24.6 0 0014.25-2.088 24.55 24.55 0 0010.63-9.703l-21.19-11.981-22.659 8.936a24.506 24.506 0 007.536 9.902 24.568 24.568 0 0011.433 4.934z" fill="#005F9F"/><path d="M282.82 222.913l-2.758-.422a.63.63 0 00-.718.527l-.422 2.754a.63.63 0 00.528.717l2.758.421a.63.63 0 00.718-.527l.422-2.753a.63.63 0 00-.528-.717zm14.989 3.797l-12.05-1.847a.466.466 0 01-.383-.348.442.442 0 01-.007-.181.459.459 0 01.53-.39l12 1.847a.46.46 0 01.221.812.482.482 0 01-.311.107zm-3.99 1.448l-8.37-1.278a.456.456 0 01-.306-.183.46.46 0 01.102-.649.47.47 0 01.344-.087l8.37 1.278a.46.46 0 01.39.529.459.459 0 01-.53.39z" fill="#005F9F"/><path opacity=".6" d="M281.45 231.858l-2.757-.421a.629.629 0 00-.718.526l-.422 2.754a.629.629 0 00.527.717l2.758.421a.63.63 0 00.718-.526l.422-2.754a.63.63 0 00-.528-.717z" fill="#005F9F"/><path d="M296.439 235.646l-12.06-1.837a.477.477 0 01-.39-.529.47.47 0 01.53-.39l12.06 1.847a.461.461 0 01.202.825.45.45 0 01-.342.084zm-3.99 1.437l-8.39-1.278a.472.472 0 01-.169-.806.472.472 0 01.309-.112l8.37 1.278a.459.459 0 01.39.529.452.452 0 01-.176.298.455.455 0 01-.334.091z" fill="#005F9F"/><path opacity=".4" d="M280.706 240.991l-2.762-.418a.631.631 0 00-.719.528l-.418 2.758a.63.63 0 00.529.717l2.762.418a.63.63 0 00.718-.528l.419-2.758a.63.63 0 00-.529-.717z" fill="#005F9F"/><path d="M295.059 244.591l-12-1.837a.472.472 0 01-.329-.52.47.47 0 01.469-.398l12 1.837a.459.459 0 01.39.529.459.459 0 01-.53.389zm-4 1.438l-8.37-1.278a.472.472 0 01-.329-.52.47.47 0 01.469-.398l8.37 1.278a.472.472 0 01.169.806.472.472 0 01-.309.112z" fill="#005F9F"/><path opacity=".2" d="M278.711 249.749l-2.758-.421a.63.63 0 00-.718.526l-.422 2.754a.63.63 0 00.528.717l2.758.421a.63.63 0 00.718-.527l.422-2.753a.63.63 0 00-.528-.717z" fill="#005F9F"/><path d="M293.689 253.537l-12-1.837a.472.472 0 01-.39-.529.46.46 0 01.53-.389l12.05 1.837a.459.459 0 01.39.529.459.459 0 01-.58.389zm-3.98 1.438l-8.37-1.278a.46.46 0 01-.39-.529.459.459 0 01.53-.39l8.37 1.278a.472.472 0 01.39.529.46.46 0 01-.53.39z" fill="#005F9F"/><path opacity=".1" d="M277.342 258.704l-2.758-.421a.629.629 0 00-.718.527l-.422 2.753a.629.629 0 00.527.717l2.758.421a.63.63 0 00.718-.526l.422-2.754a.629.629 0 00-.527-.717z" fill="#fff"/><path d="M292.319 262.483l-12-1.837a.472.472 0 01-.33-.701.477.477 0 01.288-.211.465.465 0 01.182-.007l12.05 1.837a.46.46 0 01.39.529.468.468 0 01-.2.328.468.468 0 01-.38.062zm-3.98 1.438l-8.38-1.278a.465.465 0 01-.38-.53.443.443 0 01.18-.309.451.451 0 01.35-.08l8.37 1.278a.487.487 0 01.195.044c.061.029.115.07.159.121a.477.477 0 01.035.561.474.474 0 01-.529.193z" fill="#005F9F"/><path opacity=".1" d="M475.214 239.52l-151.156-23.094a2.327 2.327 0 00-1.718.421 2.312 2.312 0 00-.922 1.506l-.64 4.154-.12.798-.86 5.601-.12.799-.86 5.591-.12.789-.86 5.601-.12.789-.86 5.601-.12.799-.86 5.591-.12.798-.86 5.591-.12.799-.86 5.591-.12.799-.86 5.591-.12.799-.63 4.153a2.311 2.311 0 00.417 1.718 2.315 2.315 0 001.513.918l151.126 23.093a2.31 2.31 0 002.62-1.937l.64-4.153.12-.799.86-5.591.12-.799.86-5.601.12-.789.86-5.591.12-.798.86-5.591.12-.799.86-5.601.12-.789.86-5.601.12-.789.86-5.591.12-.799.86-5.601.12-.798.64-4.154a2.308 2.308 0 00-1.89-2.625zm-8.1 62.739a1.509 1.509 0 01-1.71 1.258l-151.116-23.093a1.517 1.517 0 01-1.27-1.717l.64-4.153 154.086 23.552-.63 4.153zm.76-4.992l-154.096-23.542.86-5.601 154.086 23.552-.85 5.591zm1-6.39l-154.116-23.502.86-5.601 154.086 23.542-.83 5.561zm1-6.389l-154.096-23.553.86-5.591 154.086 23.543-.85 5.601zm1-6.39l-154.096-23.553.86-5.591 154.086 23.553-.85 5.591zm1-6.39l-154.096-23.552.86-5.601 154.086 23.552-.85 5.601zm1-6.4l-154.096-23.542.86-5.591 154.086 23.542-.85 5.591zm1-6.389l-154.216-23.503.86-5.591 154.086 23.542-.73 5.552zm1-6.38l-154.236-23.513.86-5.601 154.086 23.553-.71 5.561zm-153.106-29.952l.64-4.144a1.499 1.499 0 011.71-1.258l150.936 23.133a1.502 1.502 0 011.25 1.708l-.64 4.153-153.896-23.592zm169.586-90.556L233.841 92.674a2.632 2.632 0 00-3 2.207L216.412 189a2.634 2.634 0 002.2 2.996l257.523 39.357a2.641 2.641 0 003-2.197l14.429-94.129a2.626 2.626 0 00-1.242-2.648 2.648 2.648 0 00-.968-.348zM281.36 145.56l17.879 2.725-1.559 10.144-17.91-2.735 1.59-10.134zm-2.35 9.984l-17.95-2.686 1.56-10.154 17.91 2.736-1.52 10.104zm21.049-7.119l17.92 2.736-1.56 10.154-17.91-2.736 1.55-10.154zm92.878 13.379l-17.909-2.736 1.549-10.154 17.92 2.736-1.56 10.154zm2.35-9.984l17.92 2.735-1.56 10.154-17.91-2.735 1.55-10.154zm-57.809 2.376l17.92 2.736-1.56 10.153-17.939-2.825 1.579-10.064zm-2.349 9.984l-17.91-2.736 1.52-10.163 17.92 2.735-1.53 10.164zm21.059-7.169l17.87 2.726-1.56 10.154-17.91-2.736 1.6-10.144zm18.71 2.856l17.919 2.736-1.56 10.153-17.909-2.735 1.55-10.154zm-.67-.919l-17.91-2.735 1.55-10.154 17.92 2.746-1.56 10.143zm-18.71-2.855l-17.91-2.736 1.55-10.153 17.9 2.725-1.54 10.164zm-18.74-2.816l-17.909-2.745 1.55-10.234 17.919 2.736-1.56 10.243zm-18.719-2.915l-17.91-2.736 1.55-10.153 17.92 2.735-1.56 10.154zm-1.8 11.751l-1.55 10.134-17.909-2.736 1.559-10.153 17.9 2.755zm.8.12l17.91 2.736-1.56 10.153-17.91-2.735 1.56-10.154zm18.71 2.856l17.909 2.735-1.56 10.154-17.899-2.736 1.55-10.153zm18.709 2.855l17.91 2.746-1.56 10.143-17.91-2.735 1.56-10.154zm18.71 2.865l17.909 2.736-1.56 10.154-17.909-2.736 1.56-10.154zm18.709 2.856l17.91 2.735-1.56 10.154-17.91-2.735 1.56-10.154zm.12-.789l1.55-10.154 17.92 2.736-1.56 10.154-17.91-2.736zm20.26-7.298l17.919 2.735-1.56 10.154-17.909-2.735 1.55-10.154zm18.709 2.855l17.92 2.746-1.56 10.144-17.91-2.736 1.55-10.154zm.13-.789l1.55-10.153 17.93 2.775-1.54 10.114-17.94-2.736zm-.8-.119l-17.909-2.746 1.549-10.154 17.92 2.746-1.56 10.154zm-16.26-13.688l1.56-10.154 17.91 2.735-1.47 10.154-18-2.735zm-.789-.12l-17.91-2.746 1.55-10.144 17.909 2.736-1.549 10.154zm-18.71-2.866l-17.92-2.735 1.56-10.154 17.91 2.736-1.55 10.153zm-18.71-2.855l-17.889-2.706 1.56-10.154 17.909 2.736-1.58 10.124zm-18.709-2.866l-17.88-2.735 1.55-10.154 17.91 2.746-1.58 10.143zm-18.68-2.835l-17.909-2.736 1.51-10.173 17.999 2.735-1.6 10.174zm-18.709-2.855l-17.92-2.736 1.56-10.154 17.91 2.766-1.55 10.124zm-18.69-2.886l-17.909-2.735 1.55-10.154 17.909 2.745-1.55 10.144zm-.12.799l-1.56 10.154-17.909-2.736 1.55-10.154 17.919 2.736zm-20.269 7.298l-17.91-2.745 1.55-10.154 17.92 2.745-1.56 10.154zm-18.71-2.865l-17.899-2.736 1.55-10.154 17.919 2.736-1.57 10.154zm-.12.798l-1.56 10.154-17.909-2.735 1.56-10.154 17.909 2.735zm-1.68 10.983l-1.559 10.154-17.91-2.736 1.56-10.154 17.909 2.736zm.8.13l17.91 2.735-1.56 10.154-17.909-2.745 1.559-10.144zm18.71 2.855l17.89 2.716-1.56 10.154-17.94-2.756 1.61-10.114zm16.21 13.698l-1.56 10.154-17.91-2.746 1.56-10.153 17.91 2.745zm.8.12l17.909 2.736-1.53 10.124-17.919-2.736 1.54-10.124zm18.709 2.856l17.91 2.735-1.56 10.154-17.91-2.736 1.56-10.153zm18.67 2.815l17.999 2.736-1.56 10.153-17.959-2.705 1.52-10.184zm18.709 2.855l17.91 2.736-1.56 10.154-17.91-2.736 1.56-10.154zm18.71 2.856l17.909 2.746-1.56 10.143-17.909-2.735 1.56-10.154zm18.709 2.865l17.91 2.736-1.56 10.154-17.91-2.736 1.56-10.154zm18.71 2.856l17.949 2.745-1.56 10.154-17.909-2.736 1.52-10.163zm.12-.799l1.56-10.144 17.949 2.706-1.56 10.154-17.949-2.716zm20.269-7.288l17.91 2.735-1.56 10.154-17.91-2.736 1.56-10.153zm18.77 2.845l17.909 2.736-1.56 10.154-17.909-2.736 1.56-10.154zm.12-.789l1.55-10.153 17.919 2.735-1.59 10.204-17.879-2.786zm1.68-10.982l1.55-10.154 17.919 2.736-1.58 10.203-17.889-2.785zm1.67-10.982l1.529-10.074 17.91 2.735-1.54 10.124-17.899-2.785zm-.79-.13l-17.92-2.736 1.56-10.154 17.889 2.826-1.529 10.064zm-16.24-13.678l1.56-10.074 17.889 2.705-1.55 10.154-17.899-2.785zm-.79-.13l-17.92-2.736 1.56-10.154 17.91 2.746-1.55 10.144zm-18.71-2.856l-17.939-2.655 1.56-10.154 17.909 2.735-1.53 10.074zm-18.709-2.855l-17.92-2.736 1.56-10.153 17.91 2.735-1.55 10.154zm-18.71-2.866l-17.939-2.655 1.56-10.154 17.909 2.736-1.53 10.073zm-18.709-2.855l-17.92-2.736 1.54-10.044 17.91 2.736-1.53 10.044zm-18.73-2.795l-17.919-2.746 1.56-10.144 17.909 2.736-1.55 10.154zm-18.709-2.866l-17.92-2.736 1.55-10.133 17.92 2.755-1.55 10.114zm-18.71-2.855l-17.919-2.736 1.56-10.154 17.909 2.736-1.55 10.154zm-18.659-2.846l-18-2.735 1.56-10.154 17.91 2.745-1.47 10.144zm-.13.799l-1.55 10.154-17.91-2.736 1.55-10.154 17.91 2.736zm-20.26 7.298l-17.909-2.745 1.55-10.144 17.909 2.736-1.55 10.153zm-18.709-2.865l-17.91-2.736 1.55-10.154 17.92 2.736-1.56 10.154zm-.12.799l-1.56 10.153-17.91-2.735 1.55-10.154 17.92 2.736zm-1.68 10.982l-1.56 10.154-17.91-2.736 1.56-10.154 17.91 2.736zm-1.68 10.982l-1.56 10.154-17.91-2.735 1.56-10.154 17.91 2.735zm-1.68 10.983l-1.55 10.144-17.919-2.736 1.559-10.154 17.91 2.746zm.8.12l17.91 2.735-1.55 10.154-17.92-2.736 1.56-10.153zm18.71 2.855l17.909 2.736-1.56 10.154-17.909-2.736 1.56-10.154zm16.229 13.688l-1.55 10.154-17.929-2.835 1.56-10.154 17.919 2.835zm.8.12l17.91 2.736-1.55 10.153-17.92-2.735 1.56-10.154zm18.66 2.726l17.909 2.745-1.55 10.144-17.919-2.736 1.56-10.153zm18.709 2.865l17.91 2.736-1.56 10.183-17.92-2.735 1.57-10.184zm18.71 2.856l17.909 2.735-1.55 10.154-17.919-2.736 1.56-10.153zm18.709 2.865l17.93 2.766-1.55 10.153-17.92-2.745 1.54-10.174zm18.71 2.855l17.909 2.736-1.55 10.154-17.919-2.736 1.56-10.154zm18.709 2.856l17.91 2.735-1.55 10.154-17.92-2.735 1.56-10.154zm18.71 2.865l17.909 2.806-1.55 10.154-17.919-2.736 1.56-10.224zm18.709 2.856l17.91 2.735-1.55 10.194-17.92-2.736 1.56-10.193zm.12-.799l1.56-10.154 17.91 2.746-1.56 10.154-17.91-2.746zm20.27-7.238l17.909 2.735-1.56 10.154-17.909-2.736 1.56-10.153zm18.699 2.835l17.91 2.736-1.56 10.153-17.9-2.745 1.55-10.144zm.12-.789l1.56-10.153 17.91 2.735-1.59 10.154-17.88-2.736zm1.68-10.982l1.55-10.154 17.92 2.736-1.56 10.153-17.91-2.735zm1.68-10.983l1.52-10.034 18 2.686-1.55 10.154-17.97-2.806zm1.67-10.982l1.57-10.034 17.91 2.736-1.55 10.153-17.93-2.855zm1.68-10.982l1.57-10.034 17.909 2.735-1.549 10.154-17.93-2.855zm-.79-.12l-17.92-2.736 1.56-10.154 17.91 2.736-1.55 10.154zm-16.24-13.688l1.56-10.144 17.91 2.735-1.56 10.154-17.91-2.745zm-.8-.12l-17.909-2.736 1.56-10.154 17.909 2.736-1.56 10.154zm-18.709-2.856l-17.91-2.735 1.62-10.024 17.91 2.735-1.62 10.024zm-18.71-2.855l-17.909-2.746 1.56-10.143 17.909 2.735-1.56 10.154zm-18.709-2.866l-17.87-2.605 1.56-10.154 17.91 2.736-1.6 10.023zm-18.71-2.855l-17.899-2.646 1.56-10.153 17.909 2.735-1.57 10.064zm-18.709-2.865l-17.91-2.736 1.57-10.024 17.89 2.746-1.55 10.014zm-18.7-2.856l-17.919-2.735 1.56-10.154 17.909 2.735-1.55 10.154zm-18.709-2.855l-17.92-2.746 1.56-10.144 17.92 2.846-1.56 10.044zm-18.72-2.866l-17.909-2.735 1.59-10.024 17.909 2.735-1.59 10.024zm-18.699-2.855l-17.92-2.736 1.56-10.154 17.91 2.736-1.55 10.154zm-18.71-2.856l-17.909-2.615 1.56-10.144 17.909 2.736-1.56 10.023zm-.13.789l-1.55 10.154-17.919-2.736 1.56-10.153 17.909 2.735zm-20.259 7.299l-17.91-2.566 1.56-10.154 17.91 2.736-1.56 9.984zm-26.419 52.925l17.899 2.736-1.55 10.153-17.919-2.735 1.57-10.154zm18.709 2.855l17.91 2.736-1.55 10.154-17.92-2.736 1.56-10.154zm16.19 13.688l-1.55 10.154-17.91-2.735 1.55-10.154 17.91 2.735zm.8.12l17.949 2.726-1.55 10.154-17.909-2.736 1.51-10.144zm18.709 2.866l17.91 2.735-1.55 10.154-17.87-2.745 1.51-10.144zm18.75 2.855l17.909 2.736-1.55 10.154-17.919-2.736 1.56-10.154zm18.739 2.856l17.91 2.745-1.55 10.144-17.94-2.766 1.58-10.123zm18.71 2.865l17.909 2.736-1.62 10.153-17.909-2.735 1.62-10.154zm18.709 2.855l17.91 2.736-1.55 10.154-17.92-2.736 1.56-10.154zm18.71 2.856l17.869 2.745-1.55 10.144-17.919-2.735 1.6-10.154zm18.709 2.865l17.91 2.736-1.55 10.154-17.92-2.736 1.56-10.154zm18.71 2.856l17.909 2.735-1.55 10.154-17.909-2.735 1.55-10.154zm18.709 2.865l17.91 2.736-1.58 10.193-17.92-2.745 1.59-10.184zm18.71 2.856l17.909 2.735-1.55 10.154-17.919-2.736 1.56-10.153zm.12-.799l1.56-10.154 17.909 2.746-1.56 10.144-17.909-2.736zm20.269-7.288l17.91 2.735-1.55 10.154-17.95-2.716 1.59-10.173zm29.379-72.095l-1.31 8.386-17.909-2.735 1.56-10.154 16.099 2.456a1.823 1.823 0 011.53 2.047h.03zM233.801 93.473l16.1 2.456-1.55 10.154-18-2.726 1.28-8.346c.036-.239.118-.468.242-.674a1.842 1.842 0 011.132-.833c.234-.057.478-.068.716-.031h.08zm-16.519 95.647l1.28-8.347 17.909 2.746-1.55 10.144-16.189-2.446a1.839 1.839 0 01-1.53-2.097h.08zm258.973 41.444l-16.11-2.466 1.56-10.154 17.91 2.736-1.28 8.356a1.829 1.829 0 01-2.08 1.528z" fill="#fff"/><path opacity=".5" d="M482.855 199.583l-4.52 29.433a1.74 1.74 0 01-1.316 1.439 1.751 1.751 0 01-.684.029l-257.664-39.377a1.75 1.75 0 01-1.431-1.315 1.722 1.722 0 01-.028-.682l.599-3.934s12.11-9.744 19.69-8.586c8.95 1.368 10.56 6.44 18.559 7.638 8 1.198 16.76-17.272 24-16.174 3.91.599 4.91 3.604 6.82 6.36a10.367 10.367 0 007.4 4.652l.299.05c9.8 1.498 23.06-50.439 36.54-48.383 5.999.909 8.369 12.371 10.159 25.03 2.27 15.975 3.55 33.946 9.8 34.855 11.18 1.707 15-20.967 25.379-19.339 6.53.998 8.91 13.079 14.41 22.653 3.25 5.661 7.6 10.454 14.56 11.512 6.329.998 10.559-.499 13.849-2.806 6.45-4.502 9.33-12.19 17.39-10.982 4.78.729 6.52 4.403 8.3 7.867 1.55 2.996 3.13 5.891 6.809 6.45 4.33.669 8-5.521 11.93-10.982 3.21-4.513 6.56-8.567 10.54-7.988 3.98.58 6.48 5.502 7.69 8.986.377 1.179.684 2.379.92 3.594z" fill="#005F9F"/><path opacity=".5" d="M489.054 159.138l-10.719 69.888a1.74 1.74 0 01-1.316 1.439 1.751 1.751 0 01-.684.029l-257.664-39.387a1.75 1.75 0 01-1.431-1.315 1.722 1.722 0 01-.028-.682l.599-3.934c10.7 1.638 16.41-6.359 23.59-5.261 7.18 1.098 10.9 6.1 17.619 7.128 6.72 1.029 17.09-14.676 24.44-13.548 1.152.167 2.278.483 3.35.939 2.83 1.178 4.78 3.075 7.399 4.652a18.01 18.01 0 006.74 2.416c8.61 1.308 25.84-29.802 35.829-28.275a7.566 7.566 0 014.43 2.556c5.9 6.42 7.42 22.474 15.74 23.742 10.09 1.548 15.489-14.836 25.279-13.348 9.79 1.487 12.67 18.34 24 20.068 11.329 1.727 23.619-29.184 35.389-27.387 11.769 1.798 15.129 17.682 25.359 19.24 11.23 1.717 22.079-18.96 22.079-18.96z" fill="#005F9F"/><path d="M484.055 191.626l-5.74 37.39a1.74 1.74 0 01-1.316 1.439 1.751 1.751 0 01-.684.029l-257.644-39.377a1.75 1.75 0 01-1.431-1.315 1.722 1.722 0 01-.028-.682l.289-1.927c.37-.349 6.44-6.07 12.6-5.132 6.37.999 6.39 6.67 15.27 7.988 8.88 1.318 11.469-5.661 24.069-3.734 12.6 1.927 12.56 10.722 25.589 12.719 13.03 1.997 15.72-8.556 25-7.138 9.28 1.417 8.63 6.799 13.889 7.598 5.26.798 8.32-7.429 14.79-6.44 6.47.988 11.42 14.527 18.71 15.645 5.119.779 14.169-9.345 23.409-14.777 3.9-2.296 7.85-3.754 11.53-3.184 7.609 1.158 12.049 7.088 16.879 11.891 3 2.995 6.23 5.591 10.45 6.24 6 .918 10.61-4.533 15.24-9.326 3.759-3.903 7.549-7.378 12.159-6.679a18.798 18.798 0 016.58 2.117c4 2.236 5.05 5.251 9.83 5.99 5.75.909 10.56-9.335 10.56-9.335zM249.11 89.64l-13.84-2.118a2.464 2.464 0 01-1.613-.975 2.466 2.466 0 012.363-3.897l13.83 2.117a2.478 2.478 0 012.07 2.805 2.475 2.475 0 01-2.81 2.067zm7.639-2.786h.22l13.84 2.116a1.493 1.493 0 011 .58 1.5 1.5 0 01.27 1.088 1.485 1.485 0 01-1.45 1.247h-.23l-13.83-2.116a1.434 1.434 0 01-1-.58 1.461 1.461 0 01-.13-1.526 1.46 1.46 0 011.31-.8v-.01zm0-.989a2.46 2.46 0 00-2.516 2.27 2.458 2.458 0 002.146 2.622l13.83 2.117c.127.01.254.01.38 0a2.47 2.47 0 002.45-2.28 2.468 2.468 0 00-2.08-2.621l-13.84-2.108a2.308 2.308 0 00-.37 0zm21.1 4.214h.21l13.83 2.116a1.467 1.467 0 01-.22 2.915h-.22l-13.84-2.116a1.483 1.483 0 01-1-.58 1.462 1.462 0 01-.24-.517 1.464 1.464 0 01.473-1.453 1.47 1.47 0 01.947-.356l.06-.01zm-.06-.989a2.453 2.453 0 00-1.968 4.01 2.46 2.46 0 001.598.882l13.84 2.117c.123.01.247.01.37 0a2.471 2.471 0 002.449-2.28 2.462 2.462 0 00-2.079-2.622l-13.83-2.107a2.435 2.435 0 00-.38 0zm215.525 35.643l.17-1.078-.8-.19a1.9 1.9 0 00-.13-.519l.62-.539-.64-.879-.71.429a2.297 2.297 0 00-.45-.279l.05-.819-1.08-.16-.19.799a2.116 2.116 0 00-.51.12l-.55-.619-.88.649.43.699a1.91 1.91 0 00-.27.459l-.82-.06-.17 1.078.8.2c.018.175.062.347.13.509l-.62.539.65.879.7-.429c.14.108.291.202.45.279l-.05.819 1.08.16.19-.789c.177-.028.351-.071.52-.13l.54.619.88-.649-.43-.699c.109-.137.199-.288.27-.449l.82.05zm-3.07.26a1.276 1.276 0 01-1.039-.954 1.263 1.263 0 01.484-1.323 1.267 1.267 0 011.41-.059 1.266 1.266 0 01-.855 2.336z" fill="#005F9F"/><path opacity=".2" d="M337.784 243.54l-2.946-.45-3.237 21.12 2.946.45 3.237-21.12z" fill="#005F9F"/><path d="M337.298 246.714l-2.945-.45-1.524 9.938 2.946.45 1.523-9.938z" fill="#005F9F"/><path opacity=".2" d="M330.357 247.848l-2.946-.45-3.237 21.12 2.946.45 3.237-21.12z" fill="#005F9F"/><path d="M326.531 252.962l-1.525 9.948 2.946.45 1.525-9.948-2.946-.45z" fill="#005F9F"/><path opacity=".2" d="M325.035 242.921l-2.951-.446-3.209 21.152 2.95.447 3.21-21.153z" fill="#005F9F"/><path d="M323.122 250.736l-2.945-.45-1.525 9.948 2.946.45 1.524-9.948z" fill="#005F9F"/><path opacity=".2" d="M343.77 248.717l-2.945-.45-3.237 21.12 2.946.45 3.236-21.12z" fill="#005F9F"/><path d="M343.294 251.89l-2.945-.45-1.525 9.948 2.946.45 1.524-9.948z" fill="#005F9F"/><path opacity=".2" d="M351.345 243.482l-2.946-.45-3.236 21.12 2.945.45 3.237-21.12z" fill="#005F9F"/><path d="M350.979 245.864l-2.946-.45-1.524 9.948 2.945.45 1.525-9.948z" fill="#005F9F"/><path opacity=".2" d="M357.14 249.943l-2.946-.45-3.237 21.12 2.946.45 3.237-21.12z" fill="#005F9F"/><path d="M357.012 250.742l-2.946-.45-1.525 9.948 2.946.45 1.525-9.948z" fill="#005F9F"/><path opacity=".2" d="M365.444 239.912l-2.945-.45-3.237 21.12 2.945.45 3.237-21.12z" fill="#005F9F"/><path d="M365.334 240.712l-2.945-.45-1.523 9.938 2.945.451 1.523-9.939z" fill="#005F9F"/><path opacity=".2" d="M370.032 254.227l-2.946-.451-3.236 21.121 2.945.45 3.237-21.12z" fill="#005F9F"/><path d="M369.546 257.41l-2.945-.45-1.525 9.948 2.946.45 1.524-9.948z" fill="#005F9F"/><path opacity=".2" d="M376.468 256.471l-2.946-.45-3.237 21.12 2.946.45 3.237-21.12z" fill="#005F9F"/><path d="M375.247 264.43l-2.945-.45-1.525 9.948 2.946.45 1.524-9.948z" fill="#005F9F"/><path opacity=".2" d="M385.134 244.21l-2.946-.45-3.236 21.12 2.945.45 3.237-21.12z" fill="#005F9F"/><path d="M383.784 252.972l-2.946-.45-1.523 9.938 2.946.45 1.523-9.938z" fill="#005F9F"/><path opacity=".2" d="M390.323 254.522l-2.946-.45-3.237 21.12 2.946.45 3.237-21.12z" fill="#005F9F"/><path d="M389.707 258.507l-2.945-.451-1.523 9.939 2.945.45 1.523-9.938z" fill="#005F9F"/><path opacity=".2" d="M397.789 250.021l-2.946-.45-3.237 21.12 2.946.45 3.237-21.12z" fill="#005F9F"/><path d="M398.12 253.263l-2.951-.446-1.512 9.963 2.951.446 1.512-9.963z" fill="#005F9F"/><path opacity=".2" d="M405.871 241.544l-2.946-.45-3.237 21.12 2.946.45 3.237-21.12z" fill="#005F9F"/><path d="M405.86 241.552l-2.946-.45-1.525 9.948 2.946.45 1.525-9.948z" fill="#005F9F"/><path opacity=".2" d="M410.446 255.936l-2.946-.45-3.236 21.12 2.945.451 3.237-21.121z" fill="#005F9F"/><path d="M410.07 258.329l-2.946-.45-1.525 9.948 2.946.45 1.525-9.948z" fill="#005F9F"/><path opacity=".2" d="M415.637 266.238l-2.946-.45-3.237 21.12 2.946.45 3.237-21.12z" fill="#005F9F"/><path d="M415.27 268.62l-2.945-.45-1.525 9.948 2.946.45 1.524-9.948z" fill="#005F9F"/><path opacity=".2" d="M423.971 256.071l-2.946-.45-3.237 21.12 2.946.45 3.237-21.12z" fill="#005F9F"/><path d="M422.76 264.012l-2.946-.45-1.524 9.948 2.946.45 1.524-9.948z" fill="#005F9F"/><path opacity=".2" d="M432.429 245.144l-2.946-.45-3.237 21.12 2.946.45 3.237-21.12z" fill="#005F9F"/><path d="M430.96 254.686l-2.946-.45-1.525 9.948 2.946.45 1.525-9.948z" fill="#005F9F"/><path opacity=".2" d="M437.222 258.089l-2.946-.45-3.237 21.12 2.946.45 3.237-21.12z" fill="#005F9F"/><path d="M437.632 261.284l-2.95-.446-1.512 9.963 2.95.446 1.512-9.963z" fill="#005F9F"/><path opacity=".2" d="M443.296 262.619l-2.946-.45-3.237 21.12 2.946.45 3.237-21.12z" fill="#005F9F"/><path d="M441.966 271.371l-2.946-.45-1.525 9.948 2.946.45 1.525-9.948z" fill="#005F9F"/><path opacity=".2" d="M450.933 257.037l-2.946-.45-3.237 21.12 2.946.45 3.237-21.12z" fill="#005F9F"/><path d="M450.933 257.046l-2.946-.45-1.525 9.948 2.946.45 1.525-9.948z" fill="#005F9F"/><path opacity=".2" d="M456.547 264.637l-2.945-.45-3.237 21.12 2.945.45 3.237-21.12z" fill="#005F9F"/><path d="M456.299 266.228l-2.945-.45-1.525 9.948 2.946.45 1.524-9.948z" fill="#005F9F"/><path opacity=".2" d="M463.614 262.799l-2.946-.45-3.237 21.12 2.946.45 3.237-21.12z" fill="#005F9F"/><path d="M463.486 263.598l-2.946-.45-1.525 9.948 2.946.45 1.525-9.948z" fill="#005F9F"/><path opacity=".2" d="M469.808 266.528l-2.946-.45-3.237 21.12 2.946.45 3.237-21.12z" fill="#005F9F"/><path d="M469.192 276.866l-2.95-.446-1.512 9.963 2.95.446 1.512-9.963z" fill="#005F9F"/><path d="M362.857 295.861l-55.473-8.475-.263 1.717 55.473 8.475.263-1.717z" fill="#999" stroke="#263238" stroke-linecap="round" stroke-linejoin="round"/><path opacity=".2" d="M186.951 412.154s32.539-43.681 57.079-51.678c24.539-7.997 25.749-18.85 24.749-39.097-1-20.248-.26-40.655-7-43.091-6.74-2.437 8.08-28.874 1-39.348l-46.429 72.824-29.399 100.39z" fill="#000" fill-opacity=".7"/><path d="M179.061 424.324l-.49-.16.7.39-.21-.23zm79.098-133.996c-3.999-1.867-11.939-10.623-12.929-11.721 5-8.407 9.939-16.514 11.649-18.461 3.55-3.993 7.88-15.644 6.12-21.275-1.61-5.172-6.88-4.344-7.6-4.204h-.08a.188.188 0 00-.075.03.197.197 0 00-.055.06c-.11.19-10.839 18.251-14.169 22.574-1.59 2.057-5.25 6.739-9 11.432l-1.11-.17a19.25 19.25 0 00-7 .2l-.23.08a24.082 24.082 0 00-3.43 1.817l-.79-.33c-1.58-.659-4.849-1.927-6.399-1.997-1.89-.1-8.55 2.996-12.53 5.492a26.894 26.894 0 00-8.47-1.149c-3.05.13-9.27 2.656-14.27 4.683-2.219.898-4.139 1.677-5.259 1.997l-1 .299c-3 .889-4.62 1.388-6.7 5.541-2.16 4.313-4.49 20.398-5.61 28.125l-.15 1.049c-.43 2.995-.36 8.247-.29 13.848.11 7.787.22 15.834-.94 18.969a49.413 49.413 0 01-6.16 11.103c-.33.469-.63.908-.91 1.327a34.23 34.23 0 00-3.71 7.798c-.84 2.216-1.89 4.653-2.91 6.879a199.598 199.598 0 01-3.63 7.528s35.45 39.048 38.539 42.472c.167.064.337.117.51.16.12-.2 6.66-11.362 13.59-22.374 6-9.505 12.23-18.9 14.9-21.057a24.695 24.695 0 007.66-11.901c1.439-4.622 10.629-10.323 19.519-15.834 9.83-6.091 19.999-12.391 20.339-17.602.19-2.696.81-7.159 1.53-12.341 1.95-14.037 4.37-31.519 1.05-33.047zm-16.839 22.444l-4.37 4.244c-.62-3.495-4.87-8.137-5.54-8.846a36.51 36.51 0 00.65-5.092c.16-1.947.33-3.994.81-4.323.48-.33 2.69-3.994 6.29-9.984.3 4.223 4 8.876 4.5 9.544l-2.34 14.457z" fill="#fff"/><path opacity=".4" d="M189.431 299.803c-1.289 11.502-12.579 40.036-12.579 40.036l-2-28.744s-8.79 39.008-11.2 40.415c-2.41 1.408-6.64 8.866-9 14.787-1.59 3.993-6.999 6.709-10.409 8.077 1-2.227 2.07-4.663 2.91-6.879a34.187 34.187 0 013.71-7.798c.279-.419.579-.858.909-1.328a49.384 49.384 0 006.16-11.102c1.16-3.155 1-11.202.94-18.969-.07-5.602-.14-10.893.29-13.848l.15-1.049c1.12-7.727 3.45-23.812 5.61-28.125 2.08-4.153 3.72-4.652 6.7-5.541l1-.299c1.12-.35 3-1.129 5.26-1.997 5-1.997 11.22-4.553 14.269-4.683a26.91 26.91 0 018.42 1.168c4-2.506 10.64-5.591 12.53-5.491 1.55.07 4.82 1.338 6.4 1.997-6.64 3.415-17.81 11.641-17.81 11.641-12.629 2.736-12.26 17.732-12.26 17.732zm22.38-15.276a111.461 111.461 0 0110.15-6.24c3.24-1.517 4.28-7.567 2-9.275a.657.657 0 00-.29-.12l.23-.079a19.249 19.249 0 017-.2c-4.19 6.28-7.47 11.092-8.34 12.131-2.88 3.494-10.75 3.783-10.75 3.783zm16.529 39.408l1.53.659c-.93 3.704-1.53-.659-1.53-.659z" fill="#005F9F"/><path opacity=".4" d="M258.159 290.328c-3.999-1.867-11.939-10.623-12.929-11.721 5-8.407 9.94-16.514 11.649-18.461 3.55-3.993 7.88-15.644 6.12-21.275-1.61-5.172-6.88-4.344-7.599-4.204v.22s5.699.709 5.689 8.936c-.01 8.226-14.809 24.53-14.809 24.53s-15.22 28.505-16.22 28.075c-1-.429-3.23 19.05-3.23 19.05s4.24 3.604 3.23 8.457c-.053.239-.103.459-.15.658l6.52 2.806s6.54-4.583 9.86 2.157c3.32 6.739-31.919 30.82-34.689 34.385 0 0-.39 13.428-5.53 15.405-3.33 1.278-9.2 13.978-12.91 22.774 6-9.505 12.23-18.9 14.9-21.057a24.688 24.688 0 007.66-11.901c1.44-4.622 10.629-10.323 19.519-15.834 9.83-6.091 20-12.391 20.34-17.602.19-2.696.809-7.159 1.529-12.341 1.95-14.047 4.37-31.529 1.05-33.057zm-16.839 22.444l-4.37 4.244c-.62-3.495-4.87-8.137-5.54-8.846a36.51 36.51 0 00.65-5.092c.16-1.947.33-3.994.81-4.323.48-.33 2.69-3.994 6.29-9.984.3 4.223 4 8.876 4.5 9.544l-2.34 14.457z" fill="#005F9F"/><path d="M215.521 284.787a13.49 13.49 0 007.089-4.043c3-3.365 15.2-18.88 18.58-23.263 3.38-4.383 14.179-22.594 14.179-22.594s5.74-1.348 7.43 4.054c1.69 5.401-2.36 16.853-6.08 21.066-3.719 4.213-22.629 37.6-23.999 38.608-1.37 1.009-.33 10.464-3 12.48" stroke="#263238" stroke-linecap="round" stroke-linejoin="round"/><path d="M231.17 308.26s5.29 5.531 5.63 9.235l4.72-4.613 2.37-14.606s-4.67-5.611-4.53-10.224" stroke="#263238" stroke-linecap="round" stroke-linejoin="round"/><path d="M244.969 278.637s8.71 9.864 13.1 11.891c4.39 2.027-2 35.403-2.7 45.178-.7 9.774-36.809 23.582-39.849 33.376a24.313 24.313 0 01-7.6 11.802c-5.86 4.742-28.539 43.5-28.539 43.5m52.77-155.372s-5.15-.948-8.19 0c-3.04.949-15.9 10.064-18.9 11.732-3 1.667-7.43 1.996-8.44 4.043" stroke="#263238" stroke-linecap="round" stroke-linejoin="round"/><path d="M220.261 270.949s-5.2-2.256-7.2-2.356c-2-.1-10.13 3.724-13.84 6.42a29.677 29.677 0 01-9.46 4.612" stroke="#263238" stroke-linecap="round" stroke-linejoin="round"/><path d="M200.541 274.084a26.346 26.346 0 00-8.43-1.188c-4.4.19-15.88 5.581-19.48 6.709-3.599 1.129-5.289 1.228-7.539 5.731s-4.73 22.135-5.74 29.104c-1.01 6.969.79 27.366-1.24 32.877-2.03 5.511-5.16 9.635-7.05 12.5-3.85 5.711-3.42 9.984-10.43 22.085" stroke="#263238" stroke-linecap="round" stroke-linejoin="round"/><path d="M192.391 286.305c-4.39 3.883-3.58 11.302-3 13.498.58 2.197-2.11 10.983-3 15.675m33.87-25.419c-8 .169-10.48 5.561-11 9.105m-22.779-17.093c-2.37-.169-8.45 3.545-9.63 9.615m67.038 6.59s1.18-3.365 2.36-3.705m-4.731 18.311a43.608 43.608 0 01-2.16 5.791c-1 1.997 0 5.182 0 5.182m-2.559-6.36c-.17 3.374-3.89 6.989-4.65 6.36M205 311.764c-.12 3.714-6.87 30.851-6.87 30.851" stroke="#263238" stroke-linecap="round" stroke-linejoin="round"/></svg>