<svg width="56" height="56" fill="none" xmlns="http://www.w3.org/2000/svg"><g style="mix-blend-mode:luminosity"><circle cx="28" cy="28" r="24.5" fill="#8892BF"/><path d="M25.269 17.5h2.94l-.831 4.417h2.642c1.448.031 2.528.355 3.238.972.724.616.937 1.788.64 3.515l-1.428 7.702h-2.983l1.364-7.355c.141-.771.099-1.318-.128-1.642-.227-.324-.717-.486-1.47-.486l-2.365-.023-1.747 9.506H22.2L25.269 17.5z" fill="#fff"/><path fill-rule="evenodd" clip-rule="evenodd" d="M11.797 21.918h5.71c1.675.015 2.89.54 3.642 1.572.753 1.033 1.002 2.444.746 4.233a8.64 8.64 0 01-.66 2.405 7.192 7.192 0 01-1.364 2.127c-.71.802-1.47 1.311-2.28 1.527a9.711 9.711 0 01-2.513.324H12.52l-.81 4.394H8.75l3.047-16.582zm1.214 9.574l1.274-6.915h.43c.157 0 .32-.008.49-.023 1.137-.015 2.081.1 2.834.347.767.247 1.023 1.18.767 2.798-.312 1.928-.923 3.053-1.832 3.377-.91.308-2.046.455-3.41.44h-.297c-.086 0-.17-.008-.256-.024zm29.753-9.574h-5.71L34.008 38.5h2.961l.81-4.394h2.556a9.71 9.71 0 002.514-.324c.81-.216 1.57-.725 2.28-1.526a7.19 7.19 0 001.363-2.128 8.602 8.602 0 00.66-2.405c.256-1.79.008-3.2-.745-4.233-.753-1.033-1.967-1.557-3.643-1.572zm-3.221 2.66l-1.274 6.914c.085.016.17.023.255.023h.298c1.364.016 2.5-.13 3.41-.439.908-.324 1.52-1.45 1.831-3.377.256-1.619 0-2.552-.766-2.798-.753-.247-1.698-.362-2.834-.347-.17.015-.334.023-.49.023h-.43z" fill="#fff"/></g></svg>