<svg width="56" height="56" fill="none" xmlns="http://www.w3.org/2000/svg"><path fill-rule="evenodd" clip-rule="evenodd" d="M22.779 3.5c-3.845 0-6.962 3.018-6.962 6.74v4.667h12.05v1.297H10.461c-3.845 0-6.962 3.018-6.962 6.74v10.112c0 3.722 3.117 6.74 6.962 6.74h4.016v-5.703c0-3.723 3.117-6.741 6.962-6.741h12.852c3.254 0 5.891-2.554 5.891-5.704V10.241c0-3.723-3.117-6.741-6.962-6.741H22.78zm-1.607 8.296c1.331 0 2.41-1.044 2.41-2.333 0-1.289-1.079-2.333-2.41-2.333-1.33 0-2.41 1.044-2.41 2.333 0 1.289 1.08 2.333 2.41 2.333z" fill="url(#paint0_linear)"/><path fill-rule="evenodd" clip-rule="evenodd" d="M33.221 52.5c3.845 0 6.962-3.018 6.962-6.74v-4.667h-12.05v-1.297h17.405c3.845 0 6.962-3.018 6.962-6.74V22.944c0-3.723-3.117-6.74-6.962-6.74h-4.016v5.703c0 3.723-3.117 6.741-6.962 6.741H21.708c-3.254 0-5.891 2.554-5.891 5.704v11.407c0 3.723 3.117 6.74 6.962 6.74H33.22zm1.607-8.296c-1.331 0-2.41 1.044-2.41 2.333 0 1.289 1.079 2.333 2.41 2.333 1.33 0 2.41-1.044 2.41-2.333 0-1.289-1.08-2.333-2.41-2.333z" fill="url(#paint1_linear)"/><defs><linearGradient id="paint0_linear" x1="21.841" y1="3.5" x2="21.841" y2="39.796" gradientUnits="userSpaceOnUse"><stop stop-color="#327EBD"/><stop offset="1" stop-color="#1565A7"/></linearGradient><linearGradient id="paint1_linear" x1="34.158" y1="16.204" x2="34.158" y2="52.5" gradientUnits="userSpaceOnUse"><stop stop-color="#FFDA4B"/><stop offset="1" stop-color="#F9C600"/></linearGradient></defs></svg>