<svg width="56" height="56" fill="none" xmlns="http://www.w3.org/2000/svg"><path d="M36.753 5.454c0-1.538-1.722-1.538-2.487-1.346 1.071-.846 2.328-.64 2.774-.384l10.35 5.074A2.885 2.885 0 0149 11.39v33.38a2.885 2.885 0 01-1.648 2.61l-9.738 4.604c-.67.289-2.124 1-3.348 0 1.53.289 2.36-.8 2.487-1.538V5.454z" fill="url(#paint0_linear)"/><path d="M34.39 4.08c.812-.16 2.363-.086 2.363 1.374v11.49L5.38 40.68a1.335 1.335 0 01-1.787-.16L.358 37.022a1.35 1.35 0 01.079-1.91L34.265 4.108l.125-.027z" fill="url(#paint1_linear)"/><path d="M36.753 39.149L5.38 15.414a1.335 1.335 0 00-1.787.16L.358 19.071a1.35 1.35 0 00.079 1.91l33.828 31.002c1.531.289 2.36-.8 2.488-1.538V39.15z" fill="url(#paint2_linear)"/><defs><linearGradient id="paint0_linear" x1="41.633" y1="3.5" x2="41.633" y2="52.5" gradientUnits="userSpaceOnUse"><stop stop-color="#32B5F1"/><stop offset="1" stop-color="#2B9FED"/></linearGradient><linearGradient id="paint1_linear" x1="36.753" y1="9.684" x2="1.788" y2="39.034" gradientUnits="userSpaceOnUse"><stop stop-color="#0F6FB3"/><stop offset=".271" stop-color="#1279B7"/><stop offset=".421" stop-color="#1176B5"/><stop offset=".618" stop-color="#0E69AC"/><stop offset=".855" stop-color="#0F70AF"/><stop offset="1" stop-color="#0F6DAD"/></linearGradient><linearGradient id="paint2_linear" x1="2.022" y1="17.472" x2="36.889" y2="46.341" gradientUnits="userSpaceOnUse"><stop stop-color="#1791D2"/><stop offset="1" stop-color="#1173C5"/></linearGradient></defs></svg>