<svg width="56" height="56" fill="none" xmlns="http://www.w3.org/2000/svg"><g style="mix-blend-mode:luminosity"><circle cx="28" cy="28" r="24.5" fill="#028CB0"/><path d="M11.297 28c0 6.619 3.85 12.32 9.418 15.03l-7.967-21.827A16.645 16.645 0 0011.297 28zM28 44.703c1.94 0 3.806-.34 5.553-.948l-.119-.222-5.138-14.067-5.005 14.556c1.48.444 3.065.681 4.709.681zm2.295-24.536l6.042 17.962 1.673-5.568c.71-2.31 1.259-3.969 1.259-5.405 0-2.073-.74-3.495-1.363-4.59-.858-1.392-1.643-2.562-1.643-3.924 0-1.54 1.155-2.962 2.813-2.962h.207A16.645 16.645 0 0028 11.297a16.688 16.688 0 00-13.949 7.522l1.066.03c1.748 0 4.443-.222 4.443-.222.918-.045 1.021 1.273.118 1.377 0 0-.903.118-1.925.163l6.1 18.095 3.658-10.958-2.606-7.137a29.862 29.862 0 01-1.747-.148c-.903-.06-.8-1.437.104-1.392 0 0 2.754.222 4.397.222 1.748 0 4.443-.222 4.443-.222.903-.045 1.022 1.273.118 1.377 0 0-.903.104-1.925.163zm6.101 22.27A16.703 16.703 0 0044.703 28c0-2.902-.74-5.627-2.043-8.011a15.77 15.77 0 01-1.155 7.7l-5.109 14.748zM28 47.25a19.25 19.25 0 110-38.5 19.25 19.25 0 010 38.5z" fill="#fff"/></g></svg>