<svg width="350" height="350" viewBox="0 0 350 350" fill="none" xmlns="http://www.w3.org/2000/svg">
<path d="M301.511 130.55C299.66 124.529 297.241 118.698 294.287 113.134C279.055 84.826 252.343 63.469 223.125 50.834C199.927 40.817 171.241 35.581 146.629 44.604C134.183 49.168 122.465 57.904 115.794 69.559C107.1 84.777 107.919 103.6 101.017 119.595C95.4172 132.538 81.5012 140.315 70.5952 148.295C53.5782 160.699 36.8132 175.364 30.9122 196.343C23.0442 224.308 25.3752 257.6 41.3002 282.471C53.2002 301.028 73.5702 306.6 94.5912 306.971C114.429 307.328 138.691 302.316 157.206 311.367C188.748 326.767 230.37 344.057 265.664 331.87C302.064 319.305 319.893 294.833 325.164 263.088C330.435 231.343 315.91 204.897 311.276 179.788C308.392 163.905 306.481 146.37 301.511 130.55Z" fill="#F7F7F7"/>
<path opacity="0.8" d="M301.511 130.55C299.66 124.529 297.241 118.698 294.287 113.134C279.055 84.826 252.343 63.469 223.125 50.834C199.927 40.817 171.241 35.581 146.629 44.604C134.183 49.168 122.465 57.904 115.794 69.559C107.1 84.777 107.919 103.6 101.017 119.595C95.4172 132.538 81.5012 140.315 70.5952 148.295C53.5782 160.699 36.8132 175.364 30.9122 196.343C23.0442 224.308 25.3752 257.6 41.3002 282.471C53.2002 301.028 73.5702 306.6 94.5912 306.971C114.429 307.328 138.691 302.316 157.206 311.367C188.748 326.767 230.37 344.057 265.664 331.87C302.064 319.305 319.893 294.833 325.164 263.088C330.435 231.343 315.91 204.897 311.276 179.788C308.392 163.905 306.481 146.37 301.511 130.55Z" fill="#F7F7F7"/>
<path d="M234.675 94.591C235.267 94.9186 235.813 95.3235 236.299 95.795M227.598 113.134L228.06 115.899L231.14 116.172L232.064 113.554C233.074 113.463 234.068 113.247 235.025 112.91L236.971 114.884L239.645 113.337L238.91 110.677C239.684 110.018 240.373 109.266 240.961 108.437L243.677 108.941L244.986 106.141L242.851 104.384C243.104 103.401 243.233 102.389 243.236 101.374L245.77 100.226L245.231 97.181L242.431 96.964C242.075 96.0275 241.605 95.1387 241.031 94.318L242.473 91.882L240.289 89.698L237.839 91.154C236.426 90.2005 234.832 89.5498 233.156 89.243L232.456 86.443H229.362L228.662 89.243C227.696 89.4215 226.755 89.7178 225.862 90.125L223.657 88.214L221.123 89.985L222.166 92.715C221.485 93.4086 220.89 94.1819 220.395 95.018L217.483 94.717L216.426 97.622L218.834 99.253C218.721 99.9308 218.665 100.617 218.666 101.304C218.666 101.598 218.666 101.885 218.666 102.172L216.139 103.572L216.937 106.554L219.8 106.519C220.225 107.411 220.754 108.249 221.375 109.018L220.136 111.594L222.502 113.575L224.84 112L227.598 113.134ZM237.678 97.566C238.506 99.04 238.827 100.746 238.589 102.42C238.352 104.094 237.57 105.644 236.364 106.829C235.159 108.015 233.596 108.771 231.918 108.98C230.24 109.189 228.54 108.84 227.08 107.987C225.621 107.134 224.482 105.824 223.841 104.259C223.199 102.695 223.091 100.963 223.532 99.3303C223.973 97.6979 224.939 96.2562 226.281 95.2276C227.623 94.1989 229.267 93.6407 230.958 93.639C231.328 93.6383 231.698 93.6664 232.064 93.723L237.678 97.566Z" stroke="black" stroke-miterlimit="10"/>
<path d="M242.515 279.72C243.107 280.048 243.653 280.453 244.139 280.924M235.41 298.291L235.872 301.056L238.952 301.329L239.876 298.711C240.886 298.62 241.881 298.404 242.837 298.067L244.783 300.041L247.457 298.494L246.757 295.834C247.531 295.176 248.22 294.423 248.808 293.594L251.524 294.098L252.833 291.298L250.733 289.541C250.986 288.558 251.116 287.547 251.118 286.531L253.652 285.383L253.113 282.338L250.313 282.121C249.96 281.183 249.49 280.294 248.913 279.475L250.355 277.039L248.171 274.855L245.721 276.311C244.309 275.358 242.714 274.707 241.038 274.4L240.338 271.6H237.244L236.544 274.4C235.578 274.579 234.638 274.875 233.744 275.282L231.518 273.392L228.984 275.163L230.027 277.893C229.346 278.587 228.751 279.36 228.256 280.196L225.344 279.895L224.287 282.8L226.695 284.431C226.582 285.109 226.526 285.795 226.527 286.482C226.527 286.776 226.527 287.063 226.527 287.35L224 288.75L224.798 291.732L227.661 291.697C228.087 292.589 228.615 293.427 229.236 294.196L228.018 296.786L230.384 298.767L232.68 297.129L235.41 298.291ZM245.518 282.695C246.347 284.169 246.667 285.875 246.429 287.549C246.192 289.223 245.41 290.773 244.205 291.958C242.999 293.144 241.437 293.9 239.759 294.109C238.081 294.318 236.381 293.969 234.921 293.116C233.461 292.263 232.322 290.953 231.681 289.388C231.04 287.824 230.931 286.092 231.372 284.459C231.813 282.827 232.78 281.385 234.122 280.357C235.464 279.328 237.107 278.77 238.798 278.768C239.168 278.767 239.538 278.795 239.904 278.852L245.518 282.695Z" stroke="black" stroke-miterlimit="10"/>
<path d="M265.566 93.758C264.571 95.321 263.046 96.473 261.271 97.0025C259.495 97.532 257.589 97.4036 255.9 96.6408C254.212 95.878 252.855 94.532 252.079 92.8497C251.302 91.1674 251.159 89.2617 251.674 87.482C252.189 85.7024 253.329 84.1682 254.884 83.161C256.439 82.1537 258.305 81.7409 260.14 81.9983C261.975 82.2558 263.655 83.1661 264.873 84.5624C266.091 85.9587 266.764 87.7472 266.77 89.6C266.77 89.7866 266.77 89.9756 266.77 90.167M249.9 79.968L250.306 81.032C250.103 81.235 249.907 81.452 249.718 81.669L249.9 79.968ZM248.689 83.069C248.633 83.153 248.584 83.237 248.535 83.321L245.623 83.027L244.566 85.925L246.974 87.556C246.859 88.2336 246.801 88.9196 246.799 89.607C246.799 89.901 246.799 90.188 246.799 90.475L244.265 91.875L245.07 94.857H247.933C248.354 95.7532 248.883 96.5947 249.508 97.363L248.269 99.932L250.635 101.92L252.931 100.275C253.8 100.775 254.726 101.168 255.689 101.444L256.151 104.209L259.224 104.475L260.155 101.857C261.165 101.769 262.159 101.555 263.116 101.22L265.055 103.187L267.729 101.647L267.029 98.987C267.802 98.3267 268.49 97.5745 269.08 96.747L271.796 97.244L273.105 94.444L270.97 92.68C271.22 91.6983 271.349 90.6899 271.355 89.677L273.889 88.522L273.35 85.484L270.55 85.267C270.193 84.3289 269.723 83.4379 269.15 82.614L270.592 80.185L268.408 78.001L265.958 79.457C264.549 78.4976 262.953 77.8465 261.275 77.546L260.575 74.746H257.488L256.788 77.546C255.823 77.7278 254.883 78.0239 253.988 78.428L251.776 76.517L249.249 78.288L249.571 79.128L248.689 83.069ZM266.616 91.196C266.512 91.7033 266.355 92.1984 266.147 92.673L266.616 91.196Z" stroke="black" stroke-miterlimit="10"/>
<path d="M83.6709 146.377C87.1973 146.54 90.5411 147.992 93.0668 150.458C95.5926 152.925 97.1244 156.233 97.3711 159.754C97.6178 163.276 96.5623 166.765 94.4051 169.56C92.2479 172.354 89.1393 174.259 85.6701 174.911C82.2008 175.564 78.6126 174.92 75.5873 173.101C72.5619 171.282 70.3103 168.414 69.2602 165.044C68.21 161.674 68.4346 158.035 69.8912 154.819C71.3478 151.604 73.9349 149.035 77.1609 147.602M65.2609 175.203L62.9439 180.012L67.3679 183.722L71.6519 180.649C73.2768 181.588 75.0121 182.322 76.8179 182.833L77.6719 187.999L83.4259 188.503L85.1549 183.603C87.0437 183.435 88.9038 183.03 90.6919 182.399L94.3179 186.088L99.3159 183.204L97.9159 178.234C99.3645 176.997 100.655 175.586 101.759 174.034L106.834 174.965L109.277 169.736L105.294 166.446C105.758 164.616 105.993 162.734 105.994 160.846L110.726 158.69L109.725 153.006L104.503 152.6C103.835 150.851 102.959 149.189 101.892 147.651L104.58 143.101L100.499 139.02L95.9139 141.743C93.2805 139.951 90.299 138.735 87.1639 138.173L85.8409 132.937H80.0659L78.7359 138.201C76.9474 138.543 75.206 139.098 73.5489 139.853L69.4189 136.283L64.6939 139.594L66.6399 144.697C65.3704 145.994 64.259 147.437 63.3289 148.995L57.8899 148.435L55.9159 153.86L60.4169 156.912C60.2031 158.179 60.0954 159.463 60.0949 160.748C60.0949 161.294 60.1159 161.833 60.1579 162.365L55.4189 165.011L56.9169 170.611L62.2719 170.548C62.8639 171.809 63.5667 173.016 64.3719 174.153L65.2609 175.203ZM78.1899 147.189C78.8188 146.968 79.462 146.791 80.1149 146.657L78.1899 147.189Z" stroke="black" stroke-miterlimit="10"/>
<path d="M139.216 159.663L133.49 155.967" stroke="#263238" stroke-width="3" stroke-linecap="round" stroke-linejoin="round"/>
<path d="M149.163 148.547L147.679 147.308" stroke="#263238" stroke-width="3" stroke-linecap="round" stroke-linejoin="round"/>
<path d="M132.447 181.139L120.596 178.171" stroke="#263238" stroke-width="3" stroke-linecap="round" stroke-linejoin="round"/>
<path d="M196.497 253.981C196.41 253.98 196.323 253.968 196.238 253.946C195.965 253.875 195.731 253.699 195.587 253.456C195.223 252.819 195.027 252.476 197.981 249.088C191.611 252.987 190.932 252.826 190.561 252.735C190.27 252.649 190.021 252.46 189.861 252.203C189.273 251.188 189.161 250.985 200.949 241.339C199.059 242.564 197.092 243.88 195.349 245.042C184.975 251.965 181.748 253.932 180.32 253.603C180.147 253.564 179.984 253.489 179.841 253.385C179.697 253.28 179.577 253.147 179.487 252.994C178.857 251.902 178.857 251.902 192.787 241.836L195.545 239.848C193.935 240.919 192.332 242.011 190.862 243.012C179.9 250.467 174.909 253.687 173.04 253.267C172.845 253.223 172.662 253.138 172.502 253.017C172.343 252.896 172.211 252.743 172.116 252.567C171.416 251.384 171.276 251.118 191.534 237.356L164.892 252.756C164.655 252.888 164.375 252.922 164.113 252.85C163.851 252.778 163.628 252.606 163.492 252.371C163.023 251.559 163.387 250.565 165.312 248.871C162.246 250.635 160.468 251.342 159.593 251.139C159.411 251.097 159.239 251.019 159.088 250.91C158.936 250.8 158.808 250.662 158.711 250.502C158.13 249.494 158.354 248.563 165.767 243.579C158.123 248.36 155.302 249.767 154.203 249.508C154.04 249.47 153.886 249.398 153.751 249.298C153.616 249.199 153.503 249.072 153.419 248.927C152.908 248.052 153.384 247.737 155.141 246.575L159.012 244.048L164.934 240.219C158.41 243.607 157.43 243.376 156.884 243.243C156.7 243.201 156.527 243.122 156.374 243.012C156.221 242.901 156.092 242.761 155.995 242.599C155.866 242.362 155.833 242.084 155.904 241.823C155.974 241.563 156.142 241.339 156.373 241.199C176.918 229.019 208.635 209.482 216.279 203.021C208.656 206.486 185.864 220.64 172.879 228.725C156.156 239.12 156.079 239.099 155.379 238.917C155.234 238.885 155.098 238.823 154.977 238.737C154.857 238.65 154.756 238.54 154.679 238.413C154.112 237.433 154.14 236.803 160.832 232.659C157.752 234.108 155.722 234.759 154.826 234.549C154.63 234.503 154.445 234.417 154.284 234.297C154.123 234.176 153.988 234.024 153.888 233.849C153.754 233.616 153.715 233.341 153.779 233.08C153.843 232.819 154.005 232.593 154.231 232.449C174.965 219.24 204.134 200.536 216.034 192.633C212.723 194.32 208.278 196.833 203.336 199.794C199.339 202.363 194.6 205.352 188.993 208.838C181.587 213.451 174.097 218.022 167.86 221.802C152.796 231.308 152.614 231.266 151.879 231.084C151.734 231.049 151.598 230.986 151.478 230.898C151.358 230.811 151.256 230.7 151.179 230.573C151.05 230.336 151.017 230.058 151.088 229.797C151.158 229.537 151.326 229.313 151.557 229.173C156.093 226.478 161.098 223.475 166.292 220.325L169.022 218.603C158.144 224.826 152.131 227.549 150.36 227.115C150.155 227.075 149.961 226.992 149.791 226.871C149.621 226.751 149.478 226.595 149.373 226.415C148.722 225.295 149.646 223.867 157.318 218.855C152.369 221.872 150.409 222.768 149.576 222.565C149.417 222.529 149.267 222.461 149.136 222.365C149.005 222.268 148.895 222.146 148.813 222.005C148.372 221.242 148.015 220.605 153.139 216.888C150.381 218.288 148.638 218.855 147.805 218.652C147.616 218.611 147.438 218.531 147.281 218.418C147.125 218.305 146.993 218.161 146.895 217.994C146.825 217.874 146.779 217.74 146.761 217.602C146.743 217.464 146.753 217.323 146.79 217.189C146.864 216.921 147.04 216.692 147.28 216.552C169.995 203.637 204.393 183.183 214.865 174.93C203.378 181.272 171.71 199.864 149.611 212.968C149.492 213.038 149.36 213.084 149.222 213.104C149.085 213.123 148.945 213.114 148.811 213.079C148.677 213.044 148.551 212.983 148.441 212.899C148.331 212.815 148.238 212.71 148.169 212.59C148.062 212.398 147.994 212.186 147.972 211.967C147.949 211.748 147.971 211.526 148.036 211.316C148.426 210.428 149.015 209.643 149.758 209.02C148.127 209.685 147.035 209.93 146.412 209.776C146.218 209.729 146.036 209.642 145.877 209.522C145.718 209.401 145.586 209.25 145.488 209.076C144.858 207.991 146.062 207.151 147.882 205.884C149.282 204.939 151.263 203.63 154.035 201.894C159.208 198.66 166.306 194.376 173.824 189.847C182.273 184.751 192.311 178.696 200.284 173.684C183.225 183.484 156.359 199.178 143.458 206.724C143.214 206.863 142.925 206.9 142.653 206.829C142.52 206.794 142.394 206.732 142.285 206.648C142.176 206.564 142.084 206.459 142.016 206.339C141.477 205.401 141.316 205.128 150.591 199.29C146.958 201.285 144.662 202.146 143.493 201.873C143.272 201.827 143.064 201.735 142.88 201.604C142.697 201.473 142.543 201.304 142.429 201.11C141.729 199.906 141.729 199.906 158.571 190.127C166.362 185.605 175.658 180.201 184.212 175.007C191.394 170.233 197.015 166.607 201.278 164.087C203.514 162.6 205.636 160.948 207.627 159.145C198.884 163.072 164.36 183.946 142.527 197.526C142.291 197.675 142.006 197.723 141.734 197.662C141.463 197.6 141.227 197.433 141.078 197.197C140.929 196.961 140.881 196.676 140.942 196.404C141.004 196.133 141.171 195.897 141.407 195.748L148.183 191.436C142.583 194.313 140.483 194.796 139.622 194.579C139.427 194.533 139.243 194.448 139.083 194.327C138.922 194.207 138.789 194.054 138.691 193.879C138.555 193.647 138.515 193.371 138.579 193.11C138.643 192.848 138.806 192.622 139.034 192.479L153.951 182.917C141.757 189.805 140.77 189.56 140.168 189.406C140.008 189.369 139.857 189.299 139.725 189.202C139.592 189.104 139.481 188.981 139.398 188.839C139.267 188.604 139.231 188.328 139.297 188.068C139.364 187.807 139.528 187.582 139.755 187.439C155.477 177.716 177.814 163.639 190.855 154.812C180.32 160.881 164.955 169.897 154.147 176.253L142.1 183.253C139.426 184.814 138.131 185.577 137.438 185.927L137.256 186.039C136.773 186.27 136.654 186.235 136.451 186.179C136.253 186.126 136.076 186.017 135.939 185.865C135.803 185.712 135.714 185.523 135.684 185.321C135.653 185.119 135.682 184.912 135.768 184.726C135.853 184.54 135.991 184.384 136.164 184.275C152.838 173.964 177.464 158.424 188.496 150.78C182.623 154.182 173.852 159.775 166.796 164.29C147.014 176.89 141.001 180.516 139.258 180.082C139.092 180.043 138.936 179.97 138.799 179.869C138.662 179.768 138.547 179.641 138.46 179.494C138.026 178.731 137.711 178.192 144.284 173.453C142.492 174.244 141.281 174.545 140.574 174.377C140.374 174.332 140.185 174.246 140.019 174.126C139.853 174.005 139.713 173.853 139.608 173.677C139.478 173.443 139.442 173.168 139.507 172.908C139.572 172.648 139.733 172.423 139.958 172.277C152.873 164.15 172.501 151.41 179.249 146.139C173.341 149.03 160.447 157.339 152.859 162.197C140.462 170.1 140 170.296 139.209 170.1C139.064 170.066 138.927 170.004 138.807 169.916C138.687 169.828 138.585 169.717 138.509 169.589C137.949 168.63 137.459 167.776 149.597 159.432C148.099 160.384 146.566 161.371 144.998 162.379C144.868 162.484 144.717 162.558 144.554 162.596C144.392 162.633 144.223 162.633 144.06 162.596C143.922 162.563 143.792 162.502 143.679 162.416C143.566 162.331 143.471 162.223 143.402 162.099C142.653 160.804 143.731 159.691 152.25 153.16C152.094 153.127 151.946 153.061 151.817 152.967C151.688 152.873 151.58 152.753 151.501 152.614C151.371 152.373 151.34 152.09 151.415 151.826C151.489 151.563 151.663 151.338 151.9 151.2C152.097 151.092 152.321 151.046 152.544 151.067C153.651 150.424 154.724 149.723 155.757 148.967C159.173 146.566 160.139 145.992 160.972 146.167C161.135 146.203 161.288 146.271 161.423 146.369C161.558 146.466 161.671 146.591 161.756 146.734C162.358 147.784 161.889 148.414 156.156 152.852C157.752 151.865 159.397 150.843 161.056 149.835C177.24 139.937 178.493 140.231 179.256 140.413C179.424 140.449 179.582 140.52 179.721 140.621C179.86 140.723 179.976 140.852 180.061 141.001C180.193 141.235 180.23 141.51 180.165 141.771C180.1 142.031 179.937 142.257 179.711 142.401C171.815 147.301 163.611 152.607 156.73 157.192C172.704 146.993 180.383 142.492 182.546 143.038C182.734 143.08 182.911 143.16 183.066 143.273C183.221 143.386 183.352 143.53 183.449 143.696C184.114 144.851 184.597 145.691 162.498 160.237L159.32 162.337C163.772 159.537 168.28 156.597 171.92 154.217C186.095 145.019 188.391 143.668 189.462 143.92C189.609 143.958 189.746 144.026 189.867 144.119C189.987 144.211 190.087 144.327 190.162 144.459C190.296 144.692 190.335 144.967 190.271 145.228C190.207 145.489 190.045 145.715 189.819 145.859C176.113 154.595 156.093 167.636 146.195 174.643C151.515 171.507 159.054 166.698 165.62 162.512C186.431 149.212 193.221 145.187 195.139 145.649C195.31 145.69 195.472 145.765 195.614 145.87C195.756 145.974 195.875 146.106 195.965 146.258C196.476 147.147 196.847 147.777 184.674 155.904C201.733 146.006 202.062 146.104 202.601 146.23C202.738 146.265 202.867 146.327 202.98 146.413C203.093 146.498 203.188 146.605 203.259 146.727C203.959 147.938 204.456 148.827 172.27 169.393C169.932 170.891 167.587 172.382 165.27 173.838C178.01 166.306 193.193 157.038 204.694 149.856C204.814 149.783 204.948 149.734 205.087 149.712C205.227 149.69 205.369 149.696 205.506 149.73C205.781 149.8 206.018 149.976 206.164 150.22C206.661 151.088 205.926 151.62 205.149 152.152C204.673 152.481 203.973 152.957 203.049 153.552C201.355 154.679 198.849 156.352 195.615 158.452C190.169 162.001 182.56 166.922 172.998 173.082C163.786 179.011 154.504 184.982 148.141 189.049C156.548 184.604 172.9 175 204.4 154.875C208.936 151.984 208.936 151.984 209.398 152.075C209.537 152.109 209.667 152.171 209.781 152.256C209.895 152.341 209.991 152.449 210.063 152.572C210.322 153.02 210.469 153.272 209.629 154.021C208.509 155.001 205.723 156.821 199.367 160.951C208.369 156.016 209.209 156.219 209.755 156.359C209.914 156.395 210.064 156.463 210.195 156.559C210.326 156.656 210.436 156.778 210.518 156.919C210.896 157.577 210.987 158.368 209.587 159.936C210.139 159.764 210.724 159.721 211.295 159.81C211.523 159.858 211.739 159.953 211.928 160.089C212.118 160.225 212.276 160.4 212.394 160.601C213.094 161.805 213.444 162.421 192.647 175.539C214.669 162.785 214.886 162.841 215.411 162.981C215.546 163.015 215.672 163.076 215.783 163.161C215.893 163.245 215.986 163.35 216.055 163.471C216.755 164.633 215.495 165.802 212.485 168C210.546 169.4 207.809 171.248 204.141 173.6C216.37 165.963 219.436 164.381 220.528 164.647C220.682 164.685 220.828 164.753 220.955 164.848C221.083 164.943 221.19 165.063 221.27 165.2C221.34 165.319 221.386 165.451 221.404 165.588C221.422 165.725 221.412 165.865 221.375 165.998C221.34 166.133 221.277 166.26 221.192 166.37C221.107 166.481 221 166.573 220.878 166.642C213.738 170.688 206.479 174.874 199.465 179.004L192.199 183.596C177.912 192.64 167.489 199.143 160.174 203.399C157.857 204.988 155.876 206.402 154.287 207.599C160.797 203.749 171.885 197.204 182.987 190.729C217.987 170.247 218.519 170.394 219.184 170.569C219.321 170.604 219.45 170.666 219.563 170.752C219.676 170.837 219.771 170.944 219.842 171.066C219.943 171.245 220.007 171.443 220.03 171.647C220.053 171.852 220.034 172.059 219.975 172.256C219.769 172.934 219.373 173.539 218.834 173.999C221.235 172.802 222.74 172.312 223.482 172.487C223.662 172.528 223.833 172.606 223.982 172.716C224.131 172.825 224.256 172.964 224.35 173.124C224.91 174.09 224.126 174.615 222.397 175.763C221.354 176.463 219.814 177.436 217.679 178.766L217.266 179.025C220.528 177.464 222.817 176.729 223.965 177.009C224.199 177.057 224.421 177.154 224.616 177.292C224.812 177.431 224.976 177.609 225.099 177.814C226.065 179.487 225.099 180.551 190.946 200.753C176.603 209.3 157.654 220.5 152.488 224.7C155.337 223.699 162.435 220.269 180.075 209.594C194.453 200.893 210.287 190.736 217.875 185.857C223.146 182.476 223.139 182.483 223.608 182.595C223.887 182.666 224.126 182.845 224.273 183.092C224.7 183.834 225.134 184.583 219.373 188.874C220.187 188.506 221.08 188.352 221.97 188.426C222.166 188.472 222.35 188.558 222.512 188.679C222.673 188.799 222.808 188.951 222.908 189.126C223.524 190.197 223.524 190.197 212.198 197.617C206.598 201.271 198.828 206.318 189.028 212.618C179.578 218.694 170.051 224.791 163.527 228.956C176.743 221.872 201.509 206.164 212.527 199.178C222.327 192.983 222.327 192.983 222.859 193.116C222.996 193.151 223.125 193.213 223.238 193.299C223.351 193.384 223.446 193.491 223.517 193.613C224.266 194.915 223.076 196.763 218.47 200.186C218.605 200.167 218.741 200.167 218.876 200.186C219.047 200.227 219.209 200.302 219.351 200.407C219.493 200.511 219.612 200.643 219.702 200.795C220.437 202.069 221.27 203.511 190.204 222.964C199.136 217.462 208.404 211.61 215.887 206.759C216.007 206.681 216.141 206.628 216.282 206.604C216.423 206.58 216.567 206.584 216.706 206.618C216.845 206.651 216.975 206.713 217.09 206.798C217.204 206.884 217.3 206.992 217.371 207.116C217.882 208.012 217.175 208.516 215.971 209.356C215.271 209.853 214.214 210.581 212.828 211.505C211.442 212.429 209.72 213.605 207.641 214.949C210.539 213.479 212.331 212.884 213.241 213.108C213.439 213.153 213.625 213.238 213.787 213.358C213.95 213.479 214.086 213.632 214.186 213.808C214.774 214.823 214.641 215.208 207.557 219.786C209.048 219.149 210.105 218.918 210.784 219.086C210.995 219.131 211.194 219.22 211.369 219.347C211.544 219.473 211.69 219.635 211.799 219.821C212.625 221.221 212.002 221.879 193.032 233.366C187.6 236.656 180.761 240.793 175.224 244.363L212.471 222.866C212.59 222.795 212.722 222.75 212.859 222.732C212.996 222.714 213.136 222.724 213.269 222.761C213.536 222.832 213.765 223.006 213.906 223.244C214.424 224.147 213.689 224.686 212.471 225.582C211.736 226.121 210.658 226.884 209.174 227.906C206.409 229.824 202.566 232.421 198.499 235.179C193.76 238.385 187.796 242.424 182.91 245.819C185.157 244.335 187.495 242.746 189.574 241.332C200.403 233.968 204.974 231.021 206.759 231.413C206.946 231.454 207.123 231.533 207.278 231.645C207.433 231.757 207.564 231.9 207.662 232.064C208.271 233.128 208.299 233.177 195.881 242.172C204.89 236.18 207.837 234.472 209.181 234.773C209.354 234.812 209.517 234.887 209.66 234.991C209.804 235.096 209.924 235.229 210.014 235.382C210.504 236.236 210.504 236.236 204.239 241.353C202.349 242.893 199.724 245.035 197.358 247.016C199.276 245.833 201.39 244.489 203.399 243.187C203.519 243.109 203.653 243.056 203.794 243.032C203.935 243.008 204.079 243.012 204.218 243.046C204.357 243.079 204.487 243.141 204.602 243.226C204.716 243.312 204.812 243.42 204.883 243.544C205.275 244.244 205.128 244.384 203.693 245.924C202.524 247.177 201.523 248.276 200.676 249.214C207.032 245.427 207.263 245.49 207.711 245.602C207.847 245.637 207.975 245.7 208.087 245.785C208.198 245.87 208.292 245.977 208.362 246.099C208.432 246.218 208.478 246.35 208.496 246.487C208.515 246.624 208.506 246.764 208.47 246.897C208.434 247.031 208.372 247.156 208.287 247.265C208.203 247.374 208.097 247.466 207.977 247.534C207.876 247.595 207.764 247.638 207.648 247.66C206.717 248.08 201.544 251.125 196.987 253.883C196.833 253.953 196.666 253.987 196.497 253.981ZM206.598 247.1C206.709 247.288 206.875 247.437 207.074 247.527C206.877 247.434 206.711 247.286 206.598 247.1ZM180.754 236.411C174.706 240.184 168.756 243.964 164.878 246.659C169.099 244.146 175.231 240.1 180.754 236.411ZM206.787 217.77C199.92 221.578 188.811 228.732 180.369 234.185C183.477 232.246 187.019 230.055 191.044 227.577C196.588 224.168 202.559 220.5 206.787 217.77ZM206.339 222.67C202.608 224.658 196.945 228.27 191.422 231.875L192.003 231.525C197.162 228.389 202.762 224.994 206.339 222.656V222.67ZM171.92 206.948C167.3 209.839 163.1 212.562 159.6 214.9C163.226 212.583 167.524 209.804 171.92 206.948ZM221.753 179.417C219.723 180.117 215.418 182.077 206.311 187.544C197.204 193.011 186.2 200.2 176.4 206.57C172.123 209.37 168.525 211.68 165.487 213.626C171.381 210 179.298 205.261 189.875 199.003C202.748 191.366 217.14 182.854 221.753 179.417ZM215.18 199.955L213.696 200.9C208.796 204.013 204.155 206.941 199.773 209.685C205.618 206.171 211.141 202.734 215.18 199.955ZM168.756 195.3C162.337 199.178 156.1 203 151.956 205.611C154.056 204.54 156.583 203.105 159.439 201.411C162.246 199.5 165.389 197.435 168.756 195.3ZM185.192 176.806C182.504 178.598 179.858 180.376 177.38 182.035C172.48 185.339 168.126 188.223 164.353 190.701L168.21 188.321C182.385 179.585 202.853 166.957 208.873 162.379C206.646 163.374 204.488 164.515 202.412 165.795C200.018 167.468 196.973 169.477 193.116 171.913C190.603 173.488 187.936 175.126 185.192 176.792V176.806Z" fill="#005F9F"/>
<g opacity="0.4">
<path opacity="0.4" d="M196.497 253.981C196.41 253.98 196.323 253.968 196.238 253.946C195.965 253.875 195.731 253.699 195.587 253.456C195.223 252.819 195.027 252.476 197.981 249.088C191.611 252.987 190.932 252.826 190.561 252.735C190.27 252.649 190.021 252.46 189.861 252.203C189.273 251.188 189.161 250.985 200.949 241.339C199.059 242.564 197.092 243.88 195.349 245.042C184.975 251.965 181.748 253.932 180.32 253.603C180.147 253.564 179.984 253.489 179.841 253.385C179.697 253.28 179.577 253.147 179.487 252.994C178.857 251.902 178.857 251.902 192.787 241.836L195.545 239.848C193.935 240.919 192.332 242.011 190.862 243.012C179.9 250.467 174.909 253.687 173.04 253.267C172.845 253.223 172.662 253.138 172.502 253.017C172.343 252.896 172.211 252.743 172.116 252.567C171.416 251.384 171.276 251.118 191.534 237.356L164.892 252.756C164.655 252.888 164.375 252.922 164.113 252.85C163.851 252.778 163.628 252.606 163.492 252.371C163.023 251.559 163.387 250.565 165.312 248.871C162.246 250.635 160.468 251.342 159.593 251.139C159.411 251.097 159.239 251.019 159.088 250.91C158.936 250.8 158.808 250.662 158.711 250.502C158.13 249.494 158.354 248.563 165.767 243.579C158.123 248.36 155.302 249.767 154.203 249.508C154.04 249.47 153.886 249.398 153.751 249.298C153.616 249.199 153.503 249.072 153.419 248.927C152.908 248.052 153.384 247.737 155.141 246.575L159.012 244.048L164.934 240.219C158.41 243.607 157.43 243.376 156.884 243.243C156.7 243.201 156.527 243.122 156.374 243.012C156.221 242.901 156.092 242.761 155.995 242.599C155.866 242.362 155.833 242.084 155.904 241.823C155.974 241.563 156.142 241.339 156.373 241.199C176.918 229.019 208.635 209.482 216.279 203.021C208.656 206.486 185.864 220.64 172.879 228.725C156.156 239.12 156.079 239.099 155.379 238.917C155.234 238.885 155.098 238.823 154.977 238.737C154.857 238.65 154.756 238.54 154.679 238.413C154.112 237.433 154.14 236.803 160.832 232.659C157.752 234.108 155.722 234.759 154.826 234.549C154.63 234.503 154.445 234.417 154.284 234.297C154.123 234.176 153.988 234.024 153.888 233.849C153.754 233.616 153.715 233.341 153.779 233.08C153.843 232.819 154.005 232.593 154.231 232.449C174.965 219.24 204.134 200.536 216.034 192.633C212.723 194.32 208.278 196.833 203.336 199.794C199.339 202.363 194.6 205.352 188.993 208.838C181.587 213.451 174.097 218.022 167.86 221.802C152.796 231.308 152.614 231.266 151.879 231.084C151.734 231.049 151.598 230.986 151.478 230.898C151.358 230.811 151.256 230.7 151.179 230.573C151.05 230.336 151.017 230.058 151.088 229.797C151.158 229.537 151.326 229.313 151.557 229.173C156.093 226.478 161.098 223.475 166.292 220.325L169.022 218.603C158.144 224.826 152.131 227.549 150.36 227.115C150.155 227.075 149.961 226.992 149.791 226.871C149.621 226.751 149.478 226.595 149.373 226.415C148.722 225.295 149.646 223.867 157.318 218.855C152.369 221.872 150.409 222.768 149.576 222.565C149.417 222.529 149.267 222.461 149.136 222.365C149.005 222.268 148.895 222.146 148.813 222.005C148.372 221.242 148.015 220.605 153.139 216.888C150.381 218.288 148.638 218.855 147.805 218.652C147.616 218.611 147.438 218.531 147.281 218.418C147.125 218.305 146.993 218.161 146.895 217.994C146.825 217.874 146.779 217.74 146.761 217.602C146.743 217.464 146.753 217.323 146.79 217.189C146.864 216.921 147.04 216.692 147.28 216.552C169.995 203.637 204.393 183.183 214.865 174.93C203.378 181.272 171.71 199.864 149.611 212.968C149.492 213.038 149.36 213.084 149.222 213.104C149.085 213.123 148.945 213.114 148.811 213.079C148.677 213.044 148.551 212.983 148.441 212.899C148.331 212.815 148.238 212.71 148.169 212.59C148.062 212.398 147.994 212.186 147.972 211.967C147.949 211.748 147.971 211.526 148.036 211.316C148.426 210.428 149.015 209.643 149.758 209.02C148.127 209.685 147.035 209.93 146.412 209.776C146.218 209.729 146.036 209.642 145.877 209.522C145.718 209.401 145.586 209.25 145.488 209.076C144.858 207.991 146.062 207.151 147.882 205.884C149.282 204.939 151.263 203.63 154.035 201.894C159.208 198.66 166.306 194.376 173.824 189.847C182.273 184.751 192.311 178.696 200.284 173.684C183.225 183.484 156.359 199.178 143.458 206.724C143.214 206.863 142.925 206.9 142.653 206.829C142.52 206.794 142.394 206.732 142.285 206.648C142.176 206.564 142.084 206.459 142.016 206.339C141.477 205.401 141.316 205.128 150.591 199.29C146.958 201.285 144.662 202.146 143.493 201.873C143.272 201.827 143.064 201.735 142.88 201.604C142.697 201.473 142.543 201.304 142.429 201.11C141.729 199.906 141.729 199.906 158.571 190.127C166.362 185.605 175.658 180.201 184.212 175.007C191.394 170.233 197.015 166.607 201.278 164.087C203.514 162.6 205.636 160.948 207.627 159.145C198.884 163.072 164.36 183.946 142.527 197.526C142.291 197.675 142.006 197.723 141.734 197.662C141.463 197.6 141.227 197.433 141.078 197.197C140.929 196.961 140.881 196.676 140.942 196.404C141.004 196.133 141.171 195.897 141.407 195.748L148.183 191.436C142.583 194.313 140.483 194.796 139.622 194.579C139.427 194.533 139.243 194.448 139.083 194.327C138.922 194.207 138.789 194.054 138.691 193.879C138.555 193.647 138.515 193.371 138.579 193.11C138.643 192.848 138.806 192.622 139.034 192.479L153.951 182.917C141.757 189.805 140.77 189.56 140.168 189.406C140.008 189.369 139.857 189.299 139.725 189.202C139.592 189.104 139.481 188.981 139.398 188.839C139.267 188.604 139.231 188.328 139.297 188.068C139.364 187.807 139.528 187.582 139.755 187.439C155.477 177.716 177.814 163.639 190.855 154.812C180.32 160.881 164.955 169.897 154.147 176.253L142.1 183.253C139.426 184.814 138.131 185.577 137.438 185.927L137.256 186.039C136.773 186.27 136.654 186.235 136.451 186.179C136.253 186.126 136.076 186.017 135.939 185.865C135.803 185.712 135.714 185.523 135.684 185.321C135.653 185.119 135.682 184.912 135.768 184.726C135.853 184.54 135.991 184.384 136.164 184.275C152.838 173.964 177.464 158.424 188.496 150.78C182.623 154.182 173.852 159.775 166.796 164.29C147.014 176.89 141.001 180.516 139.258 180.082C139.092 180.043 138.936 179.97 138.799 179.869C138.662 179.768 138.547 179.641 138.46 179.494C138.026 178.731 137.711 178.192 144.284 173.453C142.492 174.244 141.281 174.545 140.574 174.377C140.374 174.332 140.185 174.246 140.019 174.126C139.853 174.005 139.713 173.853 139.608 173.677C139.478 173.443 139.442 173.168 139.507 172.908C139.572 172.648 139.733 172.423 139.958 172.277C152.873 164.15 172.501 151.41 179.249 146.139C173.341 149.03 160.447 157.339 152.859 162.197C140.462 170.1 140 170.296 139.209 170.1C139.064 170.066 138.927 170.004 138.807 169.916C138.687 169.828 138.585 169.717 138.509 169.589C137.949 168.63 137.459 167.776 149.597 159.432C148.099 160.384 146.566 161.371 144.998 162.379C144.868 162.484 144.717 162.558 144.554 162.596C144.392 162.633 144.223 162.633 144.06 162.596C143.922 162.563 143.792 162.502 143.679 162.416C143.566 162.331 143.471 162.223 143.402 162.099C142.653 160.804 143.731 159.691 152.25 153.16C152.094 153.127 151.946 153.061 151.817 152.967C151.688 152.873 151.58 152.753 151.501 152.614C151.371 152.373 151.34 152.09 151.415 151.826C151.489 151.563 151.663 151.338 151.9 151.2C152.097 151.092 152.321 151.046 152.544 151.067C153.651 150.424 154.724 149.723 155.757 148.967C159.173 146.566 160.139 145.992 160.972 146.167C161.135 146.203 161.288 146.271 161.423 146.369C161.558 146.466 161.671 146.591 161.756 146.734C162.358 147.784 161.889 148.414 156.156 152.852C157.752 151.865 159.397 150.843 161.056 149.835C177.24 139.937 178.493 140.231 179.256 140.413C179.424 140.449 179.582 140.52 179.721 140.621C179.86 140.723 179.976 140.852 180.061 141.001C180.193 141.235 180.23 141.51 180.165 141.771C180.1 142.031 179.937 142.257 179.711 142.401C171.815 147.301 163.611 152.607 156.73 157.192C172.704 146.993 180.383 142.492 182.546 143.038C182.734 143.08 182.911 143.16 183.066 143.273C183.221 143.386 183.352 143.53 183.449 143.696C184.114 144.851 184.597 145.691 162.498 160.237L159.32 162.337C163.772 159.537 168.28 156.597 171.92 154.217C186.095 145.019 188.391 143.668 189.462 143.92C189.609 143.958 189.746 144.026 189.867 144.119C189.987 144.211 190.087 144.327 190.162 144.459C190.296 144.692 190.335 144.967 190.271 145.228C190.207 145.489 190.045 145.715 189.819 145.859C176.113 154.595 156.093 167.636 146.195 174.643C151.515 171.507 159.054 166.698 165.62 162.512C186.431 149.212 193.221 145.187 195.139 145.649C195.31 145.69 195.472 145.765 195.614 145.87C195.756 145.974 195.875 146.106 195.965 146.258C196.476 147.147 196.847 147.777 184.674 155.904C201.733 146.006 202.062 146.104 202.601 146.23C202.738 146.265 202.867 146.327 202.98 146.413C203.093 146.498 203.188 146.605 203.259 146.727C203.959 147.938 204.456 148.827 172.27 169.393C169.932 170.891 167.587 172.382 165.27 173.838C178.01 166.306 193.193 157.038 204.694 149.856C204.814 149.783 204.948 149.734 205.087 149.712C205.227 149.69 205.369 149.696 205.506 149.73C205.781 149.8 206.018 149.976 206.164 150.22C206.661 151.088 205.926 151.62 205.149 152.152C204.673 152.481 203.973 152.957 203.049 153.552C201.355 154.679 198.849 156.352 195.615 158.452C190.169 162.001 182.56 166.922 172.998 173.082C163.786 179.011 154.504 184.982 148.141 189.049C156.548 184.604 172.9 175 204.4 154.875C208.936 151.984 208.936 151.984 209.398 152.075C209.537 152.109 209.667 152.171 209.781 152.256C209.895 152.341 209.991 152.449 210.063 152.572C210.322 153.02 210.469 153.272 209.629 154.021C208.509 155.001 205.723 156.821 199.367 160.951C208.369 156.016 209.209 156.219 209.755 156.359C209.914 156.395 210.064 156.463 210.195 156.559C210.326 156.656 210.436 156.778 210.518 156.919C210.896 157.577 210.987 158.368 209.587 159.936C210.139 159.764 210.724 159.721 211.295 159.81C211.523 159.858 211.739 159.953 211.928 160.089C212.118 160.225 212.276 160.4 212.394 160.601C213.094 161.805 213.444 162.421 192.647 175.539C214.669 162.785 214.886 162.841 215.411 162.981C215.546 163.015 215.672 163.076 215.783 163.161C215.893 163.245 215.986 163.35 216.055 163.471C216.755 164.633 215.495 165.802 212.485 168C210.546 169.4 207.809 171.248 204.141 173.6C216.37 165.963 219.436 164.381 220.528 164.647C220.682 164.685 220.828 164.753 220.955 164.848C221.083 164.943 221.19 165.063 221.27 165.2C221.34 165.319 221.386 165.451 221.404 165.588C221.422 165.725 221.412 165.865 221.375 165.998C221.34 166.133 221.277 166.26 221.192 166.37C221.107 166.481 221 166.573 220.878 166.642C213.738 170.688 206.479 174.874 199.465 179.004L192.199 183.596C177.912 192.64 167.489 199.143 160.174 203.399C157.857 204.988 155.876 206.402 154.287 207.599C160.797 203.749 171.885 197.204 182.987 190.729C217.987 170.247 218.519 170.394 219.184 170.569C219.321 170.604 219.45 170.666 219.563 170.752C219.676 170.837 219.771 170.944 219.842 171.066C219.943 171.245 220.007 171.443 220.03 171.647C220.053 171.852 220.034 172.059 219.975 172.256C219.769 172.934 219.373 173.539 218.834 173.999C221.235 172.802 222.74 172.312 223.482 172.487C223.662 172.528 223.833 172.606 223.982 172.716C224.131 172.825 224.256 172.964 224.35 173.124C224.91 174.09 224.126 174.615 222.397 175.763C221.354 176.463 219.814 177.436 217.679 178.766L217.266 179.025C220.528 177.464 222.817 176.729 223.965 177.009C224.199 177.057 224.421 177.154 224.616 177.292C224.812 177.431 224.976 177.609 225.099 177.814C226.065 179.487 225.099 180.551 190.946 200.753C176.603 209.3 157.654 220.5 152.488 224.7C155.337 223.699 162.435 220.269 180.075 209.594C194.453 200.893 210.287 190.736 217.875 185.857C223.146 182.476 223.139 182.483 223.608 182.595C223.887 182.666 224.126 182.845 224.273 183.092C224.7 183.834 225.134 184.583 219.373 188.874C220.187 188.506 221.08 188.352 221.97 188.426C222.166 188.472 222.35 188.558 222.512 188.679C222.673 188.799 222.808 188.951 222.908 189.126C223.524 190.197 223.524 190.197 212.198 197.617C206.598 201.271 198.828 206.318 189.028 212.618C179.578 218.694 170.051 224.791 163.527 228.956C176.743 221.872 201.509 206.164 212.527 199.178C222.327 192.983 222.327 192.983 222.859 193.116C222.996 193.151 223.125 193.213 223.238 193.299C223.351 193.384 223.446 193.491 223.517 193.613C224.266 194.915 223.076 196.763 218.47 200.186C218.605 200.167 218.741 200.167 218.876 200.186C219.047 200.227 219.209 200.302 219.351 200.407C219.493 200.511 219.612 200.643 219.702 200.795C220.437 202.069 221.27 203.511 190.204 222.964C199.136 217.462 208.404 211.61 215.887 206.759C216.007 206.681 216.141 206.628 216.282 206.604C216.423 206.58 216.567 206.584 216.706 206.618C216.845 206.651 216.975 206.713 217.09 206.798C217.204 206.884 217.3 206.992 217.371 207.116C217.882 208.012 217.175 208.516 215.971 209.356C215.271 209.853 214.214 210.581 212.828 211.505C211.442 212.429 209.72 213.605 207.641 214.949C210.539 213.479 212.331 212.884 213.241 213.108C213.439 213.153 213.625 213.238 213.787 213.358C213.95 213.479 214.086 213.632 214.186 213.808C214.774 214.823 214.641 215.208 207.557 219.786C209.048 219.149 210.105 218.918 210.784 219.086C210.995 219.131 211.194 219.22 211.369 219.347C211.544 219.473 211.69 219.635 211.799 219.821C212.625 221.221 212.002 221.879 193.032 233.366C187.6 236.656 180.761 240.793 175.224 244.363L212.471 222.866C212.59 222.795 212.722 222.75 212.859 222.732C212.996 222.714 213.136 222.724 213.269 222.761C213.536 222.832 213.765 223.006 213.906 223.244C214.424 224.147 213.689 224.686 212.471 225.582C211.736 226.121 210.658 226.884 209.174 227.906C206.409 229.824 202.566 232.421 198.499 235.179C193.76 238.385 187.796 242.424 182.91 245.819C185.157 244.335 187.495 242.746 189.574 241.332C200.403 233.968 204.974 231.021 206.759 231.413C206.946 231.454 207.123 231.533 207.278 231.645C207.433 231.757 207.564 231.9 207.662 232.064C208.271 233.128 208.299 233.177 195.881 242.172C204.89 236.18 207.837 234.472 209.181 234.773C209.354 234.812 209.517 234.887 209.66 234.991C209.804 235.096 209.924 235.229 210.014 235.382C210.504 236.236 210.504 236.236 204.239 241.353C202.349 242.893 199.724 245.035 197.358 247.016C199.276 245.833 201.39 244.489 203.399 243.187C203.519 243.109 203.653 243.056 203.794 243.032C203.935 243.008 204.079 243.012 204.218 243.046C204.357 243.079 204.487 243.141 204.602 243.226C204.716 243.312 204.812 243.42 204.883 243.544C205.275 244.244 205.128 244.384 203.693 245.924C202.524 247.177 201.523 248.276 200.676 249.214C207.032 245.427 207.263 245.49 207.711 245.602C207.847 245.637 207.975 245.7 208.087 245.785C208.198 245.87 208.292 245.977 208.362 246.099C208.432 246.218 208.478 246.35 208.496 246.487C208.515 246.624 208.506 246.764 208.47 246.897C208.434 247.031 208.372 247.156 208.287 247.265C208.203 247.374 208.097 247.466 207.977 247.534C207.876 247.595 207.764 247.638 207.648 247.66C206.717 248.08 201.544 251.125 196.987 253.883C196.833 253.953 196.666 253.987 196.497 253.981ZM206.598 247.1C206.709 247.288 206.875 247.437 207.074 247.527C206.877 247.434 206.711 247.286 206.598 247.1ZM180.754 236.411C174.706 240.184 168.756 243.964 164.878 246.659C169.099 244.146 175.231 240.1 180.754 236.411ZM206.787 217.77C199.92 221.578 188.811 228.732 180.369 234.185C183.477 232.246 187.019 230.055 191.044 227.577C196.588 224.168 202.559 220.5 206.787 217.77ZM206.339 222.67C202.608 224.658 196.945 228.27 191.422 231.875L192.003 231.525C197.162 228.389 202.762 224.994 206.339 222.656V222.67ZM171.92 206.948C167.3 209.839 163.1 212.562 159.6 214.9C163.226 212.583 167.524 209.804 171.92 206.948ZM221.753 179.417C219.723 180.117 215.418 182.077 206.311 187.544C197.204 193.011 186.2 200.2 176.4 206.57C172.123 209.37 168.525 211.68 165.487 213.626C171.381 210 179.298 205.261 189.875 199.003C202.748 191.366 217.14 182.854 221.753 179.417ZM215.18 199.955L213.696 200.9C208.796 204.013 204.155 206.941 199.773 209.685C205.618 206.171 211.141 202.734 215.18 199.955ZM168.756 195.3C162.337 199.178 156.1 203 151.956 205.611C154.056 204.54 156.583 203.105 159.439 201.411C162.246 199.5 165.389 197.435 168.756 195.3ZM185.192 176.806C182.504 178.598 179.858 180.376 177.38 182.035C172.48 185.339 168.126 188.223 164.353 190.701L168.21 188.321C182.385 179.585 202.853 166.957 208.873 162.379C206.646 163.374 204.488 164.515 202.412 165.795C200.018 167.468 196.973 169.477 193.116 171.913C190.603 173.488 187.936 175.126 185.192 176.792V176.806Z" fill="white"/>
</g>
<path d="M181.629 141.785H181.16C155.778 142.254 136.647 161.672 136.647 185.563C136.636 192.698 138.376 199.726 141.715 206.031C143.115 209.356 146.503 217.497 149.856 228.025C152.964 237.741 154.588 247.52 154.588 249.025C154.588 249.165 154.588 249.312 154.588 249.473C154.574 249.912 154.648 250.35 154.807 250.76C154.965 251.17 155.204 251.544 155.509 251.86C155.815 252.176 156.181 252.427 156.585 252.599C156.99 252.771 157.425 252.86 157.864 252.861H203.322C203.762 252.86 204.196 252.771 204.601 252.599C205.005 252.427 205.371 252.176 205.677 251.86C205.982 251.544 206.221 251.17 206.38 250.76C206.538 250.35 206.612 249.912 206.598 249.473C206.598 249.312 206.598 249.165 206.598 249.025C206.598 247.548 208.222 237.769 211.323 228.025C214.683 217.525 218.036 209.356 219.464 206.031C222.955 199.426 224.698 192.038 224.528 184.569C224.358 177.1 222.279 169.799 218.491 163.36C214.703 156.921 209.33 151.559 202.884 147.782C196.438 144.006 189.133 141.941 181.664 141.785H181.629Z" stroke="#263238" stroke-width="2" stroke-linecap="round" stroke-linejoin="round"/>
<path d="M196.966 148.813C195.699 148.244 194.399 147.748 193.074 147.329" stroke="#263238" stroke-width="3" stroke-linecap="round" stroke-linejoin="round"/>
<path d="M211.554 159.929C211.554 159.929 207.984 154.259 200.137 150.402" stroke="#263238" stroke-width="3" stroke-linecap="round" stroke-linejoin="round"/>
<path d="M177.688 233.009V210.525C177.688 210.525 179.417 199.577 173.726 199.577C168.035 199.577 168.469 205.275 175.035 211.4C181.601 217.525 191.681 211.841 192.997 207.025C194.313 202.209 190.806 200.025 188.615 203.959C186.424 207.893 188.615 252.574 188.615 252.574" stroke="#263238" stroke-width="3" stroke-linecap="round" stroke-linejoin="round"/>
<path d="M165.515 130.41L167.937 138.033" stroke="#263238" stroke-width="3" stroke-linecap="round" stroke-linejoin="round"/>
<path d="M224.861 147.035L216.888 153.272" stroke="#263238" stroke-width="3" stroke-linecap="round" stroke-linejoin="round"/>
<path d="M195.3 124.845L192.297 138.033" stroke="#263238" stroke-width="3" stroke-linecap="round" stroke-linejoin="round"/>
<path d="M204.589 256.137H156.576C155.962 256.137 155.463 256.635 155.463 257.25V257.803C155.463 258.418 155.962 258.916 156.576 258.916H204.589C205.204 258.916 205.702 258.418 205.702 257.803V257.25C205.702 256.635 205.204 256.137 204.589 256.137Z" fill="#263238" stroke="#263238" stroke-linecap="round" stroke-linejoin="round"/>
<path d="M204.589 262.395H156.576C155.962 262.395 155.463 262.893 155.463 263.508V264.061C155.463 264.676 155.962 265.174 156.576 265.174H204.589C205.204 265.174 205.702 264.676 205.702 264.061V263.508C205.702 262.893 205.204 262.395 204.589 262.395Z" fill="#263238" stroke="#263238" stroke-linecap="round" stroke-linejoin="round"/>
<path d="M204.589 268.653H156.576C155.962 268.653 155.463 269.151 155.463 269.766V270.319C155.463 270.934 155.962 271.432 156.576 271.432H204.589C205.204 271.432 205.702 270.934 205.702 270.319V269.766C205.702 269.151 205.204 268.653 204.589 268.653Z" fill="#263238" stroke="#263238" stroke-linecap="round" stroke-linejoin="round"/>
<path d="M182.056 274.764H157.402L164.5 284.564C165.109 285.405 165.908 286.091 166.833 286.563C167.758 287.035 168.782 287.281 169.82 287.28H191.52C192.561 287.279 193.587 287.031 194.513 286.557C195.439 286.082 196.239 285.394 196.847 284.55L203.889 274.799L182.056 274.764Z" fill="#263238" stroke="#263238" stroke-linecap="round" stroke-linejoin="round"/>
<path d="M225.645 176.279C225.645 176.279 221.88 181.748 218.581 184.665C215.283 187.581 213.197 191.143 216.76 192.323C218.9 193.03 221.558 191.248 221.558 191.248C221.558 191.248 217.281 193.071 217.037 197.225C216.793 201.379 225.413 198.516 225.413 198.516C225.413 198.516 219.573 203.848 221.815 205.184C224.057 206.52 227.924 204.747 229.942 204.467C231.959 204.187 241.16 196.332 243.607 195.993C246.055 195.654 251.602 200.234 252.161 204.27C252.721 208.305 259.099 207.011 258.189 194.381C257.279 181.751 252.579 171.711 246.883 169.207C241.186 166.704 225.645 176.279 225.645 176.279Z" fill="white" stroke="#263238" stroke-miterlimit="10" stroke-linecap="round"/>
<path d="M225.125 190.323L240.398 182.071C240.398 182.071 247.257 179.558 253.492 187.216" stroke="#263238" stroke-miterlimit="10" stroke-linecap="round"/>
<path d="M228.619 194.778L242.844 190.339C242.844 190.339 249.251 189.041 254.35 196.15" stroke="#263238" stroke-miterlimit="10" stroke-linecap="round"/>
<path d="M247.727 202.001L237.163 205.939L247.2 230.872C247.2 230.872 254.425 241.39 256.705 246.013C258.986 250.637 277.778 264.455 277.778 264.455L294.576 243.2C294.576 243.2 284.246 233.94 283.507 231.569C282.769 229.198 277.23 201.175 276.67 197.14C276.111 193.105 266.696 184.53 266.696 184.53C266.696 184.53 262.723 180.24 259.988 172.394C257.254 164.547 249.395 162.251 245.402 163.215C241.408 164.179 230.517 166.925 226.529 170.779C222.54 174.632 219.056 179.221 223.267 179.874C230.25 180.955 239.979 170.49 246.127 175.941C248.945 178.426 253.533 190.461 254.163 192.049C254.163 192.049 253.208 199.997 247.725 201.987" fill="white"/>
<path d="M247.727 202.001L237.163 205.939L247.2 230.872C247.2 230.872 254.425 241.39 256.705 246.013C258.986 250.637 277.778 264.455 277.778 264.455L294.576 243.2C294.576 243.2 284.246 233.94 283.507 231.569C282.769 229.198 277.23 201.175 276.67 197.14C276.111 193.105 266.696 184.53 266.696 184.53C266.696 184.53 262.723 180.24 259.988 172.394C257.254 164.547 249.395 162.251 245.402 163.215C241.408 164.179 230.517 166.925 226.529 170.779C222.54 174.632 219.056 179.221 223.267 179.874C230.25 180.955 239.979 170.49 246.127 175.941C248.945 178.426 253.533 190.461 254.163 192.049C254.163 192.049 253.208 199.997 247.725 201.987" stroke="#263238" stroke-miterlimit="10" stroke-linecap="round"/>
<path d="M201.879 170.119C201.985 169.972 202.139 169.868 202.315 169.826C202.49 169.783 202.675 169.805 202.836 169.887L204.645 170.802C204.824 170.894 204.959 171.053 205.021 171.244C205.084 171.436 205.068 171.644 204.978 171.823C204.887 172.001 204.729 172.136 204.539 172.198C204.349 172.261 204.142 172.245 203.963 172.155L202.154 171.233C201.975 171.142 201.841 170.984 201.779 170.794C201.716 170.604 201.732 170.397 201.822 170.219C201.837 170.183 201.856 170.149 201.879 170.119Z" fill="#263238" stroke="#263238" stroke-miterlimit="10" stroke-linecap="round"/>
<path d="M203.957 171.188C204.195 170.849 204.548 170.609 204.95 170.51C205.352 170.411 205.776 170.462 206.144 170.651L211.685 172.596L267.1 198.962C267.574 199.203 267.997 199.535 268.343 199.939C268.69 200.343 268.953 200.812 269.118 201.318C269.284 201.824 269.348 202.357 269.307 202.888C269.266 203.419 269.121 203.936 268.88 204.411C268.639 204.886 268.307 205.308 267.903 205.655C267.498 206.001 267.03 206.264 266.524 206.43C266.018 206.595 265.484 206.659 264.954 206.618C264.423 206.577 263.905 206.432 263.431 206.191L209.105 176.664L204.596 173.756C204.393 173.653 204.212 173.512 204.064 173.339C203.916 173.167 203.804 172.967 203.733 172.751C203.663 172.535 203.635 172.307 203.653 172.081C203.67 171.854 203.732 171.633 203.835 171.431C203.868 171.346 203.908 171.264 203.957 171.188Z" fill="#005F9F" stroke="#263238" stroke-miterlimit="10" stroke-linecap="round"/>
<path d="M267.107 198.961L251.113 191.355C250.027 191.84 249.124 192.658 248.534 193.69C247.944 194.722 247.698 195.915 247.831 197.096C247.864 197.328 247.915 197.558 247.983 197.782L263.437 206.183C264.395 206.67 265.508 206.755 266.53 206.422C267.552 206.088 268.399 205.362 268.886 204.403C269.372 203.444 269.458 202.332 269.124 201.31C268.791 200.288 268.064 199.44 267.106 198.954L267.107 198.961Z" fill="#263238" stroke="#263238" stroke-miterlimit="10" stroke-linecap="round"/>
<path d="M256.733 246.009C251.4 240.169 243.454 224.402 240.614 221.503C237.774 218.603 230.256 212.338 226.832 205.435C223.408 198.532 221.017 192.956 220.177 186.896C219.336 180.836 224.399 179.074 229.331 184.976C234.262 190.879 240.478 200.13 240.478 200.13C240.478 200.13 244.268 203.717 250.576 201.606" fill="white"/>
<path d="M256.733 246.009C251.4 240.169 243.454 224.402 240.614 221.503C237.774 218.603 230.256 212.338 226.832 205.435C223.408 198.532 221.017 192.956 220.177 186.896C219.336 180.836 224.399 179.074 229.331 184.976C234.262 190.879 240.478 200.13 240.478 200.13C240.478 200.13 244.268 203.717 250.576 201.606" stroke="#263238" stroke-miterlimit="10" stroke-linecap="round"/>
<path d="M224.833 183.678L226.594 186.183C226.594 186.183 226.289 186.225 224.302 187.751C223.117 188.663 222.182 189.86 221.583 191.231C221.583 191.231 218.698 185.709 220.283 183.637C220.664 183.104 221.211 182.712 221.839 182.524C222.396 182.386 222.982 182.423 223.518 182.63C224.053 182.836 224.512 183.202 224.833 183.678Z" fill="white" stroke="#263238" stroke-miterlimit="10" stroke-linecap="round"/>
<path d="M289.206 235.563C289.206 235.563 278.96 240.207 274.182 246.523C271.027 250.776 268.139 255.219 265.532 259.828L277.025 269.937C277.025 269.937 284.028 259.277 288.97 254.147C292.346 250.722 295.947 247.526 299.749 244.582L289.206 235.563Z" fill="white" stroke="#263238" stroke-miterlimit="10" stroke-linecap="round"/>
<path d="M310.711 317.725L272.461 271.779C272.461 271.779 278.732 258.803 284.642 251.935C290.552 245.066 299.04 242.271 299.04 242.271L343.35 274.38" fill="#263238"/>
<path d="M310.711 317.725L272.461 271.779C272.461 271.779 278.732 258.803 284.642 251.935C290.552 245.066 299.04 242.271 299.04 242.271L343.35 274.38" stroke="#263238" stroke-miterlimit="10" stroke-linecap="round"/>
<path d="M232.631 197.564L233.315 197.399" stroke="#263238" stroke-miterlimit="10" stroke-linecap="round"/>
<path d="M227.057 201.758C227.057 201.758 227.118 199.495 231.434 197.95" stroke="#263238" stroke-miterlimit="10" stroke-linecap="round"/>
<path d="M231.666 199.529C231.666 199.529 231.484 200.508 228.544 202.188" stroke="#263238" stroke-miterlimit="10" stroke-linecap="round"/>
<path d="M231.131 196.585C229.607 197.045 228.21 197.851 227.048 198.939" stroke="#263238" stroke-miterlimit="10" stroke-linecap="round"/>
<path d="M139.132 121.345C139.132 121.345 145.74 121.884 149.926 123.277C154.112 124.67 158.228 124.677 157.465 121.023C157.01 118.818 154.14 117.411 154.14 117.411C154.14 117.411 157.857 120.211 161.574 118.342C165.291 116.473 158.501 110.411 158.501 110.411C158.501 110.411 166.047 112.805 166.082 110.194C166.117 107.583 162.652 105.119 161.399 103.509C160.146 101.899 148.75 97.86 147.245 95.935C145.74 94.01 146.923 86.891 150.143 84.385C153.363 81.879 149.037 77 138.6 84.098C128.163 91.196 121.8 100.289 122.437 106.498C123.074 112.707 139.132 121.345 139.132 121.345Z" fill="white" stroke="#263238" stroke-miterlimit="10" stroke-linecap="round"/>
<path d="M151.571 114.8L136.787 105.7C136.787 105.7 131.187 101.017 134.687 91.7909" stroke="#263238" stroke-miterlimit="10" stroke-linecap="round"/>
<path d="M153.678 109.515L142.744 99.435C142.744 99.435 138.418 94.535 142.044 86.569" stroke="#263238" stroke-miterlimit="10" stroke-linecap="round"/>
<path d="M150.395 89.355L159.075 96.544L175.7 75.383C175.7 75.383 186.41 70.574 189.231 66.283C192.052 61.992 194.453 38.752 194.453 38.752L167.58 35C167.58 35 164.843 48.608 163.177 50.449C161.511 52.29 134.953 64.19 131.74 66.696C128.527 69.202 125.804 81.634 125.804 81.634C124.371 86.6885 122.497 91.6074 120.204 96.334C114.079 108.738 115.171 107.786 117.992 110.754C120.813 113.722 127.68 119.756 133.007 121.296C138.334 122.836 144.956 128.338 143.472 121.611C141.946 114.716 126.994 111.811 128.639 103.775C129.388 100.093 137.543 90.09 138.579 88.767C138.579 88.767 145.936 85.624 150.409 89.376" fill="white"/>
<path d="M150.395 89.355L159.075 96.544L175.7 75.383C175.7 75.383 186.41 70.574 189.231 66.283C192.052 61.992 194.453 38.752 194.453 38.752L167.58 35C167.58 35 164.843 48.608 163.177 50.449C161.511 52.29 134.953 64.19 131.74 66.696C128.527 69.202 125.804 81.634 125.804 81.634C124.371 86.6885 122.497 91.6074 120.204 96.334C114.079 108.738 115.171 107.786 117.992 110.754C120.813 113.722 127.68 119.756 133.007 121.296C138.334 122.836 144.956 128.338 143.472 121.611C141.946 114.716 126.994 111.811 128.639 103.775C129.388 100.093 137.543 90.09 138.579 88.767C138.579 88.767 145.936 85.624 150.409 89.376" stroke="#263238" stroke-miterlimit="10" stroke-linecap="round"/>
<path d="M145.684 145.005C145.503 144.992 145.332 144.914 145.203 144.785C145.075 144.657 144.997 144.486 144.984 144.305L144.879 142.275C144.865 142.172 144.872 142.066 144.901 141.966C144.93 141.866 144.979 141.773 145.045 141.692C145.112 141.612 145.194 141.546 145.287 141.499C145.38 141.452 145.482 141.425 145.586 141.419C145.69 141.413 145.794 141.429 145.892 141.465C145.99 141.502 146.079 141.558 146.154 141.63C146.229 141.703 146.288 141.79 146.327 141.887C146.367 141.983 146.386 142.087 146.384 142.191L146.496 144.221C146.507 144.419 146.44 144.614 146.309 144.763C146.178 144.913 145.994 145.005 145.796 145.019L145.684 145.005Z" fill="#263238" stroke="#263238" stroke-miterlimit="10" stroke-linecap="round"/>
<path d="M145.6 142.66C145.188 142.623 144.803 142.439 144.516 142.14C144.229 141.842 144.06 141.45 144.039 141.036L142.961 135.261L138.11 74.088C138.053 73.014 138.424 71.9611 139.143 71.161C139.862 70.3609 140.869 69.879 141.943 69.8215C143.017 69.7639 144.07 70.1354 144.87 70.8541C145.67 71.5728 146.152 72.58 146.209 73.654L147.777 135.471L147.483 140.854C147.496 141.08 147.463 141.307 147.388 141.52C147.312 141.734 147.196 141.931 147.044 142.099C146.893 142.267 146.709 142.404 146.505 142.502C146.3 142.599 146.079 142.655 145.852 142.667C145.768 142.672 145.684 142.669 145.6 142.66Z" fill="#005F9F" stroke="#263238" stroke-miterlimit="10" stroke-linecap="round"/>
<path d="M138.075 74.0879L139.475 91.7419C140.435 92.4444 141.593 92.823 142.783 92.823C143.972 92.823 145.13 92.4444 146.09 91.7419C146.276 91.5962 146.452 91.4371 146.615 91.266L146.174 73.6819C146.117 72.6079 145.635 71.6008 144.835 70.8821C144.035 70.1633 142.982 69.7919 141.908 69.8494C140.834 69.907 139.827 70.3888 139.108 71.189C138.389 71.9891 138.018 73.0419 138.075 74.1159V74.0879Z" fill="#263238" stroke="#263238" stroke-miterlimit="10" stroke-linecap="round"/>
<path d="M189.196 66.2549C186.9 73.8219 176.764 84.2239 175 87.8919C171.044 96.2026 166.467 104.203 161.308 111.825C159.565 114.436 157.682 114.807 156.534 115.745C154.854 117.145 153.993 118.58 151.123 120.806C146.3 124.558 142.24 121.065 144.886 113.848C147.532 106.631 152.39 96.5999 152.39 96.5999C152.39 96.5999 153.608 91.5249 148.645 87.1289" fill="white"/>
<path d="M189.196 66.2549C186.9 73.8219 176.764 84.2239 175 87.8919C171.044 96.2026 166.467 104.203 161.308 111.825C159.565 114.436 157.682 114.807 156.534 115.745C154.854 117.145 153.993 118.58 151.123 120.806C146.3 124.558 142.24 121.065 144.886 113.848C147.532 106.631 152.39 96.5999 152.39 96.5999C152.39 96.5999 153.608 91.5249 148.645 87.1289" stroke="#263238" stroke-miterlimit="10" stroke-linecap="round"/>
<path d="M145.95 118.342L147.266 115.598C147.266 115.598 147.455 115.843 149.772 116.795C151.153 117.365 152.655 117.577 154.14 117.411C154.14 117.411 150.801 122.675 148.19 122.346C147.539 122.284 146.928 122.006 146.454 121.555C146.046 121.138 145.778 120.605 145.688 120.029C145.597 119.453 145.689 118.863 145.95 118.342Z" fill="white" stroke="#263238" stroke-miterlimit="10" stroke-linecap="round"/>
<path d="M165.312 13.0689L159.747 49.2099C159.747 49.2099 166.46 55.1109 175.378 56.6999C184.296 58.2889 200.578 60.6969 200.578 60.6969L214.83 13.0549" fill="#263238"/>
<path d="M165.312 13.0689L159.747 49.2099C159.747 49.2099 166.46 55.1109 175.378 56.6999C184.296 58.2889 200.578 60.6969 200.578 60.6969L214.83 13.0549" stroke="#263238" stroke-miterlimit="10" stroke-linecap="round"/>
<path d="M197.708 52.6189C197.708 53.163 197.547 53.6949 197.244 54.1473C196.942 54.5997 196.512 54.9523 196.01 55.1605C195.507 55.3687 194.954 55.4232 194.42 55.3171C193.887 55.2109 193.397 54.9489 193.012 54.5642C192.627 54.1794 192.365 53.6893 192.259 53.1556C192.153 52.622 192.207 52.0688 192.415 51.5662C192.624 51.0635 192.976 50.6338 193.429 50.3315C193.881 50.0293 194.413 49.8679 194.957 49.8679C195.687 49.8679 196.386 50.1578 196.902 50.6737C197.418 51.1896 197.708 51.8893 197.708 52.6189Z" fill="white" stroke="#263238" stroke-width="2" stroke-linecap="round" stroke-linejoin="round"/>
<path d="M152.047 109.417L151.578 108.941" stroke="#263238" stroke-miterlimit="10" stroke-linecap="round"/>
<path d="M158.459 112.154C158.459 112.154 156.471 113.232 152.978 110.271" stroke="#263238" stroke-miterlimit="10" stroke-linecap="round"/>
<path d="M154.224 109.27C154.224 109.27 155.162 108.941 158.088 110.67" stroke="#263238" stroke-miterlimit="10" stroke-linecap="round"/>
<path d="M151.949 111.216C153.109 112.301 154.503 113.106 156.023 113.568" stroke="#263238" stroke-miterlimit="10" stroke-linecap="round"/>
<path d="M153.958 229.019C153.958 229.019 154.595 235.62 156.058 239.785C157.521 243.95 157.605 248.066 153.916 247.359C151.704 246.932 150.255 244.09 150.255 244.09C150.255 244.09 153.104 247.765 151.298 251.503C149.492 255.241 143.318 248.549 143.318 248.549C143.318 248.549 145.824 256.053 143.22 256.13C140.616 256.207 138.089 252.777 136.465 251.552C134.841 250.327 130.627 238.952 128.674 237.51C126.721 236.068 119.63 237.321 117.18 240.576C114.73 243.831 109.76 239.582 116.718 229.005C123.676 218.428 132.657 211.925 138.845 212.513C145.033 213.101 153.958 229.019 153.958 229.019Z" fill="white" stroke="#263238" stroke-miterlimit="10" stroke-linecap="round"/>
<path d="M147.567 241.556L138.243 226.905C138.243 226.905 133.476 221.368 124.299 225.029" stroke="#263238" stroke-miterlimit="10" stroke-linecap="round"/>
<path d="M142.345 243.74L132.104 232.953C132.104 232.953 127.141 228.704 119.231 232.435" stroke="#263238" stroke-miterlimit="10" stroke-linecap="round"/>
<path d="M122.143 240.751L129.451 249.333L108.542 266.231C108.542 266.231 97.118 271.901 92.876 274.827C88.634 277.753 65.471 280.7 65.471 280.7L61.145 253.96C61.145 253.96 74.683 250.901 76.475 249.193C78.267 247.485 96.775 225.694 99.204 222.439C101.633 219.184 114.058 216.279 114.058 216.279C114.058 216.279 119.616 214.466 125.825 208.943C132.034 203.42 140.021 205.247 143.031 208.026C146.041 210.805 154.231 218.526 155.848 223.804C157.465 229.082 158.263 234.815 154.273 233.338C147.644 230.881 144.235 217.014 136.213 218.771C132.545 219.576 122.661 227.871 121.359 228.935C121.359 228.935 118.321 236.341 122.143 240.751Z" fill="white"/>
<path d="M122.143 240.751L129.451 249.333L108.542 266.231C108.542 266.231 97.118 271.901 92.876 274.827C88.634 277.753 65.471 280.7 65.471 280.7L61.145 253.96C61.145 253.96 74.683 250.901 76.475 249.193C78.267 247.485 96.775 225.694 99.204 222.439C101.633 219.184 114.058 216.279 114.058 216.279C114.058 216.279 119.616 214.466 125.825 208.943C132.034 203.42 140.021 205.247 143.031 208.026C146.041 210.805 154.231 218.526 155.848 223.804C157.465 229.082 158.263 234.815 154.273 233.338C147.644 230.881 144.235 217.014 136.213 218.771C132.545 219.576 122.661 227.871 121.359 228.935C121.359 228.935 118.321 236.341 122.143 240.751" stroke="#263238" stroke-miterlimit="10" stroke-linecap="round"/>
<path d="M177.709 235.2C177.696 235.019 177.618 234.848 177.489 234.72C177.361 234.591 177.19 234.513 177.009 234.5L174.979 234.423C174.88 234.419 174.781 234.435 174.687 234.47C174.594 234.505 174.509 234.557 174.436 234.625C174.363 234.692 174.304 234.774 174.263 234.864C174.222 234.954 174.199 235.052 174.195 235.151C174.191 235.25 174.207 235.349 174.242 235.443C174.276 235.536 174.329 235.621 174.396 235.694C174.464 235.767 174.545 235.825 174.636 235.867C174.726 235.908 174.824 235.931 174.923 235.935L176.953 236.012C177.148 236.018 177.339 235.949 177.485 235.819C177.63 235.688 177.721 235.507 177.737 235.312C177.732 235.274 177.722 235.236 177.709 235.2Z" fill="#263238" stroke="#263238" stroke-miterlimit="10" stroke-linecap="round"/>
<path d="M175.371 235.137C175.326 234.725 175.134 234.343 174.831 234.06C174.528 233.777 174.133 233.613 173.719 233.597L167.93 232.603L106.694 228.662C106.162 228.641 105.631 228.726 105.131 228.91C104.631 229.095 104.173 229.376 103.782 229.738C103.391 230.099 103.075 230.535 102.852 231.018C102.63 231.502 102.504 232.025 102.484 232.558C102.463 233.09 102.547 233.621 102.732 234.121C102.916 234.62 103.198 235.079 103.559 235.47C103.921 235.861 104.356 236.176 104.84 236.399C105.324 236.622 105.847 236.747 106.379 236.768L168.21 237.412L173.586 237.048C174.043 237.065 174.489 236.9 174.825 236.589C175.161 236.278 175.36 235.846 175.378 235.389C175.383 235.305 175.38 235.221 175.371 235.137Z" fill="#005F9F" stroke="#263238" stroke-miterlimit="10" stroke-linecap="round"/>
<path d="M106.694 228.662L124.362 229.803C125.076 230.755 125.468 231.909 125.482 233.098C125.496 234.287 125.13 235.45 124.439 236.418C124.292 236.603 124.135 236.781 123.97 236.95L106.4 236.768C105.868 236.747 105.345 236.622 104.861 236.399C104.377 236.176 103.942 235.861 103.58 235.47C103.219 235.079 102.937 234.62 102.753 234.12C102.568 233.621 102.484 233.09 102.505 232.557C102.525 232.025 102.651 231.502 102.873 231.018C103.096 230.535 103.412 230.099 103.803 229.738C104.194 229.376 104.652 229.095 105.152 228.91C105.652 228.726 106.183 228.641 106.715 228.662H106.694Z" fill="#263238" stroke="#263238" stroke-miterlimit="10" stroke-linecap="round"/>
<path d="M92.876 274.827C100.38 272.321 114.996 262.416 118.909 261.282C122.822 260.148 132.398 258.342 138.768 253.96C145.138 249.578 149.919 245.882 153.601 240.996C157.283 236.11 153.727 232.113 146.545 234.864C139.363 237.615 129.388 242.648 129.388 242.648C129.388 242.648 124.334 243.936 119.861 239.036" fill="white"/>
<path d="M92.876 274.827C100.38 272.321 114.996 262.416 118.909 261.282C122.822 260.148 132.398 258.342 138.768 253.96C145.138 249.578 149.919 245.882 153.601 240.996C157.283 236.11 153.727 232.113 146.545 234.864C139.363 237.615 129.388 242.648 129.388 242.648C129.388 242.648 124.334 243.936 119.861 239.036" stroke="#263238" stroke-miterlimit="10" stroke-linecap="round"/>
<path d="M151.06 235.9L148.33 237.251C148.33 237.251 148.582 237.44 149.569 239.736C150.168 241.109 150.408 242.612 150.269 244.104C150.269 244.104 155.484 240.688 155.113 238.077C155.041 237.427 154.756 236.818 154.301 236.348C153.876 235.943 153.334 235.682 152.753 235.601C152.171 235.521 151.579 235.625 151.06 235.9Z" fill="white" stroke="#263238" stroke-miterlimit="10" stroke-linecap="round"/>
<path d="M75.026 248.199C75.026 248.199 81.718 257.25 82.817 265.09C83.5029 270.338 83.8629 275.624 83.895 280.917L63.462 285.817C63.462 285.817 62.538 273.105 60.718 266.217C59.4365 261.582 57.8463 257.038 55.958 252.616L75.026 248.199Z" fill="white" stroke="#263238" stroke-miterlimit="10" stroke-linecap="round"/>
<path d="M75.9569 263.991C74.1369 255.115 68.0819 248.542 68.0819 248.542L19.7329 256.242V310.842L76.9369 287.245C76.9369 287.245 77.7699 272.867 75.9569 263.991Z" fill="#263238" stroke="#263238" stroke-miterlimit="10" stroke-linecap="round"/>
<path d="M62.9999 287.7C63.0082 288.127 62.8886 288.547 62.6564 288.906C62.4243 289.264 62.0903 289.545 61.6972 289.713C61.3041 289.88 60.87 289.926 60.4506 289.844C60.0312 289.763 59.6458 289.558 59.3437 289.256C59.0416 288.954 58.8368 288.569 58.7555 288.149C58.6742 287.73 58.7201 287.296 58.8874 286.903C59.0547 286.51 59.3357 286.176 59.6943 285.943C60.053 285.711 60.4728 285.592 60.8999 285.6C61.4535 285.611 61.9814 285.835 62.3729 286.227C62.7644 286.619 62.9891 287.146 62.9999 287.7Z" fill="white"/>
<path d="M69.0062 285.152C69.0048 285.575 68.878 285.989 68.6418 286.34C68.4056 286.691 68.0705 286.965 67.679 287.126C67.2875 287.287 66.857 287.328 66.442 287.245C66.027 287.161 65.6459 286.957 65.3471 286.657C65.0482 286.357 64.8449 285.976 64.7628 285.56C64.6807 285.145 64.7236 284.715 64.8859 284.324C65.0482 283.933 65.3228 283.598 65.6749 283.363C66.027 283.128 66.4408 283.003 66.8642 283.003C67.146 283.003 67.4251 283.059 67.6855 283.167C67.9458 283.275 68.1823 283.433 68.3813 283.633C68.5802 283.832 68.7379 284.069 68.8451 284.33C68.9523 284.591 69.0071 284.87 69.0062 285.152Z" fill="white"/>
<path d="M137.48 244.223L137.004 243.761" stroke="#263238" stroke-miterlimit="10" stroke-linecap="round"/>
<path d="M140.315 250.6C140.315 250.6 141.365 248.591 138.348 245.14" stroke="#263238" stroke-miterlimit="10" stroke-linecap="round"/>
<path d="M137.375 246.4C137.375 246.4 137.053 247.345 138.81 250.243" stroke="#263238" stroke-miterlimit="10" stroke-linecap="round"/>
<path d="M139.3 244.097C140.406 245.242 141.232 246.626 141.715 248.143" stroke="#263238" stroke-miterlimit="10" stroke-linecap="round"/>
</svg>
