<svg width="350" height="350" viewBox="0 0 350 350" fill="none" xmlns="http://www.w3.org/2000/svg">
<path d="M321.3 92.281C302.701 56.791 267.4 32.2 229.397 22.883C193.116 14 149.436 14.434 122.129 43.701C104.146 62.972 96.9287 89.803 81.0737 110.614C73.1847 120.96 63.3147 125.692 52.9757 132.93C27.7897 150.577 9.26073 178.976 13.2997 211.092C20.0897 264.789 69.0757 293.629 118.3 296.87C183.358 301.147 229.754 292.453 269.164 267.267C289.639 254.184 310.051 238.658 322.546 217.175C341.446 184.688 340.669 143.71 328.447 108.829C326.465 103.148 324.077 97.618 321.3 92.281Z" fill="#F7F7F7"/>
<path opacity="0.8" d="M321.3 92.281C302.701 56.791 267.4 32.2 229.397 22.883C193.116 14 149.436 14.434 122.129 43.701C104.146 62.972 96.9287 89.803 81.0737 110.614C73.1847 120.96 63.3147 125.692 52.9757 132.93C27.7897 150.577 9.26073 178.976 13.2997 211.092C20.0897 264.789 69.0757 293.629 118.3 296.87C183.358 301.147 229.754 292.453 269.164 267.267C289.639 254.184 310.051 238.658 322.546 217.175C341.446 184.688 340.669 143.71 328.447 108.829C326.465 103.148 324.077 97.618 321.3 92.281Z" fill="#F7F7F7"/>
<path d="M172.2 223.3H165.9V36.4454C165.9 35.8764 166.231 35.3307 166.822 34.9284C167.412 34.5261 168.212 34.3001 169.047 34.3001C169.46 34.2995 169.87 34.3545 170.253 34.4621C170.635 34.5696 170.983 34.7275 171.276 34.9268C171.569 35.1261 171.801 35.3628 171.96 35.6234C172.118 35.8839 172.2 36.1633 172.2 36.4454V223.3Z" fill="#005F9F" stroke="#005F9F" stroke-linecap="round" stroke-linejoin="round"/>
<path d="M165.396 72.7371H106.813V93.3661H165.396V72.7371Z" fill="white" stroke="#005F9F" stroke-linecap="round" stroke-linejoin="round"/>
<path d="M230.965 50.624H172.382V71.253H230.965V50.624Z" fill="white" stroke="#005F9F" stroke-linecap="round" stroke-linejoin="round"/>
<path d="M172.382 107.471L205.093 111.629V82.684L172.382 86.842V107.471Z" fill="white" stroke="#005F9F" stroke-linecap="round" stroke-linejoin="round"/>
<path d="M198.499 97.7061L191.282 89.7471V93.2191L176.204 93.8141V101.374L191.282 102.123V105.595L198.499 97.7061Z" fill="#005F9F" stroke="#263238" stroke-linecap="round" stroke-linejoin="round"/>
<path d="M222.033 59.437L210.903 53.011V55.825H181.552V63.049H210.903V65.87L222.033 59.437Z" fill="#005F9F" stroke="#263238" stroke-linecap="round" stroke-linejoin="round"/>
<path d="M116.207 83.202L127.337 76.776V79.59H156.688V86.814H127.337V89.628L116.207 83.202Z" fill="#005F9F" stroke="#263238" stroke-linecap="round" stroke-linejoin="round"/>
<path d="M269.85 105.7C280.482 105.7 289.1 97.0814 289.1 86.45C289.1 75.8185 280.482 67.2 269.85 67.2C259.219 67.2 250.6 75.8185 250.6 86.45C250.6 97.0814 259.219 105.7 269.85 105.7Z" stroke="#263238" stroke-linecap="round" stroke-linejoin="round"/>
<path d="M282.8 99.3999C281.356 100.8 279.704 101.98 277.9 102.9" stroke="#263238" stroke-linecap="round" stroke-linejoin="round"/>
<path d="M275.541 103.368C271.572 104.704 267.26 104.601 263.36 103.078C259.459 101.556 256.217 98.71 254.202 95.0392C252.187 91.3685 251.527 87.1062 252.337 82.9978C253.147 78.8895 255.375 75.1966 258.633 72.5651C261.89 69.9336 265.968 68.531 270.155 68.6026C274.342 68.6742 278.37 70.2155 281.536 72.9569C284.701 75.6982 286.802 79.4652 287.471 83.5988C288.14 87.7325 287.334 91.9697 285.195 95.5694" stroke="#263238" stroke-linecap="round" stroke-linejoin="round"/>
<path d="M269.5 88.1999C270.273 88.1999 270.9 87.5731 270.9 86.7999C270.9 86.0267 270.273 85.3999 269.5 85.3999C268.727 85.3999 268.1 86.0267 268.1 86.7999C268.1 87.5731 268.727 88.1999 269.5 88.1999Z" fill="#263238" stroke="#263238" stroke-linecap="round" stroke-linejoin="round"/>
<path d="M271.539 94.4999L269.5 86.544L281.4 78.3999" stroke="#263238" stroke-linecap="round" stroke-linejoin="round"/>
<path d="M102.529 213.759V249.62H75.8169" stroke="#263238" stroke-linecap="round" stroke-linejoin="round"/>
<path d="M53.8999 243.992V203.973H102.529V210.595" stroke="#263238" stroke-linecap="round" stroke-linejoin="round"/>
<path d="M71.9809 249.62H53.8999V246.701" stroke="#263238" stroke-linecap="round" stroke-linejoin="round"/>
<path d="M61.6068 215.208H56.8608V219.954H61.6068V215.208Z" stroke="#263238" stroke-linecap="round" stroke-linejoin="round"/>
<path d="M67.935 215.208H63.189V219.954H67.935V215.208Z" stroke="#263238" stroke-linecap="round" stroke-linejoin="round"/>
<path d="M74.2631 215.208H69.5171V219.954H74.2631V215.208Z" stroke="#263238" stroke-linecap="round" stroke-linejoin="round"/>
<path d="M80.5907 215.208H75.8447V219.954H80.5907V215.208Z" stroke="#263238" stroke-linecap="round" stroke-linejoin="round"/>
<path d="M86.9188 215.208H82.1729V219.954H86.9188V215.208Z" stroke="#263238" stroke-linecap="round" stroke-linejoin="round"/>
<path d="M93.247 215.208H88.501V219.954H93.247V215.208Z" stroke="#263238" stroke-linecap="round" stroke-linejoin="round"/>
<path d="M99.5751 215.208H94.8291V219.954H99.5751V215.208Z" stroke="#263238" stroke-linecap="round" stroke-linejoin="round"/>
<path d="M61.6068 222.698H56.8608V227.444H61.6068V222.698Z" stroke="#263238" stroke-linecap="round" stroke-linejoin="round"/>
<path d="M67.935 222.698H63.189V227.444H67.935V222.698Z" stroke="#263238" stroke-linecap="round" stroke-linejoin="round"/>
<path d="M74.2631 222.698H69.5171V227.444H74.2631V222.698Z" stroke="#263238" stroke-linecap="round" stroke-linejoin="round"/>
<path d="M80.5907 222.698H75.8447V227.444H80.5907V222.698Z" stroke="#263238" stroke-linecap="round" stroke-linejoin="round"/>
<path d="M86.9188 222.698H82.1729V227.444H86.9188V222.698Z" stroke="#263238" stroke-linecap="round" stroke-linejoin="round"/>
<path d="M93.247 222.698H88.501V227.444H93.247V222.698Z" stroke="#263238" stroke-linecap="round" stroke-linejoin="round"/>
<path d="M99.5751 222.698H94.8291V227.444H99.5751V222.698Z" stroke="#263238" stroke-linecap="round" stroke-linejoin="round"/>
<path d="M61.6068 230.188H56.8608V234.934H61.6068V230.188Z" stroke="#263238" stroke-linecap="round" stroke-linejoin="round"/>
<path d="M67.935 230.188H63.189V234.934H67.935V230.188Z" stroke="#263238" stroke-linecap="round" stroke-linejoin="round"/>
<path d="M74.2631 230.188H69.5171V234.934H74.2631V230.188Z" stroke="#263238" stroke-linecap="round" stroke-linejoin="round"/>
<path d="M80.5907 230.188H75.8447V234.934H80.5907V230.188Z" stroke="#263238" stroke-linecap="round" stroke-linejoin="round"/>
<path d="M86.9188 230.188H82.1729V234.934H86.9188V230.188Z" stroke="#263238" stroke-linecap="round" stroke-linejoin="round"/>
<path d="M93.247 230.188H88.501V234.934H93.247V230.188Z" stroke="#263238" stroke-linecap="round" stroke-linejoin="round"/>
<path d="M99.5751 230.188H94.8291V234.934H99.5751V230.188Z" stroke="#263238" stroke-linecap="round" stroke-linejoin="round"/>
<path d="M61.6068 237.678H56.8608V242.424H61.6068V237.678Z" stroke="#263238" stroke-linecap="round" stroke-linejoin="round"/>
<path d="M67.935 237.678H63.189V242.424H67.935V237.678Z" stroke="#263238" stroke-linecap="round" stroke-linejoin="round"/>
<path d="M74.2631 237.678H69.5171V242.424H74.2631V237.678Z" stroke="#263238" stroke-linecap="round" stroke-linejoin="round"/>
<path d="M80.5907 237.678H75.8447V242.424H80.5907V237.678Z" stroke="#263238" stroke-linecap="round" stroke-linejoin="round"/>
<path d="M86.9188 237.678H82.1729V242.424H86.9188V237.678Z" stroke="#263238" stroke-linecap="round" stroke-linejoin="round"/>
<path d="M93.247 237.678H88.501V242.424H93.247V237.678Z" stroke="#263238" stroke-linecap="round" stroke-linejoin="round"/>
<path d="M99.5751 237.678H94.8291V242.424H99.5751V237.678Z" stroke="#263238" stroke-linecap="round" stroke-linejoin="round"/>
<path d="M62.5028 207.2H60.4028V199.5H62.5028V207.2ZM70.9028 199.5H68.8028V207.2H70.9028V199.5ZM79.3028 199.5H77.2028V207.2H79.3028V199.5ZM87.7028 199.5H85.6028V207.2H87.7028V199.5ZM96.1028 199.5H94.0028V207.2H96.1028V199.5Z" fill="#263238" stroke="#263238" stroke-linecap="round" stroke-linejoin="round"/>
<path d="M92.7567 126.7C89.0876 126.699 85.5004 127.785 82.449 129.823C79.3975 131.86 77.0188 134.757 75.6138 138.146C74.2087 141.536 73.8403 145.266 74.5553 148.865C75.2703 152.463 77.0364 155.769 79.6304 158.364C82.2244 160.959 85.5297 162.727 89.1282 163.443C92.7268 164.159 96.4569 163.792 99.8469 162.389C103.237 160.985 106.134 158.607 108.173 155.556C110.212 152.506 111.3 148.919 111.3 145.25C111.301 142.814 110.822 140.402 109.89 138.152C108.959 135.901 107.593 133.856 105.871 132.134C104.149 130.411 102.105 129.044 99.8544 128.112C97.6042 127.18 95.1924 126.7 92.7567 126.7V126.7ZM92.7567 156.982C90.4344 156.983 88.1638 156.296 86.2322 155.006C84.3007 153.717 82.795 151.884 81.9056 149.738C81.0163 147.593 80.7832 145.232 81.2359 142.955C81.6887 140.677 82.8068 138.584 84.449 136.942C86.0911 135.3 88.1835 134.182 90.4613 133.729C92.7391 133.276 95.1 133.509 97.2453 134.399C99.3906 135.288 101.224 136.794 102.513 138.725C103.803 140.657 104.49 142.928 104.489 145.25C104.487 148.361 103.25 151.344 101.05 153.544C98.8507 155.743 95.8677 156.98 92.7567 156.982V156.982Z" stroke="#263238" stroke-linecap="round" stroke-linejoin="round"/>
<path d="M93.1348 126.707V133.532C95.4156 133.602 97.6262 134.337 99.4954 135.646C101.365 136.955 102.811 138.781 103.657 140.9C104.503 143.02 104.712 145.34 104.257 147.576C103.803 149.812 102.706 151.867 101.101 153.489L106.456 157.745C108.856 155.114 110.449 151.848 111.042 148.336C111.636 144.824 111.206 141.216 109.803 137.942C108.4 134.669 106.084 131.868 103.132 129.876C100.18 127.883 96.7165 126.783 93.1558 126.707H93.1348Z" stroke="#263238" stroke-linecap="round" stroke-linejoin="round"/>
<path d="M85.9385 144.487H99.1895" stroke="#263238" stroke-linecap="round" stroke-linejoin="round"/>
<path d="M85.9385 147.896H99.1895" stroke="#263238" stroke-linecap="round" stroke-linejoin="round"/>
<path d="M275.478 140.462H311.563" stroke="#263238" stroke-linecap="round" stroke-linejoin="round"/>
<path d="M261.1 140.462H264.81" stroke="#263238" stroke-linecap="round" stroke-linejoin="round"/>
<path d="M287.497 146.188H311.563" stroke="#263238" stroke-linecap="round" stroke-linejoin="round"/>
<path d="M261.1 146.188H265.104" stroke="#263238" stroke-linecap="round" stroke-linejoin="round"/>
<path d="M299.068 151.914H311.563" stroke="#263238" stroke-linecap="round" stroke-linejoin="round"/>
<path d="M261.1 151.914H264.81" stroke="#263238" stroke-linecap="round" stroke-linejoin="round"/>
<path d="M309.33 157.633H311.563" stroke="#263238" stroke-linecap="round" stroke-linejoin="round"/>
<path d="M261.1 157.633H264.81" stroke="#263238" stroke-linecap="round" stroke-linejoin="round"/>
<path d="M309.33 164.297H311.563" stroke="#263238" stroke-linecap="round" stroke-linejoin="round"/>
<path d="M261.1 164.297H264.81" stroke="#263238" stroke-linecap="round" stroke-linejoin="round"/>
<path d="M309.33 170.961H311.563" stroke="#263238" stroke-linecap="round" stroke-linejoin="round"/>
<path d="M261.1 170.961H264.81" stroke="#263238" stroke-linecap="round" stroke-linejoin="round"/>
<path d="M274.127 136.5H265.762V171.57H274.127V136.5Z" stroke="#263238" stroke-linecap="round" stroke-linejoin="round"/>
<path d="M285.572 143.101H277.207V171.57H285.572V143.101Z" stroke="#263238" stroke-linecap="round" stroke-linejoin="round"/>
<path d="M297.024 149.268H288.659V171.57H297.024V149.268Z" stroke="#263238" stroke-linecap="round" stroke-linejoin="round"/>
<path d="M308.476 157.199H300.111V171.577H308.476V157.199Z" stroke="#263238" stroke-linecap="round" stroke-linejoin="round"/>
<path d="M258.237 218.442C260.498 218.764 261.534 220.542 261.534 223.02V223.531H259.595V222.887C259.595 221.242 258.93 220.227 257.439 220.227C255.948 220.227 255.304 221.242 255.304 222.887C255.304 227.087 261.562 227.087 261.562 232.344C261.562 234.843 260.498 236.628 258.237 236.95V238.35H256.529V236.95C254.212 236.628 253.176 234.85 253.176 232.344V231.196H255.122V232.477C255.122 234.15 255.822 235.109 257.306 235.109C258.79 235.109 259.483 234.15 259.483 232.477C259.483 228.319 253.253 228.277 253.253 223.02C253.253 220.465 254.296 218.82 256.529 218.442V216.951H258.237V218.442Z" fill="#263238"/>
<path d="M264.18 243.418C265.491 242.852 266.726 242.123 267.855 241.248" stroke="#263238" stroke-linecap="round" stroke-linejoin="round"/>
<path d="M251.314 211.589C247.255 213.106 243.919 216.101 241.975 219.973C240.031 223.846 239.623 228.31 240.831 232.471C242.04 236.632 244.776 240.183 248.492 242.412C252.208 244.64 256.629 245.382 260.869 244.489" stroke="#263238" stroke-linecap="round" stroke-linejoin="round"/>
<path d="M270.018 239.267C272.513 236.542 274.063 233.086 274.438 229.41C274.813 225.735 273.993 222.036 272.1 218.864C270.207 215.691 267.341 213.213 263.928 211.798C260.516 210.383 256.738 210.106 253.155 211.008" stroke="#263238" stroke-linecap="round" stroke-linejoin="round"/>
<path d="M266.932 237.976C272.635 232.693 272.976 223.787 267.693 218.083C262.409 212.38 253.503 212.039 247.799 217.322C242.096 222.606 241.755 231.512 247.038 237.216C252.322 242.919 261.228 243.26 266.932 237.976Z" stroke="#263238" stroke-linecap="round" stroke-linejoin="round"/>
<path d="M186.2 155.092L186.697 155.036C188.797 154.777 197.029 153.671 201.74 151.809C207.172 149.66 219.555 150.794 219.555 150.794L224.987 154.714L218.799 158.76C218.799 158.76 210.077 155.848 204.015 156.1C197.953 156.352 195.048 158.123 191.254 157.871C187.46 157.619 182.791 155.071 182.791 155.071L186.2 155.092Z" fill="#263238" stroke="#263238" stroke-linecap="round" stroke-linejoin="round"/>
<path d="M162.967 142.8V150.927H176.365V141.519L162.967 142.8Z" fill="white" stroke="#263238" stroke-linecap="round" stroke-linejoin="round"/>
<path d="M159.306 134.911C159.306 134.911 156.135 132.811 157.206 136.493C158.277 140.175 159.306 141.61 160.909 141.435C162.512 141.26 163.38 140.735 162.848 139.335C162.316 137.935 159.306 134.911 159.306 134.911Z" fill="white" stroke="#263238" stroke-linecap="round" stroke-linejoin="round"/>
<path d="M180.509 134.911C180.509 134.911 183.68 132.811 182.609 136.493C181.538 140.175 180.509 141.61 178.906 141.435C177.303 141.26 176.442 140.735 176.967 139.335C177.492 137.935 180.509 134.911 180.509 134.911Z" fill="white" stroke="#263238" stroke-linecap="round" stroke-linejoin="round"/>
<path d="M166.187 117.985C166.187 117.985 160.895 119.742 159.131 124.684C157.367 129.626 158.956 135.611 159.831 138.082C160.706 140.553 164.948 145.313 164.948 145.313H174.468C176.727 143.066 178.577 140.441 179.935 137.557C181.874 133.147 181.874 126.973 181.874 126.973C181.874 126.973 183.456 127.505 183.456 125.384C183.456 123.263 178.556 119.217 178.556 119.217C178.556 119.217 180.852 118.335 179.256 117.117C177.66 115.899 172.025 116.417 172.025 116.417C172.025 116.417 171.297 112.7 166.187 117.985Z" fill="#263238" stroke="#263238" stroke-linecap="round" stroke-linejoin="round"/>
<path d="M187.047 320.558L188.496 321.461C189.418 321.468 190.311 321.786 191.03 322.364C191.933 323.274 191.597 327.768 191.597 327.768C191.597 327.768 190.897 328.3 187.432 328.3C183.967 328.3 176.4 329.14 175.7 327.873C175 326.606 175.826 321.279 175.826 321.279L187.047 320.558Z" fill="#879198" stroke="#263238" stroke-linecap="round" stroke-linejoin="round"/>
<path d="M147.399 207.319C147.399 207.319 146.3 215.285 146.3 216.93C146.3 218.575 145.936 232.68 145.936 232.68C145.936 232.68 146.118 269.78 146.118 270.48C146.118 271.18 143.038 281.344 144.13 288.225C145.222 295.106 147.385 321.531 147.385 321.531C147.385 321.531 146.685 327.327 147.203 327.866C147.721 328.405 154.448 329.133 155.897 328.412C157.346 327.691 156.436 320.628 156.436 320.628C156.939 318.919 157.244 317.157 157.346 315.378V309.582C157.346 307.776 158.249 291.662 159.152 285.327C160.055 278.992 160.65 272.65 160.65 272.65L164.549 234.85L167.3 234.5C167.3 234.5 170.919 273.196 171.101 276.276C171.283 279.356 170.569 285.53 172.2 292.579C173.831 299.628 174.734 318.829 174.734 318.829C174.734 318.829 174.37 320.642 174.734 321.363C175.098 322.084 176.001 324.261 176.001 324.261C177.265 324.377 178.537 324.377 179.802 324.261C181.835 324.162 183.822 323.622 185.626 322.679C186.276 322.154 186.741 321.434 186.953 320.626C187.164 319.817 187.111 318.962 186.802 318.185C185.717 315.532 185.234 315.028 185.234 315.028C185.234 315.028 186.865 292.222 186.865 286.608C186.865 280.994 185.962 274.12 185.962 273.574C185.962 273.028 187.047 232.274 187.047 228.137C187.047 224 186.683 212.737 184.87 207.837C183.057 202.937 154.07 204.218 151.2 204.4C150.353 204.472 149.545 204.785 148.871 205.302C148.198 205.82 147.687 206.52 147.399 207.319Z" fill="#263238" stroke="#263238" stroke-linecap="round" stroke-linejoin="round"/>
<path d="M167.132 150.57L157.332 152.922C157.332 152.922 143.206 159.803 140.133 161.609C137.06 163.415 124.922 187.859 125.468 189.126C126.014 190.393 128.366 192.024 130.718 192.388C133.07 192.752 145.047 179.2 145.047 179.2C145.047 179.2 148.484 196.217 148.484 196.938C148.484 197.659 146.496 206.353 147.399 207.802C148.302 209.251 183.064 207.802 183.064 207.802C183.064 207.802 185.598 207.984 185.962 205.632C186.326 203.28 185.262 196.399 185.262 196.399L189.245 175.581C189.245 175.581 196.854 187.117 198.562 188.972C201.523 192.199 205.205 190.848 207.165 188.433C208.88 186.333 207.347 182.273 206.808 181.006C206.269 179.739 196.637 158.2 193.746 157.269C190.855 156.338 178.717 152.019 178.717 152.019L167.132 150.57Z" fill="white" stroke="#263238" stroke-linecap="round" stroke-linejoin="round"/>
<path d="M157.36 152.922C157.36 152.922 169.323 152.677 171.311 152.677C173.299 152.677 180.6 152.6 180.6 152.6L178.759 148.68C175.621 147.911 172.399 147.544 169.169 147.588C165.709 147.581 162.276 148.195 159.033 149.401L157.36 152.922Z" fill="white" stroke="#263238" stroke-linecap="round" stroke-linejoin="round"/>
<path d="M141.365 169.624L145.047 179.172L138.712 172.837" stroke="#263238" stroke-linecap="round" stroke-linejoin="round"/>
<path d="M140.161 166.495L140.595 167.636" stroke="#263238" stroke-linecap="round" stroke-linejoin="round"/>
<path d="M160.531 195.335C159.928 195.843 159.292 196.31 158.627 196.735" stroke="#263238" stroke-linecap="round" stroke-linejoin="round"/>
<path d="M177.1 167.944C177.1 167.944 170.485 186.039 161.623 194.383" stroke="#263238" stroke-linecap="round" stroke-linejoin="round"/>
<path d="M193.382 165.228L189.217 175.553L195.916 168.308" stroke="#263238" stroke-linecap="round" stroke-linejoin="round"/>
<path d="M123.9 193.655C124.931 196.515 126.752 199.024 129.15 200.893C133.133 203.973 143.85 214.109 143.85 214.109C143.74 214.647 143.74 215.202 143.85 215.74C144.032 216.643 146.93 218.995 146.93 218.995V217.189L147.63 215.74L148.33 213.927C149.138 213.614 149.926 213.252 150.689 212.842C151.039 212.594 151.344 212.289 151.592 211.939C152.667 212.133 153.755 212.252 154.847 212.296C156.114 212.296 157.927 211.029 156.842 210.672C155.757 210.315 154.672 210.672 153.223 209.972C151.774 209.272 151.046 208.523 149.597 208.523H145.796L135.8 192.206L123.9 193.655Z" fill="white" stroke="#263238" stroke-linecap="round" stroke-linejoin="round"/>
<path d="M128.149 182.525C128.149 182.525 126.049 183.155 125.496 183.694C124.943 184.233 122.234 188.405 122.78 190.575C123.326 192.745 124.047 195.825 128.751 196.728C133.455 197.631 135.996 195.643 136.36 195.104C136.724 194.565 137.613 188.153 136.885 188.153C136.157 188.153 134.183 190.575 134.183 190.575C134.183 190.575 128.793 189.357 127.708 188.475C126.623 187.593 128.149 182.525 128.149 182.525Z" fill="white" stroke="#263238" stroke-linecap="round" stroke-linejoin="round"/>
<path d="M211.204 193.655C210.172 196.515 208.352 199.024 205.954 200.893C201.971 203.973 191.254 214.109 191.254 214.109C191.364 214.647 191.364 215.202 191.254 215.74C191.072 216.643 187.089 219.429 187.089 219.429V216.79L186.809 215.124L186.732 213.927C185.924 213.614 185.136 213.252 184.373 212.842C184.023 212.594 183.718 212.289 183.47 211.939C182.394 212.133 181.307 212.252 180.215 212.296C178.948 212.296 177.135 211.029 178.22 210.672C179.305 210.315 180.39 210.672 181.839 209.972C183.288 209.272 184.016 208.523 185.465 208.523H189.266L199.22 192.234L211.204 193.655Z" fill="white" stroke="#263238" stroke-linecap="round" stroke-linejoin="round"/>
<path d="M207.676 183.4C207.676 183.4 209.034 183.141 209.573 183.68C210.112 184.219 212.835 188.391 212.289 190.561C211.743 192.731 211.022 195.811 206.318 196.714C201.614 197.617 199.073 195.629 198.709 195.09C198.345 194.551 198.058 188.384 198.534 188.93C199.206 189.62 200.004 190.174 200.886 190.561C200.886 190.561 206.486 190.274 207.375 187.103C207.619 185.885 207.72 184.642 207.676 183.4Z" fill="white" stroke="#263238" stroke-linecap="round" stroke-linejoin="round"/>
<path d="M155.911 327.796C157.052 327.222 156.73 322.707 156.541 320.831C155.254 321.435 153.878 321.83 152.467 322C150.703 322.242 148.909 321.858 147.399 320.915C147.399 320.915 146.818 327.18 147.308 327.768C147.798 328.356 154.462 328.517 155.911 327.796Z" fill="#879198" stroke="#263238" stroke-linecap="round" stroke-linejoin="round"/>
</svg>
