<svg width="450" height="331" viewBox="0 0 450 331" fill="none" xmlns="http://www.w3.org/2000/svg">
<path d="M425.94 193.35C430.422 163.404 426.54 133.098 407.868 107.238C386.466 77.64 352.566 56.724 316.53 50.79C310.11 49.7257 303.616 49.166 297.108 49.116C281.575 49.0103 266.131 51.4715 251.4 56.4C226.53 64.8 205.152 79.434 185.82 96.9C177.234 104.652 168.852 114.6 157.482 118.2C145.68 121.968 132.984 117.12 121.482 114.156C99.924 108.6 68.28 96.6 46.8 108C18.6 123 10.2 156 21 181.8C31.8 207.6 64.8 209.4 68.4 229.2C72 249 89.4 278.4 127.2 275.4C165 272.4 179.4 240 203.4 249.6C211.842 252.978 218.472 259.2 225.654 264.546C235.656 272.01 246.504 277.092 258.816 279.432C276.42 282.78 295.644 281.01 313.416 280.158C333.816 279.174 355.764 279.924 375.57 272.796C396.834 265.134 410.262 248.346 417.468 227.298C421.311 216.261 424.147 204.899 425.94 193.35Z" fill="#F7F7F7"/>
<path opacity="0.7" d="M425.94 193.35C430.422 163.404 426.54 133.098 407.868 107.238C386.466 77.64 352.566 56.724 316.53 50.79C310.11 49.7257 303.616 49.166 297.108 49.116C281.575 49.0103 266.131 51.4715 251.4 56.4C226.53 64.8 205.152 79.434 185.82 96.9C177.234 104.652 168.852 114.6 157.482 118.2C145.68 121.968 132.984 117.12 121.482 114.156C99.924 108.6 68.28 96.6 46.8 108C18.6 123 10.2 156 21 181.8C31.8 207.6 64.8 209.4 68.4 229.2C72 249 89.4 278.4 127.2 275.4C165 272.4 179.4 240 203.4 249.6C211.842 252.978 218.472 259.2 225.654 264.546C235.656 272.01 246.504 277.092 258.816 279.432C276.42 282.78 295.644 281.01 313.416 280.158C333.816 279.174 355.764 279.924 375.57 272.796C396.834 265.134 410.262 248.346 417.468 227.298C421.311 216.261 424.147 204.899 425.94 193.35Z" fill="#F7F7F7"/>
<path d="M272.4 252.6H376.5C378.489 252.6 380.397 251.81 381.803 250.403C383.21 248.997 384 247.089 384 245.1V52.5C384 50.5109 383.21 48.6032 381.803 47.1967C380.397 45.7902 378.489 45 376.5 45H75.2998C73.3107 45 71.403 45.7902 69.9965 47.1967C68.59 48.6032 67.7998 50.5109 67.7998 52.5V245.1C67.7998 247.089 68.59 248.997 69.9965 250.403C71.403 251.81 73.3107 252.6 75.2998 252.6H179.4" stroke="black" stroke-linecap="round" stroke-linejoin="round"/>
<path d="M376.8 53.4H74.3999V230.4H376.8V53.4Z" stroke="black" stroke-linecap="round" stroke-linejoin="round"/>
<path d="M272.4 252.6H179.4V273.57H272.4V252.6Z" stroke="black" stroke-linecap="round" stroke-linejoin="round"/>
<path d="M272.4 273.57H288.6V281.574H163.2V273.57H179.4" stroke="black" stroke-linecap="round" stroke-linejoin="round"/>
<path d="M119.622 109.5H96.0718V78.102H114.576L119.622 83.034V109.5Z" fill="white" stroke="#263238" stroke-linecap="round" stroke-linejoin="round"/>
<path d="M115.212 82.518V83.802L119.622 83.04L115.212 82.518Z" fill="#263238" stroke="#263238" stroke-linecap="round" stroke-linejoin="round"/>
<path d="M114.576 78.102V83.04H119.622L114.576 78.102Z" fill="white" stroke="#263238" stroke-linecap="round" stroke-linejoin="round"/>
<path d="M99.0659 84.924H117.192" stroke="#263238" stroke-linecap="round" stroke-linejoin="round"/>
<path d="M99.0659 89.412H117.192" stroke="#263238" stroke-linecap="round" stroke-linejoin="round"/>
<path d="M99.0659 93.894H117.192" stroke="#263238" stroke-linecap="round" stroke-linejoin="round"/>
<path d="M99.0659 98.382H117.192" stroke="#263238" stroke-linecap="round" stroke-linejoin="round"/>
<path d="M99.0659 102.864H117.192" stroke="#263238" stroke-linecap="round" stroke-linejoin="round"/>
<path d="M53.1182 147.444H61.5542" stroke="#263238" stroke-linecap="round" stroke-linejoin="round"/>
<path d="M43.7939 147.444H51.5939" stroke="#263238" stroke-linecap="round" stroke-linejoin="round"/>
<path d="M58.29 150.108H61.554" stroke="#263238" stroke-linecap="round" stroke-linejoin="round"/>
<path d="M43.7939 150.108H56.766" stroke="#263238" stroke-linecap="round" stroke-linejoin="round"/>
<path d="M60.27 152.772H61.554" stroke="#263238" stroke-linecap="round" stroke-linejoin="round"/>
<path d="M53.2681 152.772H58.1401" stroke="#263238" stroke-linecap="round" stroke-linejoin="round"/>
<path d="M43.7939 152.772H51.8999" stroke="#263238" stroke-linecap="round" stroke-linejoin="round"/>
<path d="M43.7939 155.436H61.5539" stroke="#263238" stroke-linecap="round" stroke-linejoin="round"/>
<path d="M58.5957 158.1H61.5537" stroke="#263238" stroke-linecap="round" stroke-linejoin="round"/>
<path d="M48.4019 158.1H55.5539" stroke="#263238" stroke-linecap="round" stroke-linejoin="round"/>
<path d="M43.7939 158.1H46.2719" stroke="#263238" stroke-linecap="round" stroke-linejoin="round"/>
<path d="M51.8999 160.764H61.5539" stroke="#263238" stroke-linecap="round" stroke-linejoin="round"/>
<path d="M43.7939 160.764H50.226" stroke="#263238" stroke-linecap="round" stroke-linejoin="round"/>
<path d="M56.7661 163.428H61.5541" stroke="#263238" stroke-linecap="round" stroke-linejoin="round"/>
<path d="M52.0503 163.428H55.3983" stroke="#263238" stroke-linecap="round" stroke-linejoin="round"/>
<path d="M43.7939 163.428H50.226" stroke="#263238" stroke-linecap="round" stroke-linejoin="round"/>
<path d="M107.196 183.252H87.7739V157.356H103.032L107.196 161.418V183.252Z" fill="#005F9F" stroke="#263238" stroke-linecap="round" stroke-linejoin="round"/>
<path d="M103.554 160.998V162.054L107.196 161.424L103.554 160.998Z" fill="#263238" stroke="#263238" stroke-linecap="round" stroke-linejoin="round"/>
<path d="M103.032 157.356V161.424H107.196L103.032 157.356Z" fill="white" stroke="#263238" stroke-linecap="round" stroke-linejoin="round"/>
<path d="M90.2397 162.978H105.192" stroke="#263238" stroke-linecap="round" stroke-linejoin="round"/>
<path d="M90.2397 166.68H105.192" stroke="#263238" stroke-linecap="round" stroke-linejoin="round"/>
<path d="M90.2397 170.382H105.192" stroke="#263238" stroke-linecap="round" stroke-linejoin="round"/>
<path d="M90.2397 174.078H105.192" stroke="#263238" stroke-linecap="round" stroke-linejoin="round"/>
<path d="M90.2397 177.78H105.192" stroke="#263238" stroke-linecap="round" stroke-linejoin="round"/>
<path d="M86.7776 112.404H63.2275V81.006H81.7316L86.7776 85.932V112.404Z" fill="#005F9F" stroke="#263238" stroke-linecap="round" stroke-linejoin="round"/>
<path d="M82.3623 85.422V86.706L86.7783 85.938L82.3623 85.422Z" fill="#263238" stroke="#263238" stroke-linecap="round" stroke-linejoin="round"/>
<path d="M81.7319 81.006V85.938H86.7779L81.7319 81.006Z" fill="white" stroke="#263238" stroke-linecap="round" stroke-linejoin="round"/>
<path d="M66.2158 87.828H84.3478" stroke="#263238" stroke-linecap="round" stroke-linejoin="round"/>
<path d="M66.2158 92.31H84.3478" stroke="#263238" stroke-linecap="round" stroke-linejoin="round"/>
<path d="M66.2158 96.798H84.3478" stroke="#263238" stroke-linecap="round" stroke-linejoin="round"/>
<path d="M66.2158 101.286H84.3478" stroke="#263238" stroke-linecap="round" stroke-linejoin="round"/>
<path d="M66.2158 105.768H84.3478" stroke="#263238" stroke-linecap="round" stroke-linejoin="round"/>
<path d="M137.214 126.768H113.664V95.364H132.168L137.214 100.296V126.768Z" fill="#005F9F" stroke="#263238" stroke-linecap="round" stroke-linejoin="round"/>
<path d="M132.804 99.78V101.07L137.214 100.302L132.804 99.78Z" fill="#263238" stroke="#263238" stroke-linecap="round" stroke-linejoin="round"/>
<path d="M132.168 95.364V100.302H137.214L132.168 95.364Z" fill="white" stroke="#263238" stroke-linecap="round" stroke-linejoin="round"/>
<path d="M116.658 102.192H134.784" stroke="#263238" stroke-linecap="round" stroke-linejoin="round"/>
<path d="M116.658 106.674H134.784" stroke="#263238" stroke-linecap="round" stroke-linejoin="round"/>
<path d="M116.658 111.162H134.784" stroke="#263238" stroke-linecap="round" stroke-linejoin="round"/>
<path d="M116.658 115.644H134.784" stroke="#263238" stroke-linecap="round" stroke-linejoin="round"/>
<path d="M116.658 120.132H134.784" stroke="#263238" stroke-linecap="round" stroke-linejoin="round"/>
<path d="M168.81 161.568H145.26V130.164H163.764L168.81 135.096V161.568Z" fill="white" stroke="#263238" stroke-linecap="round" stroke-linejoin="round"/>
<path d="M164.394 134.58V135.87L168.81 135.102L164.394 134.58Z" fill="#263238" stroke="#263238" stroke-linecap="round" stroke-linejoin="round"/>
<path d="M163.764 130.164V135.102H168.81L163.764 130.164Z" fill="white" stroke="#263238" stroke-linecap="round" stroke-linejoin="round"/>
<path d="M148.248 136.992H166.38" stroke="#263238" stroke-linecap="round" stroke-linejoin="round"/>
<path d="M148.248 141.474H166.38" stroke="#263238" stroke-linecap="round" stroke-linejoin="round"/>
<path d="M148.248 145.962H166.38" stroke="#263238" stroke-linecap="round" stroke-linejoin="round"/>
<path d="M148.248 150.444H166.38" stroke="#263238" stroke-linecap="round" stroke-linejoin="round"/>
<path d="M148.248 154.932H166.38" stroke="#263238" stroke-linecap="round" stroke-linejoin="round"/>
<path d="M103.092 104.304H77.1782C74.3251 104.304 72.0122 106.617 72.0122 109.47V140.274C72.0122 143.127 74.3251 145.44 77.1782 145.44H103.092C105.945 145.44 108.258 143.127 108.258 140.274V109.47C108.258 106.617 105.945 104.304 103.092 104.304Z" fill="white" stroke="#263238" stroke-linecap="round" stroke-linejoin="round"/>
<path d="M104.226 104.304H76.026C74.9582 104.304 73.9342 104.728 73.1792 105.483C72.4242 106.238 72 107.262 72 108.33V109.2H108.24V108.336C108.242 107.269 107.82 106.246 107.067 105.49C106.315 104.734 105.293 104.307 104.226 104.304Z" fill="#263238" stroke="#263238" stroke-linecap="round" stroke-linejoin="round"/>
<path d="M77.1841 116.388H103.074" stroke="#263238" stroke-linecap="round" stroke-linejoin="round"/>
<path d="M77.1841 122.712H103.074" stroke="#263238" stroke-linecap="round" stroke-linejoin="round"/>
<path d="M77.1841 129.042H103.074" stroke="#263238" stroke-linecap="round" stroke-linejoin="round"/>
<path d="M77.1841 135.372H103.074" stroke="#263238" stroke-linecap="round" stroke-linejoin="round"/>
<path d="M98.9998 106.608C98.9998 106.38 98.9322 106.157 98.8056 105.968C98.6791 105.779 98.4992 105.631 98.2887 105.544C98.0782 105.457 97.8465 105.434 97.6231 105.478C97.3996 105.523 97.1943 105.632 97.0332 105.793C96.8721 105.955 96.7624 106.16 96.7179 106.383C96.6735 106.607 96.6963 106.838 96.7835 107.049C96.8707 107.259 97.0183 107.439 97.2078 107.566C97.3972 107.692 97.62 107.76 97.8478 107.76C98.1533 107.76 98.4463 107.639 98.6624 107.423C98.8784 107.207 98.9998 106.914 98.9998 106.608Z" fill="white"/>
<path d="M102.816 106.608C102.816 106.38 102.749 106.157 102.622 105.968C102.495 105.779 102.316 105.631 102.105 105.544C101.895 105.457 101.663 105.434 101.439 105.478C101.216 105.523 101.011 105.632 100.85 105.793C100.689 105.955 100.579 106.16 100.534 106.383C100.49 106.607 100.513 106.838 100.6 107.049C100.687 107.259 100.835 107.439 101.024 107.566C101.214 107.692 101.436 107.76 101.664 107.76C101.97 107.76 102.263 107.639 102.479 107.423C102.695 107.207 102.816 106.914 102.816 106.608Z" fill="white"/>
<path d="M106.602 106.608C106.602 106.38 106.534 106.157 106.407 105.967C106.28 105.778 106.1 105.63 105.889 105.543C105.678 105.456 105.447 105.434 105.223 105.479C104.999 105.524 104.794 105.634 104.633 105.796C104.472 105.957 104.363 106.163 104.319 106.387C104.275 106.611 104.299 106.843 104.387 107.053C104.475 107.263 104.624 107.443 104.814 107.569C105.004 107.695 105.228 107.761 105.456 107.76C105.607 107.76 105.756 107.73 105.896 107.672C106.035 107.614 106.162 107.529 106.268 107.422C106.375 107.315 106.459 107.188 106.516 107.048C106.574 106.909 106.603 106.759 106.602 106.608Z" fill="white"/>
<path d="M78.2522 137.988H63.4502C60.5971 137.988 58.2842 140.301 58.2842 143.154V161.346C58.2842 164.199 60.5971 166.512 63.4502 166.512H78.2522C81.1053 166.512 83.4182 164.199 83.4182 161.346V143.154C83.4182 140.301 81.1053 137.988 78.2522 137.988Z" fill="white" stroke="#263238" stroke-linecap="round" stroke-linejoin="round"/>
<path d="M80.6222 138H61.0742C60.3342 138 59.6246 138.294 59.1014 138.817C58.5781 139.34 58.2842 140.05 58.2842 140.79V141.39H83.4002V140.79C83.4002 140.052 83.1079 139.344 82.5872 138.821C82.0666 138.299 81.36 138.003 80.6222 138Z" fill="#263238" stroke="#263238" stroke-linecap="round" stroke-linejoin="round"/>
<path d="M61.8721 146.364H79.8241" stroke="#263238" stroke-linecap="round" stroke-linejoin="round"/>
<path d="M61.8721 150.75H79.8241" stroke="#263238" stroke-linecap="round" stroke-linejoin="round"/>
<path d="M61.8721 155.142H79.8241" stroke="#263238" stroke-linecap="round" stroke-linejoin="round"/>
<path d="M61.8721 159.528H79.8241" stroke="#263238" stroke-linecap="round" stroke-linejoin="round"/>
<path d="M76.2179 140.376C76.6587 140.376 77.0159 140.019 77.0159 139.578C77.0159 139.137 76.6587 138.78 76.2179 138.78C75.7772 138.78 75.4199 139.137 75.4199 139.578C75.4199 140.019 75.7772 140.376 76.2179 140.376Z" fill="white"/>
<path d="M78.8463 140.376C79.2871 140.376 79.6443 140.019 79.6443 139.578C79.6443 139.137 79.2871 138.78 78.8463 138.78C78.4056 138.78 78.0483 139.137 78.0483 139.578C78.0483 140.019 78.4056 140.376 78.8463 140.376Z" fill="white"/>
<path d="M82.2718 139.578C82.2718 139.42 82.225 139.266 82.1373 139.135C82.0496 139.003 81.925 138.901 81.7792 138.841C81.6333 138.78 81.4729 138.765 81.3181 138.795C81.1633 138.826 81.0211 138.902 80.9095 139.014C80.7979 139.125 80.7219 139.268 80.6911 139.422C80.6603 139.577 80.6761 139.738 80.7365 139.883C80.7969 140.029 80.8992 140.154 81.0304 140.242C81.1617 140.329 81.316 140.376 81.4738 140.376C81.5786 140.376 81.6823 140.355 81.7792 140.315C81.876 140.275 81.964 140.216 82.0381 140.142C82.1122 140.068 82.1709 139.98 82.211 139.883C82.2511 139.787 82.2718 139.683 82.2718 139.578Z" fill="white"/>
<path d="M70.7158 175.098H79.1518" stroke="#263238" stroke-linecap="round" stroke-linejoin="round"/>
<path d="M61.3857 175.098H69.1918" stroke="#263238" stroke-linecap="round" stroke-linejoin="round"/>
<path d="M75.8877 177.762H79.1517" stroke="#263238" stroke-linecap="round" stroke-linejoin="round"/>
<path d="M61.3857 177.762H74.3638" stroke="#263238" stroke-linecap="round" stroke-linejoin="round"/>
<path d="M77.8623 180.426H79.1523" stroke="#263238" stroke-linecap="round" stroke-linejoin="round"/>
<path d="M70.8657 180.426H75.7317" stroke="#263238" stroke-linecap="round" stroke-linejoin="round"/>
<path d="M61.3857 180.426H69.4977" stroke="#263238" stroke-linecap="round" stroke-linejoin="round"/>
<path d="M61.3857 183.09H79.1517" stroke="#263238" stroke-linecap="round" stroke-linejoin="round"/>
<path d="M76.1938 185.754H79.1518" stroke="#263238" stroke-linecap="round" stroke-linejoin="round"/>
<path d="M66 185.754H73.146" stroke="#263238" stroke-linecap="round" stroke-linejoin="round"/>
<path d="M61.3857 185.754H63.8697" stroke="#263238" stroke-linecap="round" stroke-linejoin="round"/>
<path d="M69.498 188.418H79.1521" stroke="#263238" stroke-linecap="round" stroke-linejoin="round"/>
<path d="M61.3857 188.418H67.8237" stroke="#263238" stroke-linecap="round" stroke-linejoin="round"/>
<path d="M74.3638 191.082H79.1518" stroke="#263238" stroke-linecap="round" stroke-linejoin="round"/>
<path d="M69.6479 191.082H72.996" stroke="#263238" stroke-linecap="round" stroke-linejoin="round"/>
<path d="M61.3857 191.082H67.8237" stroke="#263238" stroke-linecap="round" stroke-linejoin="round"/>
<path d="M130.35 171.516H138.792" stroke="#263238" stroke-linecap="round" stroke-linejoin="round"/>
<path d="M121.026 171.516H128.832" stroke="#263238" stroke-linecap="round" stroke-linejoin="round"/>
<path d="M135.522 174.186H138.792" stroke="#263238" stroke-linecap="round" stroke-linejoin="round"/>
<path d="M121.026 174.186H134.004" stroke="#263238" stroke-linecap="round" stroke-linejoin="round"/>
<path d="M137.502 176.85H138.792" stroke="#263238" stroke-linecap="round" stroke-linejoin="round"/>
<path d="M130.506 176.85H135.372" stroke="#263238" stroke-linecap="round" stroke-linejoin="round"/>
<path d="M121.026 176.85H129.138" stroke="#263238" stroke-linecap="round" stroke-linejoin="round"/>
<path d="M121.026 179.514H138.792" stroke="#263238" stroke-linecap="round" stroke-linejoin="round"/>
<path d="M135.828 182.178H138.792" stroke="#263238" stroke-linecap="round" stroke-linejoin="round"/>
<path d="M125.634 182.178H132.786" stroke="#263238" stroke-linecap="round" stroke-linejoin="round"/>
<path d="M121.026 182.178H123.504" stroke="#263238" stroke-linecap="round" stroke-linejoin="round"/>
<path d="M129.138 184.842H138.792" stroke="#263238" stroke-linecap="round" stroke-linejoin="round"/>
<path d="M121.026 184.842H127.464" stroke="#263238" stroke-linecap="round" stroke-linejoin="round"/>
<path d="M134.004 187.506H138.792" stroke="#263238" stroke-linecap="round" stroke-linejoin="round"/>
<path d="M129.288 187.506H132.636" stroke="#263238" stroke-linecap="round" stroke-linejoin="round"/>
<path d="M121.026 187.506H127.464" stroke="#263238" stroke-linecap="round" stroke-linejoin="round"/>
<path d="M150.09 111.084H158.526" stroke="#263238" stroke-linecap="round" stroke-linejoin="round"/>
<path d="M140.76 111.084H148.566" stroke="#263238" stroke-linecap="round" stroke-linejoin="round"/>
<path d="M155.262 113.748H158.526" stroke="#263238" stroke-linecap="round" stroke-linejoin="round"/>
<path d="M140.76 113.748H153.738" stroke="#263238" stroke-linecap="round" stroke-linejoin="round"/>
<path d="M157.236 116.412H158.526" stroke="#263238" stroke-linecap="round" stroke-linejoin="round"/>
<path d="M150.24 116.412H155.106" stroke="#263238" stroke-linecap="round" stroke-linejoin="round"/>
<path d="M140.76 116.412H148.872" stroke="#263238" stroke-linecap="round" stroke-linejoin="round"/>
<path d="M140.76 119.076H158.526" stroke="#263238" stroke-linecap="round" stroke-linejoin="round"/>
<path d="M155.568 121.74H158.526" stroke="#263238" stroke-linecap="round" stroke-linejoin="round"/>
<path d="M145.374 121.74H152.52" stroke="#263238" stroke-linecap="round" stroke-linejoin="round"/>
<path d="M140.76 121.74H143.244" stroke="#263238" stroke-linecap="round" stroke-linejoin="round"/>
<path d="M148.872 124.404H158.526" stroke="#263238" stroke-linecap="round" stroke-linejoin="round"/>
<path d="M140.76 124.404H147.198" stroke="#263238" stroke-linecap="round" stroke-linejoin="round"/>
<path d="M153.738 127.068H158.526" stroke="#263238" stroke-linecap="round" stroke-linejoin="round"/>
<path d="M149.022 127.068H152.37" stroke="#263238" stroke-linecap="round" stroke-linejoin="round"/>
<path d="M140.76 127.068H147.198" stroke="#263238" stroke-linecap="round" stroke-linejoin="round"/>
<path d="M57.5342 117.102H65.9702" stroke="#263238" stroke-linecap="round" stroke-linejoin="round"/>
<path d="M48.2041 117.102H56.0101" stroke="#263238" stroke-linecap="round" stroke-linejoin="round"/>
<path d="M62.7061 119.766H65.97" stroke="#263238" stroke-linecap="round" stroke-linejoin="round"/>
<path d="M48.2041 119.766H61.1821" stroke="#263238" stroke-linecap="round" stroke-linejoin="round"/>
<path d="M64.686 122.43H65.97" stroke="#263238" stroke-linecap="round" stroke-linejoin="round"/>
<path d="M57.6841 122.43H62.5561" stroke="#263238" stroke-linecap="round" stroke-linejoin="round"/>
<path d="M48.2041 122.43H56.3161" stroke="#263238" stroke-linecap="round" stroke-linejoin="round"/>
<path d="M48.2041 125.094H65.9701" stroke="#263238" stroke-linecap="round" stroke-linejoin="round"/>
<path d="M63.0122 127.758H65.9702" stroke="#263238" stroke-linecap="round" stroke-linejoin="round"/>
<path d="M52.8179 127.758H59.9699" stroke="#263238" stroke-linecap="round" stroke-linejoin="round"/>
<path d="M48.2041 127.758H50.6881" stroke="#263238" stroke-linecap="round" stroke-linejoin="round"/>
<path d="M56.3159 130.422H65.9699" stroke="#263238" stroke-linecap="round" stroke-linejoin="round"/>
<path d="M48.2041 130.422H54.6421" stroke="#263238" stroke-linecap="round" stroke-linejoin="round"/>
<path d="M61.1821 133.086H65.9701" stroke="#263238" stroke-linecap="round" stroke-linejoin="round"/>
<path d="M56.4658 133.086H59.8138" stroke="#263238" stroke-linecap="round" stroke-linejoin="round"/>
<path d="M48.2041 133.086H54.6421" stroke="#263238" stroke-linecap="round" stroke-linejoin="round"/>
<path d="M110.292 138.21V164.682H133.842V133.284H115.344L110.292 138.21Z" fill="white" stroke="#263238" stroke-linecap="round" stroke-linejoin="round"/>
<path d="M114.708 137.7V138.984L110.292 138.222L114.708 137.7Z" fill="#263238" stroke="#263238" stroke-linecap="round" stroke-linejoin="round"/>
<path d="M115.338 133.284V138.222H110.292L115.338 133.284Z" fill="white" stroke="#263238" stroke-linecap="round" stroke-linejoin="round"/>
<path d="M130.854 140.106H112.722" stroke="#263238" stroke-linecap="round" stroke-linejoin="round"/>
<path d="M130.854 144.588H112.722" stroke="#263238" stroke-linecap="round" stroke-linejoin="round"/>
<path d="M130.854 149.076H112.722" stroke="#263238" stroke-linecap="round" stroke-linejoin="round"/>
<path d="M130.854 153.564H112.722" stroke="#263238" stroke-linecap="round" stroke-linejoin="round"/>
<path d="M133.842 157.356H110.292V164.688H133.842V157.356Z" fill="#263238" stroke="#263238" stroke-linecap="round" stroke-linejoin="round"/>
<path d="M137.478 140.268H121.182V148.116H137.478V140.268Z" fill="#263238" stroke="#263238" stroke-linecap="round" stroke-linejoin="round"/>
<path d="M127.872 141.378C128.706 141.378 129.072 141.87 129.072 142.668V143.304C129.099 143.471 129.086 143.642 129.037 143.803C128.987 143.964 128.901 144.112 128.785 144.235C128.669 144.358 128.526 144.453 128.368 144.512C128.21 144.571 128.04 144.593 127.872 144.576H127.35V146.664H126.75V141.378H127.872ZM127.83 144.048C128.268 144.048 128.478 143.844 128.478 143.34V142.638C128.478 142.158 128.304 141.912 127.878 141.912H127.314V144.048H127.83Z" fill="white"/>
<path d="M130.8 141.378C131.622 141.378 132 141.876 132 142.692V145.356C132 146.166 131.622 146.664 130.8 146.664H129.54V141.378H130.8ZM130.8 146.124C131.22 146.124 131.4 145.86 131.4 145.38V142.662C131.4 142.176 131.196 141.912 130.77 141.912H130.134V146.112L130.8 146.124Z" fill="white"/>
<path d="M134.328 143.838V144.372H133.128V146.664H132.528V141.378H134.628V141.912H133.116V143.838H134.328Z" fill="white"/>
<path opacity="0.2" d="M242.912 46.102L238.76 46L238.7 48.364C237.678 48.471 236.672 48.6924 235.7 49.024L234.53 46.882L230.864 48.874L231.992 50.944C231.156 51.5569 230.39 52.2591 229.706 53.038L227.624 51.76L225.464 55.306L227.474 56.506C227.056 57.4546 226.744 58.4467 226.544 59.464L224.102 59.398L224 63.556L226.364 63.616C226.471 64.6376 226.692 65.6439 227.024 66.616L224.864 67.834L226.85 71.488L228.926 70.36C229.535 71.1951 230.236 71.9598 231.014 72.64L229.742 74.728L233.288 76.894L234.518 74.884C235.465 75.3015 236.455 75.6134 237.47 75.814L237.41 78.256L241.568 78.358L241.664 75.982C242.686 75.875 243.692 75.6536 244.664 75.322L245.828 77.464L249.482 75.478L248.348 73.402C249.185 72.7926 249.952 72.0924 250.634 71.314L252.716 72.586L254.888 69.04L252.872 67.81C253.293 66.8624 253.605 65.87 253.802 64.852L256.244 64.918L256.352 60.76L253.988 60.7C253.878 59.6789 253.657 58.6729 253.328 57.7L255.464 56.536L253.478 52.882L251.402 54.016C250.796 53.1764 250.095 52.4093 249.314 51.73L250.592 49.642L247.064 47.464L245.834 49.48C244.889 49.0562 243.899 48.7421 242.882 48.544L242.912 46.102ZM239.912 72.184C237.933 72.1347 236.014 71.4998 234.396 70.3595C232.778 69.2192 231.534 67.6247 230.822 65.7777C230.111 63.9307 229.963 61.9141 230.397 59.983C230.831 58.0519 231.829 56.2929 233.263 54.9285C234.697 53.5641 236.503 52.6556 238.453 52.3179C240.404 51.9801 242.411 52.2283 244.22 53.031C246.029 53.8338 247.56 55.155 248.618 56.8277C249.677 58.5003 250.215 60.4492 250.166 62.428C250.098 65.081 248.981 67.5986 247.058 69.4279C245.135 71.2572 242.565 72.2485 239.912 72.184V72.184Z" stroke="black" stroke-linecap="round" stroke-linejoin="round"/>
<path opacity="0.2" d="M223.274 86.48V82.322H220.916C220.783 81.2976 220.535 80.2914 220.178 79.322L222.284 78.122L220.208 74.522L218.162 75.722C217.532 74.8994 216.812 74.1507 216.014 73.49L217.214 71.372L213.614 69.296L212.414 71.336C211.45 70.9386 210.443 70.6528 209.414 70.484V68H205.262V70.364C204.237 70.4957 203.231 70.7433 202.262 71.102L201.062 68.99L197.462 71.066L198.662 73.112C197.85 73.7434 197.111 74.4639 196.46 75.26L194.348 74.06L192.266 77.66L194.312 78.86C193.91 79.8231 193.622 80.8299 193.454 81.86H191V86.018H193.364C193.499 87.0421 193.746 88.0482 194.102 89.018L191.99 90.218L194.066 93.818L196.118 92.618C196.747 93.432 197.465 94.1727 198.26 94.826L197.06 96.938L200.66 99.02L201.86 96.974C202.823 97.3753 203.83 97.6632 204.86 97.832V100.274H209.018V97.91C210.043 97.7795 211.049 97.5318 212.018 97.172L213.218 99.284L216.818 97.208L215.618 95.162C216.439 94.5307 217.188 93.8103 217.85 93.014L219.968 94.214L222.044 90.614L220.004 89.414C220.401 88.4497 220.687 87.4432 220.856 86.414L223.274 86.48ZM197.132 84.134C197.132 82.1546 197.719 80.2197 198.819 78.5739C199.918 76.928 201.481 75.6453 203.31 74.8878C205.139 74.1303 207.151 73.9321 209.092 74.3183C211.034 74.7045 212.817 75.6576 214.217 77.0573C215.616 78.4569 216.57 80.2402 216.956 82.1815C217.342 84.1229 217.144 86.1352 216.386 87.9639C215.629 89.7926 214.346 91.3557 212.7 92.4553C211.054 93.555 209.119 94.142 207.14 94.142C205.826 94.1428 204.524 93.8845 203.309 93.3818C202.095 92.8791 200.991 92.142 200.062 91.2125C199.132 90.283 198.395 89.1794 197.892 87.9648C197.39 86.7502 197.131 85.4485 197.132 84.134Z" stroke="black" stroke-linecap="round" stroke-linejoin="round"/>
<g opacity="0.2">
<path opacity="0.2" d="M112.62 215.24C118.485 215.24 123.24 210.485 123.24 204.62C123.24 198.755 118.485 194 112.62 194C106.755 194 102 198.755 102 204.62C102 210.485 106.755 215.24 112.62 215.24Z" stroke="black" stroke-linecap="round" stroke-linejoin="round"/>
<path opacity="0.2" d="M120.591 206.111C121.419 201.708 118.521 197.468 114.118 196.64C109.715 195.812 105.475 198.71 104.647 203.113C103.819 207.516 106.717 211.757 111.12 212.585C115.523 213.413 119.763 210.514 120.591 206.111Z" stroke="black" stroke-linecap="round" stroke-linejoin="round"/>
<path opacity="0.2" d="M128.172 211.904L122.442 208.796L121.488 210.554L127.224 213.656C127.098 213.889 127.069 214.163 127.145 214.417C127.22 214.671 127.393 214.885 127.626 215.012L138.552 220.928C138.785 221.054 139.059 221.082 139.313 221.007C139.567 220.932 139.781 220.759 139.908 220.526L140.862 218.768C140.986 218.534 141.012 218.26 140.936 218.006C140.86 217.752 140.686 217.539 140.454 217.412L129.528 211.496C129.294 211.372 129.02 211.345 128.766 211.422C128.512 211.498 128.299 211.671 128.172 211.904Z" stroke="black" stroke-miterlimit="10"/>
</g>
<path d="M230.075 170.958C230.219 170.956 230.362 170.983 230.496 171.037C230.629 171.091 230.751 171.171 230.853 171.271C230.956 171.372 231.037 171.493 231.093 171.625C231.149 171.758 231.179 171.9 231.179 172.044V178.908C231.159 179.188 231.033 179.449 230.828 179.64C230.623 179.83 230.353 179.936 230.072 179.936C229.792 179.936 229.522 179.83 229.317 179.64C229.112 179.449 228.986 179.188 228.965 178.908V172.044C228.967 171.9 228.997 171.757 229.053 171.625C229.11 171.492 229.192 171.372 229.295 171.271C229.398 171.17 229.52 171.091 229.654 171.037C229.788 170.983 229.931 170.956 230.075 170.958Z" fill="#263238"/>
<path d="M227.4 170.958C227.544 170.956 227.687 170.983 227.821 171.037C227.955 171.091 228.077 171.17 228.18 171.271C228.283 171.372 228.365 171.492 228.422 171.625C228.478 171.757 228.508 171.9 228.51 172.044V178.908C228.489 179.188 228.364 179.449 228.158 179.64C227.953 179.83 227.683 179.936 227.403 179.936C227.123 179.936 226.853 179.83 226.647 179.64C226.442 179.449 226.316 179.188 226.296 178.908V172.044C226.299 171.754 226.417 171.477 226.624 171.273C226.831 171.07 227.11 170.956 227.4 170.958Z" fill="#263238"/>
<path d="M224.766 170.958C224.91 170.956 225.052 170.983 225.186 171.037C225.319 171.091 225.441 171.171 225.543 171.271C225.646 171.372 225.728 171.493 225.784 171.625C225.84 171.758 225.869 171.9 225.87 172.044V178.908C225.869 179.052 225.84 179.194 225.784 179.327C225.728 179.459 225.646 179.58 225.543 179.681C225.441 179.781 225.319 179.861 225.186 179.915C225.052 179.969 224.91 179.996 224.766 179.994C224.622 179.996 224.479 179.969 224.345 179.915C224.212 179.861 224.09 179.781 223.988 179.681C223.885 179.58 223.804 179.459 223.748 179.327C223.692 179.194 223.662 179.052 223.662 178.908V172.044C223.662 171.9 223.692 171.758 223.748 171.625C223.804 171.493 223.885 171.372 223.988 171.271C224.09 171.171 224.212 171.091 224.345 171.037C224.479 170.983 224.622 170.956 224.766 170.958Z" fill="#263238"/>
<path d="M222.108 170.958C222.252 170.956 222.395 170.983 222.529 171.037C222.663 171.091 222.785 171.17 222.888 171.271C222.991 171.372 223.073 171.492 223.13 171.625C223.186 171.757 223.216 171.9 223.218 172.044V178.908C223.197 179.188 223.072 179.449 222.866 179.64C222.661 179.83 222.391 179.936 222.111 179.936C221.831 179.936 221.561 179.83 221.355 179.64C221.15 179.449 221.024 179.188 221.004 178.908V172.044C221.007 171.754 221.125 171.477 221.332 171.273C221.539 171.07 221.818 170.956 222.108 170.958Z" fill="#263238"/>
<path d="M219.456 170.958C219.6 170.956 219.743 170.983 219.876 171.037C220.01 171.091 220.131 171.171 220.234 171.271C220.336 171.372 220.418 171.493 220.474 171.625C220.53 171.758 220.559 171.9 220.56 172.044V178.908C220.56 179.201 220.444 179.482 220.237 179.689C220.03 179.896 219.749 180.012 219.456 180.012C219.163 180.012 218.882 179.896 218.675 179.689C218.468 179.482 218.352 179.201 218.352 178.908V172.044C218.353 171.9 218.382 171.758 218.438 171.625C218.494 171.493 218.576 171.372 218.678 171.271C218.781 171.171 218.902 171.091 219.036 171.037C219.169 170.983 219.312 170.956 219.456 170.958Z" fill="#263238"/>
<path d="M216.798 170.958C216.942 170.956 217.085 170.983 217.219 171.037C217.353 171.091 217.475 171.17 217.578 171.271C217.681 171.372 217.763 171.492 217.82 171.625C217.876 171.757 217.906 171.9 217.908 172.044V178.908C217.906 179.052 217.876 179.195 217.82 179.327C217.763 179.46 217.681 179.58 217.578 179.681C217.475 179.782 217.353 179.861 217.219 179.915C217.085 179.969 216.942 179.996 216.798 179.994C216.508 179.996 216.229 179.882 216.022 179.679C215.815 179.475 215.697 179.198 215.694 178.908V172.044C215.697 171.754 215.815 171.477 216.022 171.273C216.229 171.07 216.508 170.956 216.798 170.958Z" fill="#263238"/>
<path d="M214.146 170.958C214.29 170.956 214.433 170.983 214.566 171.037C214.7 171.091 214.821 171.171 214.924 171.271C215.026 171.372 215.108 171.493 215.164 171.625C215.22 171.758 215.249 171.9 215.25 172.044V178.908C215.25 179.201 215.134 179.482 214.927 179.689C214.72 179.896 214.439 180.012 214.146 180.012C213.853 180.012 213.572 179.896 213.365 179.689C213.158 179.482 213.042 179.201 213.042 178.908V172.044C213.043 171.9 213.072 171.758 213.128 171.625C213.184 171.493 213.266 171.372 213.368 171.271C213.471 171.171 213.592 171.091 213.726 171.037C213.859 170.983 214.002 170.956 214.146 170.958Z" fill="#263238"/>
<path d="M211.494 170.958C211.784 170.956 212.063 171.07 212.27 171.273C212.477 171.477 212.595 171.754 212.598 172.044V178.908C212.577 179.188 212.452 179.449 212.246 179.64C212.041 179.83 211.771 179.936 211.491 179.936C211.211 179.936 210.941 179.83 210.735 179.64C210.53 179.449 210.404 179.188 210.384 178.908V172.044C210.385 171.9 210.415 171.757 210.472 171.625C210.529 171.492 210.611 171.372 210.714 171.271C210.817 171.17 210.939 171.091 211.073 171.037C211.206 170.983 211.35 170.956 211.494 170.958Z" fill="#263238"/>
<path d="M208.836 170.958C208.98 170.956 209.123 170.983 209.256 171.037C209.39 171.091 209.511 171.171 209.614 171.271C209.716 171.372 209.798 171.493 209.854 171.625C209.91 171.758 209.939 171.9 209.94 172.044V178.908C209.94 179.201 209.824 179.482 209.617 179.689C209.41 179.896 209.129 180.012 208.836 180.012C208.543 180.012 208.262 179.896 208.055 179.689C207.848 179.482 207.732 179.201 207.732 178.908V172.044C207.733 171.9 207.762 171.758 207.818 171.625C207.874 171.493 207.956 171.372 208.058 171.271C208.161 171.171 208.282 171.091 208.416 171.037C208.549 170.983 208.692 170.956 208.836 170.958Z" fill="#263238"/>
<path d="M206.184 170.958C206.474 170.956 206.753 171.07 206.96 171.273C207.167 171.477 207.285 171.754 207.288 172.044V178.908C207.267 179.188 207.142 179.449 206.936 179.64C206.731 179.83 206.461 179.936 206.181 179.936C205.9 179.936 205.631 179.83 205.425 179.64C205.22 179.449 205.094 179.188 205.074 178.908V172.044C205.075 171.9 205.105 171.757 205.162 171.625C205.219 171.492 205.301 171.372 205.404 171.271C205.507 171.17 205.629 171.091 205.763 171.037C205.896 170.983 206.04 170.956 206.184 170.958Z" fill="#263238"/>
<path d="M203.526 170.958C203.67 170.956 203.813 170.983 203.946 171.037C204.08 171.091 204.201 171.171 204.304 171.271C204.406 171.372 204.488 171.493 204.544 171.625C204.6 171.758 204.629 171.9 204.63 172.044V178.908C204.63 179.201 204.514 179.482 204.307 179.689C204.099 179.896 203.819 180.012 203.526 180.012C203.233 180.012 202.952 179.896 202.745 179.689C202.538 179.482 202.422 179.201 202.422 178.908V172.044C202.423 171.9 202.452 171.758 202.508 171.625C202.564 171.493 202.645 171.372 202.748 171.271C202.851 171.171 202.972 171.091 203.106 171.037C203.239 170.983 203.382 170.956 203.526 170.958Z" fill="#263238"/>
<path d="M201.63 170.958C201.601 171.062 201.601 171.172 201.63 171.276C201.732 171.376 201.813 171.496 201.868 171.628C201.924 171.759 201.953 171.901 201.954 172.044V178.908C201.953 179.051 201.924 179.193 201.868 179.324C201.813 179.456 201.732 179.576 201.63 179.676C201.15 179.903 200.624 180.012 200.094 179.994C198.846 179.994 198.054 179.508 198.324 178.908L201.156 172.044C201.341 171.694 201.499 171.331 201.63 170.958Z" fill="#263238"/>
<path d="M201.63 170.958C201.418 171.306 201.231 171.669 201.072 172.044L197.574 178.908C197.292 179.508 196.056 179.994 194.808 179.994C193.56 179.994 193.05 179.508 193.68 178.908L200.544 172.044L201.33 171.276C201.528 171.078 201.63 170.958 201.63 170.958Z" fill="#263238"/>
<path d="M201.63 170.958C201.517 171.049 201.411 171.147 201.312 171.252L200.544 172.044L193.68 178.908C193.08 179.508 192.594 179.01 192.594 177.708C192.594 176.406 193.08 175.176 193.68 174.906L200.544 171.474C200.918 171.33 201.281 171.157 201.63 170.958Z" fill="#263238"/>
<path d="M201.63 170.958C201.258 171.076 200.895 171.22 200.544 171.39L193.68 174.132C193.08 174.396 192.594 173.58 192.594 172.302C192.593 172.006 192.621 171.711 192.678 171.42C192.704 171.29 192.738 171.162 192.78 171.036C192.79 170.99 192.81 170.947 192.84 170.91L192.912 170.832C193.011 170.728 193.13 170.645 193.262 170.589C193.394 170.532 193.536 170.503 193.68 170.502H200.544C200.687 170.503 200.829 170.532 200.961 170.589C201.093 170.645 201.213 170.728 201.312 170.832L201.378 170.91C201.378 170.946 201.42 170.97 201.444 170.964H201.63V170.958Z" fill="#263238"/>
<path d="M201.63 168.918C201.633 169.063 201.608 169.208 201.555 169.344C201.502 169.479 201.423 169.603 201.322 169.708C201.221 169.813 201.1 169.897 200.967 169.955C200.833 170.013 200.689 170.044 200.544 170.046H193.68C193.394 170.025 193.127 169.897 192.932 169.687C192.737 169.477 192.628 169.201 192.628 168.915C192.628 168.629 192.737 168.353 192.932 168.143C193.127 167.933 193.394 167.805 193.68 167.784H200.544C200.69 167.787 200.834 167.819 200.967 167.878C201.1 167.936 201.221 168.021 201.322 168.126C201.423 168.231 201.502 168.355 201.555 168.491C201.608 168.627 201.633 168.772 201.63 168.918Z" fill="#263238"/>
<path d="M201.63 166.2C201.633 166.346 201.608 166.491 201.555 166.627C201.502 166.763 201.423 166.887 201.322 166.992C201.221 167.097 201.1 167.182 200.967 167.24C200.834 167.299 200.69 167.331 200.544 167.334H193.68C193.394 167.313 193.127 167.185 192.932 166.975C192.737 166.765 192.628 166.49 192.628 166.203C192.628 165.917 192.737 165.641 192.932 165.431C193.127 165.221 193.394 165.093 193.68 165.072H200.544C200.689 165.074 200.833 165.105 200.967 165.163C201.1 165.222 201.221 165.305 201.322 165.41C201.423 165.515 201.502 165.639 201.555 165.774C201.608 165.91 201.633 166.055 201.63 166.2Z" fill="#263238"/>
<path d="M201.63 163.488C201.633 163.634 201.608 163.779 201.555 163.915C201.502 164.051 201.423 164.175 201.322 164.28C201.221 164.385 201.1 164.47 200.967 164.528C200.834 164.587 200.69 164.619 200.544 164.622H193.68C193.394 164.601 193.127 164.473 192.932 164.263C192.737 164.053 192.628 163.778 192.628 163.491C192.628 163.205 192.737 162.929 192.932 162.719C193.127 162.509 193.394 162.381 193.68 162.36H200.544C200.689 162.362 200.833 162.393 200.967 162.451C201.1 162.51 201.221 162.593 201.322 162.698C201.423 162.803 201.502 162.927 201.555 163.062C201.608 163.198 201.633 163.343 201.63 163.488Z" fill="#263238"/>
<path d="M201.63 160.8C201.633 160.946 201.608 161.09 201.555 161.226C201.502 161.361 201.423 161.485 201.322 161.59C201.221 161.695 201.1 161.779 200.967 161.837C200.833 161.895 200.689 161.926 200.544 161.928H193.68C193.394 161.907 193.127 161.779 192.932 161.569C192.737 161.359 192.628 161.084 192.628 160.797C192.628 160.511 192.737 160.235 192.932 160.025C193.127 159.815 193.394 159.687 193.68 159.666H200.544C200.69 159.669 200.834 159.701 200.967 159.76C201.1 159.818 201.221 159.903 201.322 160.008C201.423 160.113 201.502 160.237 201.555 160.373C201.608 160.509 201.633 160.654 201.63 160.8Z" fill="#263238"/>
<path d="M201.63 158.058C201.633 158.204 201.608 158.349 201.555 158.485C201.502 158.621 201.423 158.745 201.322 158.85C201.221 158.955 201.1 159.04 200.967 159.098C200.834 159.157 200.69 159.189 200.544 159.192H193.68C193.394 159.171 193.127 159.043 192.932 158.833C192.737 158.623 192.628 158.348 192.628 158.061C192.628 157.775 192.737 157.499 192.932 157.289C193.127 157.079 193.394 156.951 193.68 156.93H200.544C200.689 156.932 200.833 156.963 200.967 157.022C201.1 157.08 201.221 157.163 201.322 157.268C201.423 157.373 201.502 157.497 201.555 157.632C201.608 157.768 201.633 157.913 201.63 158.058Z" fill="#263238"/>
<path d="M201.63 155.346C201.633 155.492 201.608 155.636 201.555 155.772C201.502 155.907 201.423 156.031 201.322 156.136C201.221 156.241 201.1 156.325 200.967 156.383C200.833 156.441 200.689 156.472 200.544 156.474H193.68C193.394 156.453 193.127 156.325 192.932 156.115C192.737 155.905 192.628 155.63 192.628 155.343C192.628 155.057 192.737 154.781 192.932 154.571C193.127 154.361 193.394 154.233 193.68 154.212H200.544C200.69 154.215 200.834 154.247 200.967 154.306C201.1 154.364 201.221 154.449 201.322 154.554C201.423 154.659 201.502 154.783 201.555 154.919C201.608 155.055 201.633 155.2 201.63 155.346Z" fill="#263238"/>
<path d="M201.63 151.962C201.629 152.258 201.599 152.554 201.54 152.844C201.516 152.974 201.484 153.102 201.444 153.228C201.433 153.273 201.41 153.315 201.378 153.348C201.359 153.378 201.337 153.407 201.312 153.432C201.213 153.536 201.094 153.619 200.962 153.675C200.83 153.732 200.688 153.761 200.544 153.762H193.68C193.536 153.761 193.394 153.732 193.262 153.675C193.131 153.619 193.011 153.536 192.912 153.432L192.84 153.348C192.84 153.318 192.798 153.294 192.78 153.3H192.6C192.974 153.189 193.338 153.044 193.686 152.868L200.55 150.132C201.144 149.862 201.63 150.684 201.63 151.962Z" fill="#263238"/>
<path d="M201.63 146.532C201.63 147.81 201.144 149.064 200.544 149.334L193.68 152.76C193.307 152.918 192.944 153.098 192.594 153.3C192.594 153.3 192.714 153.204 192.912 153.006L193.68 152.22L200.544 145.356C201.144 144.726 201.63 145.254 201.63 146.532Z" fill="#263238"/>
<path d="M199.488 144.27C200.688 144.27 201.168 144.756 200.544 145.356L193.68 152.22L192.888 153C192.784 153.098 192.686 153.203 192.594 153.312C192.808 152.965 192.999 152.605 193.164 152.232L196.764 145.368C197.07 144.756 198.288 144.27 199.488 144.27Z" fill="#263238"/>
<path d="M194.364 144.27C195.564 144.27 196.314 144.756 196.032 145.356L193.032 152.22C192.852 152.569 192.696 152.93 192.564 153.3C192.572 153.196 192.572 153.092 192.564 152.988V152.826C192.524 152.767 192.49 152.705 192.462 152.64C192.406 152.507 192.377 152.364 192.378 152.22V145.356C192.378 145.21 192.406 145.065 192.462 144.93C192.489 144.866 192.523 144.806 192.564 144.75C192.641 144.686 192.726 144.632 192.816 144.588C193.299 144.361 193.83 144.252 194.364 144.27Z" fill="#263238"/>
<path d="M190.914 144.27C191.199 144.273 191.472 144.389 191.672 144.593C191.872 144.796 191.983 145.071 191.982 145.356V152.22C191.982 152.503 191.869 152.775 191.669 152.975C191.469 153.175 191.197 153.288 190.914 153.288C190.63 153.288 190.359 153.175 190.159 152.975C189.958 152.775 189.846 152.503 189.846 152.22V145.356C189.844 145.071 189.956 144.796 190.156 144.593C190.356 144.389 190.628 144.273 190.914 144.27Z" fill="#263238"/>
<path d="M188.352 144.27C188.637 144.273 188.91 144.389 189.11 144.593C189.31 144.796 189.421 145.071 189.42 145.356V152.22C189.42 152.503 189.307 152.775 189.107 152.975C188.907 153.175 188.635 153.288 188.352 153.288C188.069 153.288 187.797 153.175 187.597 152.975C187.396 152.775 187.284 152.503 187.284 152.22V145.356C187.282 145.214 187.309 145.074 187.361 144.943C187.414 144.811 187.493 144.692 187.592 144.591C187.691 144.49 187.809 144.41 187.94 144.355C188.07 144.299 188.21 144.271 188.352 144.27Z" fill="#263238"/>
<path d="M185.79 144.27C186.075 144.273 186.348 144.389 186.548 144.593C186.748 144.796 186.859 145.071 186.858 145.356V152.22C186.859 152.361 186.832 152.501 186.778 152.631C186.725 152.762 186.647 152.881 186.548 152.981C186.448 153.081 186.33 153.161 186.2 153.216C186.07 153.271 185.931 153.299 185.79 153.3C185.648 153.3 185.508 153.272 185.377 153.218C185.247 153.163 185.128 153.084 185.028 152.983C184.928 152.883 184.849 152.764 184.796 152.633C184.742 152.502 184.715 152.361 184.716 152.22V145.356C184.715 145.214 184.742 145.074 184.796 144.942C184.849 144.811 184.928 144.691 185.028 144.591C185.128 144.49 185.246 144.409 185.377 144.354C185.508 144.299 185.648 144.271 185.79 144.27Z" fill="#263238"/>
<path d="M183.972 157.482V140.244C185.749 140.244 187.454 140.95 188.711 142.207C189.968 143.464 190.674 145.169 190.674 146.946V150.78C190.674 151.66 190.5 152.532 190.164 153.345C189.827 154.158 189.333 154.897 188.711 155.519C188.088 156.141 187.35 156.635 186.536 156.972C185.723 157.309 184.852 157.482 183.972 157.482Z" fill="white" stroke="#263238" stroke-linecap="round" stroke-linejoin="round"/>
<path d="M166.734 174.108L184.662 165.258C185.508 164.84 186.221 164.194 186.719 163.393C187.218 162.591 187.482 161.666 187.482 160.722V137.322C187.482 136.378 187.218 135.453 186.719 134.651C186.221 133.85 185.508 133.204 184.662 132.786L166.734 123.936V174.108Z" fill="white" stroke="#263238" stroke-linecap="round" stroke-linejoin="round"/>
<path d="M304.584 123.906H308.028" stroke="#263238" stroke-width="9" stroke-linecap="round" stroke-linejoin="round"/>
<path d="M278.154 165.276H291.942V123.906H304.584" stroke="#263238" stroke-width="4" stroke-linecap="round" stroke-linejoin="round"/>
<path d="M304.584 207.414H308.796" stroke="#263238" stroke-width="9" stroke-linecap="round" stroke-linejoin="round"/>
<path d="M275.472 177.918H291.558V207.414H304.584" stroke="#263238" stroke-width="4" stroke-linecap="round" stroke-linejoin="round"/>
<path d="M225.816 126.114H222.378V157.26" stroke="#263238" stroke-width="4" stroke-linecap="round" stroke-linejoin="round"/>
<path d="M228.491 126.114H225.815" stroke="#263238" stroke-width="7" stroke-linecap="round" stroke-linejoin="round"/>
<path d="M259.23 137.802H243.516V154.638H259.23V137.802Z" fill="#263238" stroke="#263238" stroke-linecap="round" stroke-linejoin="round"/>
<path d="M273.714 114.516H258.282V129.672H273.714V114.516Z" fill="#263238" stroke="#263238" stroke-linecap="round" stroke-linejoin="round"/>
<path d="M267.546 129.666H274.38C272.753 133.981 269.929 137.742 266.24 140.509C262.551 143.276 258.149 144.933 253.551 145.286C248.953 145.64 244.35 144.674 240.281 142.504C236.213 140.333 232.847 137.048 230.58 133.032C228.443 129.273 227.361 125.007 227.448 120.684C227.448 120.306 227.448 119.922 227.478 119.544C227.856 113.733 230.311 108.251 234.395 104.099C238.478 99.9475 243.919 97.4026 249.723 96.9289C255.527 96.4552 261.308 98.0844 266.011 101.519C270.714 104.954 274.025 109.965 275.34 115.638H267.54C266.619 115.638 265.707 115.819 264.856 116.172C264.005 116.524 263.232 117.041 262.581 117.692C261.929 118.344 261.413 119.117 261.06 119.968C260.708 120.819 260.526 121.731 260.526 122.652C260.526 123.573 260.708 124.485 261.06 125.336C261.413 126.187 261.929 126.96 262.581 127.612C263.232 128.263 264.005 128.78 264.856 129.132C265.707 129.485 266.619 129.666 267.54 129.666H267.546Z" fill="white" stroke="#263238" stroke-linecap="round" stroke-linejoin="round"/>
<path d="M253.512 122.088H260.532" stroke="#263238" stroke-linecap="round" stroke-linejoin="round"/>
<path d="M247.902 97.956V144.258" stroke="#263238" stroke-linecap="round" stroke-linejoin="round"/>
<path d="M247.338 128.262C250.748 128.262 253.512 125.498 253.512 122.088C253.512 118.678 250.748 115.914 247.338 115.914C243.928 115.914 241.164 118.678 241.164 122.088C241.164 125.498 243.928 128.262 247.338 128.262Z" fill="#263238" stroke="#263238" stroke-linecap="round" stroke-linejoin="round"/>
<path d="M250.428 122.088C250.428 121.477 250.247 120.879 249.907 120.371C249.567 119.862 249.084 119.466 248.519 119.233C247.954 118.999 247.333 118.938 246.733 119.058C246.133 119.178 245.583 119.472 245.151 119.905C244.719 120.338 244.425 120.889 244.307 121.489C244.188 122.089 244.25 122.71 244.485 123.275C244.72 123.839 245.117 124.321 245.626 124.66C246.135 124.999 246.733 125.179 247.344 125.178C247.75 125.178 248.151 125.098 248.526 124.943C248.9 124.787 249.24 124.56 249.527 124.273C249.813 123.986 250.04 123.645 250.195 123.27C250.35 122.895 250.429 122.494 250.428 122.088Z" fill="white" stroke="#263238" stroke-linecap="round" stroke-linejoin="round"/>
<path d="M268.104 125.172C269.807 125.172 271.188 123.791 271.188 122.088C271.188 120.385 269.807 119.004 268.104 119.004C266.401 119.004 265.02 120.385 265.02 122.088C265.02 123.791 266.401 125.172 268.104 125.172Z" fill="#005F9F"/>
<path d="M235.272 120.684V133.032H230.562C228.424 129.273 227.342 125.007 227.43 120.684H235.272Z" fill="#263238" stroke="#263238" stroke-linecap="round" stroke-linejoin="round"/>
<path d="M251.376 203.1V239.55" stroke="#263238" stroke-width="3" stroke-linecap="round" stroke-linejoin="round"/>
<path d="M251.376 228.306C256.552 228.306 260.748 224.11 260.748 218.934C260.748 213.758 256.552 209.562 251.376 209.562C246.2 209.562 242.004 213.758 242.004 218.934C242.004 224.11 246.2 228.306 251.376 228.306Z" fill="white" stroke="#263238" stroke-linecap="round" stroke-linejoin="round"/>
<path d="M251.376 242.178C253.861 242.178 255.876 240.163 255.876 237.678C255.876 235.193 253.861 233.178 251.376 233.178C248.891 233.178 246.876 235.193 246.876 237.678C246.876 240.163 248.891 242.178 251.376 242.178Z" fill="white" stroke="#263238" stroke-linecap="round" stroke-linejoin="round"/>
<path d="M284.946 160.968L274.596 191.814C271.71 200.406 262.962 206.274 253.044 206.274H249.702C239.784 206.274 231.036 200.406 228.156 191.814L217.8 160.968C216.228 156.282 220.104 151.554 225.51 151.554H277.236C282.648 151.554 286.518 156.282 284.946 160.968Z" fill="white" stroke="#263238" stroke-linecap="round" stroke-linejoin="round"/>
<path d="M280.62 163.86C279.366 163.518 278.03 163.667 276.882 164.276C275.734 164.884 274.861 165.907 274.44 167.136L266.076 191.568C265.668 192.759 265.715 194.058 266.207 195.216C266.698 196.374 267.6 197.31 268.74 197.844L270.54 198.702C272.339 196.704 273.713 194.36 274.578 191.814L283.674 164.7L280.62 163.86Z" fill="white" stroke="#263238" stroke-linecap="round" stroke-linejoin="round"/>
<path d="M228.054 167.136C227.633 165.907 226.76 164.884 225.612 164.276C224.464 163.667 223.127 163.518 221.874 163.86L219.03 164.634L228.156 191.814C229.004 194.326 230.351 196.64 232.116 198.618L233.754 197.844C234.889 197.306 235.786 196.368 236.274 195.211C236.762 194.053 236.807 192.756 236.4 191.568L228.054 167.136Z" fill="white" stroke="#263238" stroke-linecap="round" stroke-linejoin="round"/>
<path d="M267.6 151.554C267.477 152.693 266.937 153.747 266.084 154.512C265.231 155.278 264.126 155.701 262.98 155.7H238.98C237.834 155.701 236.728 155.278 235.875 154.512C235.023 153.747 234.483 152.693 234.36 151.554H267.6Z" fill="white" stroke="#263238" stroke-linecap="round" stroke-linejoin="round"/>
<path d="M251.4 206.1V155.7" stroke="#263238" stroke-linecap="round" stroke-linejoin="round"/>
<path d="M265.032 161.7H237.72C236.043 161.7 234.684 163.059 234.684 164.736V177.18C234.684 178.857 236.043 180.216 237.72 180.216H265.032C266.709 180.216 268.068 178.857 268.068 177.18V164.736C268.068 163.059 266.709 161.7 265.032 161.7Z" fill="#005F9F" stroke="#263238" stroke-linecap="round" stroke-linejoin="round"/>
<path d="M251.376 189.6C253.364 189.6 254.976 187.988 254.976 186C254.976 184.012 253.364 182.4 251.376 182.4C249.388 182.4 247.776 184.012 247.776 186C247.776 187.988 249.388 189.6 251.376 189.6Z" fill="#263238" stroke="#263238" stroke-linecap="round" stroke-linejoin="round"/>
<path d="M251.376 187.5C252.204 187.5 252.876 186.828 252.876 186C252.876 185.172 252.204 184.5 251.376 184.5C250.548 184.5 249.876 185.172 249.876 186C249.876 186.828 250.548 187.5 251.376 187.5Z" fill="#005F9F"/>
<path d="M397.374 87.162H314.376C310.068 87.162 306.576 90.6542 306.576 94.962V152.214C306.576 156.522 310.068 160.014 314.376 160.014H397.374C401.682 160.014 405.174 156.522 405.174 152.214V94.962C405.174 90.6542 401.682 87.162 397.374 87.162Z" fill="#263238" stroke="#263238" stroke-linecap="round" stroke-linejoin="round"/>
<path d="M395.467 91.608H316.285C313.216 91.608 310.729 94.0955 310.729 97.164V150.006C310.729 153.074 313.216 155.562 316.285 155.562H395.467C398.535 155.562 401.023 153.074 401.023 150.006V97.164C401.023 94.0955 398.535 91.608 395.467 91.608Z" fill="white" stroke="#263238" stroke-linecap="round" stroke-linejoin="round"/>
<path d="M394.002 102.294H322.41V104.904H394.002V102.294Z" fill="#E0E0E0"/>
<path d="M394.002 108.438H322.41V111.048H394.002V108.438Z" fill="#E0E0E0"/>
<path d="M394.002 114.582H322.41V117.192H394.002V114.582Z" fill="#E0E0E0"/>
<path d="M394.002 120.732H322.41V123.342H394.002V120.732Z" fill="#E0E0E0"/>
<path d="M394.002 126.876H322.41V129.486H394.002V126.876Z" fill="#E0E0E0"/>
<path d="M394.002 133.02H322.41V135.63H394.002V133.02Z" fill="#E0E0E0"/>
<path d="M394.002 139.164H322.41V141.774H394.002V139.164Z" fill="#E0E0E0"/>
<path d="M328.844 117.612H321.872V146.412H328.844V117.612Z" fill="#263238"/>
<path d="M340.506 125.688H333.534V146.412H340.506V125.688Z" fill="#005F9F"/>
<path d="M351.168 120.666H344.196V146.412H351.168V120.666Z" fill="#263238"/>
<path d="M361.836 131.076H354.864V146.418H361.836V131.076Z" fill="#005F9F"/>
<path d="M372.498 121.206H365.526V146.418H372.498V121.206Z" fill="#263238"/>
<path d="M383.166 114.564H376.194V146.412H383.166V114.564Z" fill="#005F9F"/>
<path d="M393.828 110.436H386.856V146.412H393.828V110.436Z" fill="#263238"/>
<path d="M317.13 102.78H319.512" stroke="#263238" stroke-linecap="round" stroke-linejoin="round"/>
<path d="M317.13 106.2H319.512" stroke="#263238" stroke-linecap="round" stroke-linejoin="round"/>
<path d="M317.13 109.626H319.512" stroke="#263238" stroke-linecap="round" stroke-linejoin="round"/>
<path d="M317.13 113.052H319.512" stroke="#263238" stroke-linecap="round" stroke-linejoin="round"/>
<path d="M317.13 116.478H319.512" stroke="#263238" stroke-linecap="round" stroke-linejoin="round"/>
<path d="M317.13 119.898H319.512" stroke="#263238" stroke-linecap="round" stroke-linejoin="round"/>
<path d="M317.13 123.324H319.512" stroke="#263238" stroke-linecap="round" stroke-linejoin="round"/>
<path d="M317.13 126.75H319.512" stroke="#263238" stroke-linecap="round" stroke-linejoin="round"/>
<path d="M317.13 130.176H319.512" stroke="#263238" stroke-linecap="round" stroke-linejoin="round"/>
<path d="M317.13 133.596H319.512" stroke="#263238" stroke-linecap="round" stroke-linejoin="round"/>
<path d="M317.13 137.022H319.512" stroke="#263238" stroke-linecap="round" stroke-linejoin="round"/>
<path d="M317.13 140.448H319.512" stroke="#263238" stroke-linecap="round" stroke-linejoin="round"/>
<path d="M317.13 143.874H319.512" stroke="#263238" stroke-linecap="round" stroke-linejoin="round"/>
<path d="M317.13 147.294H319.512" stroke="#263238" stroke-linecap="round" stroke-linejoin="round"/>
<path d="M394.026 148.278V150.66" stroke="#263238" stroke-linecap="round" stroke-linejoin="round"/>
<path d="M388.338 148.278V150.66" stroke="#263238" stroke-linecap="round" stroke-linejoin="round"/>
<path d="M382.65 148.278V150.66" stroke="#263238" stroke-linecap="round" stroke-linejoin="round"/>
<path d="M376.968 148.278V150.66" stroke="#263238" stroke-linecap="round" stroke-linejoin="round"/>
<path d="M371.28 148.278V150.66" stroke="#263238" stroke-linecap="round" stroke-linejoin="round"/>
<path d="M365.592 148.278V150.66" stroke="#263238" stroke-linecap="round" stroke-linejoin="round"/>
<path d="M359.91 148.278V150.66" stroke="#263238" stroke-linecap="round" stroke-linejoin="round"/>
<path d="M354.222 148.278V150.66" stroke="#263238" stroke-linecap="round" stroke-linejoin="round"/>
<path d="M348.534 148.278V150.66" stroke="#263238" stroke-linecap="round" stroke-linejoin="round"/>
<path d="M342.853 148.278V150.66" stroke="#263238" stroke-linecap="round" stroke-linejoin="round"/>
<path d="M337.164 148.278V150.66" stroke="#263238" stroke-linecap="round" stroke-linejoin="round"/>
<path d="M331.476 148.278V150.66" stroke="#263238" stroke-linecap="round" stroke-linejoin="round"/>
<path d="M325.788 148.278V150.66" stroke="#263238" stroke-linecap="round" stroke-linejoin="round"/>
<path d="M320.106 148.278V150.66" stroke="#263238" stroke-linecap="round" stroke-linejoin="round"/>
<path d="M363.552 96.348H347.604V98.964H363.552V96.348Z" fill="#263238"/>
<path d="M397.374 168.852H314.376C310.068 168.852 306.576 172.344 306.576 176.652V233.904C306.576 238.212 310.068 241.704 314.376 241.704H397.374C401.682 241.704 405.174 238.212 405.174 233.904V176.652C405.174 172.344 401.682 168.852 397.374 168.852Z" fill="#263238" stroke="#263238" stroke-linecap="round" stroke-linejoin="round"/>
<path d="M395.467 173.304H316.285C313.216 173.304 310.729 175.792 310.729 178.86V231.702C310.729 234.771 313.216 237.258 316.285 237.258H395.467C398.535 237.258 401.023 234.771 401.023 231.702V178.86C401.023 175.792 398.535 173.304 395.467 173.304Z" fill="white" stroke="#263238" stroke-linecap="round" stroke-linejoin="round"/>
<path d="M340.716 231.072C334.68 231.072 328.86 228.826 324.389 224.771C319.917 220.716 317.115 215.143 316.526 209.135C315.938 203.128 317.606 197.117 321.206 192.271C324.805 187.426 330.079 184.093 336 182.922L337.152 188.814C334.691 189.297 332.356 190.28 330.291 191.702C328.226 193.125 326.475 194.957 325.147 197.084C323.819 199.211 322.942 201.589 322.571 204.069C322.2 206.549 322.343 209.079 322.99 211.501C323.637 213.924 324.775 216.188 326.333 218.153C327.891 220.118 329.837 221.741 332.048 222.923C334.26 224.105 336.691 224.82 339.19 225.023C341.69 225.227 344.204 224.915 346.578 224.106L348.504 229.788C345.996 230.639 343.365 231.073 340.716 231.072Z" fill="#263238"/>
<path d="M357.93 200.544C356.437 196.441 353.529 193.005 349.729 190.855C345.929 188.704 341.486 187.981 337.2 188.814L336 182.922C341.699 181.813 347.606 182.775 352.659 185.635C357.711 188.495 361.576 193.065 363.558 198.522L357.93 200.544Z" fill="#005F9F"/>
<path d="M348.522 229.8L346.596 224.118C348.901 223.334 351.025 222.098 352.847 220.484C354.669 218.869 356.15 216.908 357.205 214.714C358.26 212.521 358.868 210.139 358.992 207.708C359.117 205.277 358.756 202.846 357.93 200.556L363.576 198.516C364.671 201.557 365.15 204.785 364.984 208.013C364.818 211.24 364.01 214.402 362.609 217.315C361.208 220.227 359.24 222.831 356.822 224.974C354.403 227.118 351.582 228.759 348.522 229.8Z" fill="#A8A8A8"/>
<path d="M379.914 188.04H373.17V194.784H379.914V188.04Z" fill="#263238"/>
<path d="M379.914 204.546H373.17V211.29H379.914V204.546Z" fill="#005F9F"/>
<path d="M379.914 221.058H373.17V227.802H379.914V221.058Z" fill="#A8A8A8"/>
<path d="M383.46 191.592H394.824" stroke="#263238" stroke-linecap="round" stroke-linejoin="round"/>
<path d="M383.46 207.564H394.824" stroke="#263238" stroke-linecap="round" stroke-linejoin="round"/>
<path d="M334.47 207.21H345.834" stroke="#263238" stroke-linecap="round" stroke-linejoin="round"/>
<path d="M383.46 224.25H394.824" stroke="#263238" stroke-linecap="round" stroke-linejoin="round"/>
</svg>
