<svg width="650" height="650" viewBox="0 0 650 650" fill="none" xmlns="http://www.w3.org/2000/svg">
<g clip-path="url(#clip0)">
<path opacity="0.7" d="M46.8654 217.217C46.8654 217.217 10.6214 310.817 61.5554 405.067C112.489 499.317 217.399 549.107 301.366 591.682C385.333 634.257 472.524 613.522 513.955 543.79C555.386 474.058 498.563 424.281 498.485 324.844C498.407 225.407 513.37 199.082 459.485 115.076C405.6 31.0702 273.507 12.4672 173.615 74.7762C73.7234 137.085 46.8654 217.217 46.8654 217.217Z" fill="white"/>
<path d="M483.964 602.29C483.964 602.29 600.184 443.183 528.164 320.892C456.144 198.601 313.131 282.529 285.896 168.402C258.661 54.2754 159.25 35.5554 64.9744 178.282C-29.3016 321.009 -6.74664 519.467 43.1734 602.29H483.964Z" fill="#005F9F"/>
<path opacity="0.7" d="M483.964 602.29C483.964 602.29 600.184 443.183 528.164 320.892C456.144 198.601 313.131 282.529 285.896 168.402C258.661 54.2754 159.25 35.5554 64.9744 178.282C-29.3016 321.009 -6.74664 519.467 43.1734 602.29H483.964Z" fill="white"/>
<path d="M67.1582 602.29H585.286" stroke="#263238" stroke-linecap="round" stroke-linejoin="round"/>
<path d="M118.6 186.446H151.035V173.42H118.6V186.446Z" stroke="#263238" stroke-linecap="round" stroke-linejoin="round"/>
<path d="M144.573 201.344H177.008V188.318H144.573V201.344Z" stroke="#263238" stroke-linecap="round" stroke-linejoin="round"/>
<path d="M219.024 285.818H251.459V272.792H219.024V285.818Z" stroke="#263238" stroke-linecap="round" stroke-linejoin="round"/>
<path d="M202.813 303.017H235.248V289.991H202.813V303.017Z" stroke="#263238" stroke-linecap="round" stroke-linejoin="round"/>
<path d="M102.376 408.174H134.811V395.148H102.376V408.174Z" stroke="#263238" stroke-linecap="round" stroke-linejoin="round"/>
<path d="M120.147 424.385H152.582V411.359H120.147V424.385Z" stroke="#263238" stroke-linecap="round" stroke-linejoin="round"/>
<path d="M309.075 439.868H341.51V426.842H309.075V439.868Z" stroke="#263238" stroke-linecap="round" stroke-linejoin="round"/>
<path d="M291.928 457.21H324.363V444.184H291.928V457.21Z" stroke="#263238" stroke-linecap="round" stroke-linejoin="round"/>
<path d="M112.631 525.291H145.066V512.265H112.631V525.291Z" stroke="#263238" stroke-linecap="round" stroke-linejoin="round"/>
<path d="M138.723 408.174H171.158V395.148H138.723V408.174Z" stroke="#263238" stroke-linecap="round" stroke-linejoin="round"/>
<path d="M292.902 357.292C261.364 357.643 228.864 357.643 198.314 357.292" stroke="#263238" stroke-linecap="round" stroke-linejoin="round"/>
<path d="M305.891 357.292H297.961" stroke="#263238" stroke-linecap="round" stroke-linejoin="round"/>
<path d="M563.42 541.463C531.882 541.814 499.382 541.814 468.832 541.463" stroke="#263238" stroke-linecap="round" stroke-linejoin="round"/>
<path d="M576.406 541.463H568.477" stroke="#263238" stroke-linecap="round" stroke-linejoin="round"/>
<path d="M428.662 144.69C397.124 145.041 364.624 145.041 334.074 144.69" stroke="#263238" stroke-linecap="round" stroke-linejoin="round"/>
<path d="M441.649 144.69H433.719" stroke="#263238" stroke-linecap="round" stroke-linejoin="round"/>
<path d="M148.538 240.344C134.672 240.578 120.835 240.625 107.029 240.487" stroke="#263238" stroke-linecap="round" stroke-linejoin="round"/>
<path d="M415.701 515.333C401.834 515.567 388.002 515.615 374.205 515.476" stroke="#263238" stroke-linecap="round" stroke-linejoin="round"/>
<path d="M143.611 491.764H148.083" stroke="#263238" stroke-linecap="round" stroke-linejoin="round"/>
<path d="M96.4863 491.764H138.528" stroke="#263238" stroke-linecap="round" stroke-linejoin="round"/>
<path d="M255.139 109.837H259.611" stroke="#263238" stroke-linecap="round" stroke-linejoin="round"/>
<path d="M208 109.837H250.042" stroke="#263238" stroke-linecap="round" stroke-linejoin="round"/>
<path d="M540.384 477.152H507.949V490.178H540.384V477.152Z" stroke="#263238" stroke-linecap="round" stroke-linejoin="round"/>
<path d="M514.41 462.254H481.975V475.28H514.41V462.254Z" stroke="#263238" stroke-linecap="round" stroke-linejoin="round"/>
<path d="M439.958 377.78H407.523V390.806H439.958V377.78Z" stroke="#263238" stroke-linecap="round" stroke-linejoin="round"/>
<path d="M456.171 360.581H423.736V373.607H456.171V360.581Z" stroke="#263238" stroke-linecap="round" stroke-linejoin="round"/>
<path d="M556.609 255.424H524.174V268.45H556.609V255.424Z" stroke="#263238" stroke-linecap="round" stroke-linejoin="round"/>
<path d="M538.837 239.213H506.402V252.239H538.837V239.213Z" stroke="#263238" stroke-linecap="round" stroke-linejoin="round"/>
<path d="M349.921 223.73H317.486V236.756H349.921V223.73Z" stroke="#263238" stroke-linecap="round" stroke-linejoin="round"/>
<path d="M367.056 206.388H334.621V219.414H367.056V206.388Z" stroke="#263238" stroke-linecap="round" stroke-linejoin="round"/>
<path d="M470.665 110.357H438.23V123.383H470.665V110.357Z" stroke="#263238" stroke-linecap="round" stroke-linejoin="round"/>
<path d="M520.261 255.424H487.826V268.45H520.261V255.424Z" stroke="#263238" stroke-linecap="round" stroke-linejoin="round"/>
<path d="M366.094 306.306C397.619 305.955 430.119 305.955 460.682 306.306" stroke="#263238" stroke-linecap="round" stroke-linejoin="round"/>
<path d="M353.107 306.306H361.024" stroke="#263238" stroke-linecap="round" stroke-linejoin="round"/>
<path d="M510.445 423.254C524.312 423.02 538.148 422.968 551.954 423.098" stroke="#263238" stroke-linecap="round" stroke-linejoin="round"/>
<path d="M515.372 171.834H510.9" stroke="#263238" stroke-linecap="round" stroke-linejoin="round"/>
<path d="M562.51 171.834H520.455" stroke="#263238" stroke-linecap="round" stroke-linejoin="round"/>
<path d="M459.837 267.8L438.101 251.29C438.101 251.29 411.789 201.5 410.294 199.68L402.416 209.859C402.416 209.859 417.262 253.214 419.459 259.259C421.656 265.304 430.691 272.129 435.059 276.77C439.427 281.411 456.756 293.605 456.756 293.605L459.837 267.8Z" fill="white" stroke="#263238" stroke-linecap="round" stroke-linejoin="round"/>
<path d="M351.6 413.777H331.567C325.534 413.777 319.73 411.468 315.345 407.325C310.96 403.182 308.327 397.518 307.985 391.495L306.893 372.255H376.261L375.169 391.495C374.83 397.517 372.199 403.181 367.816 407.324C363.433 411.468 357.631 413.776 351.6 413.777Z" fill="#263238"/>
<path d="M445.966 232.934C445.968 219.013 443.186 205.233 437.783 192.403C432.379 179.574 424.464 167.955 414.504 158.231C404.543 148.506 392.737 140.872 379.782 135.778C366.827 130.685 352.983 128.234 339.067 128.57C282.621 129.87 237.056 176.67 237.186 233.181C237.218 259.87 247.509 285.525 265.929 304.837C276.644 315.926 284.21 329.671 287.847 344.656L288.536 347.594H394.629L395.032 345.865C398.814 330.249 406.637 315.902 417.717 304.265C435.89 284.964 445.996 259.445 445.966 232.934Z" fill="white"/>
<path opacity="0.4" d="M339.067 128.57C282.621 129.87 237.056 176.67 237.186 233.181C237.218 259.87 247.509 285.524 265.929 304.837C276.644 315.926 284.21 329.671 287.847 344.656L288.536 347.594H394.629L395.032 345.865C398.814 330.246 406.642 315.898 417.73 304.265C431.786 289.256 441.096 270.429 444.49 250.147C447.885 229.866 445.213 209.034 436.81 190.265C428.407 171.497 414.647 155.629 397.258 144.653C379.869 133.677 359.625 128.082 339.067 128.57ZM341.238 317.2C322.806 317.197 304.788 311.729 289.464 301.487C274.139 291.245 262.196 276.689 255.144 259.659C248.092 242.629 246.249 223.891 249.846 205.813C253.444 187.736 262.321 171.131 275.355 158.098C288.39 145.066 304.996 136.191 323.074 132.596C341.152 129.001 359.89 130.847 376.919 137.901C393.948 144.956 408.502 156.901 418.742 172.227C428.982 187.553 434.448 205.571 434.448 224.003C434.448 236.243 432.037 248.363 427.352 259.671C422.668 270.979 415.802 281.253 407.146 289.908C398.491 298.562 388.215 305.427 376.907 310.109C365.598 314.792 353.478 317.202 341.238 317.2Z" fill="#005F9F"/>
<path d="M445.966 232.934C445.968 219.013 443.186 205.233 437.783 192.403C432.379 179.574 424.464 167.955 414.504 158.231C404.543 148.506 392.737 140.872 379.782 135.778C366.827 130.685 352.983 128.234 339.067 128.57C282.621 129.87 237.056 176.67 237.186 233.181C237.218 259.87 247.509 285.524 265.929 304.837C276.644 315.926 284.21 329.671 287.847 344.656L288.536 347.594H394.629L395.032 345.865C398.814 330.249 406.637 315.902 417.717 304.265C435.89 284.964 445.996 259.444 445.966 232.934V232.934Z" stroke="#263238" stroke-miterlimit="10"/>
<path d="M305.956 400.296H377.209C383.01 397.087 387.903 392.46 391.429 386.847C394.955 381.233 397 374.817 397.372 368.199L399.179 336.258H283.986L285.78 368.199C286.158 374.818 288.206 381.233 291.734 386.846C295.262 392.459 300.155 397.086 305.956 400.296Z" fill="#005F9F" stroke="#263238" stroke-linecap="round" stroke-linejoin="round"/>
<path d="M398.645 347.854L286.65 356.889C285.521 356.983 284.401 356.625 283.536 355.894C282.671 355.162 282.131 354.118 282.035 352.989C281.945 351.861 282.304 350.743 283.035 349.879C283.765 349.014 284.808 348.474 285.935 348.374L397.956 339.3C399.085 339.207 400.205 339.565 401.07 340.296C401.935 341.027 402.475 342.072 402.571 343.2C402.621 343.764 402.559 344.332 402.388 344.872C402.218 345.411 401.942 345.912 401.577 346.345C401.212 346.777 400.765 347.133 400.262 347.392C399.759 347.651 399.209 347.808 398.645 347.854Z" fill="#005F9F" stroke="#263238" stroke-linecap="round" stroke-linejoin="round"/>
<path d="M398.619 364.806L287.82 373.75C286.693 373.837 285.576 373.476 284.713 372.746C283.849 372.017 283.308 370.976 283.205 369.85C283.115 368.722 283.474 367.604 284.205 366.74C284.935 365.875 285.978 365.334 287.105 365.235L397.93 356.2C399.058 356.11 400.176 356.469 401.041 357.2C401.905 357.93 402.446 358.973 402.545 360.1C402.604 360.668 402.549 361.243 402.382 361.789C402.215 362.335 401.941 362.843 401.575 363.282C401.209 363.72 400.759 364.081 400.251 364.343C399.744 364.605 399.189 364.762 398.619 364.806Z" fill="#005F9F" stroke="#263238" stroke-linecap="round" stroke-linejoin="round"/>
<path d="M395.2 382.122L293.098 390.364C291.971 390.451 290.855 390.09 289.991 389.36C289.128 388.631 288.586 387.59 288.483 386.464C288.39 385.334 288.747 384.213 289.478 383.345C290.209 382.478 291.254 381.935 292.383 381.836L394.485 373.594C395.613 373.508 396.729 373.868 397.593 374.598C398.456 375.328 398.998 376.368 399.1 377.494C399.191 378.624 398.832 379.743 398.102 380.61C397.371 381.476 396.329 382.02 395.2 382.122Z" fill="#005F9F" stroke="#263238" stroke-linecap="round" stroke-linejoin="round"/>
<path d="M422.749 581.1C422.749 581.1 425.115 595.556 422.749 602.303H374.935C374.935 602.303 372.92 597.246 374.935 594.048C376.95 590.85 392.108 589.043 396.827 584.727C400.439 581.14 403.707 577.223 406.59 573.027L422.749 581.1Z" fill="#263238" stroke="#263238" stroke-miterlimit="10"/>
<path d="M374.037 599.742H423.385L423.801 602.29H374.037V599.742Z" fill="white" stroke="#263238" stroke-linecap="round" stroke-linejoin="round"/>
<path d="M411.256 579.332C411.256 579.332 406.758 580.411 406.251 580.632C405.744 580.853 401.376 587.535 396.995 588.718C392.614 589.901 388.233 589.667 388.909 591.799" stroke="white" stroke-linecap="round" stroke-linejoin="round"/>
<path d="M401.297 579.332L406.419 583.102" stroke="white" stroke-linecap="round" stroke-linejoin="round"/>
<path d="M398.918 582.634L403.858 586.261" stroke="white" stroke-linecap="round" stroke-linejoin="round"/>
<path d="M395.76 585.533L400.05 589.68" stroke="white" stroke-linecap="round" stroke-linejoin="round"/>
<path d="M391.432 587.652L393.291 591.747" stroke="white" stroke-linecap="round" stroke-linejoin="round"/>
<path d="M423.527 587.6C417.968 587.135 412.372 587.83 407.095 589.641C398.502 592.657 395.538 595.283 395.759 596.076C395.98 596.869 396.994 599.209 396.994 599.209H401.297C401.297 599.209 399.737 596.466 399.997 596.076C400.257 595.686 414.986 589.953 423.475 590.967L423.527 587.6Z" fill="white"/>
<path d="M492.597 602.29C492.597 602.29 494.442 595.257 492.284 592.644C488.384 587.964 492.752 584.038 488.865 582.413L487.24 584.298C486.928 582.387 487.838 576.563 480.636 575.796C471.927 574.886 471.757 581.217 471.289 583.31L471.433 580.385C467.715 580.385 469.638 584.09 464.009 590.161C462.535 591.795 461.414 593.715 460.716 595.802C460.018 597.889 459.759 600.098 459.953 602.29H492.597Z" fill="#263238" stroke="#263238" stroke-miterlimit="10"/>
<path d="M459.914 599.742H493.324L492.596 602.29H459.953L459.914 599.742Z" fill="white" stroke="#263238" stroke-linecap="round" stroke-linejoin="round"/>
<path d="M470.602 589.862C470.602 589.862 481.574 586.235 486.865 590.772" stroke="white" stroke-linecap="round" stroke-linejoin="round"/>
<path d="M470.602 587.47C470.602 587.47 480.248 584.415 486.865 588.497" stroke="white" stroke-linecap="round" stroke-linejoin="round"/>
<path d="M471.213 585.104C471.213 585.104 480.313 581.685 486.904 586.404" stroke="white" stroke-linecap="round" stroke-linejoin="round"/>
<path d="M464.009 590.2L465.101 591.266C465.248 591.412 465.34 591.605 465.361 591.811C465.383 592.017 465.332 592.224 465.218 592.397C463.766 594.587 462.988 597.154 462.982 599.781H461.383C461.74 597.217 462.522 594.73 463.697 592.423L462.878 591.591L464.009 590.2Z" fill="white"/>
<path d="M431.353 513.123C431.353 513.123 424.255 525.187 412.256 522.613" stroke="#263238" stroke-linecap="round" stroke-linejoin="round"/>
<path d="M438.855 375.804L434.201 385.645C421.417 413.092 411.047 441.601 403.209 470.847C402.923 471.926 396.839 493.467 401.714 547.118L398.932 556.53L401.974 572.13C401.974 572.13 397.398 578.734 397.567 580.905C397.567 580.905 408.851 583.011 412.621 585.026C415.546 586.599 424.321 595.296 424.321 595.296C426.817 594.776 427.025 584.688 427.025 584.688C427.025 584.688 432.225 495.144 433.746 491.27C435.267 487.396 444.406 470.782 458.693 432.705C458.693 432.705 459.018 485.888 462.84 499.343C466.233 511.316 462.216 544.843 462.216 544.843L464.504 582.127C464.504 582.127 456.47 590.473 462.983 592.722C462.983 592.722 467.338 584.337 479.753 582.439C486.058 581.464 493.923 592.67 493.923 592.67C496.679 591.786 492.753 577.707 492.753 577.707C501.541 511.342 495.054 523.354 496.809 490.906C497.94 470.106 503.842 381.004 496.913 373.776L438.855 375.804Z" fill="#757575"/>
<path opacity="0.2" d="M500.266 406.471C469.196 408.915 442.286 398.749 430.625 393.471C432.835 388.492 434.2 385.671 434.2 385.671L438.854 375.83L496.938 373.724C499.447 376.311 500.266 389.584 500.266 406.471Z" fill="black"/>
<path opacity="0.2" d="M458.471 433.329C444.327 470.925 435.253 487.383 433.771 491.218C432.913 493.441 430.833 523.848 429.221 549.38C427.35 526.162 425.439 501.657 425.322 496.847C424.971 487.279 431.886 474.149 432.926 470.756C433.966 467.363 431.626 463.697 431.626 463.697L444.067 448.019C443.651 442.689 450.229 419.419 450.229 419.419C454.09 423.176 457.6 431.054 458.471 433.329Z" fill="black"/>
<path d="M438.855 375.804L434.201 385.645C421.417 413.092 411.047 441.601 403.209 470.847C402.923 471.926 396.839 493.467 401.714 547.118L398.932 556.53L401.974 572.13C401.974 572.13 397.398 578.734 397.567 580.905C397.567 580.905 408.851 583.011 412.621 585.026C415.546 586.599 424.321 595.296 424.321 595.296C426.817 594.776 427.025 584.688 427.025 584.688C427.025 584.688 432.225 495.144 433.746 491.27C435.267 487.396 444.406 470.782 458.693 432.705C458.693 432.705 459.018 485.888 462.84 499.343C466.233 511.316 462.216 544.843 462.216 544.843L464.504 582.127C464.504 582.127 456.47 590.473 462.983 592.722C462.983 592.722 467.338 584.337 479.753 582.439C486.058 581.464 493.923 592.67 493.923 592.67C496.679 591.786 492.753 577.707 492.753 577.707C501.541 511.342 495.054 523.354 496.809 490.906C497.94 470.106 503.842 381.004 496.913 373.776L438.855 375.804Z" stroke="#263238" stroke-linecap="round" stroke-linejoin="round"/>
<path d="M458.719 432.653C458.719 432.653 451.621 418.951 445.562 415.129" stroke="#263238" stroke-linecap="round" stroke-linejoin="round"/>
<path d="M442.91 410.696C442.91 410.696 464.477 417.196 471.952 418.496" stroke="#263238" stroke-linecap="round" stroke-linejoin="round"/>
<path d="M453.947 388.7C453.011 406.666 446.68 409.721 452.803 413.634C452.803 413.634 452.634 422.032 455.676 427.362" stroke="#263238" stroke-linecap="round" stroke-linejoin="round"/>
<path d="M491.74 381.823C491.74 381.823 489.14 409.422 497.68 414.609" stroke="#263238" stroke-linecap="round" stroke-linejoin="round"/>
<path d="M497.68 390.715C497.68 390.715 498.317 409.084 497.68 423.891C497.68 423.891 495.561 486.46 493.442 494.325C491.323 502.19 496.705 514.033 496.237 548.015" stroke="#263238" stroke-linecap="round" stroke-linejoin="round"/>
<path d="M477.295 574.6C479.312 574.167 481.416 574.447 483.249 575.393" stroke="#263238" stroke-linecap="round" stroke-linejoin="round"/>
<path d="M464.529 582.049C467.187 579.462 470.264 577.343 473.629 575.783" stroke="#263238" stroke-linecap="round" stroke-linejoin="round"/>
<path d="M468.078 436.995C472.849 442.325 480.389 452.4 488.124 453.258" stroke="#263238" stroke-linecap="round" stroke-linejoin="round"/>
<path d="M460.746 428.285C462.202 430.144 463.723 431.951 465.257 433.745" stroke="#263238" stroke-linecap="round" stroke-linejoin="round"/>
<path d="M467.533 490.828C467.533 490.828 478.362 505.57 484.303 506.428" stroke="#263238" stroke-linecap="round" stroke-linejoin="round"/>
<path d="M454.794 429.988C454.794 429.988 435.515 483.704 428.794 489.008C428.794 489.008 428.027 528.502 427.819 542.308C427.611 556.114 424.426 574.444 424.426 574.444" stroke="#263238" stroke-linecap="round" stroke-linejoin="round"/>
<path d="M403.846 574.041C403.846 574.041 411.269 576.641 414.883 578.24C417.099 579.31 418.84 581.162 419.771 583.44" stroke="#263238" stroke-linecap="round" stroke-linejoin="round"/>
<path d="M422.631 469.638C433.031 463.138 446.642 455.026 452.141 443.573" stroke="#263238" stroke-linecap="round" stroke-linejoin="round"/>
<path d="M413.609 474.994C415.572 473.915 417.509 472.784 419.407 471.627" stroke="#263238" stroke-linecap="round" stroke-linejoin="round"/>
<path d="M446.238 395.941C451.802 395.863 457.938 395.122 462.657 392.041" stroke="#263238" stroke-linecap="round" stroke-linejoin="round"/>
<path d="M437.387 395.421C438.986 395.642 440.585 395.785 442.197 395.863" stroke="#263238" stroke-linecap="round" stroke-linejoin="round"/>
<path d="M466.221 278.967C466.221 278.967 498.955 269.672 517.779 279.747C522.459 282.243 533.158 290.368 532.781 300.105C532.404 309.842 501.425 355.173 501.802 361.205C502.179 367.237 501.802 382.837 499.514 383.903C497.226 384.969 447.514 386.412 435.242 383.253C430.341 381.953 439.974 358.8 439.974 358.8C439.974 358.8 449.36 308.555 466.221 278.967Z" fill="#005F9F" stroke="#263238" stroke-linecap="round" stroke-linejoin="round"/>
<path d="M512.826 277.238C512.826 277.238 492.13 285.519 485.344 276.861C486.496 276.927 487.646 276.701 488.687 276.203C489.728 275.705 490.626 274.952 491.298 274.014C492.367 272.367 492.948 270.452 492.975 268.489C493.079 266.955 490.037 247.273 491.298 245.505C510.369 218.855 514.581 257.985 514.581 257.985C514.581 257.985 507.834 274.781 512.826 277.238Z" fill="white" stroke="#263238" stroke-linecap="round" stroke-linejoin="round"/>
<path d="M498.33 266.565C498.33 266.565 497.03 272.714 491.297 274.014C492.366 272.367 492.948 270.452 492.974 268.489C494.814 268.011 496.606 267.367 498.33 266.565Z" fill="#263238"/>
<path d="M516.531 270.296L495.133 275.977V287.092C495.133 287.092 488.919 302.627 489.114 305.149C489.309 307.671 495.133 408.941 495.133 408.941C495.133 408.941 512.514 407.641 518.793 396.851C518.793 396.851 516.271 357.591 518.793 351.13C520.432 346.299 521.386 341.262 521.627 336.167C521.627 336.167 537.994 305.578 534.354 296.244C530.714 286.91 519.352 277.823 519.352 277.823L516.531 270.296Z" fill="#263238"/>
<path d="M497.602 277.563C497.602 277.563 501.125 289.081 501.567 288.847C502.009 288.613 514.242 283.647 517.544 278.733" stroke="white" stroke-linecap="round" stroke-linejoin="round"/>
<path d="M490.27 275.171C489.958 274.729 476.646 266.565 476.646 266.565L469.795 268.385L459.681 262.067C459.681 262.067 449.437 293.267 449.736 300.482C450.035 307.697 439.115 347.646 437.516 363.415C437.516 363.415 450.516 337.779 452.375 333.307C454.234 328.835 460.266 298.727 465.258 291.707C470.25 284.687 481.924 275.964 481.924 275.964L490.27 275.171Z" fill="#263238"/>
<path d="M515.321 255.333C516.305 252.726 516.695 249.933 516.465 247.156C515.061 227.435 510.407 222.846 502.724 224.133C474.033 228.917 482.535 243.477 481.443 248.313C480.351 253.149 476.243 253.513 476.828 255.71C477.049 256.581 480.429 256.672 480.429 256.672L480.637 261.222L481.937 261.534C481.937 261.534 482.977 271.934 485.616 273.091C488.957 274.612 498.941 268.58 498.915 264.836" fill="white"/>
<path d="M515.321 255.333C516.305 252.726 516.695 249.933 516.465 247.156C515.061 227.435 510.407 222.846 502.724 224.133C474.033 228.917 482.535 243.477 481.443 248.313C480.351 253.149 476.243 253.513 476.828 255.71C477.049 256.581 480.429 256.672 480.429 256.672L480.637 261.222L481.937 261.534C481.937 261.534 482.977 271.934 485.616 273.091C488.957 274.612 498.941 268.58 498.915 264.836" stroke="#263238" stroke-linecap="round" stroke-linejoin="round"/>
<path d="M483.68 241.228C483.68 241.228 487.71 240.409 489.725 243.633" stroke="#263238" stroke-linecap="round" stroke-linejoin="round"/>
<path d="M485.355 247.195C485.498 248.157 486.031 248.859 486.525 248.781C487.019 248.703 487.305 247.871 487.162 246.922C487.019 245.973 486.486 245.258 485.992 245.336C485.498 245.414 485.212 246.246 485.355 247.195Z" fill="#263238"/>
<path d="M481.924 261.534C484.041 261.538 486.148 261.232 488.177 260.624" stroke="#263238" stroke-linecap="round" stroke-linejoin="round"/>
<path d="M487.306 260.91C487.306 260.91 485.642 263.224 484.147 263.224C482.652 263.224 482.561 262.067 482.561 262.067" stroke="#263238" stroke-linecap="round" stroke-linejoin="round"/>
<path d="M517.05 227.24C517.05 227.24 518.48 221.117 504.206 220.298C493.065 219.661 482.886 220.636 479.129 227.851C475.372 235.066 475.762 241.553 481.131 242.385C481.597 239.707 482.599 237.15 484.075 234.868C485.552 232.585 487.473 230.623 489.724 229.099C489.724 229.099 486.604 237.159 491.297 241.137C492.326 242.024 493.5 242.727 494.768 243.217C495.112 243.907 495.549 244.545 496.068 245.115C498.33 247.715 498.421 253.097 498.421 253.097L500.605 251.797C500.605 251.797 497.433 243.399 506.65 245.375C511.382 246.389 510.55 252.109 511.239 255.671C511.928 259.233 513.839 260.208 513.839 260.208C515.981 257.795 517.663 255.01 518.805 251.992C518.805 251.992 523.511 248.638 523.511 243.711C523.511 238.784 522.185 230.776 517.05 227.24Z" fill="#263238"/>
<path d="M501.566 245.518C501.566 245.518 504.556 240.916 507.208 240.812C509.86 240.708 511.641 249.912 509.21 253.487C506.779 257.062 504.387 258.258 503.282 257.192C502.963 256.846 502.727 256.433 502.592 255.982C502.457 255.532 502.426 255.056 502.502 254.592" fill="white"/>
<path d="M501.566 245.518C501.566 245.518 504.556 240.916 507.208 240.812C509.86 240.708 511.641 249.912 509.21 253.487C506.779 257.062 504.387 258.258 503.282 257.192C502.963 256.846 502.727 256.433 502.592 255.982C502.457 255.532 502.426 255.056 502.502 254.592" stroke="#263238" stroke-linecap="round" stroke-linejoin="round"/>
<path d="M466.701 281.814C469.935 278.239 472.845 274.384 475.398 270.296" stroke="white" stroke-linecap="round" stroke-linejoin="round"/>
<path d="M466.701 270.296C468.535 270.996 470.069 272.31 471.043 274.014" stroke="white" stroke-linecap="round" stroke-linejoin="round"/>
<path d="M459.68 262.067L448.968 257.569L445.341 252.044C439.491 261.351 436.759 272.279 437.541 283.244L443.495 287.04L451.62 305.5L459.68 262.067Z" fill="#263238"/>
<path d="M498.499 305.5C498.499 305.5 509.264 320.684 503.973 327.106C501.49 330.135 479.559 337.415 479.559 337.415L413.779 333.515L391.887 337.415L389.443 337.61C389.223 337.336 389.063 337.018 388.973 336.679C388.884 336.339 388.867 335.984 388.923 335.637C388.98 335.29 389.108 334.959 389.301 334.665C389.493 334.371 389.745 334.121 390.041 333.931C390.041 333.931 388.858 331.071 389.352 330.434C390.847 328.523 397.659 325.39 397.659 325.39C397.659 325.39 389.794 327.353 393.031 323.128C395.241 320.255 403.639 319.657 407.513 317.122C410.698 315.029 407.916 303.42 414.832 305.5C413.654 308.647 413.209 312.022 413.532 315.367C413.636 316.212 413.818 320.372 413.818 320.372C417.328 324.389 454.963 319.189 458.2 319.072C461.437 318.955 477.205 316.576 477.205 316.576L498.499 305.5Z" fill="white" stroke="#263238" stroke-linecap="round" stroke-linejoin="round"/>
<path d="M403.468 320.723C403.853 321.536 404.058 322.423 404.066 323.323C403.897 324.181 401.583 325.806 401.583 325.806C401.449 326.628 401.449 327.467 401.583 328.289C401.843 328.887 399.1 331.019 399.1 331.786C398.863 332.682 398.457 333.525 397.904 334.269" stroke="#263238" stroke-linecap="round" stroke-linejoin="round"/>
<path d="M390 333.97C391.027 334.75 395.408 330.421 397.865 330.213" stroke="#263238" stroke-linecap="round" stroke-linejoin="round"/>
<path d="M395.772 334.568C393.972 335.698 392.048 336.618 390.039 337.311" stroke="#263238" stroke-linecap="round" stroke-linejoin="round"/>
<path d="M496.602 305.292L498.279 302.432C498.279 302.432 502.699 304.317 503.895 302.432C505.091 300.547 518.468 294.385 521.042 294.554" stroke="white" stroke-linecap="round" stroke-linejoin="round"/>
<path d="M502.061 330.2C502.061 330.2 505.311 333.541 506.169 332.124C507.027 330.707 518.649 330.096 523.498 326.079" stroke="white" stroke-linecap="round" stroke-linejoin="round"/>
<path d="M498.967 343.746C498.967 344.266 507.547 371.176 510.966 374.946" stroke="white" stroke-linecap="round" stroke-linejoin="round"/>
<path d="M481.482 346.489C480.455 347.178 460.513 363.805 452.141 363.974" stroke="#263238" stroke-linecap="round" stroke-linejoin="round"/>
<path d="M466.701 299.923C466.701 300.898 472.603 308.958 475.398 311.181" stroke="#263238" stroke-linecap="round" stroke-linejoin="round"/>
<path d="M388.362 388.115C391.833 388.115 386.516 393.731 386.516 393.731C386.398 397.825 385.598 401.872 384.15 405.704L394.914 422.344L385.658 429.702L376.259 410.618C376.259 410.618 368.056 407.68 370.032 402.818C371.254 399.75 375.232 399.412 375.232 399.412C379.144 395.138 383.552 391.345 388.362 388.115Z" fill="white" stroke="#263238" stroke-linecap="round" stroke-linejoin="round"/>
<path d="M379.223 419.77C379.223 419.77 384.878 411.06 390.923 411.632L393.198 416.832C393.198 416.832 396.929 417.027 399.178 422.331C401.427 427.635 413.894 442.377 413.894 442.377L395.837 461.11C395.837 461.11 380.757 429.416 381.537 424.268L379.223 419.77Z" fill="#BFBFBF"/>
<path opacity="0.2" d="M379.223 419.77C379.223 419.77 384.878 411.06 390.923 411.632L393.198 416.832C393.198 416.832 396.929 417.027 399.178 422.331C401.427 427.635 413.894 442.377 413.894 442.377L395.837 461.11C395.837 461.11 380.757 429.416 381.537 424.268L379.223 419.77Z" fill="black"/>
<path d="M379.223 419.77C379.223 419.77 384.878 411.06 390.923 411.632L393.198 416.832C393.198 416.832 396.929 417.027 399.178 422.331C401.427 427.635 413.894 442.377 413.894 442.377L395.837 461.11C395.837 461.11 380.757 429.416 381.537 424.268L379.223 419.77Z" stroke="#263238" stroke-linecap="round" stroke-linejoin="round"/>
<path d="M423.527 375.167C423.527 375.167 400.686 378.534 404.755 404.911C408.824 431.288 406.276 434.993 406.51 445.861C406.744 456.729 413.894 461.123 413.894 461.123L419.471 442.286C419.471 442.286 416.689 445.861 417.612 431.977C418.535 418.093 418.769 400.283 418.769 400.283" fill="#005F9F"/>
<path opacity="0.2" d="M423.527 375.167C423.527 375.167 400.686 378.534 404.755 404.911C408.824 431.288 406.276 434.993 406.51 445.861C406.744 456.729 413.894 461.123 413.894 461.123L419.471 442.286C419.471 442.286 416.689 445.861 417.612 431.977C418.535 418.093 418.769 400.283 418.769 400.283" fill="black"/>
<path d="M423.527 375.167C423.527 375.167 400.686 378.534 404.755 404.911C408.824 431.288 406.276 434.993 406.51 445.861C406.744 456.729 413.894 461.123 413.894 461.123L419.471 442.286C419.471 442.286 416.689 445.861 417.612 431.977C418.535 418.093 418.769 400.283 418.769 400.283" stroke="#263238" stroke-linecap="round" stroke-linejoin="round"/>
<path d="M409.5 415.714C409.5 415.714 412.1 430.014 410.202 439.92" stroke="#263238" stroke-linecap="round" stroke-linejoin="round"/>
<path d="M359.124 434.72C357.181 431.597 355.82 428.149 355.107 424.541C356.55 422.656 355.731 413.894 355.783 413.01C355.835 412.126 351.116 407.706 349.283 401.531C348.086 402.634 347.36 404.157 347.255 405.782C347.372 408.382 348.634 410.345 348.166 410.787C345.683 413.127 339.17 410.371 337.194 409.669C332.826 408.135 330.694 410.41 332.904 412.841C333.684 413.699 335.361 413.075 335.218 415.181C335.075 417.287 334.737 415.467 335.855 418.86C336.973 422.253 336.569 423.332 339.117 425.035L345.708 429.455L350.999 440.7L359.124 434.72Z" fill="white" stroke="#263238" stroke-linecap="round" stroke-linejoin="round"/>
<path d="M412.841 518.895C412.841 518.895 421.941 505.44 444.6 504.686C467.259 503.932 466.141 517.465 466.141 517.465C466.141 517.465 477.919 534.742 476.541 548.249C475.163 561.756 457.457 573.794 457.457 573.794C457.457 573.794 493.623 582.257 497.757 580.502C501.891 578.747 510.289 596.713 507.052 600.743C503.815 604.773 401.557 597.883 401.557 597.883C401.557 597.883 391.378 585.91 390.923 577.538C390.468 569.166 413.452 537.056 412.828 535.522C412.204 533.988 412.841 518.895 412.841 518.895Z" fill="#263238"/>
<path d="M451.165 534.157C451.165 534.157 454.194 559.221 441.311 563.576L398.866 580.645C398.866 580.645 457.925 585.754 466.921 583.934C475.917 582.114 488.54 600.366 488.54 600.366H380.77C362.401 600.366 351.91 585.819 355.615 574.106C359.32 562.393 409.604 527.891 409.604 527.891C409.604 527.891 407.004 515.242 434.577 505.934C459.459 497.536 451.165 534.157 451.165 534.157Z" fill="#263238"/>
<path d="M459.874 499.603C459.874 499.603 466.374 509.678 464.06 511.966C464.06 511.966 437.93 502.645 411.176 524.069C410.682 524.459 410.201 524.862 409.707 525.278L407.77 518.414L412.489 514.514C412.489 514.514 411.631 511.108 410.955 506.818C410.279 502.528 409.72 496.99 410.5 493.402C410.578 493.025 409.538 491.465 408.316 488.67C406.796 485.161 405.763 481.461 405.248 477.672C404.322 470.409 404.794 463.035 406.639 455.949C407.641 451.821 408.944 447.771 410.539 443.833C414.335 434.317 433.536 429.845 455.883 435.656C458.572 436.341 460.936 437.946 462.565 440.193C473.836 455.351 459.874 499.603 459.874 499.603Z" fill="#BFBFBF"/>
<path opacity="0.2" d="M405.236 477.698C404.31 470.434 404.783 463.061 406.627 455.975L411.359 454.467C411.359 454.467 414.44 463.307 405.236 477.698Z" fill="black"/>
<path opacity="0.2" d="M410.955 506.844C410.24 502.398 409.72 497.016 410.5 493.428C410.578 493.051 409.538 491.491 408.316 488.696C408.316 488.696 419.223 497.25 423.526 496.496C426.126 496.028 417.897 502.021 410.955 506.844Z" fill="black"/>
<path opacity="0.2" d="M459.876 499.603C459.876 499.603 466.376 509.678 464.062 511.966C464.062 511.966 437.932 502.645 411.178 524.069C416.3 517.569 424.178 510.055 433.85 507.819C451.738 503.698 458.719 504.283 458.719 504.283L452.921 496.769C452.921 496.769 433.421 496.769 423.528 481.962C428.656 483.654 434.003 484.591 439.401 484.744C446.681 484.9 455.274 478.803 457.887 476.801C455.664 478.257 448.787 480.909 437.347 469.495C423.203 455.351 422.501 429 452.921 436.371C456.298 437.216 459.54 438.529 462.554 440.271C473.838 455.351 459.876 499.603 459.876 499.603Z" fill="black"/>
<path d="M459.874 499.603C459.874 499.603 466.374 509.678 464.06 511.966C464.06 511.966 437.93 502.645 411.176 524.069C410.682 524.459 410.201 524.862 409.707 525.278L407.77 518.414L412.489 514.514C412.489 514.514 411.631 511.108 410.955 506.818C410.279 502.528 409.72 496.99 410.5 493.402C410.578 493.025 409.538 491.465 408.316 488.67C406.796 485.161 405.763 481.461 405.248 477.672C404.322 470.409 404.794 463.035 406.639 455.949C407.641 451.821 408.944 447.771 410.539 443.833C414.335 434.317 433.536 429.845 455.883 435.656C458.572 436.341 460.936 437.946 462.565 440.193C473.836 455.351 459.874 499.603 459.874 499.603Z" stroke="#263238" stroke-linecap="round" stroke-linejoin="round"/>
<path d="M461.265 544.414C461.499 553.436 448.408 562.692 440.959 561.99C440.959 561.99 428.518 571.09 414.127 574.509" stroke="white" stroke-linecap="round" stroke-linejoin="round"/>
<path d="M383.383 576.108C383.383 576.108 400.686 574.262 407.069 577.343C413.452 580.424 445.211 585.026 450.463 584.116" stroke="white" stroke-linecap="round" stroke-linejoin="round"/>
<path d="M438.75 525.278C438.75 525.278 447.226 523.497 453.557 525.278C453.557 525.278 454.48 534.768 453.557 540.02L446.355 543.712C443.773 542.923 441.235 541.999 438.75 540.943C438.282 540.475 438.334 530.764 437.697 528.918" stroke="white" stroke-linecap="round" stroke-linejoin="round"/>
<path d="M474.837 542.49L473.004 543.712L468.506 539.708C468.662 535.392 464.957 526.136 464.957 526.136C466.643 525.908 468.359 526.174 469.897 526.903" stroke="white" stroke-linecap="round" stroke-linejoin="round"/>
<path d="M458.041 559.455C459.633 560.443 461.407 561.101 463.258 561.392C465.109 561.682 467 561.598 468.818 561.145" stroke="white" stroke-linecap="round" stroke-linejoin="round"/>
<path d="M456.17 574.509C456.17 574.509 449.137 579.345 437.697 576.719" stroke="white" stroke-linecap="round" stroke-linejoin="round"/>
<path d="M437.696 560.989C437.696 560.989 427.023 557.479 424.553 552.526" stroke="white" stroke-linecap="round" stroke-linejoin="round"/>
<path d="M417.611 558.519C418.391 559.143 424.553 560.989 431.118 560.989" stroke="white" stroke-linecap="round" stroke-linejoin="round"/>
<path d="M380.77 570.557C380.77 570.557 386.152 571.857 387.543 573.794" stroke="white" stroke-linecap="round" stroke-linejoin="round"/>
<path d="M447.537 586.742C447.537 586.742 442.337 590.135 442.441 594.607" stroke="white" stroke-linecap="round" stroke-linejoin="round"/>
<path d="M488.891 586.924C489.177 579.475 496.054 582.569 496.054 582.569C496.054 582.569 501.085 575.172 505.96 576.901C510.835 578.63 512.096 581.191 519.844 583.921C527.592 586.651 538.122 584.506 540.982 591.877C543.842 599.248 540.189 603.382 522.704 602.03C505.219 600.678 500.604 600.119 500.604 600.119C500.604 600.119 488.306 601.9 488.891 586.924Z" fill="#005F9F" stroke="#263238" stroke-linecap="round" stroke-linejoin="round"/>
<path d="M495.69 585.351C495.547 586.929 495.792 588.518 496.404 589.98C497.015 591.441 497.976 592.731 499.2 593.736" stroke="#263238" stroke-linecap="round" stroke-linejoin="round"/>
<path d="M502.813 576.901C499.095 578.383 498.627 586.924 507.233 592.371C515.839 597.818 517.555 593.164 522.989 597.727C528.423 602.29 536.951 602.927 541.865 599.391C546.779 595.855 542.762 588.991 533.597 585.351C524.432 581.711 521.494 585.351 516.45 582.569C511.406 579.787 510.73 573.742 502.813 576.901Z" fill="#BFBFBF" stroke="#263238" stroke-linecap="round" stroke-linejoin="round"/>
<path d="M505.791 578.5C505.505 579.436 505.791 588.042 505.791 588.042" stroke="#263238" stroke-linecap="round" stroke-linejoin="round"/>
<path d="M510.119 578.955V591.877" stroke="#263238" stroke-linecap="round" stroke-linejoin="round"/>
<path d="M514.684 582.569V593.515" stroke="#263238" stroke-linecap="round" stroke-linejoin="round"/>
<path d="M519.7 585.351L519.115 593.736" stroke="#263238" stroke-linecap="round" stroke-linejoin="round"/>
<path d="M525.277 585.416V597.103" stroke="#263238" stroke-linecap="round" stroke-linejoin="round"/>
<path d="M530.738 586.599V599.391" stroke="#263238" stroke-linecap="round" stroke-linejoin="round"/>
<path d="M536.887 588.848L537.459 598.533" stroke="#263238" stroke-linecap="round" stroke-linejoin="round"/>
<path d="M472.056 580.19C467.227 581.134 462.616 582.968 458.458 585.598C458.458 585.598 455.715 581.555 453.141 585.494C450.567 589.433 452.439 603.265 458.458 600.496C458.458 600.496 467.051 603.33 484.393 601.601C501.735 599.872 485.251 590.33 485.251 590.33L472.056 580.19Z" fill="#005F9F" stroke="#263238" stroke-linecap="round" stroke-linejoin="round"/>
<path d="M473.642 580.281C466.895 578.903 463.099 590.408 466.284 595.881C469.469 601.354 472.16 601.393 484.172 601.393C496.184 601.393 508.17 601.822 507.429 590.304C506.688 578.786 490.269 581.711 486.356 583.167C482.443 584.623 477.243 581.022 473.642 580.281Z" fill="#BFBFBF" stroke="#263238" stroke-linecap="round" stroke-linejoin="round"/>
<path d="M471.496 582.829L472.172 598.312" stroke="#263238" stroke-linecap="round" stroke-linejoin="round"/>
<path d="M476.514 584.272L477.372 598.312" stroke="#263238" stroke-linecap="round" stroke-linejoin="round"/>
<path d="M480.816 584.987L481.674 599.027" stroke="#263238" stroke-linecap="round" stroke-linejoin="round"/>
<path d="M485.953 585.845L487.266 599.027" stroke="#263238" stroke-linecap="round" stroke-linejoin="round"/>
<path d="M491.127 584.272L492.336 599.027" stroke="#263238" stroke-linecap="round" stroke-linejoin="round"/>
<path d="M496.43 584.272L498.146 598.312" stroke="#263238" stroke-linecap="round" stroke-linejoin="round"/>
<path d="M501.592 584.987L503.022 596.011" stroke="#263238" stroke-linecap="round" stroke-linejoin="round"/>
<path d="M457.456 587.847C457.456 587.847 456.156 593.97 458.171 597.454" stroke="#263238" stroke-linecap="round" stroke-linejoin="round"/>
<path d="M421.954 431.925C420.654 432.172 411.697 432.471 407.927 433.732C398.346 436.904 373.984 457.47 373.984 457.47L357.24 427.908C357.24 427.908 349.947 426.608 346.346 433.108L348.257 438.607C347.644 440.984 347.184 443.399 346.879 445.835C346.437 451.763 359.242 482.625 365.469 484.445C375.219 487.292 402.038 467.012 402.038 467.012C402.038 467.012 413.283 459.511 414.427 452.517" fill="#BFBFBF"/>
<path d="M421.954 431.925C420.654 432.172 411.697 432.471 407.927 433.732C398.346 436.904 373.984 457.47 373.984 457.47L357.24 427.908C357.24 427.908 349.947 426.608 346.346 433.108L348.257 438.607C347.644 440.984 347.184 443.399 346.879 445.835C346.437 451.763 359.242 482.625 365.469 484.445C375.219 487.292 402.038 467.012 402.038 467.012C402.038 467.012 413.283 459.511 414.427 452.517" stroke="#263238" stroke-linecap="round" stroke-linejoin="round"/>
<path d="M411.086 384.046C417.521 371.553 429.286 375.908 429.286 375.908C452.192 371.553 452.894 398.229 454.974 412.308C457.054 426.387 464.633 429.611 466.778 441.415C467.116 444.256 467.063 447.129 466.622 449.956C466.335 448.703 465.594 447.601 464.542 446.862C464.984 462.124 455.949 469.69 455.377 470.132C461.773 461.344 460.993 455.65 460.993 455.65C458.523 464.594 448.955 473.395 448.955 473.395C448.955 473.395 440.791 471.549 436.956 459.654C433.563 449.072 429.052 445.354 428.779 445.185C431.882 451.258 434.173 457.714 435.591 464.386C431.106 457.793 427.062 450.909 423.488 443.781C407.563 413.4 409.5 400.751 409.5 400.751" fill="#005F9F"/>
<path opacity="0.2" d="M411.086 384.046C417.521 371.553 429.286 375.908 429.286 375.908C452.192 371.553 452.894 398.229 454.974 412.308C457.054 426.387 464.633 429.611 466.778 441.415C467.116 444.256 467.063 447.129 466.622 449.956C466.335 448.703 465.594 447.601 464.542 446.862C464.984 462.124 455.949 469.69 455.377 470.132C461.773 461.344 460.993 455.65 460.993 455.65C458.523 464.594 448.955 473.395 448.955 473.395C448.955 473.395 440.791 471.549 436.956 459.654C433.563 449.072 429.052 445.354 428.779 445.185C431.882 451.258 434.173 457.714 435.591 464.386C431.106 457.793 427.062 450.909 423.488 443.781C407.563 413.4 409.5 400.751 409.5 400.751" fill="black"/>
<path d="M411.086 384.046C417.521 371.553 429.286 375.908 429.286 375.908C452.192 371.553 452.894 398.229 454.974 412.308C457.054 426.387 464.633 429.611 466.778 441.415C467.116 444.256 467.063 447.129 466.622 449.956C466.335 448.703 465.594 447.601 464.542 446.862C464.984 462.124 455.949 469.69 455.377 470.132C461.773 461.344 460.993 455.65 460.993 455.65C458.523 464.594 448.955 473.395 448.955 473.395C448.955 473.395 440.791 471.549 436.956 459.654C433.563 449.072 429.052 445.354 428.779 445.185C431.882 451.258 434.173 457.714 435.591 464.386C431.106 457.793 427.062 450.909 423.488 443.781C407.563 413.4 409.5 400.751 409.5 400.751" stroke="#263238" stroke-linecap="round" stroke-linejoin="round"/>
<path d="M430.949 378.391C430.949 378.391 442.649 370.825 446.991 393.419C451.333 416.013 454.856 418.327 457.014 429.429C459.172 440.531 456.871 449.488 453.621 452.829" stroke="#263238" stroke-linecap="round" stroke-linejoin="round"/>
<path d="M432.496 382.083C436.513 389.649 439.594 399.828 440.829 418.639C442.064 437.45 441.648 456.872 449.149 462.592" stroke="#263238" stroke-linecap="round" stroke-linejoin="round"/>
<path d="M419.899 379.925C419.899 379.925 409.72 385.021 417.13 400.283C424.54 415.545 432.548 427.739 432.548 436.527C432.548 445.315 434.94 449.93 439.49 451.49" stroke="#263238" stroke-linecap="round" stroke-linejoin="round"/>
<path d="M386.517 393.731C386.517 393.731 383.605 398.359 383.436 399.724" stroke="#263238" stroke-linecap="round" stroke-linejoin="round"/>
<path d="M373.983 457.47C373.983 457.47 366.261 460.59 367.21 467.233" stroke="#263238" stroke-linecap="round" stroke-linejoin="round"/>
<path d="M365.299 456.3C365.299 456.3 368.159 453.375 370.499 454.48" stroke="#263238" stroke-linecap="round" stroke-linejoin="round"/>
<path d="M351.715 434.85C351.715 434.85 356.512 431.262 359.125 431.613" stroke="#263238" stroke-linecap="round" stroke-linejoin="round"/>
<path d="M393.198 416.845C390.155 417.579 387.334 419.033 384.969 421.083" stroke="#263238" stroke-linecap="round" stroke-linejoin="round"/>
<path d="M416.507 459.472C416.26 459.472 410.306 464.061 406.211 463.827" stroke="#263238" stroke-linecap="round" stroke-linejoin="round"/>
<path d="M421.707 479.18C421.707 480.818 437.307 499.252 454.441 496.483" stroke="#263238" stroke-linecap="round" stroke-linejoin="round"/>
<path d="M199.523 309.4C199.523 309.4 213.043 316.641 216.033 323.063C219.023 329.485 229.904 362.609 229.904 362.609C229.904 362.609 238.159 376.194 240.083 378.95C242.007 381.706 241.175 393.25 231.646 393.172C222.117 393.094 211.106 384.007 210.69 379.899C210.274 375.791 205.373 373.399 204.996 369.85C204.619 366.301 193.166 342.875 193.166 342.875L199.523 309.4Z" fill="#263238"/>
<path d="M214.772 583.362C214.772 583.362 212.731 595.894 214.772 601.744H256.216C256.216 601.744 257.971 597.35 256.216 594.594C254.461 591.838 241.331 590.252 237.249 586.508C234.117 583.396 231.284 579.996 228.786 576.355L214.772 583.362Z" fill="white" stroke="#263238" stroke-linecap="round" stroke-linejoin="round"/>
<path d="M256.997 599.534H214.24L213.863 601.744H256.997V599.534Z" fill="white" stroke="#263238" stroke-linecap="round" stroke-linejoin="round"/>
<path d="M224.744 581.841C224.744 581.841 228.644 582.777 229.073 582.933C229.502 583.089 233.311 588.913 237.107 589.927C240.903 590.941 244.686 590.759 244.101 592.605" stroke="#263238" stroke-linecap="round" stroke-linejoin="round"/>
<path d="M233.376 581.841L228.93 585.117" stroke="#263238" stroke-linecap="round" stroke-linejoin="round"/>
<path d="M235.429 584.714L231.152 587.847" stroke="#263238" stroke-linecap="round" stroke-linejoin="round"/>
<path d="M238.16 587.223L234.455 590.811" stroke="#263238" stroke-linecap="round" stroke-linejoin="round"/>
<path d="M241.917 589.043L240.305 592.605" stroke="#263238" stroke-linecap="round" stroke-linejoin="round"/>
<path d="M144.546 601.744C144.546 601.744 142.947 595.647 144.819 593.385C148.173 589.329 144.403 585.923 147.77 584.519L149.187 586.157C149.46 584.493 148.667 579.436 154.92 578.786C162.46 577.993 162.603 583.479 163.006 585.286L162.889 582.764C166.1 582.764 164.436 585.975 169.311 591.227C170.591 592.643 171.565 594.308 172.171 596.118C172.777 597.927 173.003 599.843 172.834 601.744H144.546Z" fill="white" stroke="#263238" stroke-linecap="round" stroke-linejoin="round"/>
<path d="M117.208 369.811C113.737 371.8 104.741 390.975 109.993 429C115.245 467.025 130.936 541.19 133.575 552.5C136.214 563.81 145.431 591.175 145.431 591.175C145.431 591.175 148.954 579.319 165.893 585.663C166.038 585.714 166.193 585.726 166.344 585.697C166.495 585.669 166.635 585.601 166.751 585.501C166.868 585.4 166.955 585.271 167.005 585.126C167.055 584.981 167.066 584.826 167.037 584.675L163.319 565.318C163.319 565.318 163.059 551.161 161.837 547.612C157.248 534.248 154.96 482.612 153.439 475.397C151.918 468.182 154.908 447.46 154.908 447.46C154.908 447.46 176.111 498.16 176.8 503.178C177.489 508.196 190.411 528.892 190.411 528.892L192.647 547.937C192.647 547.937 209.846 577.421 212.875 586.222L233.376 581.789L232.804 567.216L227.279 565.318L217.633 532.181C214.583 520.697 210.836 509.41 206.414 498.381C201.851 486.85 188.916 442.221 188.916 442.221C184.899 437.853 181.116 413.699 181.116 413.699L174.902 383.24L117.208 369.811Z" fill="#005F9F"/>
<path opacity="0.2" d="M177.88 397.891C167.48 403.442 144.782 414.115 134.486 407.459C125.841 401.869 116.065 392.886 110.098 387.088C112.1 376.545 115.402 370.864 117.209 369.811L174.903 383.279L177.88 397.891Z" fill="black"/>
<path opacity="0.2" d="M233.377 581.841L212.876 586.3C209.847 577.499 192.648 548.015 192.648 548.015L190.412 528.97C190.412 528.97 177.49 508.209 176.801 503.23C176.112 498.251 154.909 447.512 154.909 447.512C154.909 447.512 154.402 451.061 153.895 455.754C154.051 453.323 155.195 436.982 154.532 431.951L155.052 428.909C155.052 428.909 169.014 418.821 170.886 422.669C172.758 426.517 163.567 430.469 163.567 430.469C163.567 430.469 172.056 433.069 176.177 433.199C180.298 433.329 175.241 443.43 173.304 444.574C171.367 445.718 163.879 444.574 163.879 444.574C163.879 444.574 179.947 484.263 194.858 498.069C199.065 501.957 204.076 504.873 209.535 506.61C215.008 521.599 217.634 532.233 217.634 532.233L227.28 565.37L232.805 567.268L233.377 581.841Z" fill="black"/>
<path d="M117.208 369.811C113.737 371.8 104.741 390.975 109.993 429C115.245 467.025 130.936 541.19 133.575 552.5C136.214 563.81 145.431 591.175 145.431 591.175C145.431 591.175 148.954 579.319 165.893 585.663C166.038 585.714 166.193 585.726 166.344 585.697C166.495 585.669 166.635 585.601 166.751 585.501C166.868 585.4 166.955 585.271 167.005 585.126C167.055 584.981 167.066 584.826 167.037 584.675L163.319 565.318C163.319 565.318 163.059 551.161 161.837 547.612C157.248 534.248 154.96 482.612 153.439 475.397C151.918 468.182 154.908 447.46 154.908 447.46C154.908 447.46 176.111 498.16 176.8 503.178C177.489 508.196 190.411 528.892 190.411 528.892L192.647 547.937C192.647 547.937 209.846 577.421 212.875 586.222L233.376 581.789L232.804 567.216L227.279 565.318L217.633 532.181C214.583 520.697 210.836 509.41 206.414 498.381C201.851 486.85 188.916 442.221 188.916 442.221C184.899 437.853 181.116 413.699 181.116 413.699L174.902 383.24L117.208 369.811Z" stroke="#263238" stroke-linecap="round" stroke-linejoin="round"/>
<path d="M201.5 343.356C194.415 357.396 183.3 374.946 183.3 374.946L178.399 394.511C178.399 394.511 159.991 405.873 138.879 401.115C114.179 395.525 110.123 382.915 110.123 382.915L116.779 360.88C119.99 346.164 126.971 318.071 141.479 310.18C155.987 302.289 180.856 301.561 190.879 304.772C199.81 307.645 204.75 309.816 207.194 312.468C207.194 312.468 210.808 324.87 210.015 328.991C209.222 333.112 201.5 343.356 201.5 343.356Z" fill="#263238"/>
<path d="M172.861 599.534H143.91L144.547 601.744H172.835L172.861 599.534Z" fill="white" stroke="#263238" stroke-linecap="round" stroke-linejoin="round"/>
<path d="M163.565 590.967C163.565 590.967 154.075 587.834 149.486 591.76" stroke="#263238" stroke-linecap="round" stroke-linejoin="round"/>
<path d="M163.565 588.9C163.565 588.9 155.219 586.3 149.486 589.784" stroke="#263238" stroke-linecap="round" stroke-linejoin="round"/>
<path d="M163.084 586.846C163.084 586.846 155.284 583.882 149.486 587.938" stroke="#263238" stroke-linecap="round" stroke-linejoin="round"/>
<g opacity="0.96">
<path opacity="0.96" d="M161.837 426.296C160.706 426.556 138.853 434.525 134.537 442.494" stroke="#263238" stroke-linecap="round" stroke-linejoin="round"/>
<path opacity="0.96" d="M156.533 437.866C157.625 439.413 166.933 468.468 170.833 476.437C174.733 484.406 188.188 520.156 191.269 522.21C191.269 522.21 195.39 543.01 197.951 546.377C200.512 549.744 213.824 576.355 213.824 576.355" stroke="#263238" stroke-linecap="round" stroke-linejoin="round"/>
<path opacity="0.96" d="M228.787 576.355L212.654 579.813" stroke="#263238" stroke-linecap="round" stroke-linejoin="round"/>
<path opacity="0.96" d="M163.085 578.084C163.085 578.084 150.163 576.927 145.795 581.841" stroke="#263238" stroke-linecap="round" stroke-linejoin="round"/>
<path opacity="0.96" d="M148.199 441.207C147.12 447.382 130.922 481.585 127.061 477.724" stroke="#263238" stroke-linecap="round" stroke-linejoin="round"/>
<path opacity="0.96" d="M154.439 444.301C154.439 444.301 156.337 435.812 154.53 431.951C153.854 430.482 168.427 435.552 173.302 434.395" stroke="#263238" stroke-linecap="round" stroke-linejoin="round"/>
<path opacity="0.96" d="M156.532 402.272C156.532 402.272 153.932 409.578 153.36 411.892C152.788 414.206 158.001 423.215 156.532 425.009" stroke="#263238" stroke-linecap="round" stroke-linejoin="round"/>
<path opacity="0.96" d="M121.108 395.434C121.108 395.434 117.507 400.946 117.507 405.015C117.507 409.084 112.619 410.865 112.619 410.865" stroke="#263238" stroke-linecap="round" stroke-linejoin="round"/>
<path opacity="0.96" d="M113.438 389.415C110.734 401.534 110.455 414.069 112.619 426.296C116.22 446.615 122.135 488.007 124.449 498.55C126.763 509.093 132.171 532.753 132.171 536.094C132.171 539.435 137.592 558.467 137.592 558.467" stroke="#263238" stroke-linecap="round" stroke-linejoin="round"/>
<path opacity="0.96" d="M136.279 529.672C137.046 529.672 151.45 543.556 155.051 543.816" stroke="#263238" stroke-linecap="round" stroke-linejoin="round"/>
<path opacity="0.96" d="M199.277 521.183C200.057 521.443 212.134 527.358 212.654 525.551" stroke="#263238" stroke-linecap="round" stroke-linejoin="round"/>
</g>
<path d="M184.406 302.328C184.406 302.328 169.716 303.797 169.196 311.961C168.676 320.125 175.54 329.368 187.032 329.888C198.524 330.408 199.928 319.137 200.331 312.988C200.734 306.839 192.401 301.847 184.406 302.328Z" fill="white" stroke="#263238" stroke-linecap="round" stroke-linejoin="round"/>
<path d="M179.711 307.294C177.341 300.652 176.97 293.461 178.645 286.611C180.686 278.044 190.891 266.266 206.361 276.978C214.343 282.503 214.824 294.476 212.341 305.448C211.756 308.048 212.198 310.648 211.327 313.027C208.272 321.477 202.669 327.977 199.627 328.12C194.518 328.367 184.313 322.192 184.729 316.81" fill="white"/>
<path d="M179.711 307.294C177.341 300.652 176.97 293.461 178.645 286.611C180.686 278.044 190.891 266.266 206.361 276.978C214.343 282.503 214.824 294.476 212.341 305.448C211.756 308.048 212.198 310.648 211.327 313.027C208.272 321.477 202.669 327.977 199.627 328.12C194.518 328.367 184.313 322.192 184.729 316.81" stroke="#263238" stroke-linecap="round" stroke-linejoin="round"/>
<path d="M200.33 301.834C198.983 301.446 197.57 301.338 196.18 301.517C194.789 301.696 193.45 302.158 192.244 302.874" stroke="#263238" stroke-linecap="round" stroke-linejoin="round"/>
<path d="M208.117 301.6C208.117 301.6 211.237 300.04 213.317 300.443" stroke="#263238" stroke-linecap="round" stroke-linejoin="round"/>
<path d="M195.364 309.374C195.838 309.374 196.222 308.757 196.222 307.996C196.222 307.235 195.838 306.618 195.364 306.618C194.89 306.618 194.506 307.235 194.506 307.996C194.506 308.757 194.89 309.374 195.364 309.374Z" fill="#263238"/>
<path d="M208.118 308.607C208.592 308.607 208.976 307.99 208.976 307.229C208.976 306.468 208.592 305.851 208.118 305.851C207.644 305.851 207.26 306.468 207.26 307.229C207.26 307.99 207.644 308.607 208.118 308.607Z" fill="#263238"/>
<path d="M190.411 291.343L189.995 297.661C189.995 297.661 185.523 299.962 184.405 302.328C183.73 303.868 183.483 305.561 183.69 307.229C183.69 307.229 180.973 302.484 179.517 302.874C178.984 303.004 178.984 304.993 178.984 304.993C178.984 304.993 172.9 291.343 178.399 284.128C183.898 276.913 190.411 291.343 190.411 291.343Z" fill="#263238"/>
<path d="M181.78 305.851C181.78 305.851 180.558 301.275 176.437 300.053C172.316 298.831 175.137 309.816 178.647 311.272C182.157 312.728 183.041 313.716 183.249 312.416" fill="white"/>
<path d="M181.78 305.851C181.78 305.851 180.558 301.275 176.437 300.053C172.316 298.831 175.137 309.816 178.647 311.272C182.157 312.728 183.041 313.716 183.249 312.416" stroke="#263238" stroke-linecap="round" stroke-linejoin="round"/>
<path d="M205.114 307.996C204.927 309.53 205.261 311.082 206.063 312.403C206.337 312.795 206.48 313.264 206.471 313.743C206.462 314.221 206.302 314.684 206.013 315.066C205.724 315.447 205.321 315.727 204.863 315.865C204.405 316.004 203.915 315.993 203.463 315.835" stroke="#263238" stroke-linecap="round" stroke-linejoin="round"/>
<path d="M203.489 319.683C201.13 320.313 198.646 320.313 196.287 319.683" stroke="#263238" stroke-linecap="round" stroke-linejoin="round"/>
<path d="M190.411 291.343C190.411 291.343 200.915 293.878 207.311 293.033C213.707 292.188 217.711 289.25 216.736 282.529C215.761 275.808 208.169 272.701 195.702 270.569C183.443 268.476 170.599 277.654 176.436 288.86C182.273 300.066 190.411 291.343 190.411 291.343Z" fill="#263238"/>
<path d="M204.335 391.17C204.687 391.868 204.874 392.637 204.881 393.419C205.011 395.031 199.226 396.955 198.199 396.318C197.172 395.681 194.741 392.418 197.562 390.533C200.383 388.648 204.335 391.17 204.335 391.17Z" fill="white" stroke="#263238" stroke-linecap="round" stroke-linejoin="round"/>
<path d="M219.545 389.415C219.798 391.208 220.297 392.957 221.027 394.615C221.924 396.097 227.527 394.615 229.061 395.408C230.595 396.201 230.725 393.484 229.061 392.119C227.397 390.754 225.265 387.725 219.545 389.415Z" fill="white" stroke="#263238" stroke-linecap="round" stroke-linejoin="round"/>
<path d="M216.034 388.609H209.43V492.934H216.034V388.609Z" fill="#BFBFBF" stroke="#263238" stroke-linecap="round" stroke-linejoin="round"/>
<path d="M207.26 464.1H218.206C218.84 464.1 219.449 464.352 219.897 464.801C220.346 465.249 220.598 465.858 220.598 466.492V601.692H204.881V466.492C204.881 465.86 205.131 465.253 205.577 464.805C206.023 464.357 206.628 464.104 207.26 464.1Z" fill="#757575" stroke="#263238" stroke-linecap="round" stroke-linejoin="round"/>
<path d="M231.855 381.42H193.609C192.816 381.42 192.056 381.735 191.495 382.296C190.934 382.856 190.619 383.617 190.619 384.41V386.425C190.619 387.218 190.934 387.978 191.495 388.539C192.056 389.1 192.816 389.415 193.609 389.415H207.727V395.434H217.75V389.415H231.855C232.248 389.415 232.637 389.338 232.999 389.187C233.362 389.037 233.692 388.817 233.969 388.539C234.247 388.262 234.467 387.932 234.618 387.569C234.768 387.206 234.845 386.818 234.845 386.425V384.41C234.845 384.017 234.768 383.628 234.618 383.266C234.467 382.903 234.247 382.573 233.969 382.296C233.692 382.018 233.362 381.798 232.999 381.648C232.637 381.497 232.248 381.42 231.855 381.42Z" fill="#005F9F" stroke="#263238" stroke-linecap="round" stroke-linejoin="round"/>
<path d="M177.619 378.144C177.619 378.144 197.886 375.401 199.888 375.063C201.89 374.725 208.117 385.346 208.117 385.346L203.489 392.47C203.489 392.47 185.809 394.94 184.756 393.913C184.073 393.118 183.575 392.181 183.3 391.17C183.3 391.17 174.2 394.602 173.355 388.427C172.51 382.252 171.86 381.342 177.619 378.144Z" fill="white" stroke="#263238" stroke-linecap="round" stroke-linejoin="round"/>
<path d="M218.855 381.42C218.855 381.42 221.949 375.921 225.03 375.921C228.111 375.921 239.941 377.975 241.319 379.691C242.697 381.407 245.947 384.15 245.427 386.373C244.907 388.596 241.657 393.25 238.576 392.47C235.495 391.69 227.604 392.561 227.604 392.561C227.604 392.561 223.314 391.768 222.976 389.415L226.577 388.427C226.577 388.427 227.084 383.461 226.395 382.772C225.706 382.083 218.855 381.42 218.855 381.42Z" fill="white" stroke="#263238" stroke-linecap="round" stroke-linejoin="round"/>
<path d="M229.904 392.353C229.904 392.353 233.661 388.258 233.375 386.711C233.089 385.164 232.53 380.367 231.607 379.86" stroke="#263238" stroke-linecap="round" stroke-linejoin="round"/>
<path d="M235.105 392.145C235.105 392.145 237.887 391.001 237.887 388.427C237.814 386.358 237.579 384.297 237.185 382.265" stroke="#263238" stroke-linecap="round" stroke-linejoin="round"/>
<path d="M240.084 392.444C241.038 391.412 241.664 390.119 241.884 388.731C242.104 387.343 241.907 385.921 241.319 384.644" stroke="#263238" stroke-linecap="round" stroke-linejoin="round"/>
<path d="M200.199 392.6C200.199 392.6 203.423 388.271 202.903 386.1C202.19 383.943 201.285 381.855 200.199 379.86" stroke="#263238" stroke-linecap="round" stroke-linejoin="round"/>
<path d="M195.897 393.419C195.897 393.419 197.691 388.219 197.561 387.205C197.431 386.191 194.961 381.147 194.857 380.627" stroke="#263238" stroke-linecap="round" stroke-linejoin="round"/>
<path d="M190.619 393.9C191.776 392.015 194.519 391.3 192.413 387.153C190.307 383.006 189.332 382.213 189.332 382.213" stroke="#263238" stroke-linecap="round" stroke-linejoin="round"/>
<path d="M183.301 391.17C184.237 390.273 186.044 388.102 186.044 388.102C186.044 388.102 186.421 389.883 187.201 390.403" stroke="#263238" stroke-linecap="round" stroke-linejoin="round"/>
<path d="M192.139 598.975H233.999C234.561 598.975 235.1 599.198 235.498 599.596C235.895 599.993 236.118 600.532 236.118 601.094V602.277H190.527V600.6C190.526 600.387 190.566 600.176 190.646 599.979C190.727 599.782 190.845 599.603 190.995 599.452C191.145 599.301 191.323 599.181 191.519 599.099C191.716 599.017 191.927 598.975 192.139 598.975Z" fill="#263238"/>
<path d="M128.895 331.071C123.695 343.954 117.65 359.021 116.779 373.035C116.454 378.235 121.459 380.068 125.684 381.979C133.981 385.7 142.679 388.452 151.606 390.182C154.739 390.793 158.106 390.767 161.096 391.482C164.489 392.327 169.26 395.304 172.796 393.38" stroke="white" stroke-linecap="round" stroke-linejoin="round"/>
<path d="M153.31 338L146.511 352.625L142.143 361.4C143.771 363.045 145.878 364.132 148.162 364.507C149.212 364.651 150.219 365.018 151.116 365.583C152.013 366.148 152.778 366.898 153.362 367.783C153.362 367.783 170.483 375.18 172.797 375.102C175.111 375.024 176.983 372.801 178.881 375.973" stroke="white" stroke-linecap="round" stroke-linejoin="round"/>
<path d="M142.142 361.4C142.142 361.4 132.886 358.306 129.545 361.4" stroke="white" stroke-linecap="round" stroke-linejoin="round"/>
<path d="M143.689 315.9C144.456 315.289 153.868 325.572 154.44 333.294" stroke="white" stroke-linecap="round" stroke-linejoin="round"/>
<path d="M156.793 338C156.793 338 154.271 343.2 150.137 344.825" stroke="white" stroke-linecap="round" stroke-linejoin="round"/>
<path d="M208.988 338.975C208.988 338.975 203.788 347.893 198.406 349.375" stroke="white" stroke-linecap="round" stroke-linejoin="round"/>
<path d="M210.223 369.811C210.223 369.811 217.49 364.221 222.365 364.455" stroke="white" stroke-linecap="round" stroke-linejoin="round"/>
<path d="M208.117 347.1C208.117 347.1 203.606 350.792 200.252 349.414" stroke="white" stroke-linecap="round" stroke-linejoin="round"/>
<path d="M216.139 592.631C252.656 592.631 246.754 601.731 283.986 601.731C321.218 601.731 343.786 602.277 343.786 407.277" stroke="#263238" stroke-width="3" stroke-linecap="round" stroke-linejoin="round"/>
</g>
<defs>
<clipPath id="clip0">
<rect width="650" height="650" fill="white"/>
</clipPath>
</defs>
</svg>
