<svg width="768" height="566" viewBox="0 0 768 566" fill="none" xmlns="http://www.w3.org/2000/svg">
<path d="M205.742 381.32C156.141 340.419 7.07663 224.841 57.898 98.0346C110.804 -34.2075 218.081 -15.463 345.51 55.1286C464.506 121.072 486.705 -26.2598 647.677 62.945C783.971 138.485 797.362 396.727 563.276 471.087C421.16 516.223 261.822 427.543 205.742 381.32Z" fill="#005F9F"/>
<path opacity="0.9" d="M205.742 381.32C156.141 340.419 7.07663 224.841 57.898 98.0346C110.804 -34.2075 218.081 -15.463 345.51 55.1286C464.506 121.072 486.705 -26.2598 647.677 62.945C783.971 138.485 797.362 396.727 563.276 471.087C421.16 516.223 261.822 427.543 205.742 381.32Z" fill="white"/>
<path d="M375.521 565.071C576.633 565.071 739.666 555.571 739.666 543.853C739.666 532.134 576.633 522.634 375.521 522.634C174.41 522.634 11.377 532.134 11.377 543.853C11.377 555.571 174.41 565.071 375.521 565.071Z" fill="#F5F5F5"/>
<path d="M137.791 542.784L90.4633 525.389L42.6093 542.803C42.2263 542.942 41.8154 542.986 41.4115 542.932C41.0076 542.879 40.6226 542.729 40.2891 542.495C39.9556 542.262 39.6834 541.952 39.4955 541.591C39.3077 541.23 39.2097 540.829 39.21 540.423C39.209 539.941 39.3466 539.47 39.6063 539.065C39.866 538.659 40.2369 538.337 40.6749 538.136L90.4633 515.005L139.745 538.061C140.181 538.264 140.551 538.587 140.81 538.992C141.07 539.396 141.208 539.867 141.21 540.348C141.22 540.761 141.129 541.171 140.944 541.541C140.759 541.912 140.486 542.231 140.149 542.472C139.811 542.712 139.42 542.866 139.009 542.921C138.598 542.975 138.18 542.929 137.791 542.784Z" fill="#263238"/>
<path opacity="0.3" d="M137.791 542.784L90.4633 525.389L42.6093 542.803C42.2263 542.942 41.8154 542.986 41.4115 542.932C41.0076 542.879 40.6226 542.729 40.2891 542.495C39.9556 542.262 39.6834 541.952 39.4955 541.591C39.3077 541.23 39.2097 540.829 39.21 540.423C39.209 539.941 39.3466 539.47 39.6063 539.065C39.866 538.659 40.2369 538.337 40.6749 538.136L90.4633 515.005L139.745 538.061C140.181 538.264 140.551 538.587 140.81 538.992C141.07 539.396 141.208 539.867 141.21 540.348C141.22 540.761 141.129 541.171 140.944 541.541C140.759 541.912 140.486 542.231 140.149 542.472C139.811 542.712 139.42 542.866 139.009 542.921C138.598 542.975 138.18 542.929 137.791 542.784Z" fill="white"/>
<path opacity="0.2" d="M79.3076 529.438L90.4635 525.389L101.094 529.307V520.047L90.4635 515.08L79.3076 520.235V529.438Z" fill="black"/>
<path d="M90.201 543.122C89.1538 543.133 88.1398 542.755 87.3556 542.063C86.5714 541.37 86.0728 540.411 85.9565 539.373L84.623 525.371V409.155H95.7226V525.371L94.3891 539.373C94.2778 540.403 93.7885 541.357 93.0153 542.049C92.242 542.741 91.2396 543.123 90.201 543.122Z" fill="#263238"/>
<path opacity="0.3" d="M90.201 543.122C89.1538 543.133 88.1398 542.755 87.3556 542.063C86.5714 541.37 86.0728 540.411 85.9565 539.373L84.623 525.371V409.155H95.7226V525.371L94.3891 539.373C94.2778 540.403 93.7885 541.357 93.0153 542.049C92.242 542.741 91.2396 543.123 90.201 543.122Z" fill="white"/>
<path opacity="0.2" d="M95.7219 409.136H84.6787V422.67H95.7219V409.136Z" fill="black"/>
<path d="M65.4466 289.378C66.3028 289.356 67.1485 289.57 67.8907 289.997C68.6329 290.423 69.2428 291.046 69.6535 291.796C89.8623 325.587 97.1214 365.541 90.0872 404.263C89.98 405.24 89.5249 406.147 88.8045 406.818C88.0841 407.488 87.1465 407.879 86.162 407.918C83.1007 408.143 28.5983 407.918 26.6263 407.918C25.8189 407.937 25.0171 407.778 24.2784 407.452C23.5397 407.127 22.8822 406.642 22.3528 406.033C21.8236 405.424 21.4355 404.706 21.2165 403.93C20.9975 403.155 20.9529 402.34 21.0859 401.545C27.451 365.492 20.5618 328.358 1.68513 296.969C1.24863 296.189 1.02767 295.307 1.04488 294.414C1.06208 293.521 1.31684 292.648 1.78305 291.885C2.24927 291.122 2.9102 290.497 3.69819 290.073C4.48619 289.649 5.37295 289.441 6.26769 289.472C7.84529 289.34 61.9721 289.434 65.4466 289.378Z" fill="#005F9F"/>
<path opacity="0.2" d="M65.4466 289.378C66.3028 289.356 67.1485 289.57 67.8907 289.997C68.6329 290.423 69.2428 291.046 69.6535 291.796C89.8623 325.587 97.1214 365.541 90.0872 404.263C89.98 405.24 89.5249 406.147 88.8045 406.818C88.0841 407.488 87.1465 407.879 86.162 407.918C83.1007 408.143 28.5983 407.918 26.6263 407.918C25.8189 407.937 25.0171 407.778 24.2784 407.452C23.5397 407.127 22.8822 406.642 22.3528 406.033C21.8236 405.424 21.4355 404.706 21.2165 403.93C20.9975 403.155 20.9529 402.34 21.0859 401.545C27.451 365.492 20.5618 328.358 1.68513 296.969C1.24863 296.189 1.02767 295.307 1.04488 294.414C1.06208 293.521 1.31684 292.648 1.78305 291.885C2.24927 291.122 2.9102 290.497 3.69819 290.073C4.48619 289.649 5.37295 289.441 6.26769 289.472C7.84529 289.34 61.9721 289.434 65.4466 289.378Z" fill="black"/>
<path d="M21.0866 401.507C27.4517 365.455 20.5626 328.32 1.68587 296.932C-1.69471 291.309 7.11357 286.192 10.4941 291.796C30.6932 325.591 37.9516 365.541 30.9279 404.263C29.7634 410.692 19.9222 408.012 21.0866 401.564V401.507Z" fill="#005F9F"/>
<g opacity="0.1">
<path opacity="0.1" d="M21.0866 401.507C27.4517 365.455 20.5626 328.32 1.68587 296.932C-1.69471 291.309 7.11357 286.192 10.4941 291.796C30.6932 325.591 37.9516 365.541 30.9279 404.263C29.7634 410.692 19.9222 408.012 21.0866 401.564V401.507Z" fill="white"/>
</g>
<path d="M191.13 398.564C178.634 395.389 165.82 393.629 152.929 393.316C139.651 392.979 90.0128 393.316 78.2184 393.316C63.841 393.296 49.518 395.078 35.5855 398.621C26.8336 400.851 29.5193 413.448 37.4636 413.616C38.1585 413.616 188.275 413.616 188.82 413.616C196.952 413.916 199.976 400.833 191.13 398.564Z" fill="#005F9F"/>
<path opacity="0.3" d="M191.13 398.564C178.634 395.389 165.82 393.629 152.929 393.316C139.651 392.979 90.0128 393.316 78.2184 393.316C63.841 393.296 49.518 395.078 35.5855 398.621C26.8336 400.851 29.5193 413.448 37.4636 413.616C38.1585 413.616 188.275 413.616 188.82 413.616C196.952 413.916 199.976 400.833 191.13 398.564Z" fill="black"/>
<path d="M39.5485 413.279C64.8562 406.85 91.3743 406.85 116.682 413.279C126.223 415.697 130.298 400.982 120.757 398.564C92.7789 391.479 63.4704 391.479 35.4918 398.564C25.951 400.982 29.989 415.697 39.5485 413.279Z" fill="#005F9F"/>
<g opacity="0.3">
<path opacity="0.3" d="M39.5485 413.279C64.8562 406.85 91.3743 406.85 116.682 413.279C126.223 415.697 130.298 400.982 120.757 398.564C92.7789 391.479 63.4704 391.479 35.4918 398.564C25.951 400.982 29.989 415.697 39.5485 413.279Z" fill="white"/>
</g>
<path d="M177.72 318.901L194.979 318.169L200.144 314.87C200.746 314.481 201.422 314.22 202.13 314.104C202.838 313.988 203.562 314.019 204.257 314.196L208.013 315.114C208.962 315.351 209.957 315.321 210.889 315.026C211.821 314.732 212.652 314.184 213.291 313.446C213.804 312.85 214.177 312.147 214.382 311.388C214.588 310.63 214.62 309.835 214.478 309.062C214.336 308.289 214.022 307.558 213.56 306.922C213.098 306.286 212.499 305.761 211.807 305.386L206.173 302.349C205.294 301.871 204.297 301.654 203.298 301.723C202.3 301.793 201.342 302.147 200.539 302.743L191.449 309.453L177.757 308.497L177.72 318.901Z" fill="#EBB376"/>
<path d="M159.033 252.133L153.061 304.617L186.66 307.017L185.176 319.069C185.176 319.069 151.201 324.993 138.75 321.6C126.298 318.207 142.881 261.411 142.881 261.411L159.033 252.133Z" fill="#005F9F"/>
<path opacity="0.2" d="M159.033 252.133L153.061 304.617L186.66 307.017L185.176 319.069C185.176 319.069 151.201 324.993 138.75 321.6C126.298 318.207 142.881 261.411 142.881 261.411L159.033 252.133Z" fill="white"/>
<path opacity="0.1" d="M148.253 316.876C139.482 312.321 151.258 268.628 155.408 254.232L142.881 261.449C142.881 261.449 126.298 318.245 138.75 321.637C146.412 323.718 162.188 322.293 173.213 320.869C165.7 320.869 154.713 320.231 148.253 316.876Z" fill="black"/>
<path d="M129.303 354.702C104.496 359.32 79.198 360.743 54.0283 358.939C54.0283 358.939 59.8129 291.74 80.3217 254.963C83.5842 249.121 88.9584 244.743 95.3465 242.723C110.071 238.149 133.754 234.044 158.958 252.095C159.033 252.133 146.281 275.863 129.303 354.702Z" fill="#005F9F"/>
<path opacity="0.4" d="M129.303 354.702C104.496 359.32 79.198 360.743 54.0283 358.939C54.0283 358.939 59.8129 291.74 80.3217 254.963C83.5842 249.121 88.9584 244.743 95.3465 242.723C110.071 238.149 133.754 234.044 158.958 252.095C159.033 252.133 146.281 275.863 129.303 354.702Z" fill="white"/>
<path d="M141.548 268.872C141.548 269.272 141.429 269.663 141.206 269.996C140.983 270.329 140.666 270.589 140.296 270.742C139.925 270.895 139.517 270.935 139.124 270.857C138.73 270.779 138.369 270.586 138.085 270.303C137.802 270.02 137.608 269.659 137.53 269.267C137.452 268.874 137.492 268.467 137.646 268.097C137.799 267.727 138.059 267.411 138.393 267.188C138.726 266.966 139.118 266.847 139.52 266.847C140.057 266.847 140.573 267.06 140.954 267.44C141.334 267.82 141.548 268.335 141.548 268.872Z" fill="#005F9F"/>
<path d="M134.411 289.509C134.411 289.91 134.292 290.301 134.069 290.634C133.846 290.967 133.53 291.226 133.159 291.38C132.788 291.533 132.381 291.573 131.987 291.495C131.594 291.417 131.232 291.224 130.949 290.941C130.665 290.658 130.472 290.297 130.393 289.904C130.315 289.512 130.355 289.104 130.509 288.735C130.662 288.365 130.922 288.048 131.256 287.826C131.59 287.604 131.982 287.485 132.383 287.485C132.921 287.485 133.437 287.698 133.817 288.078C134.197 288.457 134.411 288.972 134.411 289.509Z" fill="#005F9F"/>
<path d="M125.903 318.901C127.024 318.901 127.932 317.994 127.932 316.876C127.932 315.758 127.024 314.852 125.903 314.852C124.783 314.852 123.875 315.758 123.875 316.876C123.875 317.994 124.783 318.901 125.903 318.901Z" fill="#005F9F"/>
<path d="M122.598 339.651C122.601 340.052 122.486 340.445 122.265 340.78C122.044 341.116 121.729 341.378 121.359 341.534C120.988 341.69 120.58 341.733 120.185 341.657C119.791 341.581 119.427 341.39 119.142 341.108C118.856 340.825 118.661 340.464 118.581 340.071C118.502 339.678 118.541 339.27 118.694 338.899C118.847 338.528 119.107 338.211 119.44 337.987C119.774 337.764 120.167 337.645 120.569 337.645C121.104 337.645 121.617 337.856 121.997 338.231C122.377 338.607 122.593 339.117 122.598 339.651Z" fill="#005F9F"/>
<path opacity="0.1" d="M144.046 294.851L118.541 300.587L98.4458 295.076L90.5202 272.47L88.8111 259.762H83.1768C83.1768 259.762 77.7867 300.25 96.192 316.876C107.667 327.242 126.411 320.494 138.881 313.933C140.697 306.885 142.418 300.525 144.046 294.851Z" fill="black"/>
<path d="M160.554 476.916L151.708 515.361L162.695 519.616L178.508 480.946L160.554 476.916Z" fill="#EBB376"/>
<path d="M162.056 517.086L152.083 511.762C151.871 511.653 151.628 511.617 151.393 511.661C151.159 511.705 150.945 511.827 150.788 512.006L143.67 520.235C143.516 520.405 143.398 520.604 143.322 520.82C143.247 521.036 143.215 521.265 143.229 521.494C143.243 521.723 143.302 521.946 143.404 522.151C143.505 522.357 143.647 522.54 143.82 522.69C143.911 522.777 144.011 522.853 144.12 522.915C148.308 525.071 152.121 526.833 157.267 529.607C163.371 532.887 161.418 532.775 168.536 536.73C172.818 539.11 176.255 534.631 174.545 533.412C166.751 527.789 165.7 524.04 164.085 519.279C163.692 518.33 162.972 517.552 162.056 517.086Z" fill="#263238"/>
<path d="M71.5509 357.664L125.396 354.703C125.396 354.703 215 368.686 213.667 393.691C212.333 418.696 176.105 497.535 176.105 497.535L154.732 491.612C154.732 491.612 171.015 412.342 181.626 399.202C181.626 399.202 114.71 391.367 97.957 386.924C88.6604 384.469 66.4425 388.611 71.5509 357.664Z" fill="#263238"/>
<path opacity="0.2" d="M172.48 398.115C172.805 390.702 171.397 383.315 168.367 376.54C163.39 365.293 122.372 358.564 102.746 355.921L71.551 357.627C66.4426 388.574 88.6605 384.431 97.8444 386.887C110.803 390.354 153.568 395.809 172.48 398.115Z" fill="black"/>
<path d="M123.912 487.507L122.504 526.926L134.392 527.489L142.299 488.069L123.912 487.507Z" fill="#EBB376"/>
<path d="M133.548 523.909L122.016 524.152C121.773 524.153 121.537 524.241 121.351 524.398C121.166 524.556 121.042 524.774 121.002 525.014L118.786 535.849C118.71 536.309 118.808 536.781 119.061 537.172C119.315 537.564 119.705 537.847 120.157 537.967H120.533C125.341 537.798 129.585 537.461 135.557 537.348C142.619 537.217 140.835 538.098 149.136 538.061C154.132 538.061 154.939 532.437 152.892 532.119C143.183 531.088 140.328 528.182 136.534 524.79C135.684 524.134 134.619 523.82 133.548 523.909Z" fill="#263238"/>
<path d="M85.9563 357.664C85.9563 357.664 158.15 360.213 162.414 382.257C166.677 404.3 142.45 503.046 142.45 503.046H120.814C120.814 503.046 123.349 414.46 130.58 395.809C130.58 395.809 71.1193 405.181 55.456 391.667C44.1874 382.051 57.5782 357.664 57.5782 357.664H85.9563Z" fill="#263238"/>
<path d="M152.929 486.945L179.842 494.424L174.921 504.752L150.394 498.679L152.929 486.945Z" fill="#263238"/>
<path opacity="0.3" d="M152.929 486.945L179.842 494.424L174.921 504.752L150.394 498.679L152.929 486.945Z" fill="black"/>
<path d="M151.689 287.447L173.194 280.381L186.96 286.529C187.606 286.813 188.173 287.25 188.612 287.802C189.05 288.354 189.347 289.004 189.477 289.697L190.923 297.513C191.042 298.139 191.021 298.783 190.861 299.4C190.702 300.017 190.408 300.591 190.001 301.081C189.594 301.572 189.083 301.967 188.506 302.238C187.928 302.509 187.298 302.649 186.66 302.649C185.646 302.646 184.665 302.295 183.88 301.656L171.785 291.684L153.004 299.181L151.689 287.447Z" fill="#EBB376"/>
<path d="M118.673 497.535L145.868 498.81L143.313 509.625L118.673 508.351V497.535Z" fill="#263238"/>
<path opacity="0.3" d="M118.673 497.535L145.868 498.81L143.313 509.625L118.673 508.351V497.535Z" fill="black"/>
<path d="M84.5661 252.133C88.7543 245.872 95.4215 239.33 112.306 294.514L162.958 282.086L164.442 295.864C164.442 295.864 123.123 317.963 106.54 314.87C89.9563 311.778 73.0534 269.34 84.5661 252.133Z" fill="#005F9F"/>
<path opacity="0.2" d="M84.5661 252.133C88.7543 245.872 95.4215 239.33 112.306 294.514L162.958 282.086L164.442 295.864C164.442 295.864 123.123 317.963 106.54 314.87C89.9563 311.778 73.0534 269.34 84.5661 252.133Z" fill="white"/>
<path d="M137.51 232.92L127.913 241.898C127.913 241.898 131.669 253.539 141.229 253.539C150.788 253.539 144.985 238.805 144.985 238.805L137.51 232.92Z" fill="#EBB376"/>
<path d="M142.581 260.287L147.239 257.85L149.211 254.888L148.385 245.703C140.689 241.841 132.3 239.547 123.706 238.955L123.35 243.229L128.552 258.225L134.618 260.23L142.581 260.287Z" fill="#EBB376"/>
<path opacity="0.1" d="M145.003 238.805L137.491 232.92L136.214 234.101C135.481 238.487 134.636 247.597 139.501 251.177C140.251 251.787 141.138 252.208 142.086 252.403C143.034 252.599 144.015 252.564 144.947 252.301C148.929 248.834 145.003 238.805 145.003 238.805Z" fill="black"/>
<path d="M139.914 261.449L147.126 265.198C152.197 259.181 150.882 250.746 149.774 246.341C148.929 245.891 148.084 245.46 147.239 245.066C148.197 251.72 147.427 259.031 139.482 259.256C127.03 259.631 125.171 243.735 124.889 238.974L122.204 238.806C118.26 256.407 129.303 265.198 129.303 265.198L139.914 261.449Z" fill="#005F9F"/>
<path opacity="0.2" d="M139.914 261.449L147.126 265.198C152.197 259.181 150.882 250.746 149.774 246.341C148.929 245.891 148.084 245.46 147.239 245.066C148.197 251.72 147.427 259.031 139.482 259.256C127.03 259.631 125.171 243.735 124.889 238.974L122.204 238.806C118.26 256.407 129.303 265.198 129.303 265.198L139.914 261.449Z" fill="white"/>
<path d="M170.715 210.651C177.589 215.094 175.56 226.228 168.386 230.802C166.358 218.055 170.715 210.651 170.715 210.651Z" fill="#263238"/>
<path opacity="0.4" d="M170.715 210.651C177.589 215.094 175.56 226.228 168.386 230.802C166.358 218.055 170.715 210.651 170.715 210.651Z" fill="black"/>
<path d="M139.238 217.98C136.665 229.714 134.543 236.425 138.619 244.223C140.506 247.912 143.784 250.702 147.731 251.982C151.678 253.261 155.973 252.924 159.672 251.046C162.499 249.596 164.822 247.329 166.339 244.541C171.748 235 175.054 217.418 165.194 209.246C163.108 207.414 160.576 206.163 157.851 205.619C155.127 205.075 152.308 205.257 149.676 206.146C147.045 207.036 144.695 208.601 142.862 210.685C141.03 212.769 139.78 215.298 139.238 218.018V217.98Z" fill="#EBB376"/>
<path d="M137.998 228.927C144.29 232.151 148.328 221.148 147.389 215.806C155.558 221.429 173.926 220.567 179.316 213.126C185.195 204.972 176.368 198.13 168.386 195.6C167.863 195.462 167.317 195.434 166.783 195.517C166.249 195.6 165.738 195.794 165.283 196.084C164.827 196.375 164.437 196.757 164.137 197.206C163.837 197.655 163.634 198.161 163.54 198.692C163.454 199.055 163.249 199.378 162.958 199.611C161.272 198.175 159.44 196.918 157.493 195.862C156.13 195.193 154.589 194.974 153.094 195.237C151.598 195.5 150.225 196.231 149.173 197.324C148.234 198.168 145.98 198.336 141.435 196.818C132.045 193.631 130.411 203.866 134.993 205.853C130.843 208.383 123.987 215.337 127.687 221.448C131.387 227.559 134.561 235.638 132.476 236.969C134.448 237.737 137.848 235.713 137.998 228.927Z" fill="#263238"/>
<path d="M132.12 226.34C132.182 229.027 133.247 231.594 135.106 233.538C137.567 236.031 140.403 234.157 141.041 230.839C141.605 227.84 141.041 222.948 137.886 221.711C134.731 220.473 132.101 222.985 132.12 226.34Z" fill="#EBB376"/>
<path d="M155.615 226.772C155.352 227.709 155.615 228.646 156.253 228.777C156.892 228.908 157.568 228.365 157.85 227.428C158.131 226.49 157.85 225.553 157.192 225.441C156.535 225.328 155.878 225.834 155.615 226.772Z" fill="#263238"/>
<path d="M166.114 230.089C165.851 231.027 166.114 231.964 166.752 232.076C167.391 232.189 168.067 231.664 168.349 230.727C168.63 229.789 168.349 228.852 167.691 228.74C167.034 228.627 166.395 229.208 166.114 230.089Z" fill="#263238"/>
<path d="M162.639 229.546C162.941 232.75 163.661 235.9 164.78 238.918C164.005 239.172 163.183 239.255 162.373 239.161C161.562 239.068 160.781 238.799 160.085 238.374L162.639 229.546Z" fill="#D58745"/>
<path d="M153.361 222.31C153.266 222.293 153.177 222.254 153.098 222.198C152.994 222.09 152.936 221.945 152.936 221.795C152.936 221.645 152.994 221.5 153.098 221.392C153.816 220.832 154.659 220.454 155.556 220.291C156.452 220.128 157.375 220.184 158.244 220.455C158.313 220.482 158.377 220.522 158.43 220.573C158.484 220.625 158.527 220.686 158.556 220.754C158.586 220.822 158.602 220.895 158.603 220.969C158.604 221.043 158.591 221.117 158.564 221.186C158.537 221.255 158.496 221.318 158.445 221.371C158.393 221.425 158.332 221.467 158.264 221.497C158.196 221.527 158.122 221.543 158.048 221.544C157.974 221.545 157.9 221.532 157.831 221.504C157.156 221.293 156.44 221.247 155.744 221.371C155.047 221.495 154.391 221.785 153.831 222.217C153.766 222.27 153.69 222.306 153.608 222.322C153.526 222.339 153.441 222.335 153.361 222.31Z" fill="#263238"/>
<path d="M171.653 227.971C171.569 227.93 171.496 227.87 171.441 227.795C171.385 227.72 171.349 227.632 171.334 227.54C171.234 226.817 170.968 226.126 170.558 225.522C170.148 224.917 169.603 224.415 168.967 224.054C168.841 223.966 168.754 223.833 168.726 223.682C168.697 223.53 168.73 223.374 168.817 223.248C168.885 223.146 168.984 223.069 169.099 223.029C169.214 222.988 169.339 222.986 169.456 223.023C170.259 223.461 170.947 224.081 171.466 224.833C171.984 225.585 172.319 226.448 172.442 227.353C172.456 227.425 172.455 227.5 172.439 227.572C172.424 227.644 172.395 227.713 172.353 227.774C172.311 227.835 172.257 227.887 172.195 227.927C172.133 227.967 172.064 227.995 171.991 228.009C171.877 228.024 171.761 228.011 171.653 227.971Z" fill="#263238"/>
<path d="M154.789 241.561C155.311 241.712 155.845 241.819 156.385 241.88C156.467 241.896 156.553 241.88 156.623 241.834C156.693 241.789 156.743 241.718 156.761 241.636C156.766 241.593 156.762 241.549 156.75 241.507C156.737 241.465 156.716 241.426 156.688 241.393C156.66 241.359 156.625 241.332 156.586 241.313C156.547 241.293 156.504 241.282 156.46 241.28C155.099 241.13 153.791 240.665 152.64 239.924C151.489 239.182 150.528 238.183 149.83 237.006C149.812 236.967 149.787 236.933 149.755 236.904C149.723 236.876 149.686 236.854 149.646 236.84C149.606 236.826 149.563 236.82 149.521 236.823C149.478 236.826 149.437 236.837 149.399 236.856C149.358 236.872 149.321 236.896 149.291 236.927C149.261 236.959 149.238 236.996 149.224 237.037C149.209 237.078 149.204 237.122 149.208 237.165C149.213 237.208 149.226 237.25 149.248 237.287C149.838 238.334 150.632 239.251 151.584 239.985C152.536 240.72 153.625 241.255 154.789 241.561Z" fill="#263238"/>
<path d="M136.552 206.228C135.236 205.902 134.03 205.232 133.059 204.286C132.089 203.341 131.389 202.154 131.031 200.848C130.95 200.602 130.797 200.385 130.592 200.227C130.387 200.068 130.139 199.975 129.88 199.959C129.621 199.943 129.363 200.004 129.14 200.136C128.916 200.268 128.738 200.464 128.627 200.698C127.03 204.091 126.298 208.777 136.552 206.228Z" fill="#2E353A"/>
<path d="M215.92 220.567H210.53C208.232 220.606 206.029 221.483 204.336 223.034C202.644 224.586 201.58 226.702 201.346 228.983L196.669 281.468C196.536 282.541 196.637 283.63 196.965 284.661C197.294 285.692 197.841 286.639 198.571 287.439C199.301 288.238 200.195 288.871 201.193 289.293C202.19 289.715 203.268 289.917 204.351 289.884H209.741L215.92 220.567Z" fill="#005F9F"/>
<path opacity="0.3" d="M215.92 220.567H210.53C208.232 220.606 206.029 221.483 204.336 223.034C202.644 224.586 201.58 226.702 201.346 228.983L196.669 281.468C196.536 282.541 196.637 283.63 196.965 284.661C197.294 285.692 197.841 286.639 198.571 287.439C199.301 288.238 200.195 288.871 201.193 289.293C202.19 289.715 203.268 289.917 204.351 289.884H209.741L215.92 220.567Z" fill="white"/>
<path d="M295.891 289.922H208.033C206.95 289.954 205.873 289.752 204.875 289.33C203.878 288.908 202.983 288.276 202.254 287.476C201.524 286.677 200.976 285.729 200.648 284.699C200.32 283.668 200.219 282.579 200.352 281.505L205.028 229.021C205.262 226.74 206.326 224.623 208.019 223.072C209.711 221.521 211.915 220.643 214.212 220.605H302.07C303.153 220.572 304.23 220.774 305.228 221.196C306.225 221.618 307.12 222.25 307.849 223.05C308.579 223.849 309.127 224.797 309.455 225.828C309.783 226.858 309.884 227.948 309.751 229.021L305.075 281.505C304.841 283.787 303.777 285.903 302.084 287.454C300.392 289.005 298.188 289.883 295.891 289.922Z" fill="#005F9F"/>
<path opacity="0.2" d="M295.891 289.922H208.033C206.95 289.954 205.873 289.752 204.875 289.33C203.878 288.908 202.983 288.276 202.254 287.476C201.524 286.677 200.976 285.729 200.648 284.699C200.32 283.668 200.219 282.579 200.352 281.505L205.028 229.021C205.262 226.74 206.326 224.623 208.019 223.072C209.711 221.521 211.915 220.643 214.212 220.605H302.07C303.153 220.572 304.23 220.774 305.228 221.196C306.225 221.618 307.12 222.25 307.849 223.05C308.579 223.849 309.127 224.797 309.455 225.828C309.783 226.858 309.884 227.948 309.751 229.021L305.075 281.505C304.841 283.787 303.777 285.903 302.084 287.454C300.392 289.005 298.188 289.883 295.891 289.922Z" fill="black"/>
<path opacity="0.5" d="M256.601 250.165C256.605 249.727 256.668 249.292 256.788 248.871C256.227 248.707 255.646 248.619 255.061 248.609C253.746 248.609 252.46 248.998 251.367 249.727C250.274 250.456 249.421 251.493 248.918 252.705C248.415 253.918 248.283 255.252 248.54 256.539C248.796 257.826 249.43 259.008 250.359 259.936C251.289 260.864 252.474 261.496 253.764 261.752C255.053 262.008 256.39 261.877 257.605 261.375C258.82 260.873 259.858 260.022 260.589 258.931C261.319 257.84 261.709 256.557 261.709 255.244C261.039 255.247 260.375 255.117 259.756 254.863C259.136 254.609 258.573 254.235 258.098 253.763C257.623 253.291 257.247 252.73 256.99 252.113C256.733 251.495 256.601 250.833 256.601 250.165Z" fill="white"/>
<path d="M251.041 315.095H257.802L255.135 284.579C255.06 283.741 254.674 282.96 254.052 282.392C253.43 281.823 252.617 281.507 251.773 281.505C251.306 281.503 250.844 281.599 250.416 281.786C249.988 281.973 249.604 282.248 249.289 282.592C248.974 282.937 248.735 283.343 248.587 283.786C248.439 284.228 248.386 284.696 248.43 285.16L251.041 315.095Z" fill="#263238"/>
<path opacity="0.3" d="M251.041 315.095H257.802L255.135 284.579C255.06 283.741 254.674 282.96 254.052 282.392C253.43 281.823 252.617 281.507 251.773 281.505C251.306 281.503 250.844 281.599 250.416 281.786C249.988 281.973 249.604 282.248 249.289 282.592C248.974 282.937 248.735 283.343 248.587 283.786C248.439 284.228 248.386 284.696 248.43 285.16L251.041 315.095Z" fill="white"/>
<path d="M272.395 323.961C272.472 321.588 272.071 319.223 271.214 317.008C270.357 314.793 269.063 312.772 267.408 311.065C265.754 309.359 263.772 308.002 261.581 307.076C259.391 306.149 257.036 305.672 254.656 305.672C252.277 305.672 249.922 306.149 247.731 307.076C245.541 308.002 243.559 309.359 241.904 311.065C240.249 312.772 238.955 314.793 238.098 317.008C237.242 319.223 236.84 321.588 236.918 323.961H272.395Z" fill="#005F9F"/>
<path opacity="0.5" d="M272.395 323.961C272.472 321.588 272.071 319.223 271.214 317.008C270.357 314.793 269.063 312.772 267.408 311.065C265.754 309.359 263.772 308.002 261.581 307.076C259.391 306.149 257.036 305.672 254.656 305.672C252.277 305.672 249.922 306.149 247.731 307.076C245.541 308.002 243.559 309.359 241.904 311.065C240.249 312.772 238.955 314.793 238.098 317.008C237.242 319.223 236.84 321.588 236.918 323.961H272.395Z" fill="white"/>
<path d="M230.72 323.961H202.698C201.81 323.957 200.96 323.601 200.333 322.972C199.707 322.343 199.355 321.493 199.355 320.606C199.355 319.721 199.708 318.873 200.335 318.247C200.962 317.621 201.812 317.27 202.698 317.27H230.72C231.606 317.27 232.457 317.621 233.084 318.247C233.71 318.873 234.063 319.721 234.063 320.606C234.063 321.493 233.711 322.343 233.085 322.972C232.458 323.601 231.608 323.957 230.72 323.961Z" fill="#005F9F"/>
<path opacity="0.3" d="M230.72 323.961H202.698C201.81 323.957 200.96 323.601 200.333 322.972C199.707 322.343 199.355 321.493 199.355 320.606C199.355 319.721 199.708 318.873 200.335 318.247C200.962 317.621 201.812 317.27 202.698 317.27H230.72C231.606 317.27 232.457 317.621 233.084 318.247C233.71 318.873 234.063 319.721 234.063 320.606C234.063 321.493 233.711 322.343 233.085 322.972C232.458 323.601 231.608 323.957 230.72 323.961Z" fill="white"/>
<path d="M204.427 323.961H176.424C175.984 323.961 175.547 323.875 175.14 323.706C174.734 323.537 174.364 323.289 174.054 322.978C173.743 322.666 173.497 322.296 173.33 321.889C173.163 321.482 173.079 321.046 173.081 320.606C173.081 319.721 173.433 318.873 174.06 318.247C174.687 317.621 175.537 317.27 176.424 317.27H204.427C205.315 317.27 206.167 317.621 206.797 318.246C207.427 318.871 207.783 319.72 207.788 320.606C207.788 321.047 207.701 321.483 207.532 321.89C207.364 322.297 207.116 322.667 206.804 322.979C206.492 323.29 206.121 323.538 205.713 323.706C205.305 323.875 204.868 323.961 204.427 323.961Z" fill="#005F9F"/>
<path opacity="0.5" d="M204.427 323.961H176.424C175.984 323.961 175.547 323.875 175.14 323.706C174.734 323.537 174.364 323.289 174.054 322.978C173.743 322.666 173.497 322.296 173.33 321.889C173.163 321.482 173.079 321.046 173.081 320.606C173.081 319.721 173.433 318.873 174.06 318.247C174.687 317.621 175.537 317.27 176.424 317.27H204.427C205.315 317.27 206.167 317.621 206.797 318.246C207.427 318.871 207.783 319.72 207.788 320.606C207.788 321.047 207.701 321.483 207.532 321.89C207.364 322.297 207.116 322.667 206.804 322.979C206.492 323.29 206.121 323.538 205.713 323.706C205.305 323.875 204.868 323.961 204.427 323.961Z" fill="white"/>
<path d="M438.87 289.79C438.011 289.769 437.164 289.983 436.418 290.41C435.673 290.836 435.06 291.458 434.644 292.208C414.445 326.003 407.187 365.954 414.211 404.675C414.321 405.651 414.778 406.556 415.497 407.226C416.217 407.896 417.153 408.287 418.136 408.33C421.197 408.537 475.7 408.33 477.672 408.33C478.478 408.346 479.278 408.185 480.015 407.858C480.752 407.531 481.408 407.047 481.937 406.439C482.466 405.83 482.854 405.114 483.074 404.34C483.294 403.565 483.342 402.752 483.212 401.957C476.855 365.904 483.744 328.773 502.613 297.382C503.049 296.602 503.27 295.72 503.253 294.827C503.236 293.933 502.981 293.06 502.515 292.298C502.049 291.535 501.388 290.909 500.6 290.485C499.812 290.061 498.925 289.854 498.03 289.884C496.453 289.753 442.345 289.847 438.87 289.79Z" fill="#005F9F"/>
<path opacity="0.2" d="M438.87 289.79C438.011 289.769 437.164 289.983 436.418 290.41C435.673 290.836 435.06 291.458 434.644 292.208C414.445 326.003 407.187 365.954 414.211 404.675C414.321 405.651 414.778 406.556 415.497 407.226C416.217 407.896 417.153 408.287 418.136 408.33C421.197 408.537 475.7 408.33 477.672 408.33C478.478 408.346 479.278 408.185 480.015 407.858C480.752 407.531 481.408 407.047 481.937 406.439C482.466 405.83 482.854 405.114 483.074 404.34C483.294 403.565 483.342 402.752 483.212 401.957C476.855 365.904 483.744 328.773 502.613 297.382C503.049 296.602 503.27 295.72 503.253 294.827C503.236 293.933 502.981 293.06 502.515 292.298C502.049 291.535 501.388 290.909 500.6 290.485C499.812 290.061 498.925 289.854 498.03 289.884C496.453 289.753 442.345 289.847 438.87 289.79Z" fill="black"/>
<path d="M483.212 401.92C476.856 365.867 483.744 328.736 502.613 297.344C506.012 291.721 497.185 286.604 493.805 292.208C473.61 326.005 466.359 365.956 473.39 404.675C474.554 411.105 484.377 408.424 483.212 401.976V401.92Z" fill="#005F9F"/>
<g opacity="0.2">
<path opacity="0.2" d="M483.212 401.92C476.856 365.867 483.744 328.736 502.613 297.344C506.012 291.721 497.185 286.604 493.805 292.208C473.61 326.005 466.359 365.956 473.39 404.675C474.554 411.105 484.377 408.424 483.212 401.976V401.92Z" fill="white"/>
</g>
<path d="M449.8 543.122L402.472 525.727L354.618 543.14C354.234 543.278 353.823 543.322 353.418 543.268C353.013 543.215 352.627 543.065 352.293 542.832C351.958 542.599 351.684 542.289 351.494 541.929C351.304 541.568 351.203 541.167 351.2 540.76C351.201 540.277 351.341 539.804 351.604 539.398C351.868 538.993 352.242 538.671 352.684 538.473L402.472 515.417L451.754 538.454C452.185 538.662 452.55 538.986 452.806 539.391C453.061 539.795 453.198 540.263 453.2 540.741C453.2 541.148 453.102 541.548 452.914 541.909C452.726 542.27 452.454 542.581 452.121 542.814C451.787 543.048 451.402 543.198 450.998 543.251C450.594 543.305 450.184 543.26 449.8 543.122Z" fill="#263238"/>
<path opacity="0.3" d="M449.8 543.122L402.472 525.727L354.618 543.14C354.234 543.278 353.823 543.322 353.418 543.268C353.013 543.215 352.627 543.065 352.293 542.832C351.958 542.599 351.684 542.289 351.494 541.929C351.304 541.568 351.203 541.167 351.2 540.76C351.201 540.277 351.341 539.804 351.604 539.398C351.868 538.993 352.242 538.671 352.684 538.473L402.472 515.417L451.754 538.454C452.185 538.662 452.55 538.986 452.806 539.391C453.061 539.795 453.198 540.263 453.2 540.741C453.2 541.148 453.102 541.548 452.914 541.909C452.726 542.27 452.454 542.581 452.121 542.814C451.787 543.048 451.402 543.198 450.998 543.251C450.594 543.305 450.184 543.26 449.8 543.122Z" fill="white"/>
<path opacity="0.2" d="M391.316 529.851L402.472 525.802L413.102 529.701V520.46L402.472 515.474L391.316 520.647V529.851Z" fill="black"/>
<path d="M402.21 543.59C401.171 543.592 400.169 543.21 399.396 542.517C398.623 541.825 398.133 540.872 398.022 539.841L396.688 525.839V409.624H407.732V525.839L406.398 539.841C406.287 540.872 405.798 541.825 405.024 542.517C404.251 543.21 403.249 543.592 402.21 543.59Z" fill="#263238"/>
<path opacity="0.3" d="M402.21 543.59C401.171 543.592 400.169 543.21 399.396 542.517C398.623 541.825 398.133 540.872 398.022 539.841L396.688 525.839V409.624H407.732V525.839L406.398 539.841C406.287 540.872 405.798 541.825 405.024 542.517C404.251 543.21 403.249 543.592 402.21 543.59Z" fill="white"/>
<path opacity="0.2" d="M407.732 409.549H396.688V423.082H407.732V409.549Z" fill="black"/>
<path d="M314.972 398.958C327.471 395.8 340.283 394.039 353.173 393.71C366.432 393.391 416.089 393.71 427.883 393.71C442.26 393.701 456.582 395.483 470.516 399.014C479.268 401.245 476.564 413.86 468.638 414.01C467.943 414.01 317.846 414.01 317.301 414.01C309.037 414.31 306.032 401.245 314.972 398.958Z" fill="#005F9F"/>
<path opacity="0.3" d="M314.972 398.958C327.471 395.8 340.283 394.039 353.173 393.71C366.432 393.391 416.089 393.71 427.883 393.71C442.26 393.701 456.582 395.483 470.516 399.014C479.268 401.245 476.564 413.86 468.638 414.01C467.943 414.01 317.846 414.01 317.301 414.01C309.037 414.31 306.032 401.245 314.972 398.958Z" fill="black"/>
<path d="M466.46 413.672C441.143 407.262 414.624 407.262 389.307 413.672C379.785 416.109 375.71 401.395 385.251 398.958C413.229 391.873 442.538 391.873 470.516 398.958C480.038 401.395 476 416.109 466.46 413.672Z" fill="#005F9F"/>
<g opacity="0.3">
<path opacity="0.3" d="M466.46 413.672C441.143 407.262 414.624 407.262 389.307 413.672C379.785 416.109 375.71 401.395 385.251 398.958C413.229 391.873 442.538 391.873 470.516 398.958C480.038 401.395 476 416.109 466.46 413.672Z" fill="white"/>
</g>
<path d="M393.664 227.315C393.664 227.315 384.424 226.415 387.297 212.713C390.171 199.011 389.926 186.002 410.323 187.483C410.323 187.483 426.474 183.453 430.982 198.599C435.489 213.744 442.25 224.485 431.508 228.946C417.985 234.569 414.605 222.123 414.605 222.123L394.828 223.997L393.664 227.315Z" fill="#263238"/>
<path d="M390.641 247.372C378.94 245.703 384.574 286.323 374.076 293.82C368.272 297.832 339.087 287.054 339.087 287.054L334.974 273.933C334.871 273.597 334.695 273.288 334.458 273.028C334.221 272.769 333.929 272.566 333.603 272.433L327.518 270.015C327.117 269.869 326.684 269.833 326.264 269.912C325.845 269.991 325.455 270.182 325.135 270.465C324.816 270.747 324.579 271.111 324.449 271.516C324.32 271.922 324.303 272.356 324.4 272.77L326.597 282.461C326.69 282.884 326.898 283.274 327.198 283.586L335.669 292.565C335.669 292.565 370.47 309.435 378.865 306.604C388.706 303.361 392.35 285.479 394.791 274.832C396.707 266.772 399.599 248.646 390.641 247.372Z" fill="#B97964"/>
<path d="M377.043 490.768L380.593 518.154L370.601 518.417L363.408 491.987L377.043 490.768Z" fill="#B97964"/>
<path d="M370.47 516.879H381.87C382.109 516.885 382.34 516.968 382.527 517.117C382.713 517.266 382.846 517.473 382.903 517.704L385.232 528.351C385.285 528.574 385.292 528.805 385.255 529.031C385.217 529.257 385.134 529.473 385.012 529.666C384.89 529.86 384.73 530.027 384.542 530.159C384.354 530.29 384.142 530.383 383.918 530.432C383.793 530.45 383.666 530.45 383.542 530.432C378.828 530.432 374.64 530.057 368.761 530.057C361.831 530.057 363.578 530.881 355.427 530.975C350.525 530.975 349.642 525.446 351.671 525.183C361.211 524.002 363.916 521.134 367.597 517.685C368.42 517.067 369.445 516.78 370.47 516.879Z" fill="#263238"/>
<path opacity="0.1" d="M367.578 507.32L363.408 491.987L377.043 490.768L379.09 506.589L367.578 507.32Z" fill="black"/>
<path d="M411.432 326.361H395.299C392.636 333.608 390.925 341.168 390.209 348.854C389.364 360.288 411.432 351.816 411.432 351.816L413.31 336.145L411.432 326.361Z" fill="#263238"/>
<path d="M308.68 452.83L298.05 483.777L289.129 481.228L296.36 448.593L308.68 452.83Z" fill="#B97964"/>
<path d="M289.298 478.847L300.266 482.165C300.498 482.224 300.702 482.361 300.845 482.551C300.989 482.742 301.063 482.976 301.055 483.214L300.642 494.086C300.638 494.323 300.585 494.557 300.487 494.773C300.388 494.989 300.247 495.183 300.071 495.343C299.896 495.503 299.689 495.625 299.464 495.702C299.239 495.779 299.001 495.81 298.764 495.792C298.646 495.81 298.525 495.81 298.407 495.792C293.862 494.517 289.862 493.224 284.171 491.743C277.466 490 278.95 491.237 271.024 489.288C266.254 488.125 266.799 482.502 268.883 482.765C278.405 484.002 281.786 481.471 286.2 479.109C287.163 478.636 288.269 478.542 289.298 478.847Z" fill="#263238"/>
<path opacity="0.1" d="M302.877 469.7L292.284 466.982L296.36 448.593L308.68 452.83L302.877 469.7Z" fill="black"/>
<path d="M443.584 324.899C443.584 324.899 459.999 352.303 457.163 375.19C454.327 398.077 433.123 410.186 351.595 371.198C351.595 371.198 334.861 388.48 307.122 462.502L292.961 458.266C292.961 458.266 308.962 372.697 323.255 348.348C337.547 323.999 401.102 352.584 405.891 347.786C410.173 343.512 406.454 326.604 406.454 326.604L443.584 324.899Z" fill="#263238"/>
<path d="M310.577 461.096L307.61 466.813L290.632 461.096V454.535L310.577 461.096Z" fill="#005F9F"/>
<path d="M450.196 251.645L392.425 247.334C391.602 247.267 390.773 247.381 389.999 247.669C389.225 247.957 388.523 248.411 387.944 248.999C387.366 249.588 386.923 250.296 386.649 251.074C386.375 251.852 386.276 252.681 386.359 253.501C386.915 256.698 387.241 259.93 387.336 263.173C386.828 269.284 383.579 278.431 384.631 282.611C385.514 285.948 389.026 289.734 390.416 293.502C393.439 301.656 393.946 328.067 393.946 328.067C412.615 331.084 445.838 326.605 445.838 326.605C438.326 299.781 449.595 268.497 452.956 255.488C453.067 255.052 453.081 254.596 452.997 254.154C452.913 253.711 452.734 253.292 452.471 252.926C452.208 252.56 451.868 252.256 451.475 252.035C451.082 251.814 450.645 251.681 450.196 251.645Z" fill="#005F9F"/>
<path opacity="0.7" d="M450.196 251.645L392.425 247.334C391.602 247.267 390.773 247.381 389.999 247.669C389.225 247.957 388.523 248.411 387.944 248.999C387.366 249.588 386.923 250.296 386.649 251.074C386.375 251.852 386.276 252.681 386.359 253.501C386.915 256.698 387.241 259.93 387.336 263.173C386.828 269.284 383.579 278.431 384.631 282.611C385.514 285.948 389.026 289.734 390.416 293.502C393.439 301.656 393.946 328.067 393.946 328.067C412.615 331.084 445.838 326.605 445.838 326.605C438.326 299.781 449.595 268.497 452.956 255.488C453.067 255.052 453.081 254.596 452.997 254.154C452.913 253.711 452.734 253.292 452.471 252.926C452.208 252.56 451.868 252.256 451.475 252.035C451.082 251.814 450.645 251.681 450.196 251.645Z" fill="white"/>
<path opacity="0.1" d="M441.593 283.324L421.629 303.718L393.176 309.435H392.988C393.251 312.565 393.439 315.714 393.589 318.488C401.459 318.488 427.17 317.945 434.588 311.496C438.337 307.92 441.399 303.689 443.622 299.013C443.975 294.436 444.571 289.881 445.406 285.367L441.593 283.324Z" fill="black"/>
<path opacity="0.2" d="M342.28 378.883L337.829 375.434C337.829 375.434 322.109 383.925 329.922 408.105C334.099 399.244 338.732 390.604 343.801 382.219L342.28 378.883Z" fill="black"/>
<path d="M410.379 393.71C395.561 390.167 376.386 383.063 351.595 371.216C351.595 371.216 332.457 371.479 331.18 385.668C329.903 399.858 363.465 498.135 363.465 498.135L378.959 496.804C378.959 496.804 369.831 398.883 367.69 393.803L410.379 393.71Z" fill="#263238"/>
<path opacity="0.2" d="M351.595 371.198C349.377 371.283 347.174 371.597 345.021 372.135C355.417 380.998 367.077 388.27 379.616 393.71H410.379C395.561 390.167 376.386 383.063 351.595 371.198Z" fill="black"/>
<path d="M380.818 494.161L381.232 500.516L363.183 501.921L360.629 495.886L380.818 494.161Z" fill="#005F9F"/>
<path d="M422.924 224.803L410.322 237.156C412.426 247.315 404.97 248.271 404.97 248.271C404.97 248.271 405.571 251.852 414.698 251.364C418.784 251.32 422.852 250.83 426.831 249.902C421.328 245.516 422.136 232.151 422.924 224.803Z" fill="#B97964"/>
<path opacity="0.1" d="M410.436 242.892C410.809 240.994 410.77 239.038 410.323 237.156L421.592 226.134L422.681 227.409C422.681 227.409 420.409 241.467 410.436 242.892Z" fill="black"/>
<path d="M424.014 208.44C424.934 220.548 425.592 225.666 420.37 232.657C412.501 243.211 397.401 241.692 392.856 230.089C388.781 219.649 387.954 201.598 399.073 195.187C401.519 193.767 404.288 192.995 407.117 192.942C409.946 192.889 412.742 193.557 415.239 194.884C417.737 196.212 419.854 198.153 421.39 200.525C422.925 202.897 423.828 205.622 424.014 208.44Z" fill="#B97964"/>
<path d="M399.205 220.717C398.643 223.076 397.758 225.347 396.575 227.465C397.125 227.751 397.731 227.914 398.35 227.943C398.97 227.972 399.588 227.867 400.162 227.634L399.205 220.717Z" fill="#A24E3F"/>
<path d="M408.389 212.413C408.468 212.388 408.539 212.343 408.595 212.282C408.641 212.238 408.677 212.186 408.702 212.128C408.726 212.07 408.739 212.008 408.739 211.945C408.739 211.882 408.726 211.819 408.702 211.761C408.677 211.703 408.641 211.651 408.595 211.607C407.915 211.011 407.1 210.587 406.221 210.372C405.342 210.157 404.423 210.156 403.543 210.37C403.421 210.405 403.318 210.487 403.257 210.597C403.195 210.708 403.18 210.839 403.215 210.961C403.25 211.082 403.332 211.185 403.442 211.247C403.553 211.308 403.684 211.323 403.806 211.289C404.536 211.125 405.295 211.137 406.02 211.322C406.744 211.508 407.415 211.863 407.976 212.357C408.036 212.398 408.104 212.424 408.176 212.433C408.247 212.443 408.32 212.436 408.389 212.413Z" fill="#2E353A"/>
<path d="M390.453 214.082C390.532 214.056 390.603 214.011 390.659 213.95C391.141 213.386 391.749 212.942 392.434 212.656C393.119 212.369 393.862 212.248 394.603 212.301C394.729 212.314 394.855 212.281 394.958 212.209C395.062 212.136 395.136 212.029 395.167 211.907C395.178 211.779 395.139 211.651 395.059 211.55C394.979 211.449 394.863 211.382 394.735 211.364C393.834 211.282 392.927 211.419 392.09 211.761C391.253 212.104 390.511 212.643 389.927 213.332C389.881 213.375 389.845 213.428 389.821 213.486C389.796 213.544 389.783 213.606 389.783 213.669C389.783 213.732 389.796 213.795 389.821 213.852C389.845 213.91 389.881 213.963 389.927 214.007C389.996 214.071 390.082 214.115 390.176 214.132C390.269 214.148 390.365 214.137 390.453 214.1V214.082Z" fill="#2E353A"/>
<path d="M405.89 218.112C406.04 219.086 405.627 219.986 404.97 219.986C404.313 219.986 403.712 219.368 403.58 218.374C403.449 217.381 403.862 216.5 404.5 216.5C405.139 216.5 405.759 217.137 405.89 218.112Z" fill="#2E353A"/>
<path d="M394.81 219.649C394.96 220.623 394.547 221.523 393.908 221.523C393.27 221.523 392.65 220.886 392.5 219.911C392.349 218.936 392.781 218.037 393.42 218.037C394.058 218.037 394.697 218.655 394.81 219.649Z" fill="#2E353A"/>
<path d="M393.701 218.055L391.26 217.699C391.26 217.699 392.725 219.367 393.701 218.055Z" fill="#2E353A"/>
<path d="M404.782 216.518L402.341 216.181C402.341 216.181 403.806 217.83 404.782 216.518Z" fill="#2E353A"/>
<path d="M406.679 228.027C406.872 227.686 407.036 227.328 407.168 226.959C407.18 226.932 407.187 226.903 407.189 226.873C407.19 226.843 407.185 226.813 407.174 226.786C407.164 226.758 407.148 226.732 407.127 226.71C407.107 226.689 407.082 226.671 407.055 226.659C407.026 226.647 406.994 226.642 406.962 226.644C406.931 226.645 406.9 226.653 406.871 226.667C406.843 226.681 406.818 226.701 406.798 226.726C406.778 226.75 406.763 226.779 406.755 226.809C406.418 227.75 405.866 228.599 405.142 229.289C404.418 229.979 403.542 230.491 402.585 230.783C402.524 230.796 402.47 230.833 402.435 230.886C402.4 230.938 402.386 231.002 402.397 231.064C402.404 231.094 402.417 231.122 402.435 231.147C402.452 231.172 402.475 231.193 402.502 231.209C402.528 231.225 402.557 231.235 402.588 231.239C402.619 231.243 402.65 231.241 402.679 231.233C403.527 230.992 404.317 230.585 405.005 230.034C405.692 229.484 406.261 228.801 406.679 228.027Z" fill="#263238"/>
<path d="M414.624 190.726C406.83 188.852 398.754 192.863 398.754 192.863C398.754 192.863 389.739 200.867 391.805 208.608C392.757 207.907 393.834 207.392 394.979 207.09C394.664 204.156 395.484 201.213 397.27 198.861C396.788 201.413 396.891 204.04 397.571 206.546C401.334 206.175 405.134 206.623 408.708 207.858C408.708 207.858 410.266 204.653 408.708 197.699C410.744 201.324 411.817 205.408 411.825 209.564C411.919 216.762 421.216 218.505 421.216 218.505C421.216 218.505 427.019 217.887 426.963 210.126C426.906 202.366 422.418 192.732 414.624 190.726Z" fill="#263238"/>
<path d="M411.188 190.332C411.188 190.332 407.431 181.223 400.163 183.453C392.895 185.684 405.666 185.665 411.188 190.332Z" fill="#263238"/>
<path d="M428.147 217.549C427.969 218.699 427.565 219.802 426.959 220.796C426.353 221.79 425.557 222.655 424.616 223.341C422.08 225.216 419.752 223.154 419.545 220.211C419.376 217.568 420.484 213.426 423.47 212.713C424.121 212.591 424.792 212.63 425.424 212.829C426.056 213.028 426.629 213.379 427.092 213.852C427.555 214.325 427.893 214.905 428.077 215.541C428.261 216.176 428.285 216.847 428.147 217.493V217.549Z" fill="#B97964"/>
<path d="M450.927 251.383C445.18 249.509 437.311 271.383 434.024 278.206C432.672 281.037 430.494 287.372 428.841 292.377C428.155 294.517 426.951 296.456 425.336 298.022C423.722 299.588 421.745 300.733 419.582 301.356L388.8 310.072L376.292 306.323C375.829 306.183 375.34 306.149 374.862 306.223C374.384 306.298 373.929 306.479 373.531 306.754L367.239 311.028C366.779 311.343 366.404 311.766 366.145 312.259C365.886 312.752 365.753 313.301 365.755 313.858C365.747 314.321 365.834 314.78 366.013 315.207C366.191 315.634 366.457 316.019 366.792 316.338C367.128 316.657 367.526 316.903 367.962 317.06C368.398 317.217 368.862 317.282 369.324 317.251L387.917 315.789C387.917 315.789 417.967 317.532 431.113 310.166C444.26 302.799 460.9 254.794 450.927 251.383Z" fill="#B97964"/>
<path d="M426.963 317.326H320.287C319.515 317.326 318.775 317.632 318.229 318.177C317.683 318.722 317.376 319.461 317.376 320.231C317.376 321.002 317.683 321.741 318.229 322.286C318.775 322.831 319.515 323.137 320.287 323.137H426.963C427.735 323.137 428.476 322.831 429.021 322.286C429.567 321.741 429.874 321.002 429.874 320.231C429.874 319.461 429.567 318.722 429.021 318.177C428.476 317.632 427.735 317.326 426.963 317.326Z" fill="#263238"/>
<path opacity="0.3" d="M426.963 317.326H320.287C319.515 317.326 318.775 317.632 318.229 318.177C317.683 318.722 317.376 319.461 317.376 320.231C317.376 321.002 317.683 321.741 318.229 322.286C318.775 322.831 319.515 323.137 320.287 323.137H426.963C427.735 323.137 428.476 322.831 429.021 322.286C429.567 321.741 429.874 321.002 429.874 320.231C429.874 319.461 429.567 318.722 429.021 318.177C428.476 317.632 427.735 317.326 426.963 317.326Z" fill="white"/>
<path d="M321.864 321.356H358.281C358.506 321.36 358.73 321.308 358.93 321.205C359.131 321.101 359.303 320.951 359.431 320.765C359.56 320.58 359.64 320.365 359.665 320.142C359.691 319.918 359.66 319.691 359.577 319.482L339.631 262.517C339.362 261.741 338.854 261.069 338.179 260.597C337.505 260.126 336.698 259.88 335.875 259.893H299.459C299.235 259.894 299.014 259.949 298.816 260.053C298.617 260.158 298.447 260.308 298.32 260.492C298.193 260.676 298.112 260.889 298.085 261.111C298.057 261.333 298.084 261.558 298.163 261.767L318.165 318.788C318.44 319.545 318.944 320.198 319.606 320.658C320.269 321.118 321.057 321.362 321.864 321.356Z" fill="#263238"/>
<path opacity="0.5" d="M321.864 321.356H358.281C358.506 321.36 358.73 321.308 358.93 321.205C359.131 321.101 359.303 320.951 359.431 320.765C359.56 320.58 359.64 320.365 359.665 320.142C359.691 319.918 359.66 319.691 359.577 319.482L339.631 262.517C339.362 261.741 338.854 261.069 338.179 260.597C337.505 260.126 336.698 259.88 335.875 259.893H299.459C299.235 259.894 299.014 259.949 298.816 260.053C298.617 260.158 298.447 260.308 298.32 260.492C298.193 260.676 298.112 260.889 298.085 261.111C298.057 261.333 298.084 261.558 298.163 261.767L318.165 318.788C318.44 319.545 318.944 320.198 319.606 320.658C320.269 321.118 321.057 321.362 321.864 321.356Z" fill="white"/>
<path d="M320.1 321.356H356.573C356.798 321.36 357.021 321.308 357.222 321.205C357.423 321.101 357.595 320.95 357.723 320.765C357.851 320.58 357.932 320.365 357.957 320.142C357.982 319.918 357.952 319.691 357.868 319.482L337.885 262.517C337.611 261.744 337.102 261.075 336.429 260.604C335.755 260.134 334.951 259.885 334.129 259.893H297.713C297.487 259.891 297.264 259.944 297.064 260.047C296.863 260.15 296.69 260.3 296.561 260.485C296.431 260.669 296.349 260.882 296.321 261.106C296.292 261.329 296.319 261.557 296.398 261.767L316.4 318.751C316.672 319.513 317.173 320.173 317.836 320.639C318.498 321.106 319.289 321.356 320.1 321.356Z" fill="#263238"/>
<path d="M328.037 294.552C329.322 294.111 329.765 292.016 329.025 289.872C328.286 287.728 326.645 286.348 325.361 286.789C324.076 287.23 323.633 289.326 324.373 291.47C325.112 293.614 326.753 294.994 328.037 294.552Z" fill="white"/>
<path opacity="0.2" d="M363.014 323.137C362.242 323.137 361.501 322.831 360.955 322.286C360.409 321.741 360.103 321.002 360.103 320.231C360.103 319.461 360.409 318.722 360.955 318.177C361.501 317.632 362.242 317.326 363.014 317.326H426.869C427.641 317.326 428.382 317.632 428.927 318.177C429.473 318.722 429.78 319.461 429.78 320.231C429.78 321.002 429.473 321.741 428.927 322.286C428.382 322.831 427.641 323.137 426.869 323.137H363.014Z" fill="white"/>
<path d="M680.675 543.122C681.19 543.11 681.698 542.995 682.168 542.783C682.638 542.572 683.061 542.268 683.411 541.891C683.762 541.513 684.032 541.069 684.207 540.585C684.383 540.101 684.459 539.587 684.431 539.073L673.989 335.677H662.945L676.768 539.541C676.812 540.533 677.248 541.466 677.98 542.137C678.712 542.808 679.681 543.162 680.675 543.122Z" fill="#263238"/>
<path opacity="0.5" d="M680.675 543.122C681.19 543.11 681.698 542.995 682.168 542.783C682.638 542.572 683.061 542.268 683.411 541.891C683.762 541.513 684.032 541.069 684.207 540.585C684.383 540.101 684.459 539.587 684.431 539.073L673.989 335.677H662.945L676.768 539.541C676.812 540.533 677.248 541.466 677.98 542.137C678.712 542.808 679.681 543.162 680.675 543.122Z" fill="white"/>
<path opacity="0.2" d="M674.065 335.752H663.021L663.942 349.304H674.759L674.065 335.752Z" fill="black"/>
<path d="M526.315 543.122C525.799 543.11 525.291 542.995 524.821 542.783C524.351 542.572 523.928 542.268 523.578 541.891C523.227 541.513 522.957 541.069 522.782 540.585C522.606 540.101 522.531 539.587 522.558 539.073L532.944 335.752H543.987L530.183 539.617C530.098 540.579 529.653 541.475 528.936 542.124C528.219 542.774 527.283 543.13 526.315 543.122Z" fill="#263238"/>
<path opacity="0.5" d="M526.315 543.122C525.799 543.11 525.291 542.995 524.821 542.783C524.351 542.572 523.928 542.268 523.578 541.891C523.227 541.513 522.957 541.069 522.782 540.585C522.606 540.101 522.531 539.587 522.558 539.073L532.944 335.752H543.987L530.183 539.617C530.098 540.579 529.653 541.475 528.936 542.124C528.219 542.774 527.283 543.13 526.315 543.122Z" fill="white"/>
<path opacity="0.2" d="M532.23 349.304H543.048L543.969 335.752H532.925L532.23 349.304Z" fill="black"/>
<path d="M280.565 543.122C281.081 543.11 281.589 542.995 282.059 542.783C282.529 542.572 282.952 542.268 283.302 541.891C283.652 541.513 283.923 541.069 284.098 540.585C284.273 540.101 284.349 539.587 284.321 539.073L273.954 335.752H262.911L276.715 539.617C276.8 540.576 277.243 541.469 277.956 542.118C278.669 542.767 279.6 543.125 280.565 543.122Z" fill="#263238"/>
<path opacity="0.5" d="M280.565 543.122C281.081 543.11 281.589 542.995 282.059 542.783C282.529 542.572 282.952 542.268 283.302 541.891C283.652 541.513 283.923 541.069 284.098 540.585C284.273 540.101 284.349 539.587 284.321 539.073L273.954 335.752H262.911L276.715 539.617C276.8 540.576 277.243 541.469 277.956 542.118C278.669 542.767 279.6 543.125 280.565 543.122Z" fill="white"/>
<path opacity="0.2" d="M273.954 335.752H262.911L263.831 349.304H274.649L273.954 335.752Z" fill="black"/>
<path d="M126.204 543.122C125.689 543.11 125.181 542.995 124.711 542.783C124.241 542.572 123.818 542.268 123.467 541.891C123.117 541.513 122.846 541.069 122.671 540.585C122.496 540.101 122.42 539.587 122.448 539.073L132.909 335.752H143.952L130.129 539.616C130.066 540.598 129.62 541.515 128.885 542.171C128.151 542.826 127.188 543.168 126.204 543.122Z" fill="#263238"/>
<path opacity="0.5" d="M126.204 543.122C125.689 543.11 125.181 542.995 124.711 542.783C124.241 542.572 123.818 542.268 123.467 541.891C123.117 541.513 122.846 541.069 122.671 540.585C122.496 540.101 122.42 539.587 122.448 539.073L132.909 335.752H143.952L130.129 539.616C130.066 540.598 129.62 541.515 128.885 542.171C128.151 542.826 127.188 543.168 126.204 543.122Z" fill="white"/>
<path opacity="0.2" d="M132.12 349.304H142.938L143.858 335.752H132.815L132.12 349.304Z" fill="black"/>
<path d="M682.948 329.304H122.167V335.752H682.948V329.304Z" fill="#263238"/>
<path opacity="0.3" d="M682.948 329.304H122.167V335.752H682.948V329.304Z" fill="white"/>
<path opacity="0.2" d="M682.948 329.304H522.276V335.752H682.948V329.304Z" fill="black"/>
<path d="M697.39 322.856H107.724V329.304H697.39V322.856Z" fill="#005F9F"/>
<path opacity="0.3" d="M697.39 322.856H507.834V329.304H697.39V322.856Z" fill="black"/>
<path d="M566.993 323.137H538.972C538.085 323.137 537.235 322.785 536.608 322.159C535.981 321.534 535.629 320.685 535.629 319.8C535.629 318.915 535.981 318.067 536.608 317.441C537.235 316.815 538.085 316.464 538.972 316.464H566.993C567.88 316.464 568.73 316.815 569.357 317.441C569.984 318.067 570.336 318.915 570.336 319.8C570.336 320.685 569.984 321.534 569.357 322.159C568.73 322.785 567.88 323.137 566.993 323.137Z" fill="#005F9F"/>
<path opacity="0.3" d="M566.993 323.137H538.972C538.085 323.137 537.235 322.785 536.608 322.159C535.981 321.534 535.629 320.685 535.629 319.8C535.629 318.915 535.981 318.067 536.608 317.441C537.235 316.815 538.085 316.464 538.972 316.464H566.993C567.88 316.464 568.73 316.815 569.357 317.441C569.984 318.067 570.336 318.915 570.336 319.8C570.336 320.685 569.984 321.534 569.357 322.159C568.73 322.785 567.88 323.137 566.993 323.137Z" fill="white"/>
<path d="M540.7 323.137H512.698C511.809 323.137 510.957 322.786 510.327 322.161C509.697 321.535 509.341 320.687 509.336 319.8C509.341 318.914 509.697 318.065 510.327 317.44C510.957 316.815 511.809 316.464 512.698 316.464H540.7C541.589 316.464 542.441 316.815 543.071 317.44C543.701 318.065 544.057 318.914 544.062 319.8C544.057 320.687 543.701 321.535 543.071 322.161C542.441 322.786 541.589 323.137 540.7 323.137Z" fill="#005F9F"/>
<path opacity="0.5" d="M540.7 323.137H512.698C511.809 323.137 510.957 322.786 510.327 322.161C509.697 321.535 509.341 320.687 509.336 319.8C509.341 318.914 509.697 318.065 510.327 317.44C510.957 316.815 511.809 316.464 512.698 316.464H540.7C541.589 316.464 542.441 316.815 543.071 317.44C543.701 318.065 544.057 318.914 544.062 319.8C544.057 320.687 543.701 321.535 543.071 322.161C542.441 322.786 541.589 323.137 540.7 323.137Z" fill="white"/>
<path d="M446.776 221.636H441.386C440.302 221.6 439.222 221.8 438.222 222.221C437.222 222.642 436.326 223.274 435.594 224.074C434.862 224.873 434.313 225.822 433.983 226.854C433.654 227.886 433.552 228.977 433.686 230.052L438.287 282.536C438.517 284.821 439.579 286.942 441.272 288.497C442.965 290.052 445.171 290.932 447.471 290.971H452.861L446.776 221.636Z" fill="#005F9F"/>
<path d="M446.776 221.636H441.386C440.302 221.6 439.222 221.8 438.222 222.221C437.222 222.642 436.326 223.274 435.594 224.074C434.862 224.873 434.313 225.822 433.983 226.854C433.654 227.886 433.552 228.977 433.686 230.052L438.287 282.536C438.517 284.821 439.579 286.942 441.272 288.497C442.965 290.052 445.171 290.932 447.471 290.971H452.861L446.776 221.636Z" fill="#005F9F"/>
<path d="M492.358 314.289H485.597L488.545 280.699H495.306L492.358 314.289Z" fill="#263238"/>
<path opacity="0.3" d="M492.358 314.289H485.597L488.545 280.699H495.306L492.358 314.289Z" fill="white"/>
<path d="M539.009 290.99H451.152C448.852 290.951 446.646 290.071 444.953 288.516C443.26 286.961 442.198 284.84 441.968 282.555L437.367 230.071C437.233 228.996 437.335 227.905 437.664 226.873C437.993 225.841 438.543 224.892 439.274 224.092C440.006 223.292 440.903 222.66 441.903 222.24C442.903 221.819 443.982 221.619 445.067 221.654H532.943C535.241 221.693 537.444 222.571 539.137 224.122C540.829 225.673 541.893 227.789 542.127 230.071L546.728 282.555C546.846 283.629 546.733 284.716 546.397 285.744C546.06 286.771 545.509 287.715 544.779 288.513C544.048 289.311 543.156 289.945 542.161 290.372C541.167 290.799 540.092 291.01 539.009 290.99Z" fill="#005F9F"/>
<path opacity="0.5" d="M539.009 290.99H451.152C448.852 290.951 446.646 290.071 444.953 288.516C443.26 286.961 442.198 284.84 441.968 282.555L437.367 230.071C437.233 228.996 437.335 227.905 437.664 226.873C437.993 225.841 438.543 224.892 439.274 224.092C440.006 223.292 440.903 222.66 441.903 222.24C442.903 221.819 443.982 221.619 445.067 221.654H532.943C535.241 221.693 537.444 222.571 539.137 224.122C540.829 225.673 541.893 227.789 542.127 230.071L546.728 282.555C546.846 283.629 546.733 284.716 546.397 285.744C546.06 286.771 545.509 287.715 544.779 288.513C544.048 289.311 543.156 289.945 542.161 290.372C541.167 290.799 540.092 291.01 539.009 290.99Z" fill="white"/>
<path opacity="0.5" d="M533.225 225.028H445.368C444.723 225.016 444.083 225.142 443.49 225.396C442.898 225.65 442.366 226.028 441.931 226.503C441.495 226.978 441.167 227.54 440.966 228.152C440.765 228.764 440.697 229.412 440.767 230.052L445.368 282.536C445.51 283.899 446.145 285.164 447.155 286.092C448.165 287.021 449.479 287.549 450.852 287.579H538.71C539.355 287.588 539.996 287.46 540.588 287.203C541.181 286.947 541.712 286.568 542.147 286.091C542.582 285.614 542.911 285.051 543.112 284.438C543.312 283.826 543.38 283.177 543.311 282.536L538.71 230.052C538.564 228.692 537.926 227.432 536.917 226.507C535.908 225.583 534.595 225.057 533.225 225.028Z" fill="white"/>
<path d="M472.713 323.137C472.863 318.541 474.797 314.184 478.108 310.986C481.418 307.787 485.844 305.999 490.452 305.999C495.059 305.999 499.485 307.787 502.796 310.986C506.106 314.184 508.04 318.541 508.19 323.137H472.713Z" fill="#005F9F"/>
<path opacity="0.5" d="M472.713 323.137C472.863 318.541 474.797 314.184 478.108 310.986C481.418 307.787 485.844 305.999 490.452 305.999C495.059 305.999 499.485 307.787 502.796 310.986C506.106 314.184 508.04 318.541 508.19 323.137H472.713Z" fill="white"/>
<path d="M513.411 237.924H465.088C464.847 237.92 464.609 237.967 464.388 238.062C464.168 238.157 463.97 238.298 463.808 238.476C463.647 238.653 463.525 238.863 463.451 239.091C463.376 239.319 463.352 239.561 463.379 239.799C463.433 240.306 463.671 240.776 464.048 241.121C464.425 241.466 464.915 241.663 465.426 241.673H513.749C513.99 241.677 514.228 241.63 514.449 241.535C514.669 241.44 514.867 241.299 515.029 241.122C515.19 240.945 515.312 240.735 515.386 240.507C515.461 240.279 515.485 240.037 515.458 239.799C515.408 239.29 515.171 238.817 514.793 238.472C514.416 238.126 513.924 237.931 513.411 237.924Z" fill="white"/>
<path d="M507.421 245.778H465.783C465.543 245.774 465.304 245.821 465.084 245.916C464.863 246.011 464.665 246.152 464.504 246.33C464.342 246.507 464.22 246.717 464.146 246.945C464.072 247.173 464.047 247.414 464.074 247.653C464.125 248.162 464.361 248.634 464.739 248.98C465.117 249.326 465.609 249.521 466.121 249.527H507.759C507.999 249.531 508.237 249.484 508.458 249.389C508.678 249.294 508.876 249.153 509.038 248.976C509.2 248.799 509.322 248.589 509.396 248.361C509.47 248.132 509.494 247.891 509.468 247.653C509.413 247.145 509.175 246.675 508.798 246.33C508.422 245.985 507.932 245.789 507.421 245.778Z" fill="white"/>
<path d="M512.284 253.632H466.477C466.237 253.628 465.999 253.675 465.778 253.77C465.557 253.865 465.36 254.006 465.198 254.184C465.036 254.361 464.914 254.571 464.84 254.799C464.766 255.027 464.742 255.268 464.768 255.507C464.811 256.016 465.042 256.49 465.418 256.837C465.793 257.184 466.285 257.378 466.797 257.381H512.566C512.807 257.388 513.047 257.344 513.269 257.25C513.491 257.156 513.69 257.015 513.853 256.837C514.015 256.658 514.137 256.447 514.21 256.218C514.283 255.988 514.305 255.746 514.275 255.507C514.229 255.006 514.002 254.539 513.635 254.193C513.269 253.848 512.788 253.649 512.284 253.632Z" fill="white"/>
<path d="M506.237 261.467H467.21C466.97 261.463 466.731 261.51 466.511 261.605C466.29 261.701 466.092 261.841 465.93 262.019C465.769 262.196 465.647 262.406 465.573 262.634C465.499 262.862 465.474 263.104 465.501 263.342C465.555 263.849 465.793 264.319 466.17 264.664C466.547 265.009 467.037 265.206 467.548 265.216H506.65C506.89 265.221 507.129 265.174 507.349 265.078C507.57 264.983 507.768 264.842 507.929 264.665C508.091 264.488 508.213 264.278 508.287 264.05C508.361 263.822 508.386 263.58 508.359 263.342C508.307 262.82 508.06 262.337 507.666 261.989C507.273 261.642 506.762 261.455 506.237 261.467Z" fill="white"/>
<g opacity="0.6">
<path opacity="0.6" d="M513.411 237.924H465.088C464.847 237.92 464.609 237.967 464.388 238.062C464.168 238.157 463.97 238.298 463.808 238.476C463.647 238.653 463.525 238.863 463.451 239.091C463.376 239.319 463.352 239.561 463.379 239.799C463.433 240.306 463.671 240.776 464.048 241.121C464.425 241.466 464.915 241.663 465.426 241.673H513.749C513.99 241.677 514.228 241.63 514.449 241.535C514.669 241.44 514.867 241.299 515.029 241.122C515.19 240.945 515.312 240.735 515.386 240.507C515.461 240.279 515.485 240.037 515.458 239.799C515.408 239.29 515.171 238.817 514.793 238.472C514.416 238.126 513.924 237.931 513.411 237.924Z" fill="white"/>
<path opacity="0.6" d="M507.42 245.778H465.782C465.542 245.774 465.303 245.821 465.083 245.916C464.862 246.011 464.664 246.152 464.503 246.33C464.341 246.507 464.219 246.717 464.145 246.945C464.071 247.173 464.046 247.414 464.073 247.653C464.124 248.162 464.361 248.634 464.738 248.98C465.116 249.326 465.608 249.521 466.12 249.527H507.758C507.998 249.531 508.236 249.484 508.457 249.389C508.678 249.294 508.875 249.153 509.037 248.976C509.199 248.799 509.321 248.589 509.395 248.361C509.469 248.132 509.493 247.891 509.467 247.653C509.412 247.145 509.174 246.675 508.797 246.33C508.421 245.985 507.931 245.789 507.42 245.778Z" fill="white"/>
<path opacity="0.6" d="M512.284 253.632H466.477C466.237 253.628 465.999 253.675 465.778 253.77C465.557 253.865 465.36 254.006 465.198 254.184C465.036 254.361 464.914 254.571 464.84 254.799C464.766 255.027 464.742 255.268 464.768 255.507C464.811 256.016 465.042 256.49 465.418 256.837C465.793 257.184 466.285 257.378 466.797 257.381H512.566C512.807 257.389 513.047 257.344 513.269 257.25C513.491 257.156 513.69 257.015 513.853 256.837C514.015 256.658 514.137 256.447 514.21 256.218C514.283 255.988 514.305 255.746 514.275 255.507C514.229 255.006 514.002 254.539 513.635 254.193C513.269 253.848 512.788 253.649 512.284 253.632Z" fill="white"/>
<path opacity="0.6" d="M506.237 261.467H467.21C466.97 261.463 466.731 261.51 466.511 261.605C466.29 261.7 466.092 261.841 465.93 262.019C465.769 262.196 465.647 262.406 465.573 262.634C465.499 262.862 465.474 263.104 465.501 263.342C465.555 263.849 465.793 264.319 466.17 264.664C466.547 265.009 467.037 265.206 467.548 265.216H506.65C506.89 265.22 507.129 265.173 507.349 265.078C507.57 264.983 507.768 264.842 507.929 264.665C508.091 264.488 508.213 264.278 508.287 264.05C508.361 263.822 508.386 263.58 508.359 263.342C508.307 262.82 508.06 262.337 507.666 261.989C507.273 261.642 506.762 261.455 506.237 261.467Z" fill="white"/>
</g>
<path d="M611.524 193.931C611.524 193.931 600.405 196.049 600.593 189.283C600.781 182.516 612.256 185.665 612.256 185.665L611.524 193.931Z" fill="#1A2E35"/>
<path opacity="0.4" d="M611.524 193.931C611.524 193.931 600.405 196.049 600.593 189.283C600.781 182.516 612.256 185.665 612.256 185.665L611.524 193.931Z" fill="black"/>
<path d="M604.574 210.126L599.484 218.112C600.42 218.703 601.482 219.067 602.585 219.175C603.687 219.282 604.8 219.13 605.832 218.73L604.574 210.126Z" fill="#A24E3F"/>
<path d="M601.494 209.021C601.494 210.051 602.02 210.895 602.696 210.895C603.372 210.895 603.973 210.033 603.954 209.021C603.936 208.008 603.447 207.146 602.753 207.146C602.058 207.146 601.532 207.99 601.494 209.021Z" fill="#1A2E35"/>
<path d="M641.291 202.591C641.742 216.275 642.23 222.067 636.014 229.696C626.173 237.793 609.721 238.749 605.157 225.478C601.081 213.519 601.025 193.2 613.852 186.452C616.678 184.986 619.831 184.261 623.015 184.345C626.198 184.429 629.308 185.32 632.052 186.934C634.796 188.548 637.084 190.832 638.7 193.57C640.316 196.309 641.208 199.414 641.291 202.591Z" fill="#B97964"/>
<path opacity="0.2" d="M622.04 235.525L621.947 234.85C621.893 234.502 621.766 234.169 621.574 233.872C621.383 233.576 621.131 233.323 620.835 233.131C620.539 232.938 620.206 232.809 619.857 232.754C619.508 232.698 619.151 232.716 618.81 232.807L613.176 234.326C615.984 235.456 619.032 235.868 622.04 235.525Z" fill="black"/>
<path d="M605.213 204.353C605.122 204.365 605.03 204.355 604.944 204.322C604.859 204.289 604.783 204.235 604.724 204.166C604.306 203.644 603.769 203.23 603.158 202.956C602.548 202.682 601.881 202.557 601.212 202.591C601.071 202.602 600.932 202.561 600.82 202.474C600.709 202.387 600.634 202.262 600.611 202.123C600.601 202.052 600.605 201.98 600.623 201.911C600.641 201.843 600.673 201.778 600.717 201.722C600.761 201.666 600.816 201.619 600.878 201.585C600.941 201.551 601.01 201.53 601.081 201.523C601.922 201.448 602.77 201.58 603.549 201.906C604.328 202.233 605.015 202.745 605.551 203.397C605.653 203.499 605.71 203.637 605.71 203.781C605.71 203.926 605.653 204.064 605.551 204.166C605.511 204.219 605.46 204.263 605.402 204.296C605.344 204.328 605.279 204.348 605.213 204.353Z" fill="#1A2E35"/>
<path d="M621.533 232.076L624.538 252.376L641.535 248.871L636.089 228.084L621.533 232.076Z" fill="#B97964"/>
<path d="M614.697 212.376L611.824 214.663C610.602 209.461 610.982 204.012 612.913 199.03L609.495 193.838L610.021 190.332C610.021 190.332 604.706 181.747 608.856 179.198C613.007 176.649 615.655 181.954 615.655 181.954C615.655 181.954 618.51 173.481 623.505 174.643C628.501 175.805 625.947 181.11 625.947 181.11C625.947 181.11 634.023 175.28 637.835 178.148C641.648 181.016 636.877 185.028 636.877 185.028C636.877 185.028 646.55 185.253 646.869 189.058C647.188 192.863 642.925 193.2 642.925 193.2C642.925 193.2 649.31 195.412 649.198 198.824C649.085 202.235 644.108 202.422 644.108 202.422C644.108 202.422 650.588 206.546 649.198 210.145C648.852 211.125 648.135 211.931 647.202 212.39C646.268 212.849 645.191 212.924 644.202 212.601C644.202 212.601 647.564 216.893 646.437 219.218C646.043 219.902 645.46 220.459 644.757 220.822C644.054 221.184 643.262 221.337 642.474 221.261L636.953 231.045C635.493 230.553 633.93 230.449 632.418 230.745C630.906 231.041 629.497 231.726 628.332 232.732L618.416 216.462L614.697 212.376Z" fill="#1A2E35"/>
<path d="M612.988 208.683C612.744 210.049 612.773 211.448 613.073 212.803C613.372 214.157 613.937 215.439 614.734 216.575C616.875 219.592 620.369 218.243 621.683 215.019C622.923 212.095 623.28 207.015 620.162 205.14C619.478 204.735 618.703 204.507 617.909 204.476C617.114 204.446 616.324 204.615 615.611 204.967C614.898 205.319 614.284 205.843 613.826 206.492C613.368 207.141 613.08 207.895 612.988 208.683Z" fill="#B97964"/>
<path d="M644.972 246.659L641.61 237.175C637.311 235.571 632.676 235.073 628.133 235.728C623.59 236.383 619.286 238.17 615.617 240.924L625.158 246.547L644.972 246.659Z" fill="#263238"/>
<path opacity="0.2" d="M643.413 242.292C635.736 240.494 627.696 241.009 620.312 243.773L625.158 246.659H644.972L643.413 242.292Z" fill="black"/>
<path d="M585.53 309.172L572.984 302.893C572.621 302.731 572.227 302.647 571.829 302.647C571.431 302.647 571.038 302.731 570.674 302.893L560.42 306.942C559.92 307.134 559.486 307.467 559.169 307.899C558.853 308.331 558.668 308.844 558.635 309.378L558.448 312.715C558.422 313.178 558.511 313.641 558.707 314.061C558.903 314.482 559.199 314.849 559.571 315.128C559.942 315.408 560.376 315.592 560.835 315.665C561.294 315.738 561.764 315.696 562.204 315.545L565.96 314.233C572.013 316.673 578.741 316.872 584.929 314.795L585.53 309.172Z" fill="#B97964"/>
<path d="M537.883 309.903L525.432 303.549C525.075 303.372 524.685 303.272 524.286 303.256C523.888 303.24 523.491 303.308 523.121 303.455L512.848 307.598C512.349 307.8 511.917 308.14 511.605 308.578C511.292 309.017 511.111 309.535 511.083 310.072L510.895 313.446C510.866 313.911 510.953 314.375 511.148 314.799C511.342 315.222 511.638 315.591 512.01 315.873C512.381 316.155 512.817 316.341 513.277 316.414C513.738 316.488 514.21 316.447 514.651 316.295L518.407 314.983C524.456 317.444 531.192 317.644 537.376 315.545L537.883 309.903Z" fill="#B97964"/>
<path d="M651.845 250.24C645.704 255.451 630.341 270.746 610.396 306.567H584.91C584.91 306.567 581.304 309.491 582.788 316.857C582.788 316.857 608.931 326.136 616.03 322.968C623.129 319.8 646.08 284.692 656.372 272.189C659.94 267.859 666.081 262.067 657.217 250.802C656.906 250.406 656.519 250.076 656.078 249.833C655.637 249.589 655.152 249.436 654.651 249.384C654.149 249.331 653.643 249.38 653.161 249.527C652.679 249.674 652.232 249.916 651.845 250.24Z" fill="#263238"/>
<path opacity="0.2" d="M623.374 300.493L617.252 294.739C615.035 298.488 612.744 302.33 610.396 306.567H604.312L608.18 323.437C610.824 323.932 613.547 323.791 616.125 323.024C618.003 322.181 620.951 319.144 624.482 314.889L623.374 300.493Z" fill="black"/>
<path d="M618.754 494.986L624.576 523.14L636.051 521.434L633.29 494.03L618.754 494.986Z" fill="#B97964"/>
<path opacity="0.2" d="M635.112 512.1L633.29 494.03L618.754 494.986L622.397 512.587L635.112 512.1Z" fill="black"/>
<path d="M686.948 365.181C686.948 365.181 692.77 395.697 672.824 395.697C652.879 395.697 626.304 402.22 626.304 402.22C626.304 402.22 633.948 409.455 635.694 501.809L619.129 502.521C619.129 502.521 591.615 398.283 597.043 386.83C604.687 370.691 644.277 365.181 644.277 365.181H686.948Z" fill="#005F9F"/>
<path d="M617.214 499.26L636.352 498.697L637.328 508.013L618.435 508.838L617.214 499.26Z" fill="#005F9F"/>
<path opacity="0.5" d="M617.214 499.26L636.352 498.697L637.328 508.013L618.435 508.838L617.214 499.26Z" fill="white"/>
<path d="M619.336 524.902C618.103 525.195 616.805 525.021 615.693 524.415C615.549 524.249 615.46 524.042 615.44 523.824C615.42 523.605 615.469 523.386 615.58 523.196C615.655 523.02 615.765 522.861 615.904 522.729C616.043 522.597 616.208 522.494 616.387 522.428C618.266 521.641 622.773 523.515 622.98 523.59C623.032 523.615 623.076 523.656 623.106 523.705C623.136 523.755 623.151 523.813 623.149 523.871C623.14 523.929 623.116 523.984 623.08 524.03C623.044 524.076 622.996 524.111 622.942 524.134C621.764 524.492 620.558 524.749 619.336 524.902ZM617.139 522.821C616.958 522.84 616.781 522.884 616.613 522.953C616.499 522.99 616.395 523.051 616.308 523.132C616.22 523.212 616.151 523.311 616.106 523.421C615.937 523.796 616.106 523.946 616.106 524.04C616.744 524.752 619.768 524.396 621.965 523.871C620.461 523.229 618.849 522.873 617.214 522.821H617.139Z" fill="#005F9F"/>
<path d="M622.98 524.134H622.848C621.346 523.684 618.172 521.434 618.266 520.066C618.266 519.729 618.454 519.316 619.224 519.129C619.787 519.009 620.374 519.117 620.858 519.429C622.102 520.609 622.943 522.15 623.262 523.834C623.283 523.874 623.294 523.919 623.294 523.965C623.294 524.011 623.283 524.056 623.262 524.096C623.226 524.134 623.179 524.158 623.127 524.165C623.076 524.172 623.024 524.161 622.98 524.134ZM619.468 519.654H619.336C618.848 519.766 618.829 519.972 618.81 520.047C618.81 520.853 620.97 522.653 622.567 523.365C622.26 522.025 621.545 520.814 620.519 519.897C620.225 519.689 619.862 519.602 619.505 519.654H619.468Z" fill="#005F9F"/>
<path d="M624.031 522.315L637.178 520.759C637.417 520.729 637.659 520.781 637.864 520.907C638.069 521.033 638.225 521.226 638.305 521.453L641.929 531.762C642.01 531.979 642.047 532.209 642.037 532.44C642.028 532.671 641.973 532.897 641.875 533.107C641.777 533.316 641.639 533.504 641.467 533.659C641.296 533.815 641.096 533.934 640.878 534.012L640.502 534.106C635.788 534.593 631.581 534.837 625.721 535.53C618.81 536.374 620.651 536.992 612.575 538.079C607.692 538.717 606.133 533.281 608.161 532.756C617.552 530.413 618.171 527.432 621.439 523.609C622.12 522.881 623.04 522.422 624.031 522.315Z" fill="#263238"/>
<path opacity="0.1" d="M631.582 390.561H602.434L596.255 393.166C596.835 401.984 598.021 410.752 599.805 419.408L629.121 410.973C627.506 403.382 626.248 402.201 626.248 402.201C626.248 402.201 628.915 401.545 633.178 400.645L631.582 390.561Z" fill="black"/>
<path opacity="0.1" d="M651.264 392.679C650.91 394.281 650.703 395.912 650.645 397.552C657.362 396.521 664.135 395.895 670.928 395.678C673.089 393.417 674.372 390.461 674.544 387.341C674.716 384.221 673.767 381.142 671.867 378.658L660.185 383.962L651.264 392.679Z" fill="black"/>
<path d="M585.155 502.54L595.973 528.782L606.528 526.664L599.279 498.585L585.155 502.54Z" fill="#B97964"/>
<path opacity="0.2" d="M604.105 517.329L599.279 498.585L585.155 502.54L592.198 519.597L604.105 517.329Z" fill="black"/>
<path d="M672.58 366.924C672.58 366.924 678.421 397.44 658.456 397.44C638.492 397.44 578.618 415.809 578.618 415.809C578.618 415.809 587.427 419.052 602.714 504.246L585.417 508.163C585.417 508.163 542.221 415.266 547.611 403.813C555.255 387.693 629.872 366.924 629.872 366.924H672.58Z" fill="#005F9F"/>
<path d="M583.295 507.039L603.823 502.652L605.945 511.125L586.262 515.661L583.295 507.039Z" fill="#005F9F"/>
<path opacity="0.5" d="M583.295 507.039L603.823 502.652L605.945 511.125L586.262 515.661L583.295 507.039Z" fill="white"/>
<path d="M589.455 530.001C588.228 530.273 586.943 530.1 585.831 529.513C585.685 529.344 585.596 529.134 585.576 528.913C585.555 528.691 585.605 528.468 585.718 528.276C585.793 528.1 585.903 527.941 586.042 527.809C586.181 527.676 586.346 527.574 586.526 527.508C588.404 526.72 592.911 528.595 593.099 528.67C593.152 528.696 593.198 528.736 593.231 528.785C593.264 528.834 593.283 528.892 593.287 528.951C593.282 529.01 593.26 529.067 593.223 529.113C593.187 529.16 593.137 529.195 593.08 529.213C591.897 529.579 590.684 529.843 589.455 530.001ZM587.277 527.901C587.096 527.916 586.918 527.96 586.751 528.032C586.635 528.064 586.528 528.123 586.44 528.205C586.352 528.287 586.285 528.388 586.244 528.501C586.075 528.876 586.244 529.026 586.244 529.12C586.882 529.832 589.906 529.494 592.104 528.951C590.577 528.293 588.939 527.931 587.277 527.882V527.901Z" fill="#005F9F"/>
<path d="M593.042 529.195H592.911C591.409 528.745 588.216 526.495 588.31 525.127C588.31 524.79 588.497 524.377 589.267 524.208C589.545 524.141 589.833 524.132 590.114 524.18C590.395 524.228 590.663 524.334 590.901 524.49C592.156 525.665 593.004 527.207 593.324 528.895C593.346 528.935 593.357 528.98 593.357 529.026C593.357 529.072 593.346 529.117 593.324 529.157C593.289 529.195 593.241 529.219 593.19 529.226C593.139 529.233 593.087 529.221 593.042 529.195ZM589.53 524.715H589.286C588.779 524.827 588.779 525.033 588.76 525.108C588.76 525.933 590.92 527.732 592.517 528.426C592.217 527.088 591.508 525.877 590.488 524.958C590.194 524.75 589.831 524.663 589.474 524.715H589.53Z" fill="#005F9F"/>
<path d="M594.094 527.376L607.147 525.82C607.386 525.786 607.63 525.837 607.836 525.963C608.042 526.09 608.197 526.285 608.274 526.514L611.917 536.824C612.074 537.263 612.049 537.747 611.848 538.169C611.647 538.591 611.287 538.916 610.847 539.073L610.49 539.167C605.776 539.654 601.569 539.898 595.709 540.61C588.779 541.435 590.638 542.053 582.562 543.14C577.679 543.796 576.102 538.342 578.149 537.817C587.539 535.493 588.159 532.494 591.408 528.67C592.117 527.929 593.071 527.469 594.094 527.376Z" fill="#263238"/>
<path d="M601.813 249.134C601.803 248.541 601.913 247.952 602.136 247.403C602.359 246.854 602.691 246.355 603.112 245.936C603.533 245.518 604.034 245.189 604.585 244.969C605.136 244.748 605.727 244.641 606.321 244.654L644.803 245.404C649.417 245.495 653.927 246.793 657.881 249.168C661.836 251.543 665.097 254.911 667.34 258.937C676.261 274.832 687.999 307.354 687.717 368.573H623.862C623.862 368.573 602.189 289.116 601.813 249.134Z" fill="#263238"/>
<path opacity="0.4" d="M602.753 264.579C603.673 273.783 605.176 283.923 606.997 294.177C616.669 273.951 611.486 257.4 611.486 257.4L602.753 264.579Z" fill="black"/>
<path d="M601.944 246.359C597.456 251.589 590.488 262.049 569.378 300.4L537.094 307.26C537.094 307.26 533.488 310.222 534.971 317.682C534.971 317.682 569.622 323.624 576.722 320.419C583.821 317.214 601.945 289.997 610.264 275.919C613.701 270.109 615.523 258.656 605.194 246.397C604.995 246.161 604.748 245.97 604.469 245.839C604.19 245.707 603.886 245.637 603.578 245.633C603.269 245.63 602.963 245.693 602.681 245.818C602.4 245.943 602.148 246.128 601.944 246.359Z" fill="#263238"/>
<path d="M714.349 542.747L667.002 525.352L619.148 542.766C618.765 542.904 618.354 542.949 617.951 542.895C617.547 542.841 617.162 542.692 616.828 542.458C616.495 542.224 616.222 541.914 616.035 541.553C615.847 541.192 615.749 540.792 615.749 540.385C615.753 539.905 615.892 539.435 616.151 539.031C616.41 538.626 616.779 538.303 617.214 538.098L667.002 515.005L716.302 538.061C716.736 538.266 717.101 538.59 717.357 538.995C717.613 539.4 717.749 539.869 717.749 540.348C717.756 540.757 717.663 541.163 717.478 541.528C717.293 541.894 717.021 542.209 716.686 542.446C716.35 542.682 715.962 542.833 715.555 542.886C715.148 542.938 714.734 542.891 714.349 542.747Z" fill="#263238"/>
<path opacity="0.3" d="M714.349 542.747L667.002 525.352L619.148 542.766C618.765 542.904 618.354 542.949 617.951 542.895C617.547 542.841 617.162 542.692 616.828 542.458C616.495 542.224 616.222 541.914 616.035 541.553C615.847 541.192 615.749 540.792 615.749 540.385C615.753 539.905 615.892 539.435 616.151 539.031C616.41 538.626 616.779 538.303 617.214 538.098L667.002 515.005L716.302 538.061C716.736 538.266 717.101 538.59 717.357 538.995C717.613 539.4 717.749 539.869 717.749 540.348C717.756 540.757 717.663 541.163 717.478 541.528C717.293 541.894 717.021 542.209 716.686 542.446C716.35 542.682 715.962 542.833 715.555 542.886C715.148 542.938 714.734 542.891 714.349 542.747Z" fill="white"/>
<path opacity="0.2" d="M655.847 529.419L667.003 525.352L677.651 529.27V520.028L667.003 515.042L655.847 520.216V529.419Z" fill="black"/>
<path d="M666.758 543.122C665.719 543.123 664.717 542.741 663.944 542.049C663.17 541.357 662.681 540.403 662.57 539.373L661.236 525.371V409.155H672.28V525.371L670.927 539.373C670.816 540.4 670.33 541.351 669.56 542.043C668.791 542.734 667.793 543.118 666.758 543.122Z" fill="#263238"/>
<path opacity="0.3" d="M666.758 543.122C665.719 543.123 664.717 542.741 663.944 542.049C663.17 541.357 662.681 540.403 662.57 539.373L661.236 525.371V409.155H672.28V525.371L670.927 539.373C670.816 540.4 670.33 541.351 669.56 542.043C668.791 542.734 667.793 543.118 666.758 543.122Z" fill="white"/>
<path opacity="0.2" d="M672.28 409.099H661.236V422.632H672.28V409.099Z" fill="black"/>
<path d="M743.554 398.527C731.058 395.35 718.244 393.59 705.353 393.278C692.075 392.941 642.437 393.278 630.642 393.278C616.265 393.27 601.944 395.052 588.009 398.583C579.257 400.814 581.943 413.41 589.887 413.579C590.601 413.579 740.699 413.579 741.243 413.579C749.47 413.879 752.493 400.795 743.554 398.527Z" fill="#005F9F"/>
<path opacity="0.3" d="M743.554 398.527C731.058 395.35 718.244 393.59 705.353 393.278C692.075 392.941 642.437 393.278 630.642 393.278C616.265 393.27 601.944 395.052 588.009 398.583C579.257 400.814 581.943 413.41 589.887 413.579C590.601 413.579 740.699 413.579 741.243 413.579C749.47 413.879 752.493 400.795 743.554 398.527Z" fill="black"/>
<path d="M592.066 413.241C617.374 406.812 643.892 406.812 669.2 413.241C678.741 415.659 682.816 400.945 673.275 398.527C645.297 391.442 615.988 391.442 588.01 398.527C578.488 400.945 582.525 415.678 592.066 413.241Z" fill="#005F9F"/>
<g opacity="0.3">
<path opacity="0.3" d="M592.066 413.241C617.374 406.812 643.892 406.812 669.2 413.241C678.741 415.659 682.816 400.945 673.275 398.527C645.297 391.442 615.988 391.442 588.01 398.527C578.488 400.945 582.525 415.678 592.066 413.241Z" fill="white"/>
</g>
<path d="M703.399 289.34C702.539 289.321 701.69 289.538 700.944 289.968C700.199 290.398 699.587 291.024 699.174 291.777C678.976 325.573 671.724 365.525 678.759 404.244C678.852 405.235 679.301 406.16 680.021 406.849C680.742 407.537 681.688 407.943 682.684 407.993C685.745 408.199 740.229 407.993 742.22 407.993C743.027 408.012 743.829 407.853 744.568 407.527C745.306 407.202 745.964 406.717 746.493 406.108C747.022 405.499 747.41 404.781 747.629 404.005C747.848 403.229 747.893 402.415 747.76 401.62C741.397 365.567 748.286 328.433 767.161 297.044C769.49 293.183 766.053 289.547 762.578 289.547C761.001 289.303 706.874 289.415 703.399 289.34Z" fill="#005F9F"/>
<path opacity="0.2" d="M703.399 289.34C702.539 289.321 701.69 289.538 700.944 289.968C700.199 290.398 699.587 291.024 699.174 291.777C678.976 325.573 671.724 365.525 678.759 404.244C678.852 405.235 679.301 406.16 680.021 406.849C680.742 407.537 681.688 407.943 682.684 407.993C685.745 408.199 740.229 407.993 742.22 407.993C743.027 408.012 743.829 407.853 744.568 407.527C745.306 407.202 745.964 406.717 746.493 406.108C747.022 405.499 747.41 404.781 747.629 404.005C747.848 403.229 747.893 402.415 747.76 401.62C741.397 365.567 748.286 328.433 767.161 297.044C769.49 293.183 766.053 289.547 762.578 289.547C761.001 289.303 706.874 289.415 703.399 289.34Z" fill="black"/>
<path d="M688.581 401.47C682.226 365.417 689.115 328.286 707.982 296.895C711.381 291.271 702.554 286.154 699.174 291.777C678.976 325.573 671.724 365.525 678.759 404.244C679.923 410.673 689.746 407.993 688.581 401.545V401.47Z" fill="#005F9F"/>
<g opacity="0.2">
<path opacity="0.2" d="M688.581 401.47C682.226 365.417 689.115 328.286 707.982 296.895C711.381 291.271 702.554 286.154 699.174 291.777C678.976 325.573 671.724 365.525 678.759 404.244C679.923 410.673 689.746 407.993 688.581 401.545V401.47Z" fill="white"/>
</g>
</svg>
