<svg width="56" height="56" viewBox="0 0 56 56" fill="none" xmlns="http://www.w3.org/2000/svg">
<path fill-rule="evenodd" clip-rule="evenodd" d="M22.7787 3.5C18.9338 3.5 15.8169 6.51793 15.8169 10.2407V14.9074H27.8661V16.2037H10.4617C6.61688 16.2037 3.5 19.2216 3.5 22.9444L3.5 33.0555C3.5 36.7783 6.61688 39.7963 10.4617 39.7963H14.4781V34.0926C14.4781 30.3698 17.595 27.3518 21.4399 27.3518H34.2923C37.5457 27.3518 40.183 24.7982 40.183 21.6481V10.2407C40.183 6.51793 37.0662 3.5 33.2213 3.5H22.7787ZM21.1721 11.7963C22.503 11.7963 23.582 10.7516 23.582 9.46296C23.582 8.1743 22.503 7.12963 21.1721 7.12963C19.8412 7.12963 18.7623 8.1743 18.7623 9.46296C18.7623 10.7516 19.8412 11.7963 21.1721 11.7963Z" fill="url(#paint0_linear)"/>
<path fill-rule="evenodd" clip-rule="evenodd" d="M33.2213 52.4999C37.0661 52.4999 40.183 49.482 40.183 45.7592V41.0925L28.1338 41.0925L28.1338 39.7962L45.5382 39.7962C49.3831 39.7962 52.4999 36.7783 52.4999 33.0555V22.9444C52.4999 19.2215 49.3831 16.2036 45.5382 16.2036L41.5218 16.2036V21.9073C41.5218 25.6301 38.4049 28.6481 34.5601 28.6481L21.7076 28.648C18.4543 28.648 15.8169 31.2017 15.8169 34.3518L15.8169 45.7592C15.8169 49.482 18.9338 52.4999 22.7786 52.4999H33.2213ZM34.8278 44.2036C33.4969 44.2036 32.418 45.2483 32.418 46.5369C32.418 47.8256 33.4969 48.8703 34.8278 48.8703C36.1587 48.8703 37.2376 47.8256 37.2376 46.5369C37.2376 45.2483 36.1587 44.2036 34.8278 44.2036Z" fill="url(#paint1_linear)"/>
<defs>
<linearGradient id="paint0_linear" x1="21.8415" y1="3.5" x2="21.8415" y2="39.7963" gradientUnits="userSpaceOnUse">
<stop stop-color="#327EBD"/>
<stop offset="1" stop-color="#1565A7"/>
</linearGradient>
<linearGradient id="paint1_linear" x1="34.1584" y1="16.2036" x2="34.1584" y2="52.4999" gradientUnits="userSpaceOnUse">
<stop stop-color="#FFDA4B"/>
<stop offset="1" stop-color="#F9C600"/>
</linearGradient>
</defs>
</svg>
